<?xml version="1.0" encoding="UTF-8"?>
<svg width="252px" height="114px" viewBox="0 0 252 114" version="1.1" xmlns="http://www.w3.org/2000/svg" xmlns:xlink="http://www.w3.org/1999/xlink">
    <!-- Generator: Sketch 43.2 (39069) - http://www.bohemiancoding.com/sketch -->
    <title>Slice 1</title>
    <desc>Created with Sketch.</desc>
    <defs></defs>
    <g id="Page-1" stroke="none" stroke-width="1" fill="none" fill-rule="evenodd">
        <g id="asendorf">
            <path d="M236.914,39.799 C236.914,38.106 237.039,36.978 237.288,35.914 C237.538,34.851 237.929,34.02 238.461,33.423 C238.993,32.826 239.677,32.413 240.513,32.185 C241.349,31.957 242.353,31.843 243.525,31.843 L251.439,31.843 L251.439,35.914 L245.772,35.914 C245.295,35.914 244.887,35.969 244.551,36.077 C244.215,36.185 243.943,36.392 243.737,36.696 C243.53,37 243.378,37.418 243.281,37.95 C243.183,38.482 243.134,38.931 243.134,39.799 L248.801,39.799 L248.801,43.871 L243.134,43.871 L243.134,65.659 L236.914,65.659 L236.914,43.871 L231.019,43.871 L231.019,39.799 L236.914,39.799" id="Fill-1" fill="#00A982"></path>
            <path d="M229.27,43.871 L224.393,43.871 C223.613,43.871 222.97,43.92 222.471,44.017 C221.973,44.114 221.581,44.326 221.299,44.652 C221.016,44.978 220.827,45.456 220.729,46.085 C220.631,46.715 220.582,47.562 220.582,48.626 L220.582,65.659 L214.329,65.659 L214.329,47.681 C214.329,44.902 215.073,42.893 216.56,41.656 C218.047,40.418 220.224,39.799 223.09,39.799 L229.27,39.799 L229.27,43.871" id="Fill-2" fill="#00A982"></path>
            <path d="M195.006,57.093 C195.006,58.678 195.185,59.835 195.543,60.562 C195.901,61.289 196.537,61.653 197.448,61.653 L201.91,61.653 C202.844,61.653 203.485,61.3 203.832,60.594 C204.179,59.889 204.353,58.754 204.353,57.191 L204.353,48.234 C204.353,46.737 204.179,45.635 203.832,44.929 C203.485,44.223 202.844,43.871 201.91,43.871 L197.448,43.871 C196.537,43.871 195.901,44.223 195.543,44.929 C195.185,45.634 195.006,46.737 195.006,48.234 L195.006,57.093 Z M204.027,39.799 C205.2,39.799 206.204,39.946 207.04,40.239 C207.876,40.532 208.571,41.01 209.124,41.672 C209.678,42.334 210.085,43.203 210.346,44.278 C210.606,45.352 210.737,46.671 210.737,48.234 L210.737,57.191 C210.737,58.776 210.606,60.106 210.346,61.181 C210.085,62.255 209.684,63.124 209.141,63.786 C208.598,64.449 207.903,64.926 207.056,65.219 C206.209,65.512 205.2,65.659 204.027,65.659 L195.397,65.659 C194.181,65.659 193.149,65.512 192.303,65.219 C191.456,64.926 190.767,64.448 190.234,63.786 C189.703,63.124 189.312,62.255 189.062,61.181 C188.813,60.106 188.687,58.776 188.687,57.191 L188.687,48.234 C188.687,46.671 188.812,45.352 189.062,44.278 C189.312,43.203 189.703,42.334 190.234,41.672 C190.767,41.01 191.456,40.532 192.303,40.239 C193.149,39.946 194.181,39.799 195.397,39.799 L204.027,39.799 L204.027,39.799 Z" id="Fill-3" fill="#00A982"></path>
            <path d="M170.524,54.39 C170.524,56.018 170.589,57.31 170.719,58.266 C170.849,59.221 171.083,59.954 171.42,60.464 C171.756,60.974 172.217,61.3 172.804,61.441 C173.39,61.583 174.15,61.653 175.083,61.653 L178.926,61.653 L178.926,43.871 L173.064,43.871 C172.608,43.871 172.217,43.935 171.892,44.066 C171.566,44.196 171.3,44.424 171.094,44.75 C170.888,45.076 170.741,45.526 170.654,46.101 C170.567,46.677 170.524,47.399 170.524,48.267 L170.524,54.39 Z M185.18,31.843 L185.18,65.659 L171.077,65.659 C169.884,65.659 168.863,65.491 168.016,65.154 C167.169,64.817 166.474,64.286 165.932,63.558 C165.389,62.831 164.993,61.897 164.743,60.757 C164.493,59.617 164.368,58.244 164.368,56.637 L164.368,48.821 C164.368,47.214 164.493,45.841 164.743,44.701 C164.993,43.561 165.389,42.628 165.932,41.9 C166.474,41.173 167.169,40.64 168.016,40.304 C168.863,39.968 169.883,39.799 171.077,39.799 L178.926,39.799 L178.926,31.843 L185.18,31.843 L185.18,31.843 Z" id="Fill-4" fill="#00A982"></path>
            <path d="M153.979,39.799 C155.173,39.799 156.194,39.924 157.04,40.174 C157.887,40.424 158.576,40.858 159.108,41.477 C159.64,42.095 160.026,42.915 160.265,43.935 C160.503,44.956 160.623,46.237 160.623,47.779 L160.623,65.659 L154.467,65.659 L154.467,48.234 C154.467,47.366 154.424,46.649 154.337,46.085 C154.25,45.521 154.109,45.075 153.914,44.75 C153.719,44.424 153.463,44.196 153.148,44.066 C152.834,43.936 152.459,43.871 152.025,43.871 L145.837,43.871 L145.837,65.659 L139.551,65.659 L139.551,39.799 L153.979,39.799" id="Fill-5" fill="#00A982"></path>
            <path d="M121.214,51.231 L127.989,51.231 C128.423,51.231 128.792,51.193 129.096,51.117 C129.4,51.041 129.645,50.867 129.829,50.596 C130.014,50.324 130.149,49.939 130.236,49.44 C130.323,48.94 130.366,48.267 130.366,47.42 C130.366,46.639 130.328,46.009 130.252,45.531 C130.176,45.054 130.051,44.695 129.878,44.456 C129.704,44.218 129.465,44.06 129.161,43.984 C128.857,43.909 128.466,43.871 127.989,43.871 L123.657,43.871 C123.158,43.871 122.751,43.935 122.436,44.066 C122.121,44.196 121.876,44.424 121.703,44.75 C121.529,45.075 121.404,45.516 121.328,46.069 C121.253,46.622 121.214,47.323 121.214,48.17 L121.214,51.231 Z M130.529,39.799 C132.223,39.799 133.564,40.418 134.552,41.656 C135.539,42.893 136.033,44.826 136.033,47.453 C136.033,50.123 135.572,52.04 134.649,53.201 C133.726,54.363 132.353,54.944 130.529,54.944 L121.214,54.944 L121.214,57.224 C121.214,58.201 121.263,58.982 121.361,59.569 C121.459,60.155 121.627,60.605 121.866,60.92 C122.105,61.235 122.43,61.436 122.843,61.523 C123.255,61.609 123.776,61.653 124.406,61.653 L133.818,61.653 L133.818,65.659 L121.573,65.659 C120.4,65.659 119.391,65.512 118.544,65.219 C117.697,64.926 117.002,64.448 116.459,63.786 C115.917,63.124 115.52,62.255 115.271,61.181 C115.021,60.106 114.896,58.776 114.896,57.191 L114.896,48.234 C114.896,46.671 115.021,45.352 115.271,44.278 C115.52,43.203 115.917,42.334 116.459,41.672 C117.002,41.01 117.697,40.532 118.544,40.239 C119.391,39.946 120.4,39.799 121.573,39.799 L130.529,39.799 L130.529,39.799 Z" id="Fill-6" fill="#00A982"></path>
            <path d="M109.946,39.799 L109.946,43.871 L97.57,43.871 C96.875,43.871 96.332,44.104 95.941,44.571 C95.55,45.037 95.355,45.824 95.355,46.932 C95.355,47.974 95.55,48.75 95.941,49.261 C96.332,49.771 96.875,50.026 97.57,50.026 L106.07,50.026 C106.982,50.026 107.791,50.216 108.496,50.596 C109.202,50.976 109.793,51.497 110.271,52.159 C110.749,52.822 111.112,53.603 111.362,54.504 C111.612,55.405 111.737,56.377 111.737,57.419 C111.737,60.046 111.243,62.076 110.255,63.51 C109.267,64.942 107.785,65.659 105.809,65.659 L90.73,65.659 L90.73,61.653 L104.507,61.653 C105.028,61.653 105.451,61.382 105.777,60.839 C106.102,60.296 106.265,59.471 106.265,58.364 C106.265,57.256 106.102,56.442 105.777,55.921 C105.451,55.4 105.028,55.139 104.507,55.139 L95.648,55.139 C94.693,55.139 93.857,54.944 93.14,54.553 C92.424,54.162 91.821,53.614 91.333,52.908 C90.844,52.202 90.48,51.378 90.242,50.433 C90.003,49.489 89.883,48.463 89.883,47.355 C89.883,44.989 90.399,43.138 91.43,41.802 C92.462,40.467 94.031,39.799 96.136,39.799 L109.946,39.799" id="Fill-7" fill="#00A982"></path>
            <path d="M75.618,53.446 C74.771,53.446 74.082,53.511 73.55,53.641 C73.018,53.771 72.595,53.989 72.28,54.293 C71.965,54.596 71.748,54.993 71.628,55.481 C71.509,55.97 71.449,56.572 71.449,57.289 C71.449,60.198 71.981,61.653 73.045,61.653 L80.666,61.653 L80.666,53.446 L75.618,53.446 Z M80.21,39.799 C81.448,39.799 82.49,39.924 83.337,40.174 C84.183,40.424 84.873,40.858 85.405,41.477 C85.937,42.095 86.322,42.915 86.561,43.935 C86.8,44.956 86.919,46.237 86.919,47.779 L86.919,65.659 L71.221,65.659 C70.353,65.659 69.56,65.458 68.844,65.056 C68.127,64.655 67.508,64.096 66.987,63.379 C66.466,62.663 66.065,61.81 65.782,60.823 C65.5,59.835 65.359,58.765 65.359,57.615 C65.359,56.485 65.5,55.427 65.782,54.439 C66.065,53.451 66.466,52.588 66.987,51.85 C67.508,51.111 68.127,50.531 68.844,50.107 C69.56,49.684 70.353,49.472 71.221,49.472 L80.699,49.472 L80.699,47.258 C80.699,45.911 80.514,45.01 80.145,44.554 C79.776,44.099 79.146,43.871 78.256,43.871 L68.616,43.871 L68.616,39.799 L80.21,39.799 L80.21,39.799 Z" id="Fill-8" fill="#00A982"></path>
            <path d="M71.819,69.681 C71.38,69.681 70.949,69.769 70.529,69.945 C70.111,70.119 69.736,70.366 69.409,70.687 C68.694,71.39 68.334,72.263 68.334,73.3 C68.334,74.339 68.692,75.215 69.409,75.921 C69.739,76.244 70.116,76.491 70.534,76.665 C70.952,76.839 71.38,76.926 71.819,76.926 C72.257,76.926 72.685,76.839 73.103,76.665 C73.521,76.491 73.898,76.244 74.227,75.921 C74.947,75.214 75.303,74.339 75.303,73.3 C75.303,72.263 74.945,71.391 74.227,70.687 C73.9,70.366 73.528,70.12 73.108,69.945 C72.687,69.769 72.257,69.681 71.819,69.681 Z M77.476,73.3 C77.476,74.052 77.334,74.772 77.048,75.464 C76.763,76.155 76.354,76.766 75.82,77.296 C75.286,77.827 74.674,78.238 73.983,78.526 C73.289,78.816 72.569,78.959 71.819,78.959 C71.068,78.959 70.348,78.815 69.656,78.526 C68.963,78.238 68.351,77.828 67.817,77.296 C67.285,76.767 66.874,76.155 66.588,75.464 C66.303,74.772 66.161,74.052 66.161,73.3 C66.161,72.551 66.303,71.83 66.588,71.142 C66.874,70.452 67.284,69.84 67.817,69.307 C68.35,68.772 68.963,68.365 69.656,68.078 C70.348,67.792 71.068,67.648 71.819,67.648 C72.569,67.648 73.289,67.792 73.983,68.078 C74.674,68.364 75.286,68.772 75.82,69.307 C76.354,69.841 76.763,70.453 77.048,71.142 C77.334,71.83 77.476,72.551 77.476,73.3 Z M78.779,78.669 L78.779,70.837 L80.672,70.837 L80.672,71.707 C80.902,71.286 81.151,70.989 81.414,70.813 C81.68,70.634 82.009,70.547 82.405,70.547 L82.405,72.43 C81.939,72.474 81.557,72.652 81.259,72.971 C80.962,73.29 80.812,73.69 80.812,74.173 L80.812,78.669 L78.779,78.669 Z M83.708,78.669 L83.708,72.577 L82.698,72.577 L82.698,70.837 L83.708,70.837 L83.708,68.514 L85.741,68.514 L85.741,70.837 L86.754,70.837 L86.754,72.577 L85.741,72.577 L85.741,78.669 L83.708,78.669 Z M87.767,67.934 L89.8,67.934 L89.8,71.707 C90.353,70.933 91.079,70.547 91.975,70.547 C92.894,70.547 93.633,70.865 94.187,71.499 C94.742,72.133 95.019,72.976 95.019,74.023 L95.019,78.669 L92.988,78.669 L92.988,74.023 C92.988,73.566 92.836,73.184 92.534,72.882 C92.232,72.58 91.852,72.43 91.393,72.43 C90.936,72.43 90.556,72.58 90.254,72.882 C89.952,73.184 89.8,73.566 89.8,74.023 L89.8,78.669 L87.767,78.669 L87.767,67.934 Z M100.248,72.43 C99.689,72.43 99.198,72.645 98.768,73.068 C98.302,73.527 98.067,74.086 98.067,74.753 C98.067,75.418 98.302,75.979 98.768,76.438 C99.198,76.861 99.689,77.076 100.248,77.076 C100.799,77.076 101.295,76.863 101.727,76.438 C102.192,75.981 102.421,75.418 102.421,74.753 C102.421,74.086 102.192,73.525 101.727,73.068 C101.295,72.642 100.799,72.43 100.248,72.43 Z M104.454,74.753 C104.454,75.314 104.348,75.851 104.135,76.363 C103.922,76.875 103.617,77.33 103.221,77.726 C102.825,78.123 102.37,78.427 101.858,78.64 C101.345,78.853 100.809,78.959 100.248,78.959 C99.685,78.959 99.148,78.853 98.633,78.64 C98.118,78.427 97.667,78.122 97.272,77.726 C96.877,77.329 96.571,76.875 96.356,76.363 C96.141,75.851 96.034,75.314 96.034,74.753 C96.034,74.19 96.141,73.653 96.356,73.141 C96.571,72.628 96.877,72.174 97.272,71.777 C97.667,71.381 98.118,71.075 98.633,70.863 C99.147,70.652 99.685,70.547 100.248,70.547 C100.809,70.547 101.346,70.652 101.858,70.863 C102.371,71.075 102.825,71.381 103.221,71.777 C103.617,72.173 103.922,72.628 104.135,73.141 C104.348,73.653 104.454,74.19 104.454,74.753 Z M109.893,72.43 C109.308,72.43 108.813,72.653 108.404,73.099 C107.996,73.545 107.79,74.096 107.79,74.753 C107.79,75.408 107.995,75.959 108.404,76.407 C108.812,76.854 109.308,77.076 109.893,77.076 C110.478,77.076 110.976,76.854 111.385,76.407 C111.793,75.959 111.996,75.408 111.996,74.753 C111.996,74.096 111.792,73.545 111.385,73.099 C110.975,72.653 110.478,72.43 109.893,72.43 Z M105.757,81.572 L105.757,70.837 L107.79,70.837 L107.79,71.85 C108.061,71.443 108.418,71.124 108.866,70.892 C109.315,70.66 109.796,70.547 110.311,70.547 C110.746,70.547 111.181,70.643 111.621,70.839 C112.061,71.035 112.454,71.313 112.804,71.666 C113.618,72.487 114.029,73.515 114.029,74.753 C114.029,75.991 113.619,77.016 112.804,77.84 C112.454,78.194 112.062,78.47 111.621,78.667 C111.182,78.863 110.746,78.959 110.311,78.959 C109.796,78.959 109.314,78.844 108.866,78.613 C108.418,78.383 108.061,78.062 107.79,77.656 L107.79,81.572 L105.757,81.572 Z M119.031,72.43 C118.453,72.43 117.959,72.654 117.547,73.102 C117.133,73.551 116.927,74.1 116.927,74.753 C116.927,75.403 117.134,75.954 117.547,76.402 C117.96,76.851 118.453,77.076 119.031,77.076 C119.606,77.076 120.101,76.85 120.513,76.402 C120.925,75.953 121.134,75.403 121.134,74.753 C121.134,74.1 120.926,73.551 120.513,73.102 C120.102,72.655 119.606,72.43 119.031,72.43 Z M123.167,70.837 L123.167,78.669 L121.134,78.669 L121.134,77.656 C120.892,78.048 120.543,78.363 120.085,78.601 C119.627,78.839 119.137,78.959 118.612,78.959 C118.196,78.959 117.771,78.865 117.336,78.676 C116.903,78.488 116.51,78.226 116.161,77.891 C115.316,77.076 114.895,76.027 114.895,74.753 C114.895,73.479 115.316,72.431 116.161,71.615 C116.51,71.278 116.903,71.018 117.336,70.829 C117.771,70.641 118.196,70.547 118.612,70.547 C119.132,70.547 119.626,70.668 120.097,70.916 C120.567,71.164 120.912,71.475 121.134,71.85 L121.134,70.837 L123.167,70.837 Z M116.927,69.674 L118.668,69.674 L118.668,68.224 L116.927,68.224 L116.927,69.674 Z M119.831,69.674 L121.571,69.674 L121.571,68.224 L119.831,68.224 L119.831,69.674 Z M128.606,72.43 C128.132,72.43 127.69,72.597 127.281,72.94 C126.759,73.378 126.503,73.984 126.503,74.753 C126.503,75.522 126.762,76.123 127.281,76.559 C127.692,76.904 128.132,77.076 128.606,77.076 C129.077,77.076 129.52,76.904 129.931,76.559 C130.448,76.124 130.709,75.522 130.709,74.753 C130.709,73.984 130.45,73.377 129.931,72.94 C129.522,72.596 129.077,72.43 128.606,72.43 Z M132.742,67.934 L132.742,78.669 L130.709,78.669 L130.709,77.656 C130.496,78.033 130.153,78.346 129.682,78.592 C129.211,78.837 128.712,78.959 128.187,78.959 C127.767,78.959 127.339,78.863 126.901,78.669 C126.464,78.476 126.072,78.207 125.722,77.862 C124.888,77.04 124.47,76.002 124.47,74.753 C124.47,73.501 124.888,72.466 125.722,71.644 C126.072,71.299 126.464,71.03 126.901,70.837 C127.339,70.643 127.767,70.547 128.187,70.547 C128.712,70.547 129.21,70.668 129.682,70.914 C130.152,71.161 130.496,71.47 130.709,71.85 L130.709,67.934 L132.742,67.934 Z M134.335,69.384 L136.368,69.384 L136.368,67.934 L134.335,67.934 L134.335,69.384 Z M134.335,78.669 L136.368,78.669 L136.368,70.837 L134.335,70.837 L134.335,78.669 Z M143.738,74.03 C143.639,73.59 143.393,73.215 143.001,72.901 C142.61,72.587 142.187,72.43 141.735,72.43 C141.28,72.43 140.86,72.588 140.468,72.901 C140.074,73.216 139.83,73.59 139.73,74.03 L143.738,74.03 Z M139.73,75.483 C139.863,75.964 140.117,76.351 140.492,76.641 C140.867,76.931 141.28,77.076 141.735,77.076 C142.022,77.076 142.309,77.009 142.598,76.88 C142.887,76.751 143.137,76.576 143.349,76.353 L145.621,76.353 C145.298,77.146 144.78,77.779 144.074,78.251 C143.369,78.722 142.588,78.959 141.735,78.959 C141.191,78.959 140.666,78.855 140.156,78.647 C139.646,78.44 139.194,78.14 138.795,77.755 C138.391,77.366 138.077,76.926 137.857,76.428 C137.637,75.93 137.528,75.411 137.528,74.874 C137.528,73.58 137.961,72.519 138.831,71.693 C139.218,71.325 139.666,71.042 140.168,70.844 C140.673,70.645 141.195,70.547 141.735,70.547 C142.274,70.547 142.794,70.649 143.296,70.851 C143.799,71.055 144.249,71.337 144.638,71.707 C145.51,72.536 145.941,73.593 145.941,74.874 C145.941,75.058 145.921,75.261 145.885,75.483 L139.73,75.483 Z M147.393,78.669 L149.426,78.669 L149.426,76.636 L147.393,76.636 L147.393,78.669 Z M153.045,75.623 C153.045,76.092 153.147,76.451 153.35,76.701 C153.552,76.951 153.841,77.076 154.216,77.076 C154.54,77.076 154.816,76.956 155.042,76.721 C155.268,76.485 155.383,76.184 155.383,75.814 C155.383,75.517 155.294,75.246 155.117,75 C154.941,74.755 154.697,74.56 154.385,74.419 L152.869,73.74 C152.309,73.489 151.861,73.092 151.52,72.565 C151.177,72.036 151.005,71.461 151.005,70.837 C151.005,69.94 151.332,69.179 151.984,68.555 C152.615,67.951 153.36,67.648 154.216,67.648 C155.064,67.648 155.805,67.95 156.432,68.555 C157.078,69.178 157.401,69.94 157.401,70.837 L155.226,70.837 C155.226,70.426 155.14,70.106 154.962,69.877 C154.784,69.647 154.535,69.534 154.216,69.534 C153.913,69.534 153.664,69.64 153.471,69.855 C153.278,70.07 153.181,70.339 153.181,70.66 C153.181,71.207 153.486,71.619 154.094,71.898 L155.603,72.592 C156.204,72.868 156.678,73.284 157.029,73.832 C157.381,74.381 157.556,74.978 157.556,75.623 C157.556,76.049 157.476,76.462 157.312,76.863 C157.149,77.264 156.919,77.619 156.623,77.932 C155.974,78.617 155.173,78.959 154.216,78.959 C153.26,78.959 152.456,78.61 151.801,77.913 C151.506,77.6 151.279,77.243 151.116,76.841 C150.953,76.44 150.872,76.034 150.872,75.623 L150.872,75.483 L153.045,75.483 L153.045,75.623 Z M166.827,76.056 C166.534,76.938 166.012,77.644 165.263,78.169 C164.511,78.696 163.631,78.959 162.621,78.959 C162.062,78.959 161.528,78.853 161.013,78.64 C160.499,78.427 160.043,78.124 159.645,77.726 C159.248,77.33 158.945,76.875 158.734,76.363 C158.522,75.85 158.414,75.314 158.414,74.753 C158.414,74.19 158.522,73.654 158.734,73.141 C158.945,72.629 159.248,72.173 159.645,71.777 C160.043,71.38 160.498,71.075 161.013,70.863 C161.527,70.652 162.062,70.547 162.621,70.547 C163.631,70.547 164.512,70.809 165.263,71.335 C166.013,71.86 166.534,72.565 166.827,73.443 L164.639,73.443 C164.451,73.145 164.178,72.901 163.822,72.713 C163.465,72.524 163.099,72.43 162.727,72.43 C162.079,72.43 161.539,72.654 161.103,73.099 C160.667,73.546 160.447,74.096 160.447,74.753 C160.447,75.408 160.666,75.959 161.103,76.407 C161.538,76.853 162.079,77.076 162.727,77.076 C163.119,77.076 163.488,76.981 163.834,76.796 C164.182,76.609 164.451,76.363 164.639,76.056 L166.827,76.056 Z M168.137,67.934 L170.17,67.934 L170.17,71.707 C170.724,70.933 171.449,70.547 172.346,70.547 C173.264,70.547 174.003,70.865 174.557,71.499 C175.112,72.133 175.389,72.976 175.389,74.023 L175.389,78.669 L173.359,78.669 L173.359,74.023 C173.359,73.566 173.206,73.184 172.904,72.882 C172.602,72.58 172.223,72.43 171.763,72.43 C171.306,72.43 170.927,72.58 170.624,72.882 C170.322,73.184 170.17,73.566 170.17,74.023 L170.17,78.669 L168.137,78.669 L168.137,67.934 Z M183.804,78.669 L181.771,78.669 L181.771,77.799 C181.563,78.157 181.266,78.44 180.879,78.647 C180.492,78.855 180.064,78.959 179.598,78.959 C178.672,78.959 177.934,78.65 177.381,78.029 C176.828,77.408 176.552,76.559 176.552,75.483 L176.552,70.837 L178.585,70.837 L178.585,75.483 C178.585,75.945 178.735,76.327 179.032,76.627 C179.33,76.926 179.711,77.076 180.178,77.076 C180.656,77.076 181.041,76.928 181.333,76.636 C181.626,76.344 181.771,75.959 181.771,75.483 L181.771,70.837 L183.804,70.837 L183.804,78.669 Z M185.547,67.934 L187.58,67.934 L187.58,71.707 C188.134,70.933 188.859,70.547 189.756,70.547 C190.674,70.547 191.413,70.865 191.968,71.499 C192.522,72.133 192.799,72.976 192.799,74.023 L192.799,78.669 L190.769,78.669 L190.769,74.023 C190.769,73.566 190.616,73.184 190.314,72.882 C190.012,72.58 189.632,72.43 189.173,72.43 C188.716,72.43 188.336,72.58 188.035,72.882 C187.732,73.184 187.58,73.566 187.58,74.023 L187.58,78.669 L185.547,78.669 L185.547,67.934 Z M194.395,78.669 L196.428,78.669 L196.428,76.636 L194.395,76.636 L194.395,78.669 Z M199.396,78.669 L199.396,69.964 L197.583,69.964 L197.583,67.934 L203.382,67.934 L203.382,69.964 L201.569,69.964 L201.569,78.669 L199.396,78.669 Z M210.175,74.03 C210.076,73.59 209.83,73.215 209.438,72.901 C209.047,72.587 208.623,72.43 208.171,72.43 C207.717,72.43 207.296,72.588 206.904,72.901 C206.511,73.216 206.266,73.59 206.167,74.03 L210.175,74.03 Z M206.167,75.483 C206.3,75.964 206.554,76.351 206.929,76.641 C207.303,76.931 207.717,77.076 208.171,77.076 C208.459,77.076 208.746,77.009 209.034,76.88 C209.324,76.751 209.573,76.576 209.786,76.353 L212.058,76.353 C211.734,77.146 211.217,77.779 210.511,78.251 C209.805,78.722 209.025,78.959 208.171,78.959 C207.627,78.959 207.103,78.855 206.593,78.647 C206.083,78.44 205.63,78.14 205.232,77.755 C204.828,77.366 204.514,76.926 204.294,76.428 C204.074,75.93 203.965,75.411 203.965,74.874 C203.965,73.58 204.398,72.519 205.268,71.693 C205.654,71.325 206.102,71.042 206.605,70.844 C207.11,70.645 207.632,70.547 208.171,70.547 C208.71,70.547 209.23,70.649 209.733,70.851 C210.236,71.054 210.685,71.337 211.075,71.707 C211.947,72.536 212.378,73.593 212.378,74.874 C212.378,75.058 212.358,75.261 212.322,75.483 L206.167,75.483 Z M221.662,76.056 C221.37,76.938 220.848,77.644 220.098,78.169 C219.347,78.696 218.466,78.959 217.456,78.959 C216.898,78.959 216.363,78.853 215.849,78.64 C215.334,78.427 214.879,78.124 214.481,77.726 C214.084,77.33 213.78,76.875 213.569,76.363 C213.358,75.85 213.25,75.314 213.25,74.753 C213.25,74.19 213.358,73.654 213.569,73.141 C213.78,72.629 214.084,72.173 214.481,71.777 C214.879,71.38 215.334,71.075 215.849,70.863 C216.363,70.652 216.898,70.547 217.456,70.547 C218.466,70.547 219.347,70.809 220.098,71.335 C220.849,71.86 221.37,72.565 221.662,73.443 L219.475,73.443 C219.286,73.145 219.013,72.901 218.658,72.713 C218.3,72.524 217.935,72.43 217.563,72.43 C216.915,72.43 216.374,72.654 215.938,73.099 C215.502,73.545 215.283,74.096 215.283,74.753 C215.283,75.408 215.501,75.959 215.938,76.407 C216.374,76.853 216.915,77.076 217.563,77.076 C217.954,77.076 218.324,76.981 218.67,76.796 C219.017,76.609 219.286,76.363 219.475,76.056 L221.662,76.056 Z M222.973,67.934 L225.006,67.934 L225.006,71.707 C225.559,70.933 226.285,70.547 227.181,70.547 C228.1,70.547 228.838,70.865 229.393,71.499 C229.948,72.133 230.225,72.976 230.225,74.023 L230.225,78.669 L228.194,78.669 L228.194,74.023 C228.194,73.566 228.042,73.184 227.74,72.882 C227.438,72.58 227.058,72.43 226.599,72.43 C226.142,72.43 225.762,72.58 225.46,72.882 C225.158,73.184 225.006,73.566 225.006,74.023 L225.006,78.669 L222.973,78.669 L222.973,67.934 Z M233.711,70.837 L233.711,71.707 C234.279,70.933 235.001,70.547 235.886,70.547 C236.81,70.547 237.55,70.858 238.103,71.485 C238.655,72.11 238.93,72.957 238.93,74.023 L238.93,78.669 L236.899,78.669 L236.899,74.023 C236.899,73.556 236.748,73.175 236.452,72.877 C236.154,72.578 235.772,72.43 235.304,72.43 C234.847,72.43 234.467,72.582 234.165,72.889 C233.863,73.196 233.711,73.576 233.711,74.023 L233.711,78.669 L231.678,78.669 L231.678,70.837 L233.711,70.837 Z M240.235,69.384 L242.268,69.384 L242.268,67.934 L240.235,67.934 L240.235,69.384 Z M240.235,78.669 L242.268,78.669 L242.268,70.837 L240.235,70.837 L240.235,78.669 Z M243.866,78.669 L243.866,67.934 L245.899,67.934 L245.899,74.61 L248.486,70.837 L250.978,70.837 L248.002,74.852 L251.268,78.669 L248.67,78.669 L245.899,75.171 L245.899,78.669 L243.866,78.669 L243.866,78.669 Z" id="Fill-9" fill="#9E9F9E"></path>
            <path d="M22.838,5.984 C23.258,5.537 24.153,5.131 25.525,4.767 C26.523,4.501 27.522,4.301 28.52,4.146 C28.82,4.1 29.096,4.05 29.351,3.995 L45.296,3.995 C45.841,4.604 46.299,5.268 46.673,5.984 L22.838,5.984" id="Fill-10" fill="#9E9F9E"></path>
            <path d="M23.397,9.962 C23.508,9.894 23.623,9.826 23.74,9.76 C24.694,9.028 25.582,8.561 26.402,8.362 C26.806,8.275 27.234,8.146 27.691,7.973 L55.411,7.973 C55.586,8.604 55.708,9.267 55.778,9.962 L23.397,9.962" id="Fill-11" fill="#9E9F9E"></path>
            <path d="M11.599,13.941 C11.979,13.537 12.454,12.932 13.054,12.113 L13.171,11.951 L47.883,11.951 C47.862,12.591 47.801,13.255 47.704,13.941 L11.599,13.941" id="Fill-12" fill="#9E9F9E"></path>
            <path d="M14.89,17.919 C15.176,17.576 15.522,17.201 15.928,16.795 C16.21,16.513 16.534,16.225 16.917,15.93 L55.287,15.93 C55.138,16.575 54.959,17.238 54.751,17.919 L14.89,17.919" id="Fill-13" fill="#9E9F9E"></path>
            <path d="M42.169,111.41 C39.132,113.324 35.238,113.859 30.48,113.014 C28.443,112.689 26.645,112.153 25.088,111.41 L42.169,111.41" id="Fill-14" fill="#00A982"></path>
            <path d="M42.152,107.432 C41.675,108.162 41.154,108.824 40.594,109.421 L18.054,109.421 C17.433,108.876 16.876,108.277 16.382,107.621 L16.242,107.432 L42.152,107.432" id="Fill-15" fill="#00A982"></path>
            <path d="M52.07,103.453 C51.959,103.747 51.844,104.042 51.722,104.337 C51.565,104.718 51.398,105.086 51.226,105.442 L22.884,105.442 C22.5,104.798 22.143,104.136 21.812,103.453 L52.07,103.453" id="Fill-16" fill="#00A982"></path>
            <path d="M45.261,99.475 C45.128,100.136 44.965,100.798 44.773,101.464 L12.988,101.464 C12.735,100.816 12.505,100.154 12.296,99.475 L45.261,99.475" id="Fill-17" fill="#00A982"></path>
            <path d="M53.662,95.497 C53.649,96.157 53.604,96.82 53.53,97.486 L19.715,97.486 C19.557,96.827 19.409,96.164 19.27,95.497 L53.662,95.497" id="Fill-18" fill="#00A982"></path>
            <path d="M45.413,91.518 C45.525,92.179 45.603,92.842 45.653,93.507 L10.932,93.507 C10.815,92.848 10.708,92.186 10.609,91.518 L45.413,91.518" id="Fill-19" fill="#00A982"></path>
            <path d="M52.31,87.54 C52.552,88.201 52.761,88.863 52.938,89.529 L18.297,89.529 C18.217,88.87 18.146,88.207 18.082,87.54 L52.31,87.54" id="Fill-20" fill="#00A982"></path>
            <path d="M42.49,83.562 C42.869,84.222 43.212,84.885 43.525,85.551 L9.956,85.551 C9.9,84.875 9.837,84.213 9.766,83.562 L42.49,83.562" id="Fill-21" fill="#00A982"></path>
            <path d="M48.316,79.583 C48.646,80.233 48.99,80.896 49.351,81.572 L17.476,81.572 C17.381,80.894 17.279,80.232 17.166,79.583 L48.316,79.583" id="Fill-22" fill="#9E9F9E"></path>
            <path d="M38.467,75.605 C38.753,76.253 39.057,76.915 39.381,77.594 L8.825,77.594 C8.679,76.912 8.522,76.249 8.352,75.605 L38.467,75.605" id="Fill-23" fill="#9E9F9E"></path>
            <path d="M44.829,71.627 C45.058,72.271 45.309,72.933 45.584,73.616 L15.765,73.616 L15.218,71.627 L44.829,71.627" id="Fill-24" fill="#9E9F9E"></path>
            <path d="M35.733,67.648 C35.8,68.068 35.889,68.478 35.999,68.876 C36.068,69.126 36.14,69.38 36.218,69.637 L6.717,69.637 L6.176,67.648 L35.733,67.648" id="Fill-25" fill="#9E9F9E"></path>
            <path d="M43.655,63.67 C43.571,64.355 43.529,65.017 43.532,65.659 L13.595,65.659 L13.061,63.67 L43.655,63.67" id="Fill-26" fill="#00A982"></path>
            <path d="M36.595,59.692 C36.379,60.372 36.197,61.034 36.05,61.681 L4.577,61.681 C4.391,60.98 4.216,60.318 4.052,59.692 L36.595,59.692" id="Fill-27" fill="#00A982"></path>
            <path d="M46.116,55.713 C45.803,56.39 45.518,57.053 45.262,57.702 L11.495,57.702 C11.32,57.018 11.163,56.393 11.024,55.828 L10.997,55.713 L46.116,55.713" id="Fill-28" fill="#00A982"></path>
            <path d="M40.175,51.735 L39.14,53.724 L2.669,53.724 C2.58,53.109 2.502,52.447 2.437,51.735 L40.175,51.735" id="Fill-29" fill="#00A982"></path>
            <path d="M50.197,47.756 L49.165,49.746 L10.25,49.746 C10.216,49.113 10.188,48.45 10.168,47.756 L50.197,47.756" id="Fill-30" fill="#00A982"></path>
            <path d="M44.305,43.778 L43.272,45.767 L2.177,45.767 C2.173,45.126 2.173,44.464 2.18,43.778 L44.305,43.778" id="Fill-31" fill="#00A982"></path>
            <path d="M54.311,39.8 C54.222,39.998 54.128,40.193 54.03,40.383 L53.296,41.789 L10.169,41.789 C10.184,41.143 10.203,40.481 10.227,39.8 L54.311,39.8" id="Fill-32" fill="#00A982"></path>
            <path d="M47.521,35.821 C47.407,36.517 47.26,37.179 47.079,37.811 L2.349,37.811 C2.379,37.166 2.41,36.508 2.446,35.834 L2.441,35.821 L47.521,35.821" id="Fill-33" fill="#00A982"></path>
            <path d="M55.775,31.843 C55.777,32.53 55.755,33.192 55.709,33.832 L9.683,33.832 C9.445,33.122 9.243,32.46 9.079,31.843 L55.775,31.843" id="Fill-34" fill="#00A982"></path>
            <path d="M47.572,27.865 C47.65,28.546 47.709,29.209 47.75,29.854 L0.694,29.854 C0.577,29.083 0.545,28.421 0.601,27.865 L47.572,27.865" id="Fill-35" fill="#9E9F9E"></path>
            <path d="M54.905,23.886 C55.038,24.565 55.155,25.227 55.257,25.876 L9.06,25.876 C9.332,25.058 9.634,24.397 9.967,23.886 L54.905,23.886" id="Fill-36" fill="#9E9F9E"></path>
            <path d="M4.732,21.077 C5.208,20.778 5.556,20.382 5.78,19.908 L46.119,19.908 L46.073,20.034 C46.236,20.667 46.386,21.287 46.526,21.897 L4.311,21.897 C4.533,21.635 4.673,21.361 4.732,21.077" id="Fill-37" fill="#9E9F9E"></path>
            <path d="M36.242,2.005 C39.326,-0.647 42.877,-0.648 46.916,2.005 L36.242,2.005" id="Fill-38" fill="#9E9F9E"></path>
        </g>
    </g>
</svg>