<?xml version="1.0" encoding="utf-8"?>
<!-- Generator: Adobe Illustrator 18.1.1, SVG Export Plug-In . SVG Version: 6.00 Build 0)  -->
<svg version="1.1" xmlns="http://www.w3.org/2000/svg" xmlns:xlink="http://www.w3.org/1999/xlink" x="0px" y="0px"
	 viewBox="0 0 179 406.1" enable-background="new 0 0 179 406.1" xml:space="preserve">
<g id="Ebene_3">
</g>
<g id="Ebene_4">
	<g>
		<path fill-rule="evenodd" clip-rule="evenodd" fill="#AFCA0B" d="M155.5,328.9c1.5,0.1,3-0.5,4.1-1.6c1.1-1.1,1.7-2.6,1.7-4.2
			c0-1.4-0.5-2.8-1.6-3.8c-1-1-2.4-1.6-3.9-1.6c-1.5,0-3,0.6-4.1,1.6c-1.1,1-1.7,2.4-1.7,3.9c0,1.6,0.5,3,1.6,4.1
			C152.5,328.3,153.9,328.9,155.5,328.9z"/>
		<path fill-rule="evenodd" clip-rule="evenodd" fill="#AFCA0B" d="M98.8,0c-9.3,0-11.2,1.6-18.9,4.7c-3.6,1.4-11.5,8.5-16,15.4
			c-2.8,4.2-4.2,6.7-5,8.1l-1,2.2c-7-9.4-15.6-13.7-25.5-13.7c-5.3,0-13.8,2.9-19.6,8C6.2,30.1,1,41.9,0.3,50.1
			c-1.4,14.1,2,26.1,10.5,35.6c8.8,9.5,19.2,13.5,30.9,12.9l0,12.1l10.2,0l0.3,3.3l0,2.8l-0.9,4.2c-1.4,1.9-2.7,3.9-4.1,5.8
			c-1.9,3.6-3.5,7.1-4.7,10.7c-0.9,2.8-1.5,5.4-1.9,7.9c-0.5,2.9-0.5,5.6-0.6,8.1c0.4,4.7,0.9,9.3,2,13.6c1.2,4.1,2.8,8.2,5.1,12.2
			c2.6,4.2,5.6,8.1,9.1,11.4c2.7,2.5,5.7,4.8,9.1,6.9c9.5,4.4,9.5,6.8,0.6,10.4c-3.8,2.1-7.3,4.7-10.5,7.7c-2.4,2.4-4.6,4.9-6.5,7.3
			l-2.7,4.6c-8.3,14.8-8.3,29.9-2.4,44.5c3.1,6.9,7.2,13.4,13,17.9l-1.2,3.8l-2.4,6l-2,4.5l-2,0l-48,0l0,7.3l0,16.3l0,7.4l34.2,0
			l-3.8,6.8l-7,12.1l-3.3,6l-3.2,6.3l-3.3,6l-1.3,2.6l-12.4,0l0,7.1l0,23.5l170.2,0.1l7.3,0l0-7.3L179,0.1L98.8,0z M164.2,91.5
			c-0.2,1.1-0.7,2.2-1.4,3.1c-0.6,0.9-1.5,1.8-2.5,2.4c-0.9,0.5-1.9,0.9-3,1.1c-1.1,0.2-2.2,0.2-3.4,0c-1.1-0.2-2.2-0.7-3.2-1.4
			c-0.9-0.6-1.6-1.4-2.2-2.4c-0.6-0.9-1-2-1.2-3.1c-0.2-1.1-0.2-2.3,0-3.4c0.2-0.9,0.5-1.8,1-2.6c0.8-1.3,1.9-2.3,3.2-3.1
			c0.2-0.1,0.3-0.2,0.5-0.2l7,10.5l-2.2,1.3l-5.3-8c-0.1,0.1-0.2,0.1-0.2,0.2c-0.2,0.1-0.2,0.2-0.4,0.4c-0.1,0.1-0.2,0.2-0.2,0.3
			c-0.5,0.6-0.8,1.3-0.9,2c-0.2,0.7-0.2,1.3-0.1,2c0.2,0.7,0.4,1.4,0.8,2c0.5,0.6,1,1.2,1.6,1.6c0.7,0.4,1.5,0.7,2.3,0.9
			c0.8,0.2,1.6,0.2,2.4,0c0.8-0.2,1.6-0.5,2.2-0.9c0.7-0.4,1.3-0.9,1.7-1.6c0.5-0.6,0.8-1.3,0.9-2.1c0.2-0.8,0.2-1.5,0-2.3
			c-0.2-1-0.6-2-1.3-2.9c-0.5-0.5-1.1-1-1.7-1.4c-0.6-0.3-1.3-0.6-2-0.8c-0.1,0-0.2-0.1-0.3-0.1l1.2-2c0.2,0,0.3,0.1,0.5,0.2
			c0.5,0.2,1,0.3,1.5,0.5c1.3,0.6,2.4,1.5,3.2,2.6c0.8,1.1,1.3,2.4,1.5,3.8C164.4,89.3,164.4,90.4,164.2,91.5z M162.6,244.4
			c-0.6,1-1.5,1.8-2.5,2.4c-0.9,0.5-1.9,0.9-3,1.2c-1.1,0.2-2.2,0.2-3.4-0.1c-1.1-0.2-2.2-0.7-3.2-1.4c-0.9-0.6-1.6-1.4-2.2-2.4
			c-0.6-0.9-1-2-1.2-3c-0.2-1.2-0.2-2.3,0-3.5c0.2-0.9,0.6-1.8,1-2.6c0.8-1.3,1.9-2.3,3.2-3c0.2-0.1,0.3-0.2,0.5-0.3l7,10.6
			l-2.2,1.3l-5.3-8.1c-0.1,0.1-0.2,0.2-0.2,0.2c-0.2,0.1-0.2,0.2-0.4,0.3c-0.1,0.1-0.2,0.2-0.2,0.3c-0.5,0.6-0.8,1.3-0.9,2.1
			c-0.2,0.6-0.2,1.3-0.1,2c0.2,0.8,0.4,1.4,0.8,2c0.5,0.7,1,1.3,1.6,1.6c0.7,0.5,1.5,0.8,2.3,0.9c0.8,0.1,1.6,0.1,2.4-0.1
			c0.8-0.2,1.6-0.5,2.2-0.9c0.7-0.5,1.3-1,1.7-1.6c0.5-0.7,0.8-1.4,0.9-2.2c0.2-0.7,0.2-1.5,0-2.2c-0.2-1.1-0.6-2-1.3-2.9
			c-0.5-0.5-1.1-1.1-1.7-1.4c-0.6-0.4-1.3-0.6-2-0.8c-0.1-0.1-0.2-0.1-0.3-0.2l1.2-2c0.2,0.1,0.3,0.2,0.5,0.2c0.5,0.2,1,0.4,1.5,0.6
			c1.3,0.6,2.4,1.5,3.2,2.6c0.8,1.1,1.3,2.4,1.5,3.7c0.2,1.1,0.2,2.2-0.1,3.3C163.8,242.4,163.3,243.4,162.6,244.4z M163.9,250.6
			l0,3.1l-16.5,0l0-3.1L163.9,250.6z M154.1,215.3l0-7.7l2.4,0l0,7.7L154.1,215.3z M150.1,166.9c0,0.3,0.1,0.7,0.2,1
			c0.1,0.3,0.2,0.5,0.4,0.9c0.3,0.5,0.7,1.1,1.2,1.5c0.8,0.6,1.6,1,2.6,1.2c0.3,0.1,0.6,0.2,1,0.2c0.9,0,2-0.2,2.8-0.6
			c0.5-0.3,1.1-0.7,1.6-1.2c0.4-0.5,0.8-1.1,1-1.7c0.1-0.3,0.2-0.5,0.2-0.9c0.1-0.2,0.1-0.5,0.1-0.9c0.1-0.3,0.1-0.7,0.1-1l0-1.8
			l2.6,0l0,2.1c0,0.5,0,1-0.1,1.5c0,0.3-0.1,0.7-0.1,1c-0.1,0.5-0.2,0.9-0.4,1.3c-0.3,0.9-0.9,1.8-1.5,2.5c-0.7,0.7-1.5,1.3-2.4,1.8
			c-1.3,0.6-2.6,0.9-3.9,0.9c-1.4,0-2.7-0.4-3.9-1c-1.3-0.7-2.3-1.6-3.1-2.8c-0.5-0.8-0.8-1.6-1-2.4c-0.1-0.4-0.1-0.8-0.2-1.2
			c0-0.5-0.1-0.9-0.1-1.4l0-2.4l2.6,0l0,1.7C150,165.8,150,166.3,150.1,166.9z M163.9,138.4c-0.3,1.2-0.9,2.2-1.8,3
			c-0.5,0.5-1.3,0.9-2,1.2c-1,0.5-2.2,0.6-3.3,0.6l-9.4,0l0-3l8.7,0c0.2,0,0.5,0,0.8,0s0.5,0,0.7-0.1c0.7-0.1,1.4-0.3,2-0.7
			c0.5-0.3,0.8-0.7,1.1-1.1c0.2-0.5,0.5-0.9,0.5-1.5c0.2-0.5,0.2-1,0.1-1.6c-0.2-0.5-0.3-1.1-0.6-1.6c-0.3-0.4-0.7-0.8-1.1-1
			c-0.4-0.3-0.8-0.5-1.3-0.6c-0.3-0.1-0.5-0.2-0.9-0.2c-0.2,0-0.5-0.1-0.8-0.1c-0.2,0-0.5,0-0.9,0l-8.5,0l0-3l9.4,0
			c1.1,0,2.1,0.2,3.1,0.6c0.3,0.2,0.6,0.3,0.9,0.5c0.7,0.4,1.3,0.9,1.9,1.6c0.7,0.9,1.2,2.1,1.4,3.3
			C164.4,136,164.3,137.2,163.9,138.4z M157.8,105c0.3,0,0.7-0.1,1-0.1c0.2,0,0.3-0.1,0.5-0.1c0.2-0.1,0.3-0.1,0.4-0.2
			c0.2-0.1,0.4-0.2,0.5-0.3c0.2-0.1,0.3-0.2,0.4-0.4c0.2-0.2,0.4-0.5,0.5-0.9c0.2-0.3,0.2-0.6,0.2-1c0-0.1,0-0.2,0-0.3
			c0-0.2,0-0.5,0-0.6l0-1.5l2.6,0l0,1.6c0,0.3,0,0.6,0,0.9c0,0.2-0.1,0.4-0.1,0.5c0,0.9-0.2,1.8-0.6,2.6c-0.3,0.5-0.7,1.1-1.2,1.5
			c-0.5,0.4-1,0.6-1.6,0.8c-0.3,0.2-0.7,0.2-1.1,0.2c-0.2,0-0.5,0.1-0.8,0.1c-0.2,0-0.5,0-0.9,0l-15.4,0l0-2.9l4.9,0l0-5.3l2.6,0
			l0,5.3L157.8,105z M150.2,71.8c0,0.3,0.1,0.7,0.2,1c0.1,0.3,0.2,0.5,0.4,0.9c0.3,0.5,0.7,1.1,1.2,1.5c0.8,0.6,1.6,1,2.6,1.2
			c0.3,0.1,0.6,0.2,1,0.2c0.9,0,2-0.2,2.8-0.6c0.5-0.3,1.1-0.7,1.6-1.2c0.4-0.5,0.8-1.1,1-1.7c0.1-0.3,0.2-0.5,0.2-0.9
			c0.1-0.3,0.1-0.5,0.1-0.9c0.1-0.3,0.1-0.7,0.1-1l0-1.8l2.6,0l0,2.1c0,0.5,0,1-0.1,1.5c0,0.3-0.1,0.7-0.1,1
			c-0.1,0.5-0.2,0.9-0.4,1.3c-0.3,0.9-0.9,1.8-1.5,2.5c-0.7,0.7-1.5,1.3-2.4,1.8c-1.3,0.6-2.6,0.9-3.9,0.9c-1.4,0-2.7-0.4-3.9-1
			c-1.3-0.7-2.3-1.6-3.1-2.8c-0.5-0.8-0.8-1.6-1-2.4c-0.1-0.4-0.1-0.8-0.2-1.3c0-0.4-0.1-0.9-0.1-1.3l0-2.4l2.6,0l0,1.7
			C150,70.7,150,71.3,150.2,71.8z M148.2,37c0.2-0.3,0.3-0.6,0.5-0.9c0.7-0.9,1.6-1.5,2.7-1.9c1-0.4,2-0.6,3.1-0.5l9.4,0l0,2.9
			l-8.7,0c-0.2,0-0.5,0-0.8,0c-0.2,0.1-0.5,0.1-0.7,0.1c-0.8,0.1-1.5,0.4-2.1,0.8c-0.4,0.3-0.7,0.6-0.9,1.1
			c-0.3,0.4-0.6,0.9-0.6,1.5c-0.1,0.5-0.1,1,0,1.6c0.1,0.5,0.3,1,0.6,1.5c0.2,0.5,0.6,0.8,1,1.1c0.4,0.2,0.8,0.5,1.3,0.6
			c0.2,0,0.5,0.1,0.8,0.2c0.2,0,0.5,0,0.8,0c0.3,0.1,0.6,0.1,0.9,0.1l8.5,0l0,2.9l-9.3,0c-1,0-2-0.2-3.1-0.5c-0.7-0.2-1.4-0.6-2-1.1
			c-0.6-0.5-1.1-1.2-1.5-1.9c-0.6-1.2-0.9-2.4-0.9-3.8C147.2,39.4,147.6,38.2,148.2,37z M147.5,30.3l0-3l16.5,0l0,3L147.5,30.3z
			 M139.7,20.8l14.3,0l0-1.5c0-0.2-0.1-0.5-0.1-0.6c0-0.2,0-0.4-0.1-0.5c-0.1-0.3-0.2-0.7-0.5-0.9c-0.1-0.2-0.2-0.3-0.3-0.4
			c-0.2-0.2-0.3-0.3-0.5-0.5c-0.3-0.2-0.6-0.4-0.9-0.5l-4.2-2.4l0-3.2l4.7,2.7c0.2,0.1,0.2,0.2,0.4,0.2c0.2,0.2,0.3,0.3,0.5,0.4
			c0.1,0.2,0.2,0.2,0.4,0.3c0.1,0.1,0.2,0.2,0.3,0.2c0.1,0.1,0.2,0.2,0.2,0.3c0.2,0.1,0.2,0.3,0.4,0.5c0.1,0.1,0.2,0.2,0.2,0.3
			c0.1-0.2,0.2-0.4,0.2-0.6c0.2-0.9,0.7-1.6,1.3-2.4c0.2-0.2,0.4-0.4,0.6-0.5c0.6-0.4,1.1-0.6,1.7-0.8c0.3-0.1,0.6-0.1,0.9-0.1
			c0.3-0.1,0.7-0.1,1-0.1l3.7,0l0,2.9l-3.6,0c-0.2,0-0.4,0-0.5,0c-0.2,0-0.3,0-0.5,0.1c-0.4,0-0.7,0.1-1.1,0.2
			c-0.4,0.2-0.7,0.4-1,0.6c-0.2,0.3-0.5,0.6-0.6,1c-0.2,0.4-0.2,0.9-0.3,1.3c0,0.2,0,0.3,0,0.5c0,0.2,0,0.5,0,0.7l0,2.7l7.7,0l0,2.9
			l-24.3,0L139.7,20.8z M144.8,28.7c0,0.5-0.2,1.2-0.6,1.6c-0.4,0.4-0.9,0.6-1.6,0.6c-0.5,0-1-0.2-1.4-0.6c-0.4-0.4-0.6-0.9-0.6-1.5
			c0-0.5,0.2-1.1,0.6-1.5c0.4-0.4,0.9-0.6,1.5-0.6c0.5,0,1.1,0.2,1.5,0.6C144.6,27.6,144.8,28.2,144.8,28.7z M139.7,62.6l10.2,0
			c-0.2-0.1-0.3-0.2-0.5-0.3c-0.1-0.1-0.2-0.2-0.3-0.2c-0.2-0.2-0.3-0.3-0.5-0.5c-0.4-0.4-0.7-0.9-0.9-1.4c-0.4-0.9-0.5-1.8-0.5-2.7
			c0-1.1,0.2-2.1,0.8-3.1c0.4-0.6,0.9-1.2,1.4-1.6c0.5-0.5,1.2-0.8,1.9-1c0.4-0.2,0.8-0.2,1.3-0.3c0.6-0.1,1.3-0.1,1.9-0.1l9.6,0
			l0,2.9l-8.9,0c-0.2,0-0.5,0-0.8,0c-0.2,0-0.4,0-0.5,0.1c-0.6,0-1.2,0.2-1.7,0.4c-0.2,0.1-0.4,0.2-0.5,0.3c-0.4,0.3-0.7,0.6-1,1.1
			c-0.2,0.4-0.4,0.9-0.5,1.3c-0.1,0.5-0.1,1.1,0.1,1.6c0.1,0.5,0.3,1.1,0.7,1.6c0.3,0.5,0.7,0.9,1.2,1.2c0.7,0.5,1.5,0.7,2.4,0.8
			c0.2,0,0.4,0,0.6,0c3,0,6.1,0,9.1,0l0,3l-24.3,0L139.7,62.6z M139.7,122.5l10.2,0c-0.2-0.1-0.3-0.2-0.5-0.3
			c-0.1-0.1-0.2-0.2-0.3-0.2c-0.2-0.2-0.3-0.3-0.5-0.5c-0.4-0.4-0.7-0.9-0.9-1.4c-0.8-1.8-0.8-4.1,0.2-5.8c0.4-0.6,0.9-1.2,1.4-1.6
			c0.6-0.5,1.2-0.8,1.9-1c0.4-0.2,0.8-0.2,1.3-0.3c0.6-0.1,1.3-0.2,1.9-0.2l9.6,0l0,3l-8.9,0c-0.2,0-0.5,0-0.8,0c-0.2,0-0.4,0-0.5,0
			c-0.6,0.1-1.2,0.2-1.7,0.5c-0.2,0.1-0.4,0.2-0.5,0.3c-0.4,0.3-0.7,0.6-1,1.1c-0.2,0.4-0.4,0.9-0.5,1.3c-0.1,0.5-0.1,1.1,0.1,1.6
			c0.1,0.5,0.3,1.1,0.7,1.6c0.3,0.5,0.7,0.9,1.2,1.2c0.7,0.5,1.5,0.7,2.4,0.8c0.2,0,0.4,0,0.6,0c0.2,0,0.5,0,0.8,0l8.3,0l0,3
			l-24.3,0L139.7,122.5z M139.6,157.6l10.2,0c-0.2-0.1-0.3-0.2-0.5-0.3c-0.1-0.1-0.2-0.2-0.3-0.2c-0.2-0.2-0.3-0.3-0.5-0.5
			c-0.4-0.4-0.7-0.9-0.9-1.3c-0.4-0.9-0.5-1.9-0.5-2.8c0-1.1,0.2-2.1,0.8-3.1c0.4-0.6,0.9-1.2,1.4-1.6c0.5-0.5,1.2-0.8,1.9-1
			c0.4-0.2,0.8-0.2,1.3-0.3c0.6-0.1,1.3-0.1,1.9-0.1l9.6,0l0,2.9l-8.9,0c-0.2,0-0.5,0-0.8,0c-0.2,0-0.4,0-0.5,0.1
			c-0.6,0-1.2,0.2-1.7,0.4c-0.2,0.1-0.4,0.2-0.5,0.3c-0.4,0.3-0.7,0.6-1,1.1c-0.2,0.4-0.4,0.9-0.5,1.3c-0.1,0.5-0.1,1.1,0.1,1.6
			c0.1,0.5,0.3,1.1,0.7,1.6c0.3,0.4,0.7,0.8,1.2,1.1c0.7,0.5,1.5,0.7,2.4,0.8c0.2,0,0.4,0,0.6,0c3,0,6.1,0,9.1,0l0,3l-24.3,0
			L139.6,157.6z M139.6,177.8l2.9,0l0,6.6c0,0.5,0.1,1.1,0.1,1.7c0,0.3,0.1,0.6,0.2,0.9c0,0.2,0.1,0.4,0.2,0.6
			c0,0.2,0.1,0.3,0.2,0.5c0.2,0.4,0.5,0.7,0.9,0.9c0.3,0.2,0.7,0.4,1.1,0.5c0.5,0.1,0.9,0.1,1.4,0c0.2-0.1,0.5-0.2,0.6-0.3
			c0.2-0.1,0.4-0.2,0.5-0.4c0.2-0.2,0.3-0.3,0.4-0.5c0.2-0.2,0.3-0.4,0.4-0.6c0.2-0.2,0.2-0.5,0.4-0.8l2.9-6.4
			c0.3-0.5,0.6-1.2,1-1.7c0.2-0.2,0.5-0.5,0.7-0.7c0.2-0.2,0.4-0.3,0.6-0.5c0.5-0.4,1.2-0.7,1.9-0.8c1-0.2,2-0.2,3.1-0.1
			c0.3,0.1,0.6,0.2,0.9,0.3c0.7,0.2,1.3,0.6,1.9,1.2c0.5,0.5,0.9,1.1,1.3,1.7c0.4,0.7,0.5,1.6,0.6,2.4c0.1,0.3,0.1,0.5,0.1,0.9
			c0.1,0.3,0.1,0.7,0.1,1l0,8.5l-3,0l0-7.6c0-0.2,0-0.5,0-0.7c0-0.2,0-0.5,0-0.8c0-0.2-0.1-0.5-0.2-0.9c0-0.2-0.1-0.4-0.1-0.6
			c-0.1-0.2-0.2-0.4-0.3-0.6c-0.1-0.2-0.2-0.4-0.4-0.6c-0.3-0.3-0.6-0.6-1.1-0.8c-0.5-0.2-1-0.3-1.6-0.3c-0.2,0-0.5,0.1-0.8,0.2
			c-0.2,0.1-0.5,0.2-0.6,0.3c-0.2,0.2-0.4,0.2-0.5,0.4c-0.2,0.2-0.3,0.4-0.5,0.6c-0.3,0.4-0.5,0.9-0.8,1.4l-2.9,6
			c-0.1,0.3-0.2,0.6-0.4,0.9c-0.2,0.2-0.3,0.5-0.5,0.7c-0.2,0.2-0.4,0.5-0.6,0.7c-0.4,0.5-0.9,0.9-1.5,1.2c-0.6,0.2-1.2,0.4-1.8,0.5
			c-0.7,0.1-1.3,0.1-2-0.1c-0.6-0.1-1.3-0.3-1.9-0.7c-0.5-0.3-1.1-0.8-1.5-1.3c-0.6-0.9-1.1-2-1.3-3c0-0.4-0.1-0.8-0.1-1.2
			c-0.1-0.4-0.1-0.8-0.1-1.2L139.6,177.8z M144.7,252.1c0,0.5-0.2,1.1-0.6,1.6c-0.4,0.4-0.9,0.6-1.6,0.6c-0.5,0-1-0.2-1.4-0.6
			c-0.4-0.4-0.6-0.9-0.6-1.5c0-0.5,0.2-1.1,0.6-1.5c0.4-0.5,0.9-0.6,1.5-0.6c0.5-0.1,1.1,0.2,1.5,0.5
			C144.4,251,144.7,251.5,144.7,252.1z M139.6,256.7l15.4,0c0.5,0,0.9,0.1,1.3,0.1c0.4,0.1,0.8,0.1,1.1,0.2c1.4,0.3,2.7,0.9,3.8,1.8
			c0.8,0.7,1.5,1.5,2,2.4c0.7,1.3,1.1,2.7,1.1,4.2c0,1.3-0.2,2.6-0.8,3.8c-0.5,1-1.1,1.9-1.9,2.6c-0.9,0.8-1.9,1.4-3,1.8
			c-1,0.4-2,0.5-3.1,0.5c-1.2,0-2.3-0.2-3.3-0.7c-1-0.4-1.9-0.9-2.7-1.7c-0.9-0.8-1.5-1.8-1.9-2.8c-0.5-1.3-0.8-2.7-0.6-4
			c0.2-1,0.5-2,1-2.9c0.2-0.2,0.3-0.5,0.5-0.7c0.1-0.1,0.2-0.2,0.2-0.3l3.1,0c-0.1,0.2-0.2,0.2-0.3,0.4c-0.2,0.2-0.4,0.5-0.5,0.6
			c-0.4,0.6-0.7,1.2-0.9,1.9c-0.3,0.9-0.3,1.8-0.2,2.7c0.2,0.7,0.5,1.4,0.9,2c0.4,0.5,0.9,1.1,1.5,1.5c0.6,0.4,1.3,0.7,2,0.8
			c0.7,0.2,1.5,0.2,2.2,0.1c0.7-0.1,1.4-0.4,2-0.7c0.6-0.4,1.3-0.9,1.6-1.6c0.5-0.5,0.8-1.3,0.9-2c0.2-0.7,0.2-1.5,0.1-2.3
			c-0.2-0.6-0.4-1.3-0.8-1.9c-0.4-0.6-0.9-1.2-1.5-1.6c-0.5-0.5-1.1-0.7-1.7-0.9c-0.3-0.1-0.7-0.2-1.1-0.2c-0.6-0.1-1.3-0.1-1.9-0.1
			l-14.7,0L139.6,256.7z M150,285.9c0.1,0.7,0.4,1.4,0.8,2c0.4,0.7,1,1.3,1.6,1.6c0.6,0.4,1.3,0.7,2.1,0.9c0.7,0.2,1.4,0.2,2.2,0
			c0.7-0.2,1.4-0.4,2-0.9c0.6-0.4,1.2-0.9,1.6-1.5c0.4-0.6,0.7-1.3,0.9-2.1c0.2-0.6,0.2-1.3,0-2c-0.1-0.9-0.5-1.8-1-2.6
			c-0.2-0.2-0.3-0.4-0.5-0.5c-0.1-0.1-0.2-0.2-0.2-0.2c-0.1-0.1-0.2-0.2-0.2-0.2l3.1,0c0.1,0.1,0.2,0.2,0.3,0.3
			c0.2,0.2,0.3,0.5,0.5,0.7c0.5,0.8,0.9,1.8,0.9,2.7c0.2,1.4,0,2.9-0.6,4.2c-0.4,1.1-1.1,2.1-2,2.9c-0.9,0.8-1.8,1.4-2.9,1.8
			c-0.9,0.4-2,0.5-3.1,0.5c-1.2,0-2.4-0.2-3.4-0.7c-1-0.4-1.9-1-2.7-1.7c-0.8-0.9-1.4-1.8-1.9-2.8c-0.5-1.1-0.7-2.3-0.7-3.5
			c0-1.5,0.4-3,1.1-4.2c0.7-1.3,1.6-2.3,2.9-3c1.1-0.7,2.4-1.1,3.6-1.3c0.5-0.1,0.9-0.1,1.4-0.1l7.8,0l0,2.9l-7.3,0
			c-0.3,0-0.7,0-1,0.1c-0.3,0-0.6,0-0.9,0.1c-0.9,0.2-1.9,0.6-2.7,1.2c-0.5,0.4-0.9,0.9-1.3,1.4c-0.4,0.5-0.6,1.3-0.7,1.9
			C149.8,284.4,149.8,285.2,150,285.9z M141.6,286.6c0.3-0.3,0.8-0.5,1.2-0.5c0.5,0,0.9,0.2,1.2,0.5c0.3,0.3,0.5,0.7,0.5,1.2
			c0,0.4-0.2,0.9-0.6,1.1c-0.3,0.4-0.7,0.5-1.2,0.5c-0.4,0-0.8-0.2-1.1-0.5c-0.3-0.3-0.5-0.7-0.5-1.2
			C141.1,287.3,141.3,286.9,141.6,286.6z M141.1,281.9c0-0.4,0.2-0.9,0.5-1.2c0.3-0.3,0.7-0.5,1.2-0.5c0.4,0,0.9,0.2,1.2,0.5
			c0.3,0.3,0.5,0.7,0.5,1.2c0,0.5-0.2,0.9-0.5,1.2c-0.3,0.3-0.8,0.5-1.2,0.5c-0.5,0-0.9-0.2-1.2-0.5
			C141.3,282.8,141.1,282.4,141.1,281.9z M139.5,345.7l10.2,0c-0.2-0.1-0.3-0.2-0.5-0.3c-0.1-0.1-0.2-0.2-0.3-0.2
			c-0.2-0.2-0.3-0.3-0.5-0.5c-0.4-0.4-0.7-0.9-0.9-1.4c-0.4-0.9-0.5-1.8-0.5-2.7c0-1.1,0.2-2.1,0.8-3.1c0.4-0.6,0.9-1.2,1.4-1.6
			c0.5-0.5,1.2-0.8,1.9-1c0.4-0.2,0.8-0.2,1.3-0.3c0.6-0.1,1.3-0.2,1.9-0.1l9.6,0l0,2.9l-8.9,0c-0.2,0-0.5,0-0.8,0
			c-0.2,0-0.4,0-0.5,0c-0.6,0.1-1.2,0.2-1.7,0.5c-0.2,0.1-0.4,0.2-0.5,0.3c-0.4,0.3-0.7,0.6-1,1.1c-0.2,0.4-0.4,0.9-0.5,1.3
			c-0.1,0.5-0.1,1.1,0.1,1.6c0.1,0.5,0.3,1.1,0.7,1.6c0.3,0.5,0.7,0.9,1.2,1.2c0.7,0.5,1.5,0.7,2.4,0.8c0.2,0,0.4,0,0.6,0
			c0.2,0,0.5,0,0.8,0l8.3,0l0,3l-24.3,0L139.5,345.7z M147,323.2c0-2.3,0.9-4.5,2.6-6c1.6-1.6,3.8-2.5,6.1-2.5c2.3,0,4.4,0.9,6,2.5
			c1.6,1.6,2.5,3.8,2.5,6c0,2.4-0.9,4.5-2.5,6.2c-1.6,1.6-3.8,2.6-6.2,2.6c-2.3-0.1-4.4-0.9-6-2.6
			C147.8,327.7,146.9,325.5,147,323.2z M149.7,367.7c-0.2-0.1-0.3-0.2-0.4-0.3c-0.7-0.5-1.3-1.1-1.6-1.9c-0.5-1.1-0.8-2.3-0.7-3.5
			c0-0.2,0-0.4,0-0.6l2.7,0c0,0.2,0,0.2,0,0.3c0,0.2,0,0.3,0,0.5c0,0.5,0.1,1.1,0.2,1.6c0.1,0.3,0.1,0.5,0.2,0.8
			c0.2,0.3,0.2,0.5,0.4,0.9c0.3,0.5,0.8,1,1.3,1.4c0.9,0.5,1.8,0.9,2.7,1c0.3,0,0.5,0.1,0.9,0.1c0.3,0,0.6,0,1,0l7.5,0l0,3l-16.5,0
			l0-2.9l2.9,0C150,368,149.8,367.8,149.7,367.7z M163.7,354.7c0,0.9-0.2,1.7-0.6,2.5c-0.3,0.6-0.7,1.1-1.2,1.5
			c-0.5,0.4-1,0.7-1.6,0.9c-0.3,0.1-0.7,0.2-1.1,0.2c-0.2,0-0.5,0-0.8,0c-0.2,0.1-0.5,0.1-0.9,0.1l-15.4,0l0-3l4.9,0l0-5.3l2.6,0
			l0,5.3l7.8,0c0.3,0,0.7,0,1-0.1c0.2,0,0.3,0,0.5-0.1c0.2,0,0.3-0.1,0.4-0.2c0.2-0.1,0.4-0.2,0.5-0.2c0.2-0.2,0.3-0.3,0.4-0.5
			c0.2-0.2,0.4-0.5,0.5-0.8c0.2-0.3,0.2-0.7,0.2-1c0-0.1,0-0.2,0-0.4c0-0.2,0-0.4,0-0.6l0-1.4l2.6,0l0,1.6c0,0.3,0,0.5,0,0.9
			C163.8,354.3,163.7,354.4,163.7,354.7z M48.9,103.5l0-11.8l-4,0c-2,0-4.1-0.1-6.1-0.2c-1.6-0.2-3.1-0.3-4.7-0.6
			c-1.8-0.2-3.5-0.7-5.3-1.3c-3.7-1.4-7.1-3.5-10-6c-3.1-2.7-5.6-6-7.5-9.6c-1.9-3.5-3.1-7.3-3.6-11.2c-0.6-4.2-0.5-8.4,0.1-12.5
			c0.9-5.9,3.1-11.4,6.5-16.3c1.1-1.6,2.4-3.1,3.9-4.4c2.7-2.4,6-4.1,9.5-4.9c3.3-0.8,6.7-0.9,10-0.1c3,0.7,5.8,2,8.2,3.8
			c1.3,0.9,2.5,2,3.6,3.1c2,2.1,3.8,4.5,5.3,7c0.6,0.9,1.3,1.9,1.8,2.9c0.7,1.3,1.5,2.5,2.2,3.8c0.4-0.7,0.7-1.4,1-2
			c0.1-0.2,0.2-0.4,0.2-0.5l2.7-5.8c1.5-3.3,3.2-6.5,5.1-9.6c2.3-3.7,4.9-7.2,8-10.3c1.6-1.6,3.3-3.1,5.2-4.3
			c3.3-2.3,7.1-3.8,11.1-4.6c4.1-0.8,8.2-0.8,12.4-0.1c4,0.7,7.8,2.2,11.3,4.4c3.5,2.3,6.7,5.2,9.2,8.6c2.3,3.1,4.1,6.7,5.2,10.6
			c0.7,2.4,1.3,4.7,1.6,7.1c0.5,3.7,0.9,7.4,0.9,11.1l0,20.2l-13.3,0l0-18.5c0-1.4-0.1-2.9-0.2-4.3c-0.1-1.3-0.2-2.5-0.4-3.8
			c-0.4-2.9-1.2-5.7-2.3-8.4c-0.5-1-1-2.1-1.7-3.1c-1.3-2.1-3.1-3.9-5.3-5.4c-2-1.4-4.4-2.4-6.9-2.8c-3.1-0.6-6.4-0.6-9.5,0.3
			c-3.3,0.8-6.4,2.4-8.9,4.6c-1.4,1.3-2.7,2.6-3.9,4.1c-2.2,2.8-4.2,5.9-5.8,9.1L70,50.6c-0.4,0.7-0.7,1.3-1.1,2
			c-0.5,0.8-0.9,1.6-1.5,2.5c-0.8,1.3-1.7,2.4-2.7,3.4c-0.5,0.5-1,0.9-1.6,1.1c-0.6,0.3-1.3,0.5-2,0.5c-0.5,0.1-1,0-1.5-0.1
			c-0.5-0.2-0.9-0.4-1.4-0.7c-0.5-0.4-1-0.8-1.5-1.3c-0.5-0.7-1.1-1.3-1.6-2l-3.1-4.6c-0.7-1-1.4-2-2.1-3c-0.7-0.9-1.4-1.7-2.1-2.5
			c-1.6-2-3.7-3.6-5.9-4.9c-2.2-1.2-4.5-1.9-7-2c-1-0.1-2,0-3.1,0.2c-2,0.4-3.8,1.3-5.3,2.4c-1.6,1.3-2.9,2.7-3.8,4.5
			c-1,1.9-1.7,3.9-2,6c-0.5,2.7-0.4,5.3,0.2,7.8c0.5,2.8,1.7,5.4,3.4,7.8c1.6,2.1,3.6,4,5.9,5.3c3.5,2,7.4,3.2,11.4,3.5
			c0.7,0,1.5,0,2.2,0c2,0.1,3.8,0.1,5.8,0.1l83.3,0.1l0,14.8l-70.5-0.1l0,11.8L48.9,103.5z M131.3,328.4l-56.9,0l0,54.2l56.9,0
			l0,16.4l-123-0.1l0-16.4l52,0l0-54.2l-52,0l0-16.5l123,0.1L131.3,328.4z M131.2,269.8c-2.4,5.6-5.8,10.6-10.2,14.6
			c-4.2,3.9-9.1,7-14.5,9c-5,1.9-10.3,2.8-15.6,2.8c-5.9,0-11.7-1.1-17.1-3.5c-5-2.1-9.6-5.2-13.4-9c-4.2-4.1-7.4-8.9-9.7-14.3
			C48.3,264,47,258,47,252.1c0.1-7.6,2.1-15.1,5.7-21.6c3.5-6.1,8.5-11.2,14.5-14.9c5.6-3.5,12-5.7,18.6-6.5c2.4-0.2,4.6-0.4,7-0.4
			l39.7,0l0,14.8l-36.7,0c-1.8,0-3.6,0.1-5.4,0.2c-1.6,0.2-3.1,0.3-4.6,0.6c-5,0.9-9.6,3-13.7,6c-2.6,1.9-4.7,4.3-6.4,7.1
			c-1.7,3-3,6.2-3.6,9.6c-0.6,3.5-0.6,7.1,0,10.7c0.6,3.6,2,7,4.1,10c2.2,3.2,5.1,6,8.4,8.2c3.2,2.1,6.8,3.6,10.6,4.3
			c3.7,0.7,7.5,0.7,11.1,0c3.7-0.7,7.3-2.2,10.4-4.2c3.1-2,5.9-4.6,8-7.8c2.2-3.1,3.7-6.7,4.4-10.5c0.6-3.3,0.7-6.6,0.2-9.9
			c-0.7-4.8-2.6-9.3-5.4-13.3c-0.7-1-1.6-2-2.3-3c-0.3-0.4-0.6-0.7-0.9-1c-0.4-0.4-0.8-0.9-1.2-1.3l15.7,0c0.5,0.5,0.9,1,1.3,1.6
			c0.9,1.1,1.7,2.3,2.5,3.5c2.7,4.3,4.4,9.1,4.9,14.1C134.8,255.8,133.7,263.1,131.2,269.8z M131.2,171.3
			c-2.4,5.5-5.8,10.5-10.2,14.6c-4.2,3.9-9.1,7-14.5,8.9c-5,1.9-10.3,2.8-15.6,2.8c-5.9,0.1-11.7-1.1-17.1-3.4
			c-5-2.1-9.6-5.3-13.4-9c-4.2-4.1-7.4-8.9-9.7-14.3c-2.3-5.5-3.6-11.5-3.6-17.4c0.1-7.6,2-15,5.7-21.6c3.5-6.2,8.5-11.3,14.5-15
			c5.6-3.5,12-5.7,18.6-6.5c2.4-0.2,4.6-0.4,7-0.4l39.7,0l0,14.9l-36.7,0c-1.8,0-3.6,0.1-5.4,0.2c-1.6,0.2-3.1,0.4-4.6,0.6
			c-5,0.9-9.6,3-13.7,6c-2.6,2-4.7,4.3-6.4,7.1c-1.7,2.9-3,6.1-3.6,9.5c-0.6,3.5-0.6,7.2,0,10.7c0.6,3.6,2,7.1,4.1,10
			c2.2,3.3,5.1,6,8.4,8.2c3.2,2.1,6.8,3.6,10.6,4.3c3.7,0.8,7.5,0.8,11.1,0c3.7-0.7,7.3-2.1,10.4-4.2c3.1-2,5.9-4.6,8-7.8
			c2.2-3.1,3.7-6.7,4.4-10.5c0.6-3.3,0.7-6.6,0.2-9.9c-0.7-4.8-2.6-9.3-5.4-13.3c-0.7-1-1.6-2-2.4-3c-0.3-0.3-0.6-0.7-0.9-1
			c-0.4-0.4-0.8-0.9-1.2-1.3l15.7,0c0.5,0.6,0.9,1.1,1.3,1.6c0.9,1.2,1.7,2.3,2.5,3.5c2.7,4.2,4.4,9.1,4.9,14.1
			C134.8,157.2,133.8,164.5,131.2,171.3z M160.6,395.4c-2.4,2.4-5.6,3.7-8.9,3.7c-3.3,0-6.5-1.3-8.9-3.6c-2.4-2.4-3.7-5.6-3.7-8.9
			c0-3.4,1.3-6.5,3.6-8.9c2.4-2.4,5.5-3.8,8.9-3.8c3.4-0.1,6.6,1.3,9,3.6c2.4,2.4,3.8,5.6,3.8,8.9
			C164.2,389.9,162.9,393.1,160.6,395.4z M171.5,312.5l-15.3,0c-0.5,0-0.9,0-1.4,0c-0.3-0.1-0.7-0.2-1.1-0.2
			c-1.3-0.2-2.6-0.9-3.7-1.7c-0.8-0.7-1.5-1.5-2-2.4c-0.8-1.3-1.2-2.7-1.1-4.2c0-1.3,0.2-2.5,0.8-3.7c0.5-1,1.1-1.9,1.9-2.6
			c0.9-0.9,1.9-1.5,3-1.9c1-0.3,2-0.5,3.1-0.5c1.2,0,2.3,0.2,3.3,0.6c1,0.5,1.9,1,2.7,1.8c0.8,0.8,1.4,1.7,1.9,2.8
			c0.5,1.3,0.7,2.6,0.5,4c-0.1,1-0.5,2-0.9,2.9c-0.2,0.2-0.3,0.5-0.5,0.7c-0.1,0.1-0.2,0.2-0.3,0.3l-3.1,0c0.2-0.2,0.2-0.3,0.4-0.4
			c0.2-0.2,0.3-0.5,0.5-0.7c0.4-0.5,0.7-1.2,0.9-1.8c0.2-0.9,0.3-1.8,0.1-2.7c-0.1-0.7-0.4-1.4-0.8-2c-0.4-0.6-0.9-1.1-1.6-1.5
			c-0.5-0.4-1.3-0.7-2-0.9c-0.8-0.2-1.5-0.2-2.3,0c-0.7,0.1-1.4,0.3-2,0.7c-0.6,0.4-1.2,0.9-1.6,1.6c-0.4,0.5-0.7,1.3-0.9,2
			c-0.2,0.7-0.2,1.5-0.1,2.2c0.1,0.7,0.4,1.3,0.7,2c0.4,0.5,0.9,1.1,1.5,1.6c0.5,0.4,1.1,0.7,1.8,0.9c0.3,0.2,0.7,0.2,1,0.2
			c0.6,0.1,1.3,0.2,1.9,0.2l14.7,0L171.5,312.5z"/>
		<path fill-rule="evenodd" clip-rule="evenodd" fill="#AFCA0B" d="M151.4,377.4c-2.5,0-4.9,1-6.7,2.7c-1.7,1.7-2.7,4-2.7,6.4
			c0,2.4,0.9,4.8,2.7,6.5c1.8,1.7,4.2,2.7,6.7,2.8c2.5,0,5-1,6.8-2.7c1.8-1.7,2.7-4.1,2.8-6.5c0-2.5-1-4.8-2.8-6.5
			C156.5,378.3,154,377.3,151.4,377.4z"/>
	</g>
</g>
</svg>
