<?xml version="1.0" encoding="UTF-8" standalone="no"?>
<svg width="148px" height="150px" viewBox="0 0 148 150" version="1.1" xmlns="http://www.w3.org/2000/svg" xmlns:xlink="http://www.w3.org/1999/xlink">
    <!-- Generator: Sketch 41.2 (35397) - http://www.bohemiancoding.com/sketch -->
    <title>Slice 1</title>
    <desc>Created with Sketch.</desc>
    <defs>
        <radialGradient cx="77.5652677%" cy="20.1759671%" fx="77.5652677%" fy="20.1759671%" r="105.594839%" id="radialGradient-1">
            <stop stop-color="#FBBF00" offset="0%"></stop>
            <stop stop-color="#F28F1A" offset="100%"></stop>
        </radialGradient>
        <path d="M0.189,69.708 C0.189,107.749 31.025,138.585 69.064,138.585 C107.103,138.585 137.939,107.749 137.939,69.708 C137.939,31.669 107.103,0.832 69.064,0.832 C31.025,0.832 0.189,31.669 0.189,69.708 Z" id="path-2"></path>
        <mask id="mask-4" maskContentUnits="userSpaceOnUse" maskUnits="objectBoundingBox" x="-5" y="-5" width="147.75" height="147.753">
            <rect x="-4.811" y="-4.168" width="147.75" height="147.753" fill="white"></rect>
            <use xlink:href="#path-2" fill="black"></use>
        </mask>
    </defs>
    <g id="Page-1" stroke="none" stroke-width="1" fill="none" fill-rule="evenodd">
        <g id="Group-243" transform="translate(5.000000, 6.000000)">
            <g id="Group-106">
                <mask id="mask-3" fill="white">
                    <use xlink:href="#path-2"></use>
                </mask>
                <g id="Clip-105">
                    <use fill="url(#radialGradient-1)" fill-rule="evenodd" xlink:href="#path-2"></use>
                    <use stroke="#FFF0D4" mask="url(#mask-4)" stroke-width="10" xlink:href="#path-2"></use>
                </g>
            </g>
        </g>
        <g id="Group-248" transform="translate(2.000000, 0.000000)" fill="#FFF0D4">
            <path d="M38.7074,26.9668 C36.7524,26.0498 37.1334,25.4008 39.8504,25.0208 C42.5664,24.6408 46.0794,23.4728 50.3874,21.5168 C54.6964,19.5608 59.6534,16.0048 65.2604,10.8488 C70.8664,5.6928 74.0414,2.3968 74.7854,0.9608 C75.5304,-0.4762 76.3954,2.0588 77.3814,8.5648 C78.3674,15.0708 79.2064,21.4298 79.8984,27.6418 C80.5914,33.8548 80.6684,40.0568 80.1324,46.2518 C79.5954,52.4458 77.7004,58.1558 74.4474,63.3818 C71.1944,68.6078 66.8084,72.8388 61.2894,76.0748 C55.7694,79.3108 49.6094,81.6118 42.8084,82.9778 C36.0084,84.3448 30.3064,84.4998 25.7044,83.4448 C21.1014,82.3898 15.9624,79.4398 10.2864,74.5948 C4.6114,69.7498 1.5054,66.0808 0.9684,63.5898 C0.4324,61.0978 0.9254,60.8728 2.4474,62.9158 C3.9704,64.9568 7.8644,67.5698 14.1284,70.7538 C20.3924,73.9378 25.9474,75.5648 30.7924,75.6338 C35.6374,75.7028 39.9454,74.9848 43.7174,73.4788 C47.4894,71.9738 51.1484,70.0868 54.6964,67.8208 C58.2434,65.5538 61.9204,62.2228 65.7264,57.8278 C69.5334,53.4328 71.6964,48.5878 72.2164,43.2928 C72.7354,37.9978 72.7274,32.3658 72.1904,26.3958 C71.6534,20.4268 70.1744,18.4978 67.7514,20.6078 C65.3294,22.7188 62.6474,24.3458 59.7064,25.4878 C56.7644,26.6298 53.0184,27.3908 48.4674,27.7718 C43.9164,28.1518 40.6634,27.8838 38.7074,26.9668" id="Fill-244"></path>
            <path d="M85.0166,89.3042 C83.0616,88.3872 83.4426,87.7382 86.1596,87.3582 C88.8756,86.9772 92.3886,85.8092 96.6966,83.8542 C101.0056,81.8982 105.9626,78.3422 111.5686,73.1862 C117.1756,68.0302 120.3506,64.7342 121.0946,63.2982 C121.8396,61.8612 122.7046,64.3962 123.6906,70.9022 C124.6766,77.4082 125.5156,83.7672 126.2076,89.9792 C126.8996,96.1912 126.9776,102.3952 126.4416,108.5892 C125.9046,114.7832 124.0096,120.4932 120.7566,125.7192 C117.5036,130.9452 113.1176,135.1762 107.5986,138.4122 C102.0786,141.6472 95.9186,143.9492 89.1176,145.3152 C82.3176,146.6822 76.6156,146.8372 72.0126,145.7822 C67.4106,144.7272 62.2716,141.7762 56.5956,136.9322 C50.9206,132.0872 47.8146,128.4182 47.2776,125.9272 C46.7416,123.4352 47.2346,123.2102 48.7566,125.2522 C50.2796,127.2942 54.1736,129.9072 60.4376,133.0912 C66.7016,136.2752 72.2566,137.9022 77.1006,137.9712 C81.9466,138.0402 86.2546,137.3222 90.0266,135.8162 C93.7986,134.3112 97.4576,132.4242 101.0056,130.1582 C104.5516,127.8912 108.2286,124.5602 112.0356,120.1652 C115.8426,115.7702 118.0056,110.9252 118.5246,105.6302 C119.0446,100.3352 119.0356,94.7032 118.4996,88.7332 C117.9626,82.7642 116.4836,80.8352 114.0606,82.9452 C111.6386,85.0562 108.9566,86.6822 106.0146,87.8252 C103.0736,88.9672 99.3276,89.7282 94.7766,90.1092 C90.2256,90.4892 86.9726,90.2212 85.0166,89.3042" id="Fill-246"></path>
        </g>
    </g>
</svg>