<?xml version="1.0" encoding="UTF-8"?>
<svg width="498px" height="247px" viewBox="0 0 498 247" version="1.1" xmlns="http://www.w3.org/2000/svg" xmlns:xlink="http://www.w3.org/1999/xlink">
    <!-- Generator: Sketch 43.2 (39069) - http://www.bohemiancoding.com/sketch -->
    <title>Slice 1</title>
    <desc>Created with Sketch.</desc>
    <defs>
        <polygon id="path-1" points="0.178807979 0.15751721 89.8374648 0.15751721 89.8374648 155.98476 0.178807979 155.98476 0.178807979 0.15751721"></polygon>
    </defs>
    <g id="Page-1" stroke="none" stroke-width="1" fill="none" fill-rule="evenodd">
        <g id="lachmayr">
            <path d="M95.5885975,188.178569 C85.7597576,188.056337 75.9636687,187.582031 66.2282084,186.011148 C57.8901284,184.665428 49.6310021,183.057895 41.6305704,180.307582 C38.9112541,179.372616 36.235606,178.311325 33.5313006,177.331326 C32.6530642,177.013367 31.7623511,176.699112 30.8511687,176.508259 C29.1685808,176.155405 27.5793725,176.304345 26.0958255,177.364857 C22.3395859,180.050642 18.0825273,180.96085 13.5367522,180.639772 C10.9398626,180.456132 8.32172388,180.386341 5.87728292,179.2652 C1.74323594,177.36973 -0.367260732,173.791282 0.052655196,169.271045 C0.496159717,164.492893 4.46391686,160.130173 9.36917433,158.946455 C12.2588743,158.249129 15.2008201,158.274862 18.1361378,158.165692 C18.6040107,158.148147 19.0759774,158.116955 19.5407312,158.15536 C21.4822088,158.316386 22.6772342,157.392727 23.432459,155.661597 C25.0095806,152.047474 26.793346,148.533359 28.6862818,145.073829 C34.9167892,133.687167 42.283643,123.153008 51.8828354,114.314499 C58.0842957,108.604891 65.0807501,104.103758 72.8905235,100.907796 C75.322098,99.9125918 77.8197595,99.411383 80.516072,99.6944461 C83.2946522,99.9858919 85.0790025,101.433764 86.2902085,103.769619 C87.5647722,106.226926 88.1209561,108.910957 88.6855228,111.599472 C89.7353126,116.599084 88.4287775,121.017754 85.4059287,124.966796 C83.6375641,127.277308 81.3646765,128.820509 78.2461087,128.731808 C75.8184332,128.662797 74.2358531,127.54653 73.3513783,125.295671 C72.5801678,123.332945 72.255581,121.313488 72.2817039,119.217418 C72.2932058,118.281672 72.3152348,117.336374 72.2048948,116.41057 C72.0588795,115.185523 71.4557133,114.870683 70.2275469,115.175581 C69.6828649,115.311069 69.2826386,115.658074 68.8403038,115.94991 C64.2771784,118.960477 60.4858483,122.819454 56.8882956,126.88254 C50.1957636,134.441027 44.9399914,142.949296 40.5805856,152.012774 C39.2543609,154.770105 38.0178118,157.606194 37.3284791,160.624559 C36.8438407,162.747143 36.9604191,163.155752 38.8053979,164.22874 C43.50947,166.965992 48.5170747,168.982134 53.739511,170.515587 C62.7909021,173.1733 72.1212625,173.87511 81.4447997,174.782783 C90.1813514,175.633142 98.7892381,174.613569 107.43124,173.732993 C112.019319,173.2659 116.610517,172.772489 121.235051,172.803681 C123.513202,172.818887 125.788234,172.871522 128.018818,173.391251 C128.863328,173.587953 129.715247,173.806293 130.515505,174.133025 C134.074263,175.58538 134.668851,179.324659 131.730609,181.790544 C130.111574,183.149325 128.154306,183.883106 126.164287,184.463073 C118.996474,186.552126 111.645411,187.504247 104.207596,187.888488 C101.336611,188.036453 98.4697199,188.286375 95.5885975,188.178569" id="Fill-1" fill="#3EA447"></path>
            <path d="M156.518301,144.520725 C154.71738,145.001074 153.570897,146.154966 152.371973,147.189355 C149.282062,149.856425 146.612847,152.944971 143.771884,155.862549 C139.97607,159.7611 135.605747,162.947899 130.883545,165.615359 C128.76837,166.81019 126.314376,167.145109 123.914188,167.336742 C119.963781,167.652361 116.019028,167.488021 112.169604,166.441935 C108.645546,165.48416 106.154318,163.181835 104.76688,159.892299 C102.370006,154.208228 101.8957,148.407969 105.268284,142.940484 C108.855504,137.124629 113.703252,132.748653 120.697172,131.464927 C125.43731,130.594683 129.562194,131.852286 132.809622,135.550627 C133.51455,136.353613 134.200764,137.173561 134.893021,137.987465 C136.055685,139.355018 136.235816,140.999007 135.55701,142.504583 C134.807634,144.166701 133.259949,145.077689 131.410682,145.295055 C130.511976,145.400716 129.689689,145.123501 129.000162,144.514097 C128.449826,144.027509 127.897151,143.543065 127.355978,143.04634 C124.448538,140.377515 120.385452,140.658629 117.809227,143.67329 C115.315854,146.591062 114.476607,150.013163 114.692998,153.747958 C114.789302,155.408127 116.040472,156.619918 117.761855,156.966339 C120.957232,157.609079 123.994117,157.015661 126.977976,155.876 C130.480395,154.538274 133.454117,152.440448 135.939302,149.653486 C138.280031,147.028329 139.215582,143.720662 140.21722,140.473039 C141.422577,136.564936 141.824558,132.48216 142.662635,128.495298 C143.733284,123.400747 145.001415,118.345575 146.996893,113.50699 C147.493618,112.302412 148.260345,111.302529 149.123765,110.377115 C151.526097,107.803034 155.757618,108.746383 157.348776,110.221742 C158.184514,110.996657 158.465432,112.025782 158.657455,113.08337 C159.056707,115.282373 158.977558,117.495411 158.561736,119.670436 C158.036744,122.417044 157.538459,125.167162 156.857314,127.889013 C155.870882,131.830257 156.923401,131.912135 159.927925,131.338991 C161.297818,131.077762 162.673754,130.892757 164.101351,130.973465 C166.614998,131.115192 168.020567,132.507893 168.677928,134.754268 C169.552655,137.744366 169.528677,140.80055 169.231383,143.886562 C168.864687,147.691538 167.741208,151.355373 167.250526,155.127404 C166.55242,160.492346 165.81864,165.860213 165.921767,171.294362 C165.938142,172.162461 165.882193,173.031925 165.884532,173.900804 C165.889406,175.893162 164.802771,177.174549 163.105172,177.942641 C160.927224,178.928293 158.615152,179.239623 156.236993,178.928098 C154.728492,178.730227 153.83661,177.795456 153.484925,176.377021 C152.689931,173.172871 152.371583,169.955076 152.930886,166.64468 C153.900357,160.906804 155.10552,155.224682 156.490229,149.574142 C156.875834,148.00014 157.427144,146.348548 156.518301,144.520725" id="Fill-3" fill="#3EA447"></path>
            <path d="M212.646479,142.173348 C211.422406,141.739591 210.859399,142.542188 210.293078,143.289225 C209.149324,144.7987 208.395464,146.51092 207.817251,148.298194 C206.688312,151.787551 205.629945,155.299912 204.46884,158.778547 C203.588654,161.415011 201.979367,163.468583 199.375849,164.648598 C197.909652,165.312977 196.400567,165.359959 194.862435,165.059546 C193.192129,164.733594 192.489345,163.895712 192.381344,162.163413 C192.195949,159.185597 192.799505,156.304864 193.485719,153.438363 C194.186359,150.511428 194.67977,147.556616 194.794788,144.545464 C194.810189,144.146212 194.792644,143.744816 194.772369,143.345565 C194.73338,142.586441 194.616022,141.855 193.774825,141.549128 C192.808278,141.198028 192.06553,141.608586 191.481663,142.336519 C190.465209,143.603674 189.781335,145.057395 189.319701,146.603325 C188.212596,150.311802 187.124207,154.025933 186.061161,157.747082 C185.257979,160.558804 183.797046,162.858009 181.169355,164.293209 C180.701482,164.54859 180.236728,164.829703 179.737274,165.004181 C176.336813,166.192578 174.254388,164.993069 173.685143,161.469011 C173.406953,159.747629 173.516904,158.047886 173.922588,156.311882 C174.717777,152.910836 176.34773,149.802601 177.199063,146.427482 C177.464971,145.372819 177.610791,144.3203 177.54373,143.255109 C177.462047,141.953838 177.028095,141.481091 175.751387,141.196079 C174.841179,140.993139 173.892956,140.950445 172.993081,140.716314 C171.676603,140.373792 171.30289,139.493021 171.889486,138.267974 C172.060649,137.910831 172.312911,137.585854 172.562443,137.273744 C174.152431,135.286259 175.890969,133.44206 177.908865,131.880339 C179.459669,130.68044 181.091961,130.235376 182.904188,131.368798 C184.385591,132.295381 185.874597,131.895545 187.309797,131.240718 C189.731624,130.135953 192.301611,129.799669 194.916825,129.709604 C197.205503,129.630845 199.335105,130.192683 201.005996,131.817371 C202.636143,133.402486 204.192016,133.599187 206.186519,132.382328 C209.272725,130.499724 212.71705,130.193073 216.259237,130.66153 C219.971029,131.152407 222.503001,133.150809 223.983039,136.558483 C225.051544,139.017935 225.321546,141.59455 225.044331,144.222631 C224.452862,149.832817 223.175569,155.283537 221.083007,160.533655 C220.657828,161.600601 220.04121,162.555646 219.32322,163.430373 C217.92389,165.13499 216.065265,165.699557 213.9304,165.351772 C212.398116,165.102044 211.477771,164.254025 211.119654,162.648051 C210.559571,160.136158 211.013797,157.730512 211.616184,155.332273 C212.350744,152.405728 212.896986,149.450916 213.149442,146.446977 C213.272064,144.989553 213.30345,143.521212 212.646479,142.173348" id="Fill-5" fill="#3EA447"></path>
            <path d="M251.215347,129.234693 C254.083798,128.991984 256.67172,129.679952 259.203108,130.566766 C260.840078,131.140106 262.30647,131.075968 263.790211,130.129305 C265.890376,128.789434 268.183343,129.101545 270.384295,129.738242 C272.182682,130.25836 273.181395,132.282495 273.01686,134.4544 C272.880007,136.264289 272.449174,138.035188 271.869012,139.721869 C270.192467,144.59613 269.062944,149.615432 267.69812,154.57196 C267.18385,156.438773 266.619868,158.294084 265.701667,160.013907 C263.542824,164.056914 260.288183,164.863995 256.270129,162.932069 C255.909477,162.758956 255.549995,162.563424 255.234181,162.320715 C253.876765,161.277554 252.45599,161.271121 250.875945,161.807615 C248.157603,162.730884 245.429904,163.628615 242.539619,163.934097 C240.190507,164.182655 237.861085,164.212871 235.54453,163.760204 C231.619661,162.992893 229.013219,160.70129 228.181185,156.766674 C226.48885,148.764293 228.514934,141.638979 233.908729,135.586848 C236.650659,132.509999 240.45817,131.038538 244.39493,130.031832 C246.670352,129.44972 248.991976,129.129032 251.215347,129.234693 M250.790363,139.39007 C249.654212,139.218906 248.271452,139.545247 246.907408,139.832599 C242.615649,140.737349 238.184112,145.640072 239.193353,151.323948 C239.518135,153.153721 240.314494,153.972108 242.128086,154.383642 C243.187038,154.623621 244.241507,154.662611 245.302019,154.469613 C248.29894,153.924346 250.959577,152.607674 253.473614,150.931714 C256.056077,149.209552 257.235897,146.649508 257.671799,143.73349 C258.067346,141.084549 257.406671,140.643189 255.399691,140.075698 C253.981646,139.675277 252.555413,139.381882 250.790363,139.39007" id="Fill-7" fill="#3EA447"></path>
            <path d="M59.2108752,154.293011 C59.7682288,147.659938 61.7280314,141.600984 66.8927634,137.035519 C70.3012174,134.022612 74.4951131,132.637903 78.9391259,132.04234 C83.0289199,131.494344 87.0787498,131.795147 91.031301,133.032281 C92.7121344,133.558638 94.2604038,133.547721 95.8314821,132.568307 C97.4316074,131.570568 99.2611854,131.492589 101.080821,131.868837 C103.40498,132.349187 104.631586,133.855932 104.737638,136.215571 C104.822635,138.11533 104.419484,139.960309 103.919835,141.751093 C102.249918,147.735187 100.467908,153.688285 98.7319041,159.654444 C98.2790422,161.210901 97.5821065,162.63304 96.5469377,163.894542 C95.6907303,164.937314 94.8815051,166.033111 93.3973733,166.178347 C91.3792815,166.375633 89.231355,166.541338 87.6259661,165.175344 C85.8203666,163.638772 84.1555189,163.66236 82.100972,164.471196 C77.8914805,166.128246 73.5285657,167.03319 68.9553031,166.587541 C63.9009111,166.095105 60.6702487,163.24108 59.7214415,158.313404 C59.4687901,157.00102 59.2301749,155.678694 59.2108752,154.293011 M83.146473,141.768443 C80.1774295,141.854025 77.3083939,142.299674 74.9009929,144.255187 C71.9118699,146.682668 70.597147,149.797337 71.1617137,153.638184 C71.5057952,155.979108 72.9082442,157.207079 75.2162223,157.25796 C76.3642654,157.283108 77.4713696,157.043324 78.5689215,156.733943 C80.7712382,156.113231 82.8082399,155.08703 84.7210602,153.889665 C87.5222543,152.135922 89.1670225,149.539227 89.4721146,146.200954 C89.6779787,143.945807 88.7535398,142.686059 86.5315334,142.137868 C85.4289129,141.866111 84.2947111,141.767468 83.146473,141.768443" id="Fill-9" fill="#3EA447"></path>
            <g id="Group-13" transform="translate(345.446158, 0.491667)">
                <mask id="mask-2" fill="white">
                    <use xlink:href="#path-1"></use>
                </mask>
                <g id="Clip-12"></g>
                <path d="M21.930392,0.408570011 C22.5585114,0.0754055158 23.0246298,0.200561517 23.7153272,0.209918975 C30.6538823,25.6559665 37.6027696,51.1394438 44.551267,76.6229211 C44.6929935,76.6299392 44.8343301,76.6367624 44.9760566,76.6437805 C51.7916001,51.2100146 58.6073386,25.7764437 65.4065066,0.403891282 C65.9921275,0.0356363193 66.5173148,0.171124513 67.2341351,0.23662672 C67.8000664,2.21689877 68.3901711,4.25292568 68.9633154,6.29382626 C73.9664363,24.1125707 78.969947,41.9313152 83.9658549,59.7520092 C85.7700898,66.187406 87.5331908,72.6343046 89.3654981,79.0615137 C89.7589012,80.4411539 89.8298619,81.8233284 89.8302518,83.2261673 C89.8355154,106.510057 89.8357103,129.793557 89.8374648,153.077447 C89.8374648,155.500444 89.3676425,155.97631 86.9421114,155.97631 C59.0791105,155.977284 31.2159146,155.976699 3.35252378,155.976504 C2.95093287,155.976504 2.54680765,155.999898 2.14736116,155.967927 C1.24378162,155.895017 0.304526774,154.983054 0.225963116,154.07733 C0.179955614,153.54532 0.211926929,153.006486 0.211926929,152.470577 C0.211731982,130.300419 0.241948774,108.130652 0.178980879,85.9606895 C0.169233527,82.6450302 0.571409275,79.4525774 1.43911856,76.2648034 C5.5622485,61.1168334 9.63976083,45.9559969 13.7176631,30.7955503 C16.3385311,21.0530719 18.9307419,11.3026006 21.540498,1.55719798 C21.6438199,1.17120284 21.7968533,0.798659042 21.930392,0.408570011 M66.5713152,4.40420458 C66.4420653,4.39816122 66.3126205,4.39192292 66.1837605,4.38587956 C59.3446283,29.9249168 52.5054962,55.464149 45.6624651,81.0183921 L43.8843532,81.0183921 C36.9253286,55.4686328 29.9778059,29.9627365 23.0144925,4.3967966 C22.5663093,4.69798978 22.4425179,4.9964537 22.3565463,5.31811632 C20.0758608,13.8339879 17.7971249,22.3500545 15.5146849,30.8653413 C11.3808329,46.2877968 7.23547896,61.707133 3.12287616,77.1352419 C2.69516235,78.740046 2.07718023,80.3058606 2.07796002,82.0173007 C2.08887705,105.589322 2.08497811,129.161344 2.09160631,152.733365 C2.09160631,153.183888 1.97151893,153.685682 2.33002654,153.962896 L88.0989271,153.962896 L88.0989271,151.660767 C88.0989271,128.758388 88.0944433,105.85601 88.1110138,82.9536314 C88.1117936,81.732873 87.9207455,80.573133 87.59148,79.4052053 C84.8394126,69.6330949 82.1085944,59.8551361 79.3727076,50.078542 C75.6102297,36.6330445 71.8495063,23.1869622 68.0860537,9.74165964 C67.5875741,7.96081842 67.0766179,6.18329129 66.5713152,4.40420458" id="Fill-11" fill="#3EA447" mask="url(#mask-2)"></path>
            </g>
            <path d="M288.881436,151.621632 C290.28213,151.286323 290.605937,150.177269 291.065623,149.25595 C293.183137,145.013707 295.256594,140.749045 297.332975,136.485944 C298.395241,134.305461 299.606642,132.263196 301.695695,130.866205 C303.302448,129.791852 305.023831,129.181278 306.962384,129.183617 C309.237806,129.186931 310.42016,130.307292 310.579821,132.558151 C310.73149,134.694185 310.039038,136.64775 309.349121,138.602289 C306.961799,145.365976 303.586876,151.68265 300.46051,158.109469 C298.297963,162.555432 296.514002,167.160276 294.549911,171.68909 C293.96507,173.037734 293.425067,174.408407 292.465537,175.559374 C291.356289,176.889888 289.996533,177.7652 288.271642,178.089982 C285.675922,178.578519 284.178338,177.776507 283.275539,175.282939 C282.577238,173.353938 282.455397,171.368403 282.881356,169.360058 C283.019963,168.707181 283.250586,168.073798 283.395041,167.4217 C283.835817,165.439283 283.653736,164.947042 281.767039,164.157896 C279.403111,163.16893 278.071817,161.391598 277.424788,159.003302 C276.984208,157.376663 276.804272,155.712596 276.878352,154.032932 C277.117552,148.62861 277.384629,143.226238 277.635331,137.822695 C277.732804,135.723116 278.310433,133.752396 279.120437,131.824955 C279.607415,130.666579 280.448027,130.031442 281.623168,129.72713 C282.817023,129.418139 284.054742,129.362969 285.20298,129.678978 C286.944832,130.158547 288.030687,131.383984 288.274566,133.237346 C288.711637,136.559828 288.835038,139.892643 288.606755,143.239494 C288.47926,145.107671 288.402256,146.979553 288.312385,148.849875 C288.267743,149.777238 288.254291,150.703431 288.881436,151.621632" id="Fill-14" fill="#3EA447"></path>
            <g id="Group-18" transform="translate(95.913945, 144.557531)" fill="#3EA447">
                <path d="M0.714675856,101.205802 C0.219315422,100.582946 0.104686562,100.101427 0.231012245,99.4350976 C2.42299678,87.8848753 4.57969591,76.3278298 6.73990408,64.7713691 C6.96058413,63.5917446 7.0487002,62.3840477 7.49454408,61.2315207 C8.02674951,61.1506177 8.50943838,61.3026764 9.11085001,61.6379853 C6.84595527,73.9254974 4.57560202,86.2424464 2.23389815,98.9475351 C132.439027,66.6477344 262.268884,34.4409235 392.497017,2.13566434 C391.337472,1.76760432 390.560023,1.86839194 389.800509,1.8678071 C375.667824,1.86098396 361.534943,1.86273848 347.402062,1.86254353 C346.933214,1.86254353 346.463587,1.87930898 345.995519,1.85766986 C344.780219,1.80094027 344.780414,1.79411712 344.760335,0.122056343 L400.653796,0.122056343 C401.090088,0.472376177 401.087553,1.05838699 401.0433,1.85903449 C267.612577,34.9715694 134.143644,68.0934617 0.714675856,101.205802" id="Fill-16"></path>
            </g>
            <path d="M327.242978,143.002458 C326.20469,142.891338 325.611077,143.444403 325.198374,144.148941 C324.491301,145.355274 323.75674,146.536653 323.318304,147.903037 C322.276897,151.14754 321.136457,154.361047 319.987829,157.57007 C319.37628,159.278391 318.490831,160.84713 317.317835,162.249579 C315.315144,164.643919 311.788162,164.934975 309.466537,162.865222 C308.697081,162.179203 308.238566,161.346585 308.069157,160.291141 C307.732288,158.188248 308.11419,156.163138 308.555745,154.136858 C309.328125,150.587847 310.940337,147.340614 312.248822,143.985186 C313.607213,140.501482 314.46342,136.841157 316.001552,133.420421 C316.582104,132.129092 317.268708,130.910283 318.248317,129.887201 C319.667141,128.405798 321.136847,128.387083 322.59895,129.783684 C322.792337,129.968494 322.978512,130.161296 323.163906,130.354294 C324.99173,132.255612 325.558246,132.358349 327.858426,131.184963 C329.045069,130.579652 330.173422,129.864392 331.443502,129.417963 C332.399717,129.081874 333.362366,128.856516 334.37765,128.84053 C336.42089,128.808364 337.558601,129.451689 338.186525,131.389073 C339.091275,134.181884 339.92019,137.019533 340.237758,139.945688 C340.518677,142.530101 339.848644,144.846462 337.661533,146.536848 C335.907205,147.892704 334.131042,149.134322 331.852501,149.503552 C329.511967,149.882919 328.142854,148.813244 328.046355,146.833557 C327.991965,145.710077 327.663089,144.599659 327.449817,143.484952 C327.425644,143.359016 327.34825,143.243217 327.242978,143.002458" id="Fill-19" fill="#3EA447"></path>
            <path d="M277.615446,204.767334 C277.866343,204.163778 278.400498,203.943488 278.995087,203.671537 C280.524056,205.350226 281.984599,206.996359 283.490175,208.600188 C288.034781,213.441698 293.024061,217.771861 298.359566,221.730066 C307.348769,228.39784 317.19184,233.441315 327.727753,237.089359 C335.251734,239.694241 343.020764,241.382872 350.956863,242.244733 C359.163354,243.136031 367.362046,243.126869 375.561519,242.185664 C385.348445,241.062574 394.813904,238.714047 403.968032,235.028769 C416.063521,230.158602 426.9094,223.358849 436.575849,214.614109 C447.162058,205.037141 455.49546,193.805852 461.707057,180.971123 C465.597615,172.931507 468.318881,164.502387 470.175752,155.783966 C470.371868,154.8644 470.545371,154.179746 471.685422,154.710392 C466.046773,190.166775 437.613162,229.474727 390.420772,241.52148 C343.529381,253.491813 299.810362,233.171118 277.615446,204.767334" id="Fill-21" fill="#3EA447"></path>
            <path d="M254.244825,123.328792 C253.741081,123.272453 253.288999,123.221766 252.569255,123.141058 C253.65433,111.288668 256.704471,100.035155 261.576588,89.2902589 C271.662368,67.0469964 287.416233,49.9027686 308.661172,37.9133306 C324.40568,29.0280343 341.400968,24.4286488 359.453649,23.8153454 C359.940627,25.3220911 359.104109,25.5070958 358.156861,25.5121644 C355.073189,25.5289299 352.021683,25.903813 348.968617,26.2761619 C340.910871,27.2592798 333.090571,29.2157683 325.473015,32.0017565 C319.300797,34.2592433 313.356667,37.0085814 307.701643,40.3595261 C300.776539,44.4627714 294.354789,49.2341003 288.45881,54.7316069 C283.603849,59.2586671 279.227483,64.1970655 275.265574,69.507228 C269.883866,76.7202686 265.485081,84.5023595 262.060836,92.8232841 C258.562707,101.32278 256.206577,110.138285 254.947804,119.244457 C254.856568,119.905522 254.881522,120.593685 254.706264,121.229018 C254.529447,121.871563 254.788337,122.584095 254.244825,123.328792" id="Fill-23" fill="#3EA447"></path>
            <path d="M473.262699,142.874514 C472.141949,143.062638 471.923218,142.439002 472.030439,141.696839 C472.242736,140.229473 472.168851,138.757817 472.213494,137.288112 C472.589547,124.952838 470.9208,112.920121 467.179961,101.140836 C463.669355,90.0863641 458.520804,79.8726987 451.740156,70.5097822 C444.631412,60.6936138 436.123923,52.2368111 426.154916,45.2924076 C426.049255,45.2187176 425.97615,45.0980454 425.885304,44.9960881 C425.923514,44.6038546 425.894662,44.1837437 426.313408,43.9457134 C459.268231,65.7125254 477.05091,106.967998 473.262699,142.874514" id="Fill-25" fill="#3EA447"></path>
            <path d="M87.3792996,209.775426 C85.2773806,207.767082 84.955718,205.737878 86.472211,204.051196 C87.9834405,202.370168 91.3909198,202.154167 93.087349,203.63206 C94.9083493,205.218344 94.7112579,207.307397 92.3783266,210.039384 C93.8028046,210.821902 94.740305,211.948111 94.718081,213.665789 C94.7022903,214.873876 94.2330528,215.880973 93.4271417,216.731527 C91.7196006,218.534592 88.3033486,218.580209 86.4897563,216.850639 C84.4361841,214.892006 84.753363,212.368417 87.3792996,209.775426 M88.743539,210.451892 C87.4270616,211.565625 86.8560618,212.881322 87.3001511,214.539347 C87.6350701,215.789932 88.7135172,216.691952 89.8512281,216.742054 C91.033192,216.794105 92.0862959,216.09444 92.4863273,214.991234 C92.9890957,213.605161 92.6822491,212.546208 91.4768915,211.664853 C90.6641573,211.070849 89.7143753,210.776479 88.743539,210.451892 M92.3724782,206.499146 C92.3338787,205.015794 91.2252149,203.953138 89.8102892,204.043593 C88.4115442,204.133074 87.4752136,205.054199 87.510499,206.305564 C87.5487086,207.649334 89.4823883,209.359214 90.8144614,209.22704 C91.6139393,209.147892 92.4054243,207.762013 92.3724782,206.499146" id="Fill-27" fill="#3EA447"></path>
            <path d="M131.02687,84.25581 L131.02687,89.7618943 C133.262523,89.9919318 135.37146,89.8472811 137.543755,89.8638516 C138.097209,88.0391473 137.554477,86.2124935 137.91045,84.4203453 C138.076935,84.3320343 138.237376,84.1856291 138.411464,84.1667192 C138.799409,84.1248056 139.211137,84.056964 139.658735,84.4688871 L139.658735,98.3612032 C139.142515,98.9146579 138.552996,98.6516743 137.792117,98.6508945 L137.792117,91.9390628 C135.500905,91.6066781 133.395477,91.8037696 131.224546,91.7758922 C130.774414,94.0901085 131.238583,96.3035372 130.930176,98.4764169 C130.400115,98.8364841 129.898322,98.7349167 129.179747,98.4875289 C128.988114,93.8468146 129.11132,89.1382587 129.128086,84.5527144 C129.721895,83.9865882 130.252346,84.1427407 131.02687,84.25581" id="Fill-29" fill="#3EA447"></path>
            <path d="M179.986942,98.5443365 C179.357458,98.8043958 178.849037,98.7578035 178.308253,98.5355639 C177.902959,96.3457238 178.409236,94.1315153 178.022851,91.8691548 L171.666993,91.8691548 C171.238304,94.0252691 171.684733,96.2326545 171.405958,98.3581621 C170.850359,98.9357902 170.279944,98.6392757 169.619074,98.638301 L169.619074,84.4340696 C170.210153,83.9767238 170.724814,84.1599741 171.298153,84.2578375 C171.765246,86.0254223 171.255264,87.8497367 171.627808,89.7243475 C173.731287,90.071938 175.831646,89.784976 178.13553,89.9003847 L178.13553,84.5161423 C178.819794,83.994464 179.330361,84.1044141 179.986942,84.3052096 L179.986942,98.5443365 Z" id="Fill-31" fill="#3EA447"></path>
            <path d="M164.492844,84.3775544 C165.291347,84.0510182 165.74187,84.1274374 166.332754,84.2676043 L166.332754,98.3835247 C165.824917,98.9147554 165.298755,98.6465082 164.695394,98.654891 C164.162799,96.4182635 164.776687,94.1408922 164.30355,91.870344 C162.197148,91.6757869 160.149814,91.7375851 157.993699,91.8352535 C157.593083,94.0539458 158.00988,96.258212 157.742803,98.3798207 C157.225218,98.853542 156.701006,98.7073317 155.940712,98.5796414 C155.751614,93.8570493 155.893535,89.0960527 155.883983,84.2923626 C156.317155,84.2202322 156.568637,84.1463473 156.820118,84.1451776 C157.078228,84.1440079 157.336338,84.2137989 157.650203,84.2607812 C158.063296,86.05059 157.605755,87.8684711 157.959779,89.7456162 C160.088405,90.0087947 162.189935,89.8633642 164.492844,89.842115 L164.492844,84.3775544 Z" id="Fill-33" fill="#3EA447"></path>
            <path d="M18.1663351,215.946338 L24.958095,215.946338 C25.3945815,216.549894 25.3419458,216.98833 25.135107,217.564594 L16.2470814,217.564594 C15.9944301,212.796579 16.2090668,208.047864 16.1266042,203.196217 L25.0302255,203.196217 C25.4014046,203.671108 25.3327833,204.113443 25.1579158,204.678984 C22.9672959,205.064005 20.6928487,204.648962 18.3733688,204.922083 C17.8520804,206.122567 18.1329991,207.354047 18.1483999,208.795681 L24.4342723,208.795681 C24.9697919,209.478385 24.8608165,209.983883 24.6742522,210.573793 C22.6025499,210.973434 20.4540386,210.508875 18.2716065,210.858026 C17.9290845,212.457761 18.1043419,214.035857 18.1663351,215.946338" id="Fill-35" fill="#3EA447"></path>
            <path d="M194.939809,84.3916491 C195.576312,84.0504918 196.078885,84.0705713 196.829431,84.4222558 C196.829431,86.8345305 196.825727,89.357925 196.831381,91.8811246 C196.833525,92.7500035 196.808572,93.6233663 196.883821,94.4867867 C197.062003,96.5378246 198.109453,97.4948196 200.114679,97.515289 C202.160648,97.5361484 203.259759,96.6390021 203.353529,94.5398123 C203.487262,91.5417218 203.446129,88.5358333 203.470887,85.533064 C203.474201,85.1328378 203.408894,84.7298822 203.6633,84.3475911 C204.133122,84.0444484 204.639205,84.0705713 205.142948,84.252067 C205.218392,84.3856058 205.333411,84.4943862 205.333801,84.6035566 C205.350176,87.936956 205.414119,91.2715252 205.340624,94.6029752 C205.295396,96.6547928 204.284401,98.3190557 202.277421,98.8549651 C200.122671,99.4304488 197.90203,99.4361022 196.127037,97.618611 C195.380975,96.8550034 194.9942,95.8900155 194.971586,94.9119662 C194.890488,91.3859591 194.939809,87.8570277 194.939809,84.3916491" id="Fill-37" fill="#3EA447"></path>
            <path d="M64.6708349,217.848398 C64.4008333,217.41698 64.5238449,216.964508 64.4686749,216.344576 C68.0252887,216.964118 70.1714607,215.704955 70.5537518,212.064124 C70.0552722,211.644793 69.7002737,212.137814 69.286791,212.232753 C67.3708515,212.673723 65.5568693,212.668265 64.1579293,210.981193 C62.9334669,209.504469 62.8129896,206.853579 63.9253575,204.932571 C64.9412265,203.177853 66.5124997,202.516203 68.4958909,202.719532 C70.1012797,202.884263 71.2777851,203.691928 71.8774422,205.170602 C73.2652702,208.592507 73.023146,212.012853 71.3717496,215.245075 C70.107713,217.718563 67.8244932,218.477492 64.6708349,217.848398 M70.6557091,208.530124 C70.6217884,207.6051 70.5699324,206.469924 69.9045782,205.479593 C69.0136702,204.153563 67.4301154,203.885121 66.2764188,204.857712 C65.1621015,205.797746 64.8256229,207.978034 65.5607682,209.496866 C66.1015513,210.614303 67.148222,211.029345 68.823012,210.79112 C70.3289779,210.576678 70.65259,210.214661 70.6557091,208.530124" id="Fill-39" fill="#3EA447"></path>
            <path d="M142.67287,84.4175381 C143.309372,84.0354419 143.813895,84.0876877 144.355068,84.3044688 C144.411992,84.4758273 144.525062,84.6610269 144.527011,84.8470064 C144.54904,87.1167748 144.548066,89.3869331 144.56756,91.6567015 C144.575553,92.5914726 144.571264,93.5301426 144.655091,94.4598451 C144.846529,96.5824285 145.850702,97.5205136 147.838382,97.5121309 C149.959016,97.5031633 151.072943,96.5073738 151.138055,94.3524292 C151.226561,91.4225701 151.202778,88.489397 151.221298,85.5573934 C151.223637,85.1593116 151.146243,84.7540167 151.417219,84.3703609 C151.867157,84.0143876 152.380063,84.1083521 152.894528,84.244815 C152.961395,84.3697761 153.077583,84.4857695 153.078168,84.6023479 C153.092594,87.9367221 153.198841,91.2753851 153.068811,94.6046907 C152.956326,97.4828888 151.13786,99.0607902 148.24894,99.1249278 C144.977144,99.1974481 142.906416,97.8035767 142.725311,94.9187504 C142.504826,91.4067794 142.67287,87.8704401 142.67287,84.4175381" id="Fill-41" fill="#3EA447"></path>
            <path d="M186.497686,84.1955519 C187.032231,84.1668947 187.426609,84.1265406 187.820402,84.1310244 C188.147523,84.1347284 188.473669,84.1912631 188.983066,84.2427291 C190.565646,88.9419275 192.155439,93.6619853 193.737435,98.3590393 C193.103077,98.8779884 192.526034,98.721056 191.900644,98.5968747 C191.044436,97.4751494 191.209166,95.9179125 190.324302,94.6776594 C188.604284,94.4985031 186.826172,94.520922 184.977684,94.6745402 C184.487782,96.0071982 184.011332,97.303596 183.558665,98.5348816 C182.932495,98.7795401 182.420369,98.7857784 181.702184,98.4845852 C183.297826,93.7298269 184.894442,88.9727292 186.497686,84.1955519 M185.497803,92.8305362 C187.05309,93.0034542 188.335842,93.0621333 189.756811,92.8079223 C189.297711,90.6009268 188.584399,88.6847924 187.464819,86.782889 C186.837089,88.7128647 186.20936,90.6432304 185.497803,92.8305362" id="Fill-43" fill="#3EA447"></path>
            <path d="M105.415995,95.82194 C106.37338,96.3200297 107.120027,96.7555414 107.904884,97.1060562 C109.108292,97.6433303 110.364141,97.7185798 111.603029,97.2403747 C112.683036,96.823383 113.23688,95.9833562 113.203154,94.9462379 C113.169234,93.9071702 112.693368,93.1423929 111.697773,92.807279 C110.625565,92.4462371 109.516901,92.1939756 108.442938,91.8376124 C106.305538,91.128785 105.244831,89.6723356 105.374081,87.701616 C105.496118,85.8420161 107.118857,84.1093268 109.129151,83.8077437 C110.389679,83.6184502 111.656445,83.6868766 112.90703,84.0223804 C114.714774,84.5074087 114.720037,84.4875241 114.487466,86.5180925 C113.869094,86.7095305 113.532615,86.1666029 113.099443,85.9320817 C111.98532,85.3289155 110.809595,85.2117523 109.597219,85.4033853 C108.304525,85.6076898 107.627084,86.3077446 107.497444,87.4628058 C107.361761,88.6689432 107.800977,89.4569191 109.072032,89.9312253 C110.192782,90.3495816 111.372602,90.6074966 112.51967,90.9584012 C115.238207,91.7898504 115.876268,94.5912394 114.661358,96.815975 C113.952336,98.1143223 112.724365,98.8613594 111.264991,99.0506529 C109.871899,99.2313689 108.472959,99.1877007 107.106381,98.7122249 C105.239763,98.0626613 105.222412,98.0768925 105.415995,95.82194" id="Fill-45" fill="#3EA447"></path>
            <path d="M13.5538685,205.524664 C12.7493221,205.496202 12.2459688,205.009809 11.6554743,204.743512 C10.6372659,204.284216 9.58104278,204.204678 8.51370772,204.384809 C7.19976466,204.606659 6.50029467,205.327183 6.38293655,206.438381 C6.25700076,207.628533 6.87049911,208.54225 8.18444217,208.98127 C9.26035489,209.341143 10.3892932,209.550321 11.4486354,209.948403 C14.1745799,210.973044 15.0077836,214.031568 13.202379,216.323561 C12.4752266,217.246635 11.4930834,217.830891 10.3220365,217.990748 C8.85233073,218.191933 7.39100771,218.157233 5.95580758,217.685266 C4.13753652,217.087363 4.11316814,217.070403 4.45218105,214.862238 C5.21968755,215.261879 5.96243578,215.648849 6.70537896,216.034844 C7.77115444,216.589079 8.90769569,216.598631 10.0358542,216.364305 C11.2965767,216.102881 11.958227,215.334789 12.0529713,214.197468 C12.16799,212.818023 11.7554821,212.147405 10.3294445,211.653215 C9.32215311,211.304064 8.25774226,211.120814 7.246357,210.781606 C5.11246668,210.065761 4.16326953,208.639918 4.35373279,206.55223 C4.5245064,204.680934 6.0010353,203.121357 7.94719162,202.756416 C9.53620496,202.458342 11.7796555,202.795406 13.4209147,203.586306 C13.7683103,204.205263 13.530085,204.853852 13.5538685,205.524664" id="Fill-47" fill="#3EA447"></path>
            <path d="M216.860786,84.6474196 C216.960403,85.4098575 217.065675,85.9997673 216.783586,86.5840236 C216.133828,86.5672581 215.710208,86.0738471 215.166501,85.8463439 C214.090393,85.3962112 212.986603,85.2026288 211.835636,85.4061535 C210.576668,85.628783 209.875248,86.3555456 209.757305,87.4994949 C209.637023,88.6687872 210.141156,89.5220704 211.353532,89.9610912 C212.228454,90.2778801 213.157766,90.4406609 214.053938,90.7034495 C216.663109,91.4692015 217.703347,92.825643 217.46902,95.1242636 C217.247366,97.298313 215.502979,98.9304096 213.126185,99.0986489 C211.306354,99.2277039 209.511867,99.1068367 207.850528,98.0377471 C207.527111,97.4172307 207.462584,96.7243889 207.813098,95.8596038 C208.448626,96.212458 209.05998,96.5623879 209.680691,96.8941878 C210.978843,97.5881992 212.349321,97.7502002 213.745727,97.2934393 C214.897084,96.9168016 215.400437,96.1898441 215.429289,95.0790359 C215.459506,93.9118879 215.056356,93.2007211 213.892522,92.7681336 C212.831815,92.3739507 211.698978,92.1780289 210.62365,91.8175718 C208.693284,91.1701527 207.778788,89.9903332 207.718939,88.1923366 C207.647198,86.0426556 209.15141,84.1631712 211.328968,83.8257179 C213.207088,83.5346619 215.046218,83.7311685 216.860786,84.6474196" id="Fill-49" fill="#3EA447"></path>
            <path d="M127.224467,86.9271888 C126.372938,86.808661 125.878358,86.2041303 125.233863,85.8832474 C122.418438,84.4807984 119.634594,85.604863 118.680133,88.608997 C118.079306,90.4995934 118.062541,92.4295691 118.720487,94.3125626 C119.741425,97.233649 122.359369,98.3154102 125.135804,96.9919147 C125.785758,96.6821439 126.395942,96.2885458 127.1383,95.8692147 C127.432281,96.5604969 127.3235,97.1866668 127.211795,97.8565048 C125.458052,99.0000642 123.521838,99.339272 121.483277,99.0314507 C119.421127,98.7197303 117.886894,97.5586258 117.074354,95.6584769 C115.895899,92.9030955 115.831567,90.066616 117.080593,87.3087002 C118.663173,83.8150543 123.524957,82.4913638 126.686608,84.6006908 C127.645553,85.240507 127.288215,86.0670825 127.224467,86.9271888" id="Fill-51" fill="#3EA447"></path>
            <path d="M40.2632314,217.43548 C39.4559557,217.743887 38.9494832,217.755388 38.3369596,217.456535 C38.0330372,213.360697 38.4634803,209.184737 38.1193987,205.029635 C36.5385732,204.60777 35.0513222,205.031 33.6837687,204.733511 C33.244553,204.273826 33.3662,203.827397 33.5215728,203.236513 L44.8823066,203.236513 C45.3258111,203.626017 45.211962,204.111045 44.8526746,204.82728 L40.2632314,204.82728 L40.2632314,217.43548 Z" id="Fill-53" fill="#3EA447"></path>
            <path d="M377.254692,26.2496491 C376.995413,25.7188083 376.97046,25.340806 377.272628,24.7801383 C385.616751,25.723487 393.715046,27.8620561 401.589347,30.7260231 C401.63321,31.3295791 401.50279,31.6740505 400.99047,32.0235906 C393.316379,29.3038844 385.359226,27.2598647 377.254692,26.2496491" id="Fill-55" fill="#3EA447"></path>
            <path d="M80.1852079,216.029717 C81.0958055,216.523128 81.8022936,216.219011 82.4992293,216.487063 C82.8359028,217.081262 82.8448704,217.63803 81.9576664,217.661229 C79.897661,217.715424 77.8353163,217.678579 75.774921,217.678579 C75.7918814,216.520399 75.7918814,216.520399 78.1636071,216.133039 L78.1636071,206.7787 C77.4797329,206.073772 76.4601598,206.748289 75.7100036,206.216278 C75.3620231,205.432981 75.7862279,205.165124 76.4849181,205.024177 C77.3421003,204.850869 78.1534698,204.665669 78.4991109,203.635179 C78.7517623,202.881709 79.4471384,203.098295 80.1852079,203.253278 L80.1852079,216.029717 Z" id="Fill-57" fill="#3EA447"></path>
            <path d="M27.0402464,217.620329 C26.4669072,215.820188 28.1473507,216.689847 28.6676643,215.913568 L28.6676643,204.901009 C28.2884923,204.020239 26.5717887,205.01057 26.9768886,203.25936 C28.7616288,202.937893 30.5834089,203.093655 32.4207848,203.178262 C32.3069357,204.289266 32.3069357,204.289266 30.7557421,204.680524 C30.6134308,208.437544 30.7265,212.271177 30.7553522,215.895828 C31.3360994,216.639161 32.8122384,215.898947 32.3677592,217.61799 C30.6325356,217.759716 28.8130948,217.723456 27.0402464,217.620329" id="Fill-59" fill="#3EA447"></path>
            <path d="M58.2309154,216.03771 C59.0779603,216.838163 60.8198121,215.555996 60.7112266,217.594557 C58.3862882,217.759872 56.1539496,217.729265 53.9167373,217.624384 C53.9578712,216.453337 53.9578712,216.453337 55.9999414,216.205754 C56.4054313,214.769969 56.4943271,209.164657 56.1469315,206.737371 C55.5078951,206.112761 54.580727,206.718462 53.8888599,206.241621 C53.5330816,205.498873 53.8757985,205.171947 54.5906693,204.999224 C55.4950286,204.780883 56.3596187,204.581257 56.7091588,203.457193 C56.8875353,202.883658 57.5799872,203.076851 58.2309154,203.348022 L58.2309154,216.03771 Z" id="Fill-61" fill="#3EA447"></path>
        </g>
    </g>
</svg>