<?xml version="1.0" encoding="UTF-8"?>
<svg width="649px" height="244px" viewBox="0 0 649 244" version="1.1" xmlns="http://www.w3.org/2000/svg" xmlns:xlink="http://www.w3.org/1999/xlink">
    <!-- Generator: Sketch 43.2 (39069) - http://www.bohemiancoding.com/sketch -->
    <title>laufladen_erfurt</title>
    <desc>Created with Sketch.</desc>
    <defs></defs>
    <g id="Page-1" stroke="none" stroke-width="1" fill="none" fill-rule="evenodd">
        <g id="laufladen_erfurt">
            <path d="M122.163,0.228 C189.241,0.228 243.619,54.606 243.619,121.684 C243.619,188.761 189.241,243.138 122.163,243.138 C55.086,243.138 0.709,188.761 0.709,121.684 C0.709,54.606 55.086,0.228 122.163,0.228" id="Fill-1" fill="#E87F35"></path>
            <path d="M158.149,176.494 C146.098,175.56 136.192,173.79 125.013,170.573 C119.973,169.122 106.962,164.097 103.119,162.118 C101.239,161.148 94.279,157.611 87.652,154.257 C81.026,150.902 73.773,147.158 71.534,145.935 C68.245,144.138 67.183,143.71 65.999,143.7 C64.959,143.692 62.505,144.433 57.533,146.255 C47.596,149.898 43.168,151.23 36.694,152.527 C29.528,153.963 18.03,153.9 15.068,152.407 C10.785,150.248 10.595,145.915 14.607,141.902 C18.073,138.435 27.373,132.691 32.115,131.088 C34.813,130.175 39.605,129.134 43.929,128.521 C47.182,128.059 52.73,128.624 58.6,130.015 L63.664,131.214 L65.402,130.254 C66.357,129.726 69.923,127.564 73.325,125.448 C76.728,123.332 82.589,119.742 86.35,117.47 C96.709,111.209 98.356,110.161 98.378,109.813 C98.389,109.638 95.687,108.533 92.374,107.359 C77.055,101.929 71.464,97.748 69.083,89.945 C68.026,86.477 67.955,81.055 68.919,77.286 C71.277,68.069 80.862,59.1 92.531,55.857 L95.437,55.05 L96.99,54.702 L98.579,54.5 C104.403,53.762 111.556,54.727 115.992,55.663 C117.293,55.936 117.479,56.062 116.958,56.267 C116.6,56.408 115.472,56.533 114.451,56.546 C111.536,56.583 105.222,57.497 101.654,58.401 C95.367,59.994 86.844,63.665 83.547,66.202 C79.792,69.091 76.978,73.477 76.438,77.282 C76.087,79.752 76.492,83.574 77.341,85.809 C78.368,88.512 79.491,90.181 81.907,92.597 C86.718,97.408 95.948,100.886 105.26,101.398 C110.784,101.7 111.134,101.596 116.746,97.99 C132.27,88.013 141.713,82.723 164.498,71.236 C180.457,63.19 186.384,60.923 198.221,58.34 C201.703,57.58 203.045,57.453 207.805,57.435 C212.145,57.42 213.798,57.54 215.457,57.993 C218.306,58.771 221.095,60.044 221.55,60.773 C221.755,61.101 221.962,62.377 222.011,63.61 C222.092,65.62 221.987,66.065 220.988,67.965 C217.615,74.384 211.525,80.227 200.83,87.309 C196.193,90.381 191.956,92.658 184.524,96.075 C176.713,99.666 173.588,100.866 166.289,103.075 C149.86,108.049 138.645,110.485 127.703,111.458 C124.659,111.728 121.04,112.084 119.661,112.248 C116.804,112.588 118.323,111.74 98.398,124.119 C80.608,135.171 77.72,137.032 77.731,137.434 C77.764,138.654 88.62,144.886 108.492,155.094 C123.801,162.958 134.643,166.853 145.938,168.547 C176.499,173.129 199.013,171.005 223.923,161.187 C225.983,160.376 228.716,159.216 229.997,158.611 C232.719,157.325 233.034,157.266 232.195,158.202 C230.77,159.793 221.031,165.737 216.17,167.982 C212.786,169.547 202.983,172.93 199.339,173.793 C195.942,174.597 191.144,175.288 183.456,176.08 C178.666,176.573 175.19,176.709 168.42,176.665 C163.576,176.634 158.954,176.557 158.149,176.494 Z M36.215,144.634 C39.275,143.924 40.738,143.406 46.462,141.004 C51.096,139.059 52.887,137.97 52.493,137.334 C52.144,136.769 47.973,136.202 44.183,136.204 C40.686,136.206 39.521,136.355 35.915,137.257 C30.656,138.575 29.427,139.129 27.495,141.054 C25.771,142.773 25.528,143.828 26.672,144.63 C27.646,145.312 33.282,145.315 36.215,144.634 Z M141.868,102.939 C151.312,101.703 161.572,98.548 175.895,92.474 C183.857,89.098 196.476,81.349 204.756,74.753 C209.387,71.064 210.709,68.285 208.81,66.236 C207.781,65.126 206.858,64.924 203.635,65.105 C200.261,65.295 195.742,66.793 186.152,70.903 C175.714,75.376 174.389,76.088 159.777,85.064 C150.621,90.688 132.751,102.306 132.751,102.634 C132.751,102.704 132.995,103.005 133.294,103.303 C133.896,103.905 134.782,103.868 141.868,102.939 L141.868,102.939 Z" id="Fill-2" fill="#284C8F"></path>
            <path d="M522.189,213.574 C523.154,213.574 523.796,214.217 523.796,215.074 C523.796,215.235 523.636,215.985 522.993,219.36 C522.779,220.485 521.814,221.235 520.689,221.235 L503.652,221.235 C502.687,221.235 502.044,220.592 502.044,219.682 C502.044,219.574 502.152,219.039 502.42,217.699 L508.742,185.178 C508.956,184.053 509.92,183.25 511.045,183.25 L527.761,183.25 C528.726,183.25 529.368,183.893 529.368,184.75 C529.368,184.911 529.208,185.661 528.565,189.036 C528.35,190.161 527.386,190.911 526.261,190.911 L516.189,190.911 L514.849,197.769 L523.85,197.769 C524.814,197.769 525.457,198.412 525.457,199.269 C525.457,199.43 525.297,200.18 524.707,203.234 C524.493,204.359 523.529,205.109 522.404,205.109 L513.403,205.109 L511.742,213.574 L522.189,213.574" id="Fill-3" fill="#E87F35"></path>
            <path d="M534.777,219.307 C534.562,220.432 533.598,221.235 532.473,221.235 L528.294,221.235 C527.33,221.235 526.687,220.592 526.687,219.682 C526.687,219.574 526.794,219.039 527.062,217.699 L531.562,194.501 C531.777,193.376 532.741,192.572 533.866,192.572 L538.045,192.572 C539.009,192.572 539.652,193.215 539.652,194.126 C539.652,194.233 539.599,194.608 539.438,195.465 C540.617,193.751 543.242,191.447 546.349,191.447 C549.778,191.447 551.707,194.233 551.76,197.126 C551.76,197.555 551.76,197.983 551.653,198.412 L550.903,202.323 C550.689,203.448 549.725,204.252 548.6,204.252 L544.421,204.252 C543.456,204.252 542.813,203.609 542.813,202.698 C542.813,202.591 542.92,202.162 543.135,201.091 C543.188,200.716 543.242,200.394 543.242,200.073 C543.242,199.001 542.813,198.412 541.528,198.412 C539.813,198.412 538.581,199.376 538.313,201.091 L534.777,219.307" id="Fill-4" fill="#E87F35"></path>
            <path d="M555.666,190.911 C556.577,186.143 560.166,183.25 565.149,183.25 L570.453,183.25 C571.417,183.25 572.06,183.893 572.06,184.75 C572.06,185.071 571.9,185.714 571.739,186.625 L571.417,188.339 C571.203,189.464 570.239,190.215 569.114,190.215 L565.899,190.215 C564.56,190.215 563.649,190.911 563.435,192.25 L563.113,193.911 L568.417,193.911 C569.382,193.911 570.024,194.554 570.024,195.412 C570.024,195.733 569.864,196.376 569.703,197.287 L569.435,198.572 C569.221,199.698 568.256,200.448 567.131,200.448 L561.827,200.448 L558.131,219.307 C557.916,220.432 556.952,221.235 555.827,221.235 L551.701,221.235 C550.737,221.235 550.094,220.592 550.094,219.682 C550.094,219.574 550.201,219.039 550.469,217.699 L555.666,190.911" id="Fill-5" fill="#E87F35"></path>
            <path d="M582.933,221.235 C581.969,221.235 581.326,220.592 581.326,219.682 C581.326,219.414 581.38,219.253 581.541,218.289 C580.255,220.646 577.951,222.36 575.058,222.36 C571.254,222.36 568.736,219.253 568.736,216.146 C568.736,215.824 568.789,215.449 568.843,215.128 L572.861,194.501 C573.076,193.376 574.04,192.572 575.165,192.572 L579.344,192.572 C580.308,192.572 580.951,193.215 580.951,194.126 C580.951,194.233 580.844,194.769 580.576,196.108 L577.362,212.663 C577.308,212.931 577.308,213.199 577.308,213.413 C577.308,214.645 578.058,215.342 579.451,215.342 C581.112,215.342 582.344,214.378 582.666,212.663 L586.202,194.501 C586.416,193.376 587.38,192.572 588.505,192.572 L592.685,192.572 C593.649,192.572 594.292,193.215 594.292,194.126 C594.292,194.233 594.185,194.769 593.917,196.108 L589.416,219.307 C589.202,220.432 588.238,221.235 587.112,221.235 L582.933,221.235" id="Fill-6" fill="#E87F35"></path>
            <path d="M602.055,219.307 C601.84,220.432 600.876,221.235 599.751,221.235 L595.572,221.235 C594.608,221.235 593.965,220.592 593.965,219.682 C593.965,219.574 594.072,219.039 594.34,217.699 L598.84,194.501 C599.054,193.376 600.019,192.572 601.144,192.572 L605.323,192.572 C606.287,192.572 606.93,193.215 606.93,194.126 C606.93,194.233 606.877,194.608 606.716,195.465 C607.894,193.751 610.52,191.447 613.627,191.447 C617.056,191.447 618.985,194.233 619.038,197.126 C619.038,197.555 619.038,197.983 618.931,198.412 L618.181,202.323 C617.967,203.448 617.002,204.252 615.877,204.252 L611.698,204.252 C610.734,204.252 610.091,203.609 610.091,202.698 C610.091,202.591 610.198,202.162 610.412,201.091 C610.466,200.716 610.52,200.394 610.52,200.073 C610.52,199.001 610.091,198.412 608.805,198.412 C607.091,198.412 605.859,199.376 605.591,201.091 L602.055,219.307" id="Fill-7" fill="#E87F35"></path>
            <path d="M631.572,214.27 C632.537,214.27 633.18,214.913 633.18,215.771 C633.18,216.092 633.073,216.467 632.858,217.646 L632.537,219.36 C632.323,220.485 631.358,221.235 630.233,221.235 L624.929,221.235 C621.393,221.235 618.393,217.967 618.393,214.592 C618.393,214.27 618.446,213.895 618.5,213.574 L623.965,185.178 C624.179,184.053 625.143,183.25 626.268,183.25 L630.394,183.25 C631.358,183.25 632.001,183.893 632.001,184.803 C632.001,184.911 631.894,185.446 631.626,186.786 L630.501,192.572 L635.805,192.572 C636.769,192.572 637.412,193.215 637.412,194.072 C637.412,194.394 637.252,195.036 637.091,195.947 L636.823,197.287 C636.609,198.412 635.644,199.162 634.519,199.162 L629.215,199.162 L626.697,212.181 C626.643,212.395 626.643,212.556 626.643,212.717 C626.643,213.681 627.286,214.27 628.465,214.27 L631.572,214.27" id="Fill-8" fill="#E87F35"></path>
            <path d="M287.562,163.37 C286.28,163.37 285.294,162.385 285.294,161.103 C285.294,160.709 285.59,159.329 285.885,157.948 L297.814,96.245 C298.11,94.569 299.488,93.485 301.262,93.485 L307.767,93.485 C309.049,93.485 310.035,94.471 310.035,95.752 C310.035,96.147 309.74,97.526 309.444,98.906 L298.897,152.922 L317.33,152.922 C318.61,152.922 319.596,153.907 319.596,155.188 C319.596,155.385 319.4,156.668 318.61,160.511 C318.217,162.483 317.131,163.37 315.258,163.37 L287.562,163.37" id="Fill-9" fill="#284C8F"></path>
            <path d="M336.153,164.454 C331.423,164.454 324.523,160.018 324.523,152.231 C324.523,142.375 330.337,137.939 337.239,135.278 L350.248,130.35 C354.29,128.772 355.769,127.689 356.36,124.83 C356.46,124.435 356.46,124.041 356.46,123.646 C356.46,120.789 354.487,118.818 350.643,118.818 C346.6,118.818 343.547,120.985 342.561,125.224 L342.362,126.111 C341.969,127.787 340.787,128.871 339.11,128.871 L333.887,128.871 C332.506,128.871 331.522,127.885 331.522,126.702 C331.522,126.505 331.618,125.913 331.818,125.224 C334.083,116.057 340.983,108.96 353.108,108.96 C362.472,108.96 367.399,115.663 367.399,122.957 C367.399,124.041 367.3,125.026 367.103,126.111 L360.303,160.709 C360.008,162.385 359.021,163.37 357.051,163.37 L351.726,163.37 C350.447,163.37 349.461,162.385 349.461,161.103 C349.461,160.709 349.461,160.216 349.856,158.442 C345.912,162.483 342.066,164.454 336.153,164.454 Z M353.895,137.643 L341.574,142.966 C337.731,144.642 336.448,147.501 336.448,150.851 C336.448,153.414 337.927,155.583 342.657,155.583 C346.8,155.583 351.038,152.133 351.826,148.092 L353.895,137.643 L353.895,137.643 Z" id="Fill-10" fill="#284C8F"></path>
            <path d="M404.558,113.396 C404.854,111.72 406.233,110.636 408.007,110.636 L413.428,110.636 C414.71,110.636 415.697,111.622 415.697,112.903 C415.697,113.297 415.401,114.677 415.105,116.057 L406.529,160.609 C406.233,162.285 404.854,163.37 403.08,163.37 L397.559,163.37 C396.277,163.37 395.293,162.385 395.293,161.103 C395.293,160.709 395.589,159.427 395.981,157.455 C393.42,161.99 388.49,165.046 383.66,165.046 C377.451,165.046 372.13,159.329 372.13,152.331 C372.13,151.542 372.226,150.162 372.326,149.669 L379.325,113.396 C379.62,111.72 380.999,110.636 382.773,110.636 L388.294,110.636 C389.576,110.636 390.56,111.622 390.56,112.903 C390.56,113.297 390.264,114.677 389.969,116.057 L383.859,147.303 C383.66,148.486 383.66,148.781 383.66,149.472 C383.66,152.823 385.534,155.188 389.181,155.188 C394.108,155.188 396.968,152.429 397.954,147.303 L404.558,113.396" id="Fill-11" fill="#284C8F"></path>
            <path d="M446.841,113.101 C448.123,113.101 449.106,114.086 449.106,115.368 C449.106,115.564 448.91,116.846 448.123,120.296 C447.628,122.267 446.741,123.154 444.87,123.154 L434.815,123.154 L427.52,160.609 C427.225,162.285 425.846,163.37 424.072,163.37 L418.651,163.37 C417.368,163.37 416.382,162.385 416.382,161.103 C416.382,160.709 416.677,159.329 416.973,157.948 L426.929,106.101 C428.507,98.019 434.52,93.387 442.898,93.387 L450.684,93.387 C451.966,93.387 452.953,94.372 452.953,95.654 C452.953,95.851 452.754,97.132 451.966,100.582 C451.474,102.553 450.585,103.44 448.714,103.44 L444.179,103.44 C438.659,103.44 438.167,105.51 437.476,109.256 L436.785,113.101 L446.841,113.101" id="Fill-12" fill="#284C8F"></path>
            <path d="M458.863,160.609 C458.568,162.285 457.189,163.37 455.415,163.37 L449.993,163.37 C448.711,163.37 447.725,162.385 447.725,161.103 C447.725,160.709 448.02,159.329 448.316,157.948 L460.245,96.245 C460.54,94.569 461.919,93.485 463.693,93.485 L469.214,93.485 C470.496,93.485 471.48,94.471 471.48,95.752 C471.48,96.147 471.184,97.526 470.888,98.906 L458.863,160.609" id="Fill-13" fill="#284C8F"></path>
            <path d="M480.154,164.454 C475.42,164.454 468.52,160.018 468.52,152.231 C468.52,142.375 474.337,137.939 481.237,135.278 L494.248,130.35 C498.288,128.772 499.766,127.689 500.358,124.83 C500.457,124.435 500.457,124.041 500.457,123.646 C500.457,120.789 498.487,118.818 494.641,118.818 C490.601,118.818 487.545,120.985 486.558,125.224 L486.363,126.111 C485.967,127.787 484.784,128.871 483.11,128.871 L477.885,128.871 C476.506,128.871 475.52,127.885 475.52,126.702 C475.52,126.505 475.619,125.913 475.815,125.224 C478.084,116.057 484.984,108.96 497.106,108.96 C506.47,108.96 511.4,115.663 511.4,122.957 C511.4,124.041 511.3,125.026 511.104,126.111 L504.301,160.709 C504.005,162.385 503.019,163.37 501.049,163.37 L495.727,163.37 C494.445,163.37 493.458,162.385 493.458,161.103 C493.458,160.709 493.458,160.216 493.853,158.442 C489.91,162.483 486.067,164.454 480.154,164.454 Z M497.896,137.643 L485.575,142.966 C481.729,144.642 480.449,147.501 480.449,150.851 C480.449,153.414 481.927,155.583 486.658,155.583 C490.797,155.583 495.036,152.133 495.823,148.092 L497.896,137.643 L497.896,137.643 Z" id="Fill-14" fill="#284C8F"></path>
            <path d="M550.034,96.245 C550.33,94.569 551.712,93.485 553.486,93.485 L559.007,93.485 C560.286,93.485 561.272,94.471 561.272,95.752 C561.272,96.147 561.173,96.639 560.681,98.906 L548.656,160.609 C548.36,162.285 546.981,163.37 545.207,163.37 L539.686,163.37 C538.404,163.37 537.418,162.385 537.418,161.103 C537.418,160.709 537.813,158.835 538.109,157.455 C535.547,161.99 530.617,165.046 525.787,165.046 C519.775,165.046 514.257,159.131 514.257,152.331 C514.257,151.542 514.353,150.162 514.453,149.669 L519.678,123.055 C521.353,114.381 527.465,108.96 535.448,108.96 C540.278,108.96 544.713,112.607 546.094,116.55 L550.034,96.245 Z M543.925,127.689 C544.022,126.998 544.121,126.407 544.121,125.815 C544.121,122.365 542.052,119.803 538.307,119.803 C533.378,119.803 530.814,122.563 529.83,127.689 L525.987,147.303 C525.787,148.486 525.787,148.781 525.787,149.472 C525.787,152.823 527.661,155.188 531.308,155.188 C536.235,155.188 539.095,152.429 540.081,147.303 L543.925,127.689 L543.925,127.689 Z" id="Fill-15" fill="#284C8F"></path>
            <path d="M560.283,150.26 C560.283,149.373 560.383,148.584 560.579,147.697 L564.721,126.309 C566.79,115.663 574.873,108.96 586.602,108.96 C595.472,108.96 601.977,115.564 601.977,123.548 C601.977,124.435 601.88,125.422 601.681,126.309 L599.711,136.856 C599.415,138.334 597.838,139.615 596.262,139.615 L573.295,139.615 L571.717,147.697 C571.62,148.388 571.521,149.077 571.521,149.669 C571.521,153.118 573.591,155.188 577.633,155.188 C583.151,155.188 585.516,152.231 586.307,148.092 L586.503,147.106 C586.799,145.43 588.081,144.543 589.855,144.543 L595.472,144.543 C596.854,144.543 597.741,145.43 597.741,146.514 C597.741,146.81 597.641,147.205 597.445,148.092 C595.077,159.624 587.194,165.046 575.66,165.046 C566.887,165.046 560.283,158.047 560.283,150.26 Z M590.546,126.309 C590.642,125.618 590.741,125.026 590.741,124.435 C590.741,120.887 588.573,118.818 584.63,118.818 C579.899,118.818 576.647,121.676 575.856,126.309 L575.069,130.843 L589.755,130.843 L590.546,126.309 L590.546,126.309 Z" id="Fill-16" fill="#284C8F"></path>
            <path d="M613.706,113.396 C614.002,111.72 615.381,110.636 617.157,110.636 L622.676,110.636 C623.958,110.636 624.944,111.622 624.944,112.903 C624.944,113.297 624.649,114.579 624.254,116.55 C627.406,111.72 631.744,108.96 637.462,108.96 C643.966,108.96 648.304,114.776 648.304,121.085 C648.304,121.872 648.105,123.548 647.909,124.535 L640.91,160.609 C640.615,162.285 639.236,163.37 637.462,163.37 L631.941,163.37 C630.661,163.37 629.675,162.385 629.675,161.103 C629.675,160.709 629.97,159.329 630.266,157.948 L636.378,126.702 C636.574,125.717 636.674,124.928 636.674,124.14 C636.674,120.69 634.801,118.818 630.858,118.818 C626.224,118.818 623.071,122.661 622.281,126.702 L615.677,160.609 C615.381,162.285 614.002,163.37 612.228,163.37 L606.807,163.37 C605.525,163.37 604.541,162.385 604.541,161.103 C604.541,160.709 604.837,159.329 605.132,157.948 L613.706,113.396" id="Fill-17" fill="#284C8F"></path>
        </g>
    </g>
</svg>