<?xml version="1.0" encoding="UTF-8"?>
<!DOCTYPE svg PUBLIC "-//W3C//DTD SVG 1.1//EN" "http://www.w3.org/Graphics/SVG/1.1/DTD/svg11.dtd">
<!-- Creator: CorelDRAW X5 -->
<svg xmlns="http://www.w3.org/2000/svg" xml:space="preserve" width="176.025mm" height="71.0899mm" style="shape-rendering:geometricPrecision; text-rendering:geometricPrecision; image-rendering:optimizeQuality; fill-rule:evenodd; clip-rule:evenodd"
viewBox="0 0 16213 6548"
 xmlns:xlink="http://www.w3.org/1999/xlink">
 <defs>
  <style type="text/css">
   <![CDATA[
    .fil1 {fill:#2D3A7E}
    .fil0 {fill:#EF7F1A}
   ]]>
  </style>
 </defs>
 <g id="Ebene_x0020_1">
  <metadata id="CorelCorpID_0Corel-Layer"/>
  <g id="_380826048">
   <path class="fil0" d="M14320 2642l4 -33c18,-12 36,-24 57,-38 21,-14 46,-31 70,-48 24,-17 47,-34 69,-51 23,-17 45,-35 68,-55 22,-19 44,-40 63,-60 19,-20 36,-38 50,-56 14,-18 27,-37 37,-55 10,-18 18,-35 24,-52 6,-17 11,-35 13,-51 3,-17 4,-33 3,-49 -1,-16 -3,-31 -7,-46 -5,-15 -12,-31 -21,-44 -9,-13 -19,-24 -32,-34 -13,-9 -28,-17 -44,-21 -16,-5 -34,-7 -52,-6 -18,1 -36,4 -53,11 -17,7 -33,17 -49,30 -15,13 -29,29 -39,41 -10,12 -15,19 -17,22l-3 4 -45 -24c7,-14 14,-28 25,-46 10,-18 24,-40 39,-59 14,-19 30,-34 47,-49 17,-14 37,-28 60,-38 23,-11 49,-19 74,-23 25,-4 49,-4 72,-2 23,3 46,8 68,16 21,8 41,19 60,34 19,15 37,35 51,58 14,23 24,49 29,76 5,27 6,55 3,80 -3,26 -8,49 -17,72 -8,23 -20,44 -33,65 -13,20 -28,40 -45,59 -18,20 -38,40 -63,65 -26,25 -57,53 -85,78 -28,24 -53,44 -73,61 -20,17 -36,30 -44,37l-8 7 209 24c20,1 40,2 55,2 15,0 25,-2 33,-5 8,-3 13,-7 19,-12 5,-5 11,-11 16,-17 5,-6 9,-12 11,-16l2 -3 42 17 -93 199 -552 -65zm-787 -117c12,-2 23,-4 37,-6 14,-3 29,-6 46,-10 17,-4 35,-9 52,-15 18,-6 36,-13 53,-22 18,-9 35,-19 51,-29 16,-10 29,-21 43,-33 14,-12 28,-26 40,-40 12,-14 23,-28 32,-43 9,-15 17,-30 23,-42 6,-12 10,-21 12,-25l2 -4 0 -10c-5,2 -10,5 -19,7 -9,3 -22,6 -38,9 -16,3 -36,4 -53,4 -18,0 -34,-2 -51,-7 -17,-4 -36,-11 -52,-19 -16,-8 -29,-17 -42,-27 -13,-11 -25,-24 -35,-37 -10,-14 -19,-28 -26,-44 -7,-16 -13,-34 -17,-51 -4,-17 -6,-33 -6,-51 -1,-18 0,-38 3,-56 2,-18 6,-35 11,-52 5,-17 12,-35 18,-49 7,-15 14,-27 23,-40 9,-13 20,-28 32,-41 12,-13 27,-25 42,-36 15,-10 32,-19 52,-26 19,-7 41,-12 63,-14 21,-2 42,-2 61,0 19,2 37,6 55,12 18,6 36,14 54,25 18,11 35,24 50,39 15,15 28,31 38,47 11,16 19,32 26,49 7,17 13,35 18,54 5,19 9,40 11,61 2,21 3,41 2,59 0,19 -2,35 -5,54 -3,18 -7,39 -12,59 -6,20 -13,40 -22,61 -9,21 -19,44 -31,65 -12,21 -25,41 -41,61 -16,20 -34,40 -52,57 -18,18 -37,33 -58,48 -20,14 -42,27 -66,40 -25,13 -53,25 -79,34 -26,9 -50,16 -74,21 -24,5 -48,8 -70,10 -22,2 -42,4 -58,4 -16,1 -27,1 -33,1l-6 0 -3 -49zm422 -372c2,-7 4,-13 6,-25 3,-12 6,-29 9,-45 3,-16 5,-32 7,-48 2,-16 3,-32 4,-48 1,-16 1,-31 0,-46 -1,-15 -2,-28 -5,-42 -3,-14 -6,-29 -12,-42 -6,-14 -13,-27 -22,-38 -9,-11 -19,-19 -31,-25 -12,-5 -25,-8 -37,-8 -12,0 -23,3 -35,8 -11,6 -22,15 -33,28 -11,13 -21,30 -29,49 -8,18 -14,38 -18,55 -4,17 -6,32 -8,45 -2,14 -2,26 -2,40 0,14 1,29 3,44 2,15 6,30 11,43 5,13 11,24 20,36 9,11 20,23 32,31 12,8 26,14 41,16 15,2 32,2 45,-1 13,-2 21,-6 29,-11 8,-5 16,-10 21,-16 5,-6 6,-13 9,-24l-6 25zm-1222 278c12,-2 23,-4 37,-7 14,-3 29,-6 46,-10 17,-4 35,-9 52,-15 18,-6 36,-13 53,-22 18,-9 35,-19 51,-29 16,-10 29,-21 43,-33 14,-12 28,-26 40,-40 12,-14 23,-28 32,-43 9,-15 17,-30 23,-42 6,-12 10,-21 12,-26l2 -4 0 -10c-5,2 -10,4 -19,7 -9,3 -22,6 -38,9 -16,3 -36,4 -53,4 -18,0 -34,-2 -51,-7 -17,-4 -36,-11 -52,-19 -16,-8 -29,-17 -42,-27 -13,-11 -25,-24 -35,-38 -10,-14 -19,-28 -26,-44 -7,-16 -13,-34 -17,-51 -4,-17 -6,-33 -6,-51 -1,-18 1,-38 3,-56 2,-18 6,-35 11,-52 5,-17 12,-35 18,-49 7,-15 14,-27 23,-40 9,-13 20,-28 32,-41 12,-13 26,-25 42,-36 15,-10 32,-19 52,-26 19,-7 41,-12 63,-14 21,-2 42,-2 61,0 19,2 37,6 55,12 18,6 36,14 54,25 18,11 35,24 49,39 15,15 28,31 38,47 11,16 19,32 26,49 7,17 13,35 18,54 5,20 8,41 11,61 2,21 3,41 2,59 -1,19 -2,36 -5,54 -3,18 -7,38 -12,58 -6,20 -13,40 -22,61 -9,21 -19,44 -31,65 -12,21 -25,41 -41,61 -16,20 -34,40 -52,57 -18,18 -37,33 -58,48 -20,14 -42,27 -66,40 -25,13 -53,25 -79,34 -26,9 -50,16 -74,21 -24,5 -48,8 -70,10 -22,2 -42,3 -58,4 -16,1 -27,1 -33,1l-6 0 -3 -48zm422 -372c2,-7 4,-13 6,-25 3,-12 6,-29 9,-45 3,-16 5,-32 7,-48 2,-16 3,-32 4,-48 1,-16 1,-31 0,-46 -1,-15 -2,-28 -5,-42 -3,-14 -6,-28 -12,-42 -6,-14 -13,-27 -22,-38 -9,-11 -19,-19 -31,-25 -12,-5 -25,-8 -37,-8 -12,0 -23,3 -35,9 -11,6 -22,15 -33,28 -11,13 -21,30 -29,48 -8,18 -14,38 -18,55 -4,17 -6,32 -8,45 -2,14 -2,26 -2,40 0,14 1,29 3,44 2,15 6,30 11,43 5,13 11,24 20,36 9,11 20,23 32,31 12,8 26,14 41,16 15,2 32,2 45,-1 13,-2 21,-6 29,-11 8,-5 16,-10 21,-16 5,-6 6,-13 9,-25l-6 25zm-1076 321l5 -47c12,1 23,2 34,2 10,0 19,-1 28,-3 9,-2 18,-6 25,-12 8,-5 14,-13 21,-23 6,-10 12,-23 17,-38 4,-15 7,-31 10,-49 3,-18 5,-38 6,-47l1 -10 23 -201 23 -201c1,-14 3,-28 4,-38 1,-10 1,-16 1,-21 0,-5 -1,-8 -3,-11 -2,-3 -5,-5 -9,-6 -4,-1 -8,-1 -13,0 -5,1 -10,3 -12,4l-3 1 -80 26 -16 -46 294 -115 36 18c-2,8 -3,16 -6,28 -3,13 -6,30 -10,52 -4,22 -7,49 -11,78 -4,29 -7,59 -9,74l-2 15 -23 198 -23 198c-1,20 -3,41 -3,57 0,17 0,30 2,41 2,11 6,21 11,29 5,8 11,14 18,19 7,5 15,10 23,13 8,3 17,6 25,8 8,2 15,3 18,4l3 1 -5 48 -402 -47zm2294 -1534l6 -55c10,-3 21,-6 34,-13 13,-7 29,-17 43,-29 14,-11 26,-24 38,-39 13,-16 26,-35 37,-52 11,-17 19,-33 25,-45 6,-12 10,-20 13,-24l2 -4 50 5c-2,12 -4,24 -7,42 -3,18 -7,43 -10,65 -3,23 -6,44 -8,59 -2,15 -2,24 -3,28l0 4 159 16 20 0 -20 83 -167 -20 -29 248c-3,27 -6,53 -7,75 -1,22 0,38 3,52 3,13 9,24 16,31 7,8 16,12 24,15 9,3 17,3 26,1 10,-2 20,-6 31,-13 11,-7 22,-15 32,-23 10,-8 19,-16 23,-20l4 -4 32 27c-9,14 -18,27 -32,43 -14,16 -33,35 -55,50 -22,15 -48,26 -70,32 -23,6 -43,6 -64,4 -20,-2 -41,-8 -60,-17 -19,-10 -37,-23 -49,-40 -13,-16 -20,-35 -24,-54 -4,-19 -5,-40 -5,-57 0,-17 1,-31 2,-38l1 -7 37 -320 -52 -7zm-497 450l5 -45c11,0 22,0 33,-2 11,-1 21,-4 30,-9 9,-5 15,-11 20,-20 5,-9 8,-20 11,-31 3,-12 5,-25 6,-32l1 -7 14 -120 14 -120c2,-17 4,-34 4,-48 0,-13 -1,-23 -4,-32 -4,-9 -10,-17 -19,-22 -9,-6 -20,-9 -30,-12 -10,-3 -17,-5 -21,-5l-4 -1 5 -46 199 -28 56 8 -47 402c-2,16 -3,32 -5,48 -1,16 -3,32 -3,45 0,13 2,23 5,30 3,8 8,13 15,18 7,5 16,10 26,14 10,4 20,7 25,8l5 1 -5 44 -336 -39zm356 -742c0,-4 0,-8 0,-12 0,-4 0,-8 -1,-12 -1,-4 -2,-8 -3,-12 -1,-4 -3,-8 -4,-12 -2,-4 -3,-7 -6,-11 -2,-4 -4,-7 -7,-10 -3,-3 -5,-6 -8,-9 -3,-3 -6,-6 -9,-8 -3,-2 -7,-5 -11,-7 -4,-2 -7,-4 -11,-5 -4,-2 -8,-3 -12,-4 -4,-1 -8,-2 -12,-2 -4,0 -8,-1 -12,-1 -4,0 -8,0 -12,1 -4,1 -8,1 -12,3 -4,1 -8,3 -12,4 -4,2 -7,4 -11,6 -4,2 -7,4 -10,7 -3,3 -6,5 -9,8 -3,3 -6,6 -8,9 -2,3 -5,7 -7,10 -2,4 -4,7 -5,11 -2,4 -3,8 -4,12 -1,4 -2,8 -2,12 0,4 -1,8 -1,12 0,4 0,8 1,12 1,4 2,8 3,12 1,4 2,8 4,12 2,4 3,7 6,11 2,4 5,7 7,10 3,3 5,6 8,9 3,3 6,6 9,8 3,2 7,5 10,7 4,2 7,4 11,5 4,2 8,3 12,4 4,1 8,2 12,2 4,1 8,1 12,1 4,0 8,0 12,-1 4,-1 8,-1 12,-3 4,-1 8,-3 12,-4 4,-2 7,-3 11,-6 4,-2 7,-4 10,-7 3,-3 6,-5 9,-8 3,-3 6,-6 8,-9 2,-3 5,-7 7,-10 2,-4 4,-7 5,-11 2,-4 3,-8 4,-12 1,-4 2,-8 2,-12 0,-4 1,-8 1,-12l0 12zm-842 343c-1,6 -1,11 -1,21 0,10 1,25 3,42 2,17 7,35 13,54 7,18 16,36 28,53 12,16 28,31 45,43 17,12 35,20 52,25 17,5 33,7 50,6 17,-1 36,-5 54,-12 18,-7 35,-17 49,-27 15,-10 27,-21 36,-29 9,-8 14,-14 17,-16l3 -3 26 30c-3,6 -6,11 -13,22 -7,11 -17,26 -31,44 -14,17 -31,37 -52,54 -21,18 -45,33 -71,44 -26,11 -54,17 -81,18 -27,1 -54,-2 -81,-10 -27,-8 -53,-20 -76,-38 -24,-17 -45,-39 -62,-65 -17,-25 -30,-54 -38,-80 -8,-26 -12,-50 -14,-73 -2,-24 -1,-47 1,-71 2,-24 7,-49 15,-75 8,-26 20,-54 34,-78 14,-24 29,-44 48,-62 19,-18 40,-33 65,-44 24,-11 51,-18 77,-21 26,-3 51,-3 77,2 26,4 52,12 77,24 25,12 47,27 66,44 18,18 33,37 43,59 11,21 18,44 22,66 4,23 5,45 5,61 0,16 0,26 0,31l0 5 -385 -44zm7 -67l219 26c0,-9 0,-17 -1,-29 -1,-11 -3,-26 -8,-41 -5,-15 -12,-31 -21,-43 -8,-12 -18,-20 -30,-26 -12,-6 -27,-10 -42,-9 -15,0 -31,4 -46,13 -15,9 -29,23 -40,38 -11,16 -20,33 -24,45 -5,12 -6,19 -7,22l-1 3zm-817 314l24 -205 40 5c1,5 2,10 4,20 3,9 7,23 14,38 7,15 15,31 27,46 12,15 26,29 40,39 14,10 27,17 41,23 14,5 30,9 44,10 15,1 28,0 40,-3 12,-3 23,-8 31,-15 8,-7 14,-14 17,-23 3,-9 4,-19 2,-29 -2,-10 -7,-21 -15,-31 -8,-11 -20,-21 -35,-33 -16,-12 -35,-26 -53,-38 -17,-12 -33,-22 -48,-33 -16,-11 -32,-23 -46,-36 -15,-13 -28,-25 -39,-39 -11,-13 -20,-27 -27,-42 -7,-15 -12,-32 -14,-49 -2,-17 -1,-34 1,-48 3,-15 7,-27 13,-38 6,-11 13,-22 23,-33 10,-11 23,-23 38,-33 14,-9 30,-16 46,-21 16,-5 34,-8 52,-8 18,0 36,2 55,5 18,4 37,9 54,14 17,6 34,12 45,16 11,4 17,5 22,5 5,1 9,0 13,-1 4,-1 8,-3 11,-5 3,-2 6,-4 7,-5l1 -1 38 10c-2,11 -3,22 -5,38 -2,16 -5,36 -7,57 -2,21 -5,42 -7,57 -2,15 -3,24 -3,29l0 5 -40 -1c-4,-10 -8,-21 -13,-32 -5,-11 -10,-23 -16,-34 -6,-11 -14,-22 -23,-33 -9,-11 -20,-22 -33,-31 -12,-9 -26,-17 -39,-22 -14,-5 -27,-7 -40,-7 -13,0 -25,3 -35,8 -10,5 -17,12 -22,20 -5,8 -7,16 -7,25 0,9 2,18 7,27 5,9 12,18 22,27 10,10 24,20 43,33 19,13 44,30 66,44 22,15 43,28 60,41 17,13 32,25 44,38 13,13 24,27 32,41 8,14 13,29 16,46 3,17 3,35 1,52 -2,17 -7,34 -14,49 -7,15 -15,29 -27,42 -12,14 -29,27 -47,38 -19,10 -40,18 -61,22 -21,4 -42,5 -62,4 -20,-1 -39,-4 -56,-8 -17,-4 -33,-8 -47,-13 -14,-5 -26,-10 -39,-14 -12,-5 -24,-9 -33,-11 -9,-2 -15,-3 -20,-2 -5,1 -10,3 -13,6 -3,3 -5,6 -6,8l-1 2 -40 -13zm2622 1854l781 68 232 -2649 -781 -68 -29 337 423 37 -173 1975 -423 -37 -30 337zm-3278 -2930l-780 -68 -232 2649 780 68 30 -337 -423 -37 173 -1975 423 37 29 -337z"/>
   <path class="fil1" d="M0 6314l10652 0 0 -124 -10652 0 0 124zm13814 -256l-104 0 0 -144 -168 0 0 144 -85 0 0 101 85 0 0 212c0,129 37,168 180,168 31,0 61,-4 92,-5l0 -114c-15,0 -30,2 -44,2 -36,0 -60,-8 -60,-46l0 -216 104 0 0 -101zm-804 476l168 0 0 -235c0,-60 43,-113 126,-113 23,0 42,4 64,9l0 -142c-13,-3 -27,-4 -40,-4 -72,0 -129,32 -154,93l-2 0 0 -84 -162 0 0 476zm-118 -476l-167 0 0 255c0,84 -55,106 -92,106 -53,0 -83,-22 -83,-85l0 -276 -168 0 0 286c0,125 43,204 189,204 59,0 125,-30 156,-79l2 0 0 65 162 0 0 -476zm-836 476l168 0 0 -375 100 0 0 -101 -100 0 0 -21c0,-43 24,-48 62,-48 15,0 30,1 45,3l0 -110c-27,-1 -54,-3 -81,-3 -143,0 -194,42 -194,179l-81 0 0 101 81 0 0 375zm-532 0l168 0 0 -235c0,-60 43,-113 126,-113 23,0 43,4 64,9l0 -142c-13,-3 -27,-4 -40,-4 -72,0 -129,32 -154,93l-2 0 0 -84 -163 0 0 476zm-675 0l572 0 0 -147 -388 0 0 -125 345 0 0 -132 -345 0 0 -114 378 0 0 -137 -562 0 0 654zm3181 -344l1421 0 0 124 -1421 0 0 -124zm1796 -2240c6,7 12,14 17,20 5,6 8,11 10,14l2 3 69 108 -90 0 -44 -70c-3,-4 -6,-9 -9,-14 -3,-5 -7,-10 -10,-15 -3,-5 -6,-8 -8,-11 -2,-3 -4,-5 -6,-7 -2,-2 -4,-4 -6,-6 -2,-2 -4,-3 -5,-4 -2,-1 -3,-2 -6,-3 -2,-1 -4,-2 -6,-2 -1,0 -1,0 -3,0 -2,0 -5,0 -8,0 -3,0 -5,0 -6,0l-1 0 -28 0 0 132 -74 0 0 -332 150 0c6,0 13,0 19,1 6,0 12,1 18,2 5,1 10,2 15,3 5,1 10,3 15,5 5,2 10,5 15,9 5,3 9,7 13,12 4,4 8,9 11,15 3,5 6,11 8,17 2,6 4,12 5,18 1,6 2,12 2,19 0,6 0,12 -2,18 -1,6 -3,12 -5,17 -2,5 -5,10 -8,15 -3,5 -7,10 -11,14 -4,4 -9,9 -15,12 -6,4 -12,7 -16,9l-3 2zm-335 -21c2,-20 5,-40 9,-59 4,-19 11,-38 19,-55 8,-17 19,-33 31,-48 12,-15 26,-28 40,-40 15,-12 31,-22 48,-30 17,-8 36,-15 55,-19 19,-5 39,-7 59,-7 20,0 40,2 59,7 19,4 38,11 55,20 17,8 33,19 48,30 15,12 28,25 40,40 12,15 22,31 31,48 8,17 15,36 20,55 4,19 7,39 7,59 0,20 -2,40 -7,59 -4,19 -11,38 -20,55 -8,17 -19,33 -31,48 -12,15 -25,29 -40,40 -15,12 -31,22 -48,31 -17,8 -36,15 -55,19 -19,4 -39,7 -59,7 -20,0 -40,-2 -59,-7 -19,-4 -38,-11 -55,-19 -17,-8 -33,-19 -48,-31 -15,-12 -28,-26 -40,-40 -12,-15 -22,-31 -31,-48 -8,-17 -15,-36 -19,-55 -4,-19 -7,-39 -8,-49l-1 -10zm-11719 564l-15 -27c-160,-31 -355,94 -416,121 -25,3 -383,239 -535,366 -33,40 -87,74 -83,124 51,13 98,-4 141,-24 58,-10 282,-138 344,-171 97,-47 492,-289 564,-389zm1928 386c11,-16 11,-53 0,-70 -257,195 -517,366 -753,571 -29,27 -72,60 -61,104 61,3 105,-27 148,-53 239,-158 488,-316 666,-551zm1932 -1329c0,20 7,43 -14,60 -152,84 -282,191 -434,265 -54,30 -105,64 -159,97 -80,40 -155,94 -239,141 -163,101 -348,201 -510,302 -58,23 -68,94 -105,131 -62,104 -134,198 -210,296 -7,20 15,27 29,30 80,17 304,-97 358,-100 -25,50 -199,181 -257,184 -65,30 -159,60 -239,27 -137,151 -300,289 -463,396 -69,54 -156,97 -235,141 -191,94 -405,208 -597,124 -33,-30 -18,-84 -11,-124 73,-161 239,-286 380,-393 -69,7 -145,50 -224,74 -141,40 -311,138 -452,50 -29,-24 -22,-64 -26,-101 -58,-7 -97,34 -155,44 -112,44 -235,80 -358,70 -47,-3 -87,-27 -105,-70 15,-37 22,-71 51,-101 -58,6 -101,54 -156,57 -134,64 -275,111 -423,138 -61,-3 -166,20 -191,-54 -7,-23 18,-40 7,-61 -109,54 -221,94 -348,121 -50,0 -101,0 -148,-20 -44,-33 -69,-91 -47,-151 36,-87 246,-293 369,-376 166,-112 351,-242 546,-326 50,-37 373,-141 470,-145 112,-24 232,-10 326,34 -4,17 18,13 25,10l137 -50 257 -3c15,3 26,10 29,24 -11,37 -54,57 -87,74 -83,44 -159,101 -246,152 -36,10 -274,175 -372,228 -383,206 -402,269 -406,292 14,27 51,27 80,24 148,-37 293,-104 423,-175 130,-87 242,-175 376,-245 177,-108 355,-249 543,-332 109,-10 217,-10 326,6 -22,50 -129,97 -210,155 -263,187 -535,326 -792,504 -4,10 -18,20 -7,30 43,7 87,0 127,-10 177,-94 329,-191 492,-296 51,-30 83,-64 138,-84 163,-87 311,-222 488,-279 87,-10 177,-17 261,7 18,10 21,27 11,40 -90,81 -203,127 -304,195 -98,57 -192,114 -282,171 -105,71 -196,124 -293,208 -36,30 -101,67 -116,121 87,20 163,-24 242,-47 108,-34 220,-72 314,-131 221,-139 253,-154 348,-221 32,-27 65,-44 101,-67 29,-158 185,-232 329,-282 101,10 166,-77 249,-118 94,-50 184,-114 271,-168 242,-151 496,-296 742,-443 40,-14 103,-50 170,-54 80,-4 181,-23 206,3zm-1747 453c77,-11 -1,66 -25,81 -68,42 -279,81 -347,91 -138,14 -286,0 -402,-57 -25,-20 -58,-43 -65,-80 22,-71 119,-44 177,-81 69,3 82,68 170,77 0,0 263,2 492,-30zm8046 448c-157,-32 -496,224 -490,290 82,9 153,-32 224,-60 48,-35 102,-54 143,-92 51,-38 119,-76 122,-139zm-2446 35l-10 -22c-102,-25 -194,35 -286,60 -75,44 -156,79 -228,133 -143,101 -296,195 -418,322 -7,19 -37,31 -20,54 41,19 85,-10 126,-10 88,-28 153,-79 231,-114 187,-101 330,-205 510,-322 27,-35 88,-60 95,-101zm1276 -7c-61,-32 -112,-3 -163,3 -194,60 -354,170 -517,278 -72,47 -136,104 -211,161 -27,38 -78,57 -82,110 55,34 289,-95 327,-104 180,-110 343,-228 523,-341 48,-35 102,-57 122,-107zm1694 -878c3,47 -55,57 -85,88 -78,44 -160,95 -228,142 -204,133 -415,265 -625,401 -85,60 -187,117 -276,180 -112,70 -228,145 -340,227 -82,50 -160,98 -235,148 -95,70 -201,126 -272,215l20 38c72,10 129,-19 187,-44l320 -142c156,-146 313,-246 493,-360 48,-9 473,-330 752,-177 41,22 41,72 37,114 -17,57 -68,104 -109,145 -37,13 -54,44 -88,60 -78,47 -150,101 -235,139 -95,60 -214,98 -326,133 -75,6 -167,16 -235,-10 -48,22 -102,66 -119,117 14,57 85,60 136,69 146,-19 279,-69 411,-123 14,0 191,-111 283,-145 173,-117 351,-218 534,-329 82,-66 184,-110 272,-173 82,-35 184,-19 276,-13 24,13 -3,47 27,47 109,-25 204,-54 320,-35 0,0 39,27 47,53 12,41 -12,92 -81,127 -95,60 -187,117 -283,174 -71,44 -136,92 -211,129 -71,47 -146,95 -211,142 -24,25 -71,50 -54,91 6,6 16,5 37,0 160,-29 282,-101 422,-158 28,-16 43,-17 60,-31 73,-33 130,-73 208,-96 -3,41 -65,76 -89,114 -54,13 -92,50 -143,69 0,0 -102,57 -180,95 -218,108 -449,205 -697,192 -41,-3 -72,-28 -89,-60 -10,-82 78,-133 122,-183 106,-69 215,-149 330,-205 51,-48 126,-76 184,-117l132 -82c4,-10 10,-16 10,-25 -48,-3 -88,29 -136,32 -78,41 -136,79 -211,113 -64,35 -132,79 -204,114 -92,60 -190,110 -282,170 -119,70 -245,149 -368,227 -54,16 -255,13 -265,-19l10 -41c-167,60 -360,129 -547,70 -31,-10 -58,-35 -75,-63 -30,-47 -3,-95 11,-145 -65,3 -211,98 -252,95 -146,57 -334,154 -476,114 -18,-5 -34,-13 -34,-35 -3,-32 10,-53 10,-79 -163,60 -354,167 -534,98 -47,-29 -41,-85 -41,-136 7,-22 34,-38 34,-63 -82,25 -146,76 -225,91 -136,70 -285,120 -442,149 -61,0 -129,6 -156,-47 -4,-22 3,-44 14,-63 -136,44 -248,116 -398,116 -54,-9 -116,-22 -129,-79 7,-44 -11,-76 31,-142 62,-99 146,-176 245,-246 103,-72 319,-226 524,-332 201,-104 419,-192 677,-167 51,13 95,32 143,48 58,-9 102,-51 163,-48l235 0c0,69 -92,85 -136,123 -82,57 -173,107 -258,161 -75,38 -157,89 -228,136l-299 192c-44,29 -82,63 -116,101 0,16 10,28 27,32 177,-16 320,-120 480,-174 88,-79 188,-142 289,-215 179,-128 433,-300 854,-344 89,-9 156,19 235,35 167,-117 357,-237 534,-354 187,-114 344,-234 531,-344 13,-10 40,3 40,-19 102,-16 221,-6 317,-6zm-6333 827c-10,44 -58,47 -82,76 -41,22 -83,51 -184,104 -148,78 -313,29 -490,29 -95,-16 -186,-22 -286,-29 -89,-6 -136,22 -187,-6 41,-51 272,-155 333,-155 51,-16 119,-9 173,-6 136,34 265,28 408,25 105,-3 204,-35 306,-47l7 9zm-4297 -798c-24,-110 -302,10 -302,10l-270 113c-117,55 -97,50 -140,77 -259,150 -486,294 -730,461 29,33 79,3 137,7 277,-33 547,-144 791,-254 0,0 389,-227 482,-331 22,-20 36,-53 32,-84zm-2951 1312c-104,-33 -244,-27 -345,10 -65,7 -126,43 -155,97 -7,16 11,26 25,33 166,23 313,-57 453,-117l22 -23zm-165 -170c122,-15 251,17 363,50 57,-11 90,-57 144,-77 172,-117 356,-211 525,-324 -115,-40 -415,-115 -521,-281 -58,-89 -70,-224 -43,-324 4,-15 31,-192 273,-327 89,-50 183,-91 284,-104 63,-7 78,-7 187,-3 72,3 148,24 219,30 -43,17 -98,13 -148,17 -204,17 -332,68 -474,140 -149,75 -188,214 -190,230 -59,453 600,494 672,451 76,-47 140,-100 223,-137 61,-47 214,-137 353,-210 101,-53 567,-295 629,-320 101,-41 169,-67 262,-93 176,-50 395,-94 568,-10 43,23 36,73 36,113 -86,203 -270,320 -449,444 -65,27 -115,70 -180,94 -115,53 -237,117 -360,150 -259,80 -518,154 -798,180 -72,17 -176,-10 -234,44 -111,63 -219,137 -323,200 -130,77 -248,151 -381,237 104,83 244,153 366,214 33,23 76,37 104,60 36,16 331,173 457,210 205,90 424,110 647,130 79,14 352,17 406,3 320,-11 622,-104 906,-230 18,-10 22,-24 43,-14 -18,43 -212,144 -270,180 -68,30 -140,67 -212,84 -165,70 -338,80 -525,100 -323,20 -683,-7 -1003,-103 -108,-27 -198,-67 -302,-107 -144,-43 -234,-124 -349,-164 -68,-36 -147,-74 -216,-113 -83,-40 -165,-80 -237,-123 -54,-20 -97,10 -147,27 -255,94 -536,197 -831,140 -40,-14 -79,-47 -83,-84 -11,-100 87,-157 159,-210 47,-37 108,-63 155,-94 0,0 89,-51 295,-77zm10820 -1142c-23,-110 -302,10 -302,10l-269 113c-117,55 -97,50 -140,77 -259,150 -486,294 -730,461 29,33 79,3 136,7 277,-33 547,-144 791,-254 0,0 388,-227 482,-331 22,-20 36,-53 32,-84zm-2951 1312c-104,-33 -244,-27 -345,10 -65,7 -126,43 -155,97 -7,16 11,26 25,33 166,23 313,-57 453,-117l21 -23zm-165 -170c122,-15 252,17 363,50 57,-11 90,-57 144,-77 172,-117 356,-211 525,-324 -115,-40 -415,-115 -521,-281 -57,-89 -70,-224 -43,-324 4,-15 32,-192 273,-327 89,-50 183,-91 284,-104 62,-7 78,-7 187,-3 72,3 148,24 219,30 -43,17 -98,13 -148,17 -204,17 -332,68 -475,140 -149,75 -188,214 -191,230 -59,453 601,494 672,451 76,-47 141,-100 223,-137 61,-47 214,-137 352,-210 101,-53 567,-295 629,-320 101,-41 169,-67 262,-93 177,-50 396,-94 569,-10 43,23 36,73 36,113 -87,203 -270,320 -450,444 -65,27 -115,70 -180,94 -115,53 -237,117 -360,150 -259,80 -518,154 -798,180 -72,17 -176,-10 -234,44 -111,63 -219,137 -323,200 -130,77 -248,151 -381,237 104,83 244,153 367,214 32,23 76,37 104,60 36,16 331,173 456,210 205,90 425,110 648,130 79,14 352,17 406,3 320,-11 623,-104 906,-230 18,-10 22,-24 43,-14 -18,43 -212,144 -270,180 -68,30 -140,67 -212,84 -165,70 -338,80 -525,100 -323,20 -683,-7 -1003,-103 -108,-27 -198,-67 -302,-107 -144,-43 -234,-124 -349,-164 -68,-36 -148,-74 -216,-113 -82,-40 -165,-80 -237,-123 -54,-20 -97,10 -147,27 -255,94 -535,197 -831,140 -40,-14 -79,-47 -83,-84 -11,-100 86,-157 159,-210 47,-37 108,-63 155,-94 0,0 89,-51 295,-77zm7019 -844c0,-178 144,-322 322,-322 178,0 322,144 322,322 0,178 -144,322 -322,322 -178,0 -322,-144 -322,-322zm239 -17l84 0c18,0 32,-2 42,-6 10,-4 18,-10 23,-18 5,-8 8,-17 8,-27 0,-14 -5,-26 -15,-35 -10,-9 -26,-14 -48,-14l-94 0 0 99z"/>
  </g>
 </g>
</svg>
