<?xml version="1.0" encoding="UTF-8" standalone="no"?>
<svg width="7064px" height="4505px" viewBox="0 0 7064 4505" version="1.1" xmlns="http://www.w3.org/2000/svg" xmlns:xlink="http://www.w3.org/1999/xlink">
    <!-- Generator: Sketch 41.2 (35397) - http://www.bohemiancoding.com/sketch -->
    <title>Slice 1</title>
    <desc>Created with Sketch.</desc>
    <defs></defs>
    <g id="Page-1" stroke="none" stroke-width="1" fill="none" fill-rule="evenodd">
        <g id="Ebene_x0020_1">
            <path d="M1765,1148 L1705,1112 C1668,1089 1641,1066 1625,1044 C1609,1021 1601,996 1601,966 C1601,923 1616,887 1646,860 C1676,833 1716,819 1764,819 C1810,819 1853,832 1891,858 L1891,948 C1851,910 1808,891 1762,891 C1737,891 1715,897 1699,909 C1682,921 1674,936 1674,955 C1674,971 1680,987 1692,1001 C1704,1016 1724,1031 1751,1047 L1812,1083 C1879,1123 1913,1175 1913,1237 C1913,1281 1898,1317 1868,1345 C1839,1373 1800,1387 1753,1387 C1698,1387 1648,1370 1603,1336 L1603,1236 C1646,1290 1695,1317 1752,1317 C1776,1317 1797,1310 1814,1296 C1830,1282 1838,1265 1838,1244 C1838,1210 1814,1178 1765,1148 Z M2264,1295 L2264,1367 C2228,1380 2192,1387 2157,1387 C2100,1387 2054,1370 2020,1336 C1986,1302 1969,1257 1969,1200 C1969,1143 1986,1096 2019,1061 C2052,1026 2096,1008 2150,1008 C2169,1008 2186,1010 2201,1014 C2216,1017 2235,1024 2257,1033 L2257,1110 C2220,1087 2186,1076 2154,1076 C2121,1076 2095,1087 2073,1110 C2052,1133 2042,1162 2042,1198 C2042,1235 2053,1265 2076,1287 C2099,1309 2129,1320 2168,1320 C2196,1320 2228,1311 2264,1295 Z M2343,827 L2416,827 L2416,1063 C2446,1027 2483,1008 2528,1008 C2552,1008 2574,1014 2593,1026 C2612,1039 2627,1055 2636,1077 C2645,1098 2650,1130 2650,1173 L2650,1380 L2578,1380 L2578,1155 C2578,1128 2571,1106 2558,1090 C2545,1074 2528,1066 2507,1066 C2491,1066 2476,1070 2462,1078 C2448,1086 2433,1100 2416,1119 L2416,1380 L2343,1380 L2343,827 Z M2983,1380 L2983,1334 C2968,1351 2950,1364 2931,1373 C2911,1382 2891,1387 2872,1387 C2849,1387 2827,1381 2808,1370 C2788,1358 2774,1343 2764,1323 C2754,1303 2749,1271 2749,1225 L2749,1016 L2821,1016 L2821,1224 C2821,1262 2827,1289 2838,1304 C2849,1319 2868,1327 2895,1327 C2930,1327 2959,1310 2983,1277 L2983,1016 L3055,1016 L3055,1380 L2983,1380 Z M3154,827 L3227,827 L3227,1063 C3257,1027 3294,1008 3339,1008 C3363,1008 3385,1014 3404,1026 C3423,1039 3437,1055 3447,1077 C3456,1098 3461,1130 3461,1173 L3461,1380 L3389,1380 L3389,1155 C3389,1128 3382,1106 3369,1090 C3356,1074 3339,1066 3317,1066 C3302,1066 3287,1070 3273,1078 C3259,1086 3243,1100 3227,1119 L3227,1380 L3154,1380 L3154,827 Z M3547,827 L4009,827 L4009,898 L3816,898 L3816,1380 L3736,1380 L3736,898 L3547,898 L3547,827 Z M4201,1161 L4201,1316 C4201,1329 4205,1335 4214,1335 C4222,1335 4236,1329 4255,1316 L4255,1360 C4238,1370 4225,1377 4216,1381 C4206,1384 4195,1386 4185,1386 C4154,1386 4136,1374 4130,1351 C4100,1374 4067,1386 4032,1386 C4007,1386 3986,1378 3969,1361 C3952,1344 3943,1323 3943,1297 C3943,1274 3951,1254 3968,1236 C3984,1217 4008,1203 4038,1192 L4130,1161 L4130,1141 C4130,1097 4109,1076 4065,1076 C4025,1076 3987,1096 3950,1136 L3950,1058 C3978,1025 4018,1008 4070,1008 C4110,1008 4141,1018 4165,1039 C4173,1046 4180,1055 4186,1066 C4193,1077 4197,1088 4198,1098 C4200,1110 4201,1130 4201,1161 Z M4130,1308 L4130,1200 L4082,1218 C4057,1228 4040,1238 4030,1248 C4020,1258 4015,1270 4015,1285 C4015,1300 4019,1313 4029,1322 C4039,1332 4051,1337 4067,1337 C4090,1337 4111,1327 4130,1308 Z M4301,1354 L4301,1277 C4321,1291 4342,1302 4363,1311 C4384,1320 4402,1324 4417,1324 C4432,1324 4445,1321 4456,1313 C4466,1306 4472,1297 4472,1287 C4472,1276 4468,1267 4461,1260 C4454,1254 4439,1243 4416,1230 C4369,1204 4339,1182 4325,1164 C4310,1145 4303,1125 4303,1103 C4303,1075 4314,1053 4336,1035 C4357,1017 4386,1008 4420,1008 C4455,1008 4492,1018 4529,1038 L4529,1110 C4487,1084 4452,1071 4424,1071 C4410,1071 4399,1074 4391,1080 C4382,1086 4378,1094 4378,1103 C4378,1112 4382,1120 4389,1128 C4397,1136 4411,1145 4431,1156 L4456,1170 C4517,1205 4547,1243 4547,1285 C4547,1314 4536,1339 4512,1358 C4489,1377 4459,1387 4422,1387 C4401,1387 4381,1385 4364,1380 C4347,1375 4326,1367 4301,1354 Z M4905,1295 L4905,1367 C4868,1380 4833,1387 4798,1387 C4741,1387 4695,1370 4661,1336 C4626,1302 4609,1257 4609,1200 C4609,1143 4626,1096 4659,1061 C4693,1026 4736,1008 4791,1008 C4810,1008 4827,1010 4842,1014 C4857,1017 4875,1024 4897,1033 L4897,1110 C4861,1087 4826,1076 4795,1076 C4762,1076 4735,1087 4714,1110 C4693,1133 4682,1162 4682,1198 C4682,1235 4694,1265 4716,1287 C4739,1309 4770,1320 4809,1320 C4836,1320 4868,1311 4905,1295 Z M4984,827 L5056,827 L5056,1063 C5086,1027 5124,1008 5168,1008 C5193,1008 5214,1014 5234,1026 C5253,1039 5267,1055 5277,1077 C5286,1098 5291,1130 5291,1173 L5291,1380 L5218,1380 L5218,1155 C5218,1128 5212,1106 5199,1090 C5186,1074 5169,1066 5147,1066 C5131,1066 5117,1070 5102,1078 C5089,1086 5073,1100 5056,1119 L5056,1380 L4984,1380 L4984,827 Z" id="Shape" fill="#2B2A29"></path>
            <path d="M474,1822 C474,1790 468,1761 456,1733 C444,1705 427,1680 405,1659 C383,1638 358,1621 329,1610 C300,1598 269,1592 236,1592 C203,1592 173,1598 144,1610 C115,1621 90,1638 69,1659 C47,1680 30,1704 18,1732 C6,1760 0,1790 0,1822 C0,1853 6,1883 18,1911 C30,1939 47,1964 69,1985 C90,2006 115,2023 144,2034 C173,2046 203,2052 236,2052 C269,2052 300,2046 329,2034 C358,2023 383,2006 405,1985 C427,1964 444,1939 456,1911 C468,1883 474,1853 474,1822 Z M436,1822 C436,1849 431,1875 421,1899 C411,1923 397,1944 379,1962 C361,1980 340,1994 315,2004 C291,2014 265,2019 237,2019 C210,2019 184,2014 159,2004 C135,1994 114,1980 95,1962 C77,1944 63,1923 52,1899 C42,1875 37,1849 37,1822 C37,1794 42,1769 52,1744 C63,1720 77,1699 95,1682 C114,1664 135,1650 159,1640 C184,1629 210,1624 237,1624 C265,1624 291,1629 315,1640 C340,1650 361,1664 379,1682 C397,1699 411,1720 421,1744 C431,1769 436,1794 436,1822 Z M751,1780 C737,1767 724,1758 714,1753 C704,1748 694,1745 684,1745 C650,1745 616,1773 581,1828 L579,1828 L579,1751 L548,1751 L548,2046 L579,2046 L579,1861 C595,1833 612,1813 628,1798 C644,1783 659,1776 674,1776 C682,1776 691,1778 699,1783 C708,1788 719,1797 733,1809 L751,1780 Z M902,1653 L892,1653 L871,1681 L871,1751 L791,1751 L791,1777 L871,1777 L871,1989 C871,2009 877,2025 891,2035 C904,2046 920,2052 939,2052 C947,2052 958,2050 973,2046 C986,2042 995,2039 1000,2036 L1000,2006 C987,2012 977,2016 970,2018 C963,2020 955,2021 946,2021 C926,2021 914,2016 909,2007 C904,1998 902,1980 902,1952 L902,1777 L985,1777 L985,1751 L902,1751 L902,1653 Z M1100,1598 L1069,1598 L1069,2046 L1100,2046 L1100,1839 C1114,1817 1129,1801 1143,1791 C1158,1781 1176,1776 1197,1776 C1224,1776 1244,1785 1257,1802 C1270,1820 1277,1845 1277,1878 L1277,2046 L1308,2046 L1308,1865 C1308,1827 1298,1798 1278,1777 C1258,1756 1231,1745 1199,1745 C1177,1745 1159,1750 1144,1758 C1129,1767 1115,1782 1102,1802 L1100,1802 L1100,1598 Z M1677,1899 C1677,1877 1673,1857 1666,1838 C1658,1819 1648,1803 1634,1789 C1621,1775 1605,1764 1587,1757 C1569,1749 1549,1745 1527,1745 C1506,1745 1487,1749 1468,1757 C1450,1764 1434,1775 1420,1789 C1406,1803 1396,1819 1388,1838 C1381,1857 1377,1877 1377,1899 C1377,1920 1381,1940 1388,1959 C1396,1978 1406,1994 1420,2008 C1433,2022 1449,2032 1468,2040 C1487,2048 1506,2052 1527,2052 C1549,2052 1569,2048 1587,2040 C1605,2032 1621,2022 1634,2008 C1648,1994 1658,1978 1666,1959 C1673,1940 1677,1920 1677,1899 Z M1643,1899 C1643,1916 1641,1932 1635,1947 C1629,1962 1621,1975 1610,1986 C1600,1997 1587,2005 1573,2012 C1559,2018 1544,2021 1527,2021 C1494,2021 1466,2009 1444,1986 C1433,1975 1425,1962 1419,1947 C1413,1932 1411,1916 1411,1899 C1411,1881 1413,1865 1419,1850 C1425,1835 1433,1822 1444,1811 C1466,1788 1494,1776 1527,1776 C1543,1776 1559,1779 1573,1785 C1588,1791 1600,1800 1611,1811 C1621,1822 1629,1835 1635,1850 C1641,1865 1643,1881 1643,1899 Z M1778,1751 L1746,1751 L1746,2197 L1778,2197 L1778,2029 C1795,2037 1810,2043 1823,2046 C1836,2050 1850,2052 1865,2052 C1885,2052 1904,2048 1922,2040 C1940,2032 1956,2021 1969,2007 C1983,1993 1994,1977 2001,1958 C2008,1939 2012,1919 2012,1897 C2012,1875 2009,1855 2001,1837 C1994,1818 1984,1802 1971,1788 C1958,1774 1942,1764 1924,1756 C1906,1749 1887,1745 1866,1745 C1851,1745 1836,1747 1823,1750 C1810,1753 1795,1759 1778,1767 L1778,1751 Z M1778,1798 C1793,1789 1807,1784 1818,1781 C1830,1778 1842,1776 1855,1776 C1891,1776 1920,1788 1943,1811 C1966,1834 1977,1864 1977,1900 C1977,1936 1967,1965 1945,1988 C1923,2010 1895,2021 1859,2021 C1844,2021 1831,2019 1819,2016 C1806,2012 1793,2007 1778,1998 L1778,1798 Z M2238,1628 C2230,1628 2223,1631 2217,1637 C2212,1643 2209,1649 2209,1657 C2209,1665 2212,1672 2217,1678 C2223,1683 2230,1686 2238,1686 C2246,1686 2252,1683 2258,1678 C2264,1672 2267,1665 2267,1657 C2267,1649 2264,1643 2258,1637 C2252,1631 2246,1628 2238,1628 Z M2122,1628 C2114,1628 2107,1631 2101,1637 C2096,1643 2093,1649 2093,1657 C2093,1665 2096,1672 2101,1678 C2107,1683 2114,1686 2122,1686 C2130,1686 2136,1683 2142,1678 C2148,1672 2151,1665 2151,1657 C2151,1649 2148,1643 2142,1637 C2136,1631 2130,1628 2122,1628 Z M2316,1994 C2307,2002 2298,2008 2290,2013 C2282,2018 2277,2021 2274,2021 C2269,2021 2267,2016 2267,2006 L2267,1822 C2267,1807 2264,1795 2258,1785 C2252,1774 2245,1767 2236,1761 C2226,1755 2216,1751 2206,1749 C2196,1746 2185,1745 2175,1745 C2159,1745 2143,1747 2129,1752 C2114,1757 2098,1765 2080,1776 L2080,1808 C2098,1795 2113,1785 2127,1779 C2140,1774 2154,1771 2170,1771 C2213,1771 2235,1791 2235,1832 L2235,1870 C2212,1871 2191,1873 2171,1878 C2150,1882 2132,1888 2116,1897 C2100,1905 2087,1916 2077,1930 C2068,1943 2063,1959 2063,1977 C2063,1998 2071,2015 2086,2030 C2102,2044 2120,2052 2143,2052 C2158,2052 2174,2049 2189,2043 C2203,2037 2219,2027 2235,2015 C2236,2030 2239,2039 2241,2044 C2244,2049 2249,2052 2256,2052 C2263,2052 2270,2050 2278,2046 C2286,2042 2297,2035 2311,2025 L2316,2021 L2316,1994 Z M2235,1987 C2220,2002 2206,2012 2193,2017 C2181,2023 2167,2026 2153,2026 C2137,2026 2123,2021 2112,2012 C2100,2003 2095,1991 2095,1977 C2095,1952 2108,1933 2134,1918 C2160,1903 2194,1895 2235,1895 L2235,1987 Z M2614,1598 L2583,1598 L2583,1769 C2565,1760 2550,1754 2537,1750 C2524,1747 2511,1745 2496,1745 C2474,1745 2454,1749 2436,1757 C2418,1764 2402,1775 2389,1789 C2376,1803 2365,1819 2358,1837 C2350,1856 2347,1876 2347,1898 C2347,1919 2351,1940 2358,1958 C2366,1977 2376,1994 2390,2008 C2404,2022 2419,2032 2438,2040 C2456,2048 2475,2052 2496,2052 C2513,2052 2528,2049 2540,2045 C2553,2041 2567,2034 2583,2023 L2583,2046 L2614,2046 L2614,1598 Z M2583,1994 C2568,2004 2555,2011 2543,2015 C2532,2019 2518,2021 2504,2021 C2486,2021 2470,2018 2455,2012 C2440,2005 2426,1997 2415,1985 C2404,1974 2395,1961 2389,1945 C2383,1930 2380,1914 2380,1896 C2380,1861 2391,1832 2413,1810 C2435,1787 2463,1776 2497,1776 C2512,1776 2526,1778 2539,1782 C2552,1786 2567,1793 2583,1804 L2583,1994 Z M2732,1751 L2700,1751 L2700,2046 L2732,2046 L2732,1751 Z M2732,1598 L2700,1598 L2700,1652 L2732,1652 L2732,1598 Z M3070,1888 C3070,1864 3066,1843 3059,1825 C3051,1807 3041,1792 3029,1780 C3016,1768 3002,1759 2987,1754 C2971,1748 2955,1745 2939,1745 C2920,1745 2902,1749 2885,1756 C2869,1764 2854,1774 2842,1787 C2830,1801 2821,1817 2814,1835 C2807,1853 2804,1873 2804,1895 C2804,1917 2808,1938 2815,1957 C2822,1976 2832,1993 2845,2007 C2858,2021 2874,2032 2892,2040 C2910,2048 2930,2052 2951,2052 C2992,2052 3030,2038 3064,2012 L3064,1977 C3046,1992 3028,2003 3010,2010 C2993,2017 2975,2021 2955,2021 C2940,2021 2925,2018 2910,2012 C2896,2006 2883,1998 2872,1987 C2861,1976 2852,1964 2846,1949 C2840,1935 2837,1919 2837,1903 L2837,1895 L2837,1888 L3070,1888 Z M2841,1862 C2847,1835 2859,1814 2876,1799 C2894,1784 2915,1776 2939,1776 C2990,1776 3021,1805 3032,1862 L2841,1862 Z M3455,1882 L3299,1882 L3299,1913 L3455,1913 L3455,1882 Z M3925,1620 C3890,1602 3855,1592 3821,1592 C3803,1592 3787,1595 3771,1601 C3756,1608 3742,1616 3730,1627 C3718,1638 3709,1651 3702,1665 C3696,1680 3692,1695 3692,1711 C3692,1729 3695,1745 3701,1758 C3708,1771 3716,1782 3726,1790 C3737,1799 3748,1806 3759,1811 C3771,1817 3786,1823 3805,1830 C3821,1837 3835,1842 3846,1847 C3857,1852 3867,1858 3876,1866 C3885,1873 3892,1882 3897,1892 C3903,1903 3906,1916 3906,1930 C3906,1956 3896,1977 3878,1994 C3860,2011 3838,2019 3811,2019 C3794,2019 3777,2016 3760,2009 C3744,2002 3723,1989 3698,1971 L3698,2012 C3738,2038 3776,2052 3813,2052 C3831,2052 3848,2048 3864,2042 C3879,2036 3893,2027 3905,2016 C3917,2005 3927,1991 3933,1976 C3940,1961 3943,1945 3943,1929 C3943,1909 3940,1892 3933,1878 C3927,1864 3918,1852 3907,1843 C3896,1834 3884,1826 3872,1821 C3860,1815 3845,1808 3825,1801 C3809,1795 3796,1790 3786,1785 C3776,1781 3767,1775 3758,1768 C3749,1762 3742,1753 3737,1744 C3732,1734 3730,1723 3730,1710 C3730,1685 3739,1665 3757,1649 C3775,1633 3797,1624 3824,1624 C3839,1624 3854,1627 3869,1632 C3883,1636 3902,1645 3925,1659 L3925,1620 Z M4218,1760 C4202,1754 4188,1751 4176,1748 C4165,1746 4153,1745 4140,1745 C4119,1745 4100,1749 4083,1757 C4065,1764 4050,1775 4037,1789 C4025,1803 4015,1820 4008,1839 C4001,1859 3997,1880 3997,1903 C3997,1947 4011,1983 4037,2011 C4064,2038 4098,2052 4142,2052 C4155,2052 4168,2050 4180,2048 C4192,2046 4207,2042 4224,2036 L4224,2004 C4208,2010 4194,2015 4182,2017 C4170,2019 4158,2021 4144,2021 C4110,2021 4082,2010 4062,1988 C4041,1966 4031,1936 4031,1899 C4031,1863 4041,1833 4062,1810 C4082,1787 4109,1776 4142,1776 C4154,1776 4166,1777 4177,1780 C4188,1783 4202,1787 4218,1794 L4218,1760 Z M4316,1598 L4284,1598 L4284,2046 L4316,2046 L4316,1839 C4330,1817 4344,1801 4359,1791 C4373,1781 4391,1776 4412,1776 C4440,1776 4460,1785 4473,1802 C4486,1820 4492,1845 4492,1878 L4492,2046 L4524,2046 L4524,1865 C4524,1827 4513,1798 4493,1777 C4473,1756 4447,1745 4414,1745 C4393,1745 4374,1750 4360,1758 C4345,1767 4330,1782 4317,1802 L4316,1802 L4316,1598 Z M4813,2046 L4845,2046 L4845,1751 L4813,1751 L4813,1958 C4799,1980 4785,1996 4771,2006 C4758,2016 4740,2021 4718,2021 C4695,2021 4675,2013 4660,1998 C4645,1983 4637,1961 4637,1933 L4637,1751 L4606,1751 L4606,1933 C4606,1954 4609,1973 4615,1988 C4621,2003 4630,2015 4641,2025 C4651,2034 4663,2041 4676,2045 C4688,2049 4702,2052 4715,2052 C4737,2052 4756,2047 4770,2039 C4784,2031 4798,2017 4812,1997 L4813,1997 L4813,2046 Z M4958,1598 L4927,1598 L4927,2046 L4958,2046 L4958,1839 C4972,1817 4987,1801 5001,1791 C5016,1781 5034,1776 5055,1776 C5082,1776 5103,1785 5116,1802 C5128,1820 5135,1845 5135,1878 L5135,2046 L5166,2046 L5166,1865 C5166,1827 5156,1798 5136,1777 C5116,1756 5090,1745 5057,1745 C5035,1745 5017,1750 5002,1758 C4988,1767 4973,1782 4960,1802 L4958,1802 L4958,1598 Z M5306,1653 L5296,1653 L5275,1681 L5275,1751 L5195,1751 L5195,1777 L5275,1777 L5275,1989 C5275,2009 5281,2025 5295,2035 C5309,2046 5325,2052 5343,2052 C5351,2052 5362,2050 5377,2046 C5390,2042 5399,2039 5404,2036 L5404,2006 C5391,2012 5381,2016 5374,2018 C5367,2020 5359,2021 5350,2021 C5330,2021 5318,2016 5313,2007 C5308,1998 5306,1980 5306,1952 L5306,1777 L5389,1777 L5389,1751 L5306,1751 L5306,1653 Z M5698,1888 C5698,1864 5694,1843 5687,1825 C5679,1807 5669,1792 5657,1780 C5644,1768 5630,1759 5615,1754 C5599,1748 5583,1745 5567,1745 C5548,1745 5530,1749 5513,1756 C5497,1764 5483,1774 5471,1787 C5459,1801 5449,1817 5442,1835 C5436,1853 5432,1873 5432,1895 C5432,1917 5436,1938 5443,1957 C5450,1976 5460,1993 5473,2007 C5487,2021 5502,2032 5520,2040 C5539,2048 5558,2052 5579,2052 C5621,2052 5658,2038 5693,2012 L5693,1977 C5674,1992 5656,2003 5638,2010 C5621,2017 5603,2021 5583,2021 C5568,2021 5553,2018 5538,2012 C5524,2006 5511,1998 5500,1987 C5489,1976 5480,1964 5474,1949 C5468,1935 5465,1919 5465,1903 L5465,1895 C5465,1892 5466,1890 5466,1888 L5698,1888 Z M5470,1862 C5475,1835 5487,1814 5504,1799 C5522,1784 5543,1776 5567,1776 C5618,1776 5650,1805 5660,1862 L5470,1862 Z M5969,1760 C5952,1754 5938,1751 5927,1748 C5915,1746 5903,1745 5891,1745 C5870,1745 5850,1749 5833,1757 C5816,1764 5800,1775 5788,1789 C5775,1803 5765,1820 5758,1839 C5751,1859 5748,1880 5748,1903 C5748,1947 5761,1983 5787,2011 C5814,2038 5849,2052 5892,2052 C5906,2052 5918,2050 5930,2048 C5942,2046 5957,2042 5974,2036 L5974,2004 C5958,2010 5944,2015 5932,2017 C5921,2019 5908,2021 5895,2021 C5860,2021 5833,2010 5812,1988 C5791,1966 5781,1936 5781,1899 C5781,1863 5791,1833 5812,1810 C5833,1787 5859,1776 5892,1776 C5904,1776 5916,1777 5927,1780 C5938,1783 5952,1787 5969,1794 L5969,1760 Z M6066,1598 L6034,1598 L6034,2046 L6066,2046 L6066,1839 C6080,1817 6094,1801 6109,1791 C6124,1781 6141,1776 6162,1776 C6190,1776 6210,1785 6223,1802 C6236,1820 6242,1845 6242,1878 L6242,2046 L6274,2046 L6274,1865 C6274,1827 6264,1798 6244,1777 C6224,1756 6197,1745 6164,1745 C6143,1745 6125,1750 6110,1758 C6095,1767 6081,1782 6067,1802 L6066,1802 L6066,1598 Z M6387,1751 L6356,1751 L6356,2046 L6387,2046 L6387,1839 C6401,1817 6415,1801 6430,1791 C6445,1781 6463,1776 6484,1776 C6510,1776 6529,1785 6543,1802 C6557,1819 6564,1844 6564,1878 L6564,2046 L6595,2046 L6595,1866 C6595,1827 6585,1798 6565,1777 C6545,1756 6519,1745 6486,1745 C6464,1745 6446,1750 6431,1758 C6416,1767 6402,1782 6389,1802 L6387,1802 L6387,1751 Z M6714,1751 L6683,1751 L6683,2046 L6714,2046 L6714,1751 Z M6714,1598 L6683,1598 L6683,1652 L6714,1652 L6714,1598 Z M6830,1598 L6799,1598 L6799,2046 L6830,2046 L6830,1598 Z M7039,1751 L6997,1751 L6835,1891 L7020,2046 L7064,2046 L6877,1891 L7039,1751 Z" id="Shape" fill="#39402A"></path>
            <path d="M582,1412 C715,1412 822,1305 822,1171 C822,1038 715,931 582,931 C448,931 341,1038 341,1171 C341,1305 448,1412 582,1412 Z" id="Shape" fill="#39402A"></path>
            <path d="M1158,920 C1277,920 1374,822 1374,703 C1374,583 1277,486 1158,486 C1038,486 941,583 941,703 C941,822 1038,920 1158,920 Z" id="Shape" fill="#3D4E2A"></path>
            <path d="M1785,523 C1885,523 1965,442 1965,343 C1965,243 1885,162 1785,162 C1685,162 1604,243 1604,343 C1604,442 1685,523 1785,523 Z" id="Shape" fill="#54672D"></path>
            <path d="M2331,271 C2406,271 2466,210 2466,136 C2466,61 2406,0 2331,0 C2256,0 2195,61 2195,136 C2195,210 2256,271 2331,271 Z" id="Shape" fill="#6F7F32"></path>
            <path d="M1428,2254 C1454,2289 1515,2353 1549,2380 C1576,2402 1639,2436 1670,2454 C1696,2469 1752,2493 1781,2503 C1821,2519 1900,2541 1922,2545 C1922,2545 1943,2548 1935,2547 C1927,2546 2032,2561 2143,2569 C2308,2581 2639,2590 2805,2596 C2864,2597 3020,2611 3079,2617 C3127,2622 3355,2667 3397,2680 C3442,2694 3539,2720 3582,2739 C3631,2760 3725,2807 3771,2832 C3805,2850 3976,2965 4005,2986 C4036,3009 4105,3068 4134,3095 C4162,3121 4217,3173 4244,3200 C4273,3228 4327,3287 4355,3315 C4393,3355 4457,3434 4492,3476 C4520,3509 4582,3579 4607,3615 C4635,3655 4689,3737 4717,3778 C4744,3816 4798,3893 4827,3930 C4875,3989 4973,4103 5027,4156 C5057,4185 5120,4237 5153,4261 C5191,4289 5270,4342 5311,4366 C5347,4388 5419,4429 5458,4445 C5484,4456 5538,4491 5579,4504 C5602,4512 5493,4431 5474,4419 C5445,4401 5390,4361 5363,4340 C5329,4314 5263,4260 5232,4230 C5172,4170 5061,4041 5011,3972 C4961,3904 4877,3755 4833,3683 C4812,3649 4770,3580 4749,3547 C4728,3515 4686,3451 4665,3420 C4642,3388 4594,3325 4570,3294 C4544,3261 4492,3195 4465,3163 C4433,3125 4369,3050 4334,3016 C4296,2980 4212,2917 4171,2884 C4137,2858 4056,2806 4020,2783 C3975,2755 3893,2707 3845,2685 C3790,2660 3681,2611 3624,2590 C3564,2568 3440,2532 3377,2517 C3321,2503 3208,2482 3151,2475 C3089,2466 2962,2456 2899,2454 C2827,2451 2682,2454 2610,2454 L2353,2454 C2290,2453 2133,2448 2070,2444 C2008,2440 1915,2433 1854,2422 C1814,2415 1734,2395 1696,2380 C1656,2365 1580,2325 1544,2301 C1515,2283 1377,2138 1364,2148 C1359,2153 1419,2242 1428,2254 Z" id="Shape" fill="#39402A"></path>
        </g>
    </g>
</svg>