<?xml version="1.0" encoding="UTF-8"?>
<svg width="853px" height="202px" viewBox="0 0 853 202" version="1.1" xmlns="http://www.w3.org/2000/svg" xmlns:xlink="http://www.w3.org/1999/xlink">
    <!-- Generator: Sketch 43.2 (39069) - http://www.bohemiancoding.com/sketch -->
    <title>Slice 1</title>
    <desc>Created with Sketch.</desc>
    <defs></defs>
    <g id="Page-1" stroke="none" stroke-width="1" fill="none" fill-rule="evenodd">
        <g id="stoecklmayer">
            <g id="Stoecklmayer" transform="translate(0.087902, 0.303272)">
                <path d="M10.7975922,135.678734 L63.1161047,137.50418 L59.215251,144.576986 C73.5551759,145.016699 89.7980899,145.490166 104.132541,144.406392 C117.985316,143.358198 131.494165,136.698649 140.052142,125.62099 C144.946455,119.287121 144.908139,108.336268 137.763264,103.534094 C120.483103,91.9209352 99.33128,89.1759238 80.2220232,82.1213631 C69.9809138,78.3409286 59.4624753,71.0035651 61.7057399,58.6770134 C62.813232,52.5931048 67.7029831,46.1798678 71.440541,42.0472983 C89.4550775,22.1325097 113.349175,7.37385416 139.739235,1.75702624 C147.908586,0.01824534 159.170522,-1.04910705 165.268114,6.40228981 C173.87809,16.9234651 154.603713,35.0565963 149.476772,40.4535678 C147.041932,43.0161259 144.364428,45.411739 141.369456,47.2900967 C138.845213,48.8719677 136.074658,51.0367773 133.113439,50.7120103 C131.54434,50.5405041 134.656995,47.9533149 135.551017,46.6524221 C136.959557,44.6034704 138.774968,42.8318479 140.012915,40.6752487 C143.838962,34.0047524 144.338885,22.8878668 135.98708,19.0599944 C120.363596,11.900523 102.664704,17.2701266 90.7258654,28.7455332 C87.7956638,31.5626137 83.6193055,38.3170385 83.2762931,42.5317121 C82.4516037,52.6888929 94.3274955,61.0990823 102.579863,64.2117373 C121.751154,71.4414533 153.370328,71.2106498 159.571007,95.9029806 C160.319978,98.8860937 160.670289,102.016994 160.472327,105.08586 C160.100122,110.842265 157.516582,117.013751 153.829198,121.450106 C125.078192,156.040534 78.1019147,160.317241 37.1575472,159.87023 C29.7088871,159.789039 15.9756197,160.17584 9.05242544,158.693406 C3.94281797,157.599598 -1.33282209,153.862952 1.40306665,148.12753 C4.63887769,141.343912 6.73526726,141.689661 10.7975922,135.678734" id="Shape" fill="#333333"></path>
                <path d="M10.7975922,135.678734 L63.1161047,137.50418 L59.215251,144.576986 C73.5551759,145.016699 89.7980899,145.490166 104.132541,144.406392 C117.985316,143.358198 131.494165,136.698649 140.052142,125.62099 C144.946455,119.287121 144.908139,108.336268 137.763264,103.534094 C120.483103,91.9209352 99.33128,89.1759238 80.2220232,82.1213631 C69.9809138,78.3409286 59.4624753,71.0035651 61.7057399,58.6770134 C62.813232,52.5931048 67.7029831,46.1798678 71.440541,42.0472983 C89.4550775,22.1325097 113.349175,7.37385416 139.739235,1.75702624 C147.908586,0.01824534 159.170522,-1.04910705 165.268114,6.40228981 C173.87809,16.9234651 154.603713,35.0565963 149.476772,40.4535678 C147.041932,43.0161259 144.364428,45.411739 141.369456,47.2900967 C138.845213,48.8719677 136.074658,51.0367773 133.113439,50.7120103 C131.54434,50.5405041 134.656995,47.9533149 135.551017,46.6524221 C136.959557,44.6034704 138.774968,42.8318479 140.012915,40.6752487 C143.838962,34.0047524 144.338885,22.8878668 135.98708,19.0599944 C120.363596,11.900523 102.664704,17.2701266 90.7258654,28.7455332 C87.7956638,31.5626137 83.6193055,38.3170385 83.2762931,42.5317121 C82.4516037,52.6888929 94.3274955,61.0990823 102.579863,64.2117373 C121.751154,71.4414533 153.370328,71.2106498 159.571007,95.9029806 C160.319978,98.8860937 160.670289,102.016994 160.472327,105.08586 C160.100122,110.842265 157.516582,117.013751 153.829198,121.450106 C125.078192,156.040534 78.1019147,160.317241 37.1575472,159.87023 C29.7088871,159.789039 15.9756197,160.17584 9.05242544,158.693406 C3.94281797,157.599598 -1.33282209,153.862952 1.40306665,148.12753 C4.63887769,141.343912 6.73526726,141.689661 10.7975922,135.678734" id="Shape" fill="#333333"></path>
                <path d="M207.437656,65.1021099 L196.359998,94.7498752 L208.632726,94.4159854 L203.62438,104.335065 L193.536532,103.453815 L181.831234,136.414021 C180.801284,147.732518 188.814638,151.130713 204.398895,147.900375 C203.498487,128.724523 215.334239,114.591682 236.255259,104.056823 C234.384199,102.789684 233.26576,101.04543 232.625348,98.9973903 C242.203239,96.2815714 251.204578,93.6314358 258.449802,91.1865603 C262.54953,93.293897 266.224142,95.8956825 269.212729,99.2966139 L275.843997,99.1251077 L276.85114,101.534405 L270.707934,105.794692 C271.337398,112.061966 271.080139,118.325591 268.948171,124.58648 C260.169426,141.33114 246.469,156.794978 226.637228,159.163223 C216.835831,160.211418 208.645498,158.931508 205.147866,150.869804 C193.631408,154.758798 182.123159,159.035506 170.532807,159.565533 C167.14556,158.443445 164.225393,156.758488 162.605207,153.506256 C161.567959,150.753034 161.717571,146.647833 162.466542,141.858431 L175.099616,103.905387 L164.166096,103.699214 L169.187213,94.6020879 L178.368268,94.91682 L187.606796,68.9126492 C187.606796,68.9126492 202.539695,65.8145904 205.844838,65.1796526 C206.366655,65.0793032 207.437656,65.1021099 207.437656,65.1021099 Z M240.091341,105.896866 L248.965875,109.094361 C256.587865,113.25886 252.579364,151.492883 237.33812,149.923783 C235.922281,149.778733 234.601319,149.090884 233.332355,148.447735 C232.211179,147.880305 231.155686,147.160527 230.221525,146.321241 C229.023718,145.245678 228.035733,143.957557 226.979328,142.74333 C221.461937,136.399425 226.867119,117.866721 238.338876,107.569963 L240.091341,105.896866 Z" id="Shape" fill="#333333"></path>
                <path d="M207.437656,65.1021099 L196.359998,94.7498752 L208.632726,94.4159854 L203.62438,104.335065 L193.536532,103.453815 L181.831234,136.414021 C180.801284,147.732518 188.814638,151.130713 204.398895,147.900375 C203.498487,128.724523 215.334239,114.591682 236.255259,104.056823 C234.384199,102.789684 233.26576,101.04543 232.625348,98.9973903 C242.203239,96.2815714 251.204578,93.6314358 258.449802,91.1865603 C262.54953,93.293897 266.224142,95.8956825 269.212729,99.2966139 L275.843997,99.1251077 L276.85114,101.534405 L270.707934,105.794692 C271.337398,112.061966 271.080139,118.325591 268.948171,124.58648 C260.169426,141.33114 246.469,156.794978 226.637228,159.163223 C216.835831,160.211418 208.645498,158.931508 205.147866,150.869804 C193.631408,154.758798 182.123159,159.035506 170.532807,159.565533 C167.14556,158.443445 164.225393,156.758488 162.605207,153.506256 C161.567959,150.753034 161.717571,146.647833 162.466542,141.858431 L175.099616,103.905387 L164.166096,103.699214 L169.187213,94.6020879 L178.368268,94.91682 L187.606796,68.9126492 C187.606796,68.9126492 202.539695,65.8145904 205.844838,65.1796526 C206.366655,65.0793032 207.437656,65.1021099 207.437656,65.1021099 Z M240.091341,105.896866 L248.965875,109.094361 C256.587865,113.25886 252.579364,151.492883 237.33812,149.923783 C235.922281,149.778733 234.601319,149.090884 233.332355,148.447735 C232.211179,147.880305 231.155686,147.160527 230.221525,146.321241 C229.023718,145.245678 228.035733,143.957557 226.979328,142.74333 C221.461937,136.399425 226.867119,117.866721 238.338876,107.569963 L240.091341,105.896866 Z" id="Shape" fill="#333333"></path>
                <ellipse id="Oval" fill="#333333" cx="246.206609" cy="67.1618325" rx="10.6051556" ry="10.5846124"></ellipse>
                <ellipse id="Oval" fill="#333333" cx="271.720983" cy="67.1681272" rx="10.6051556" ry="10.5846124"></ellipse>
                <path d="M309.274022,121.99108 L308.793257,119.503328 C314.472119,113.318158 317.809192,106.82829 310.796595,98.996478 C292.743743,112.934093 278.245996,140.061265 299.805602,147.689641 C310.770139,150.605247 321.754746,149.623647 332.744827,147.483469 L333.170856,149.257828 C317.33755,155.258721 301.152108,160.693095 280.040426,158.204431 C278.131963,157.834963 276.204343,157.381566 274.453702,156.536807 C260.017989,149.567087 269.923384,130.843719 275.786525,121.605191 C280.693609,114.663751 287.232739,108.124622 294.233476,103.292343 C297.841491,100.801854 301.664802,98.5677125 305.693374,96.8389666 C309.645314,95.1430622 313.922934,94.3384427 318.034522,93.078602 C325.696652,90.7304268 339.408025,94.6157719 335.42598,104.704533 C333.044963,110.739179 327.771147,113.74966 322.508279,116.657055 C319.589937,118.269031 316.562123,119.673922 313.579922,121.163654 C313.100982,121.402668 310.039414,123.247272 309.274022,121.99108" id="Shape" fill="#333333"></path>
                <path d="M309.274022,121.99108 L308.793257,119.503328 C314.472119,113.318158 317.809192,106.82829 310.796595,98.996478 C292.743743,112.934093 278.245996,140.061265 299.805602,147.689641 C310.770139,150.605247 321.754746,149.623647 332.744827,147.483469 L333.170856,149.257828 C317.33755,155.258721 301.152108,160.693095 280.040426,158.204431 C278.131963,157.834963 276.204343,157.381566 274.453702,156.536807 C260.017989,149.567087 269.923384,130.843719 275.786525,121.605191 C280.693609,114.663751 287.232739,108.124622 294.233476,103.292343 C297.841491,100.801854 301.664802,98.5677125 305.693374,96.8389666 C309.645314,95.1430622 313.922934,94.3384427 318.034522,93.078602 C325.696652,90.7304268 339.408025,94.6157719 335.42598,104.704533 C333.044963,110.739179 327.771147,113.74966 322.508279,116.657055 C319.589937,118.269031 316.562123,119.673922 313.579922,121.163654 C313.100982,121.402668 310.039414,123.247272 309.274022,121.99108" id="Shape" fill="#333333"></path>
                <path d="M332.511287,157.522055 L369.629606,37.5917863 L390.701149,33.295921 L362.669009,118.662218 C366.37555,106.740713 394.607477,85.9483231 404.868656,95.9714007 C414.259532,105.143333 391.729274,131.163012 393.576615,121.749329 C396.685621,105.897778 378.115514,100.971536 374.551287,112.399505 C367.733003,141.401385 401.638318,151.720037 409.132592,149.945678 C398.871413,157.453635 387.553828,159.649462 375.700743,159.150452 C361.821513,153.695095 358.737138,141.683276 361.831548,126.783219 L350.346106,153.621201 L332.511287,157.522055 Z" id="Shape" fill="#333333"></path>
                <path d="M332.511287,157.522055 L369.629606,37.5917863 L390.701149,33.295921 L362.669009,118.662218 C366.37555,106.740713 394.607477,85.9483231 404.868656,95.9714007 C414.259532,105.143333 391.729274,131.163012 393.576615,121.749329 C396.685621,105.897778 378.115514,100.971536 374.551287,112.399505 C367.733003,141.401385 401.638318,151.720037 409.132592,149.945678 C398.871413,157.453635 387.553828,159.649462 375.700743,159.150452 C361.821513,153.695095 358.737138,141.683276 361.831548,126.783219 L350.346106,153.621201 L332.511287,157.522055 Z" id="Shape" fill="#333333"></path>
                <path d="M758.613869,141.395911 C760.677417,142.387546 768.181725,138.339817 769.619458,137.505093 C781.012761,130.891157 796.400881,124.065575 800.594572,109.911753 C801.900938,105.500029 801.712099,96.5953913 795.752259,94.9241182 C789.288847,93.1105314 784.09075,93.6305235 777.796107,95.7022819 C760.420158,101.421284 744.025808,112.472486 735.997858,129.4516 C731.058844,139.898881 734.977031,155.248686 747.152147,158.593969 C751.230892,159.715145 765.742324,159.280906 769.83749,158.822036 C780.829395,157.588651 789.603579,155.72124 799.948687,151.738282 C805.065593,157.213709 804.059362,165.846492 850.788415,149.868135 L850.979991,147.238069 C811.368445,151.21829 815.007478,134.07132 850.808484,101.215111 L851.056621,96.1055039 L830.241425,96.2487298 L833.802915,83.8181797 C826.188223,84.492345 817.541756,86.5513316 812.8673,93.2501082 C810.469862,96.686618 808.400841,102.014257 808.669047,106.308298 C808.763011,107.805328 811.918542,109.420953 811.918542,109.420953 L808.990165,116.917051 C814.398084,116.926174 819.82516,118.148611 825.090765,109.053309 L837.067007,109.149097 C814.752044,124.387605 799.520834,138.157364 799.456063,148.778888 C794.694941,153.949618 753.751486,146.503694 758.613869,141.395911" id="Shape"></path>
                <path d="M758.613869,141.395911 C760.677417,142.387546 768.181725,138.339817 769.619458,137.505093 C781.012761,130.891157 796.400881,124.065575 800.594572,109.911753 C801.900938,105.500029 801.712099,96.5953913 795.752259,94.9241182 C789.288847,93.1105314 784.09075,93.6305235 777.796107,95.7022819 C760.420158,101.421284 744.025808,112.472486 735.997858,129.4516 C731.058844,139.898881 734.977031,155.248686 747.152147,158.593969 C751.230892,159.715145 765.742324,159.280906 769.83749,158.822036 C780.829395,157.588651 789.603579,155.72124 799.948687,151.738282 C805.065593,157.213709 804.059362,165.846492 850.788415,149.868135 L850.979991,147.238069 C811.368445,151.21829 815.007478,134.07132 850.808484,101.215111 L851.056621,96.1055039 L830.241425,96.2487298 L833.802915,83.8181797 C826.188223,84.492345 817.541756,86.5513316 812.8673,93.2501082 C810.469862,96.686618 808.400841,102.014257 808.669047,106.308298 C808.763011,107.805328 811.918542,109.420953 811.918542,109.420953 L808.990165,116.917051 C814.398084,116.926174 819.82516,118.148611 825.090765,109.053309 L837.067007,109.149097 C814.752044,124.387605 799.520834,138.157364 799.456063,148.778888 C794.694941,153.949618 753.751486,146.503694 758.613869,141.395911" id="Shape"></path>
                <path d="M758.613869,141.395911 C760.677417,142.387546 768.181725,138.339817 769.619458,137.505093 C781.012761,130.891157 796.400881,124.065575 800.594572,109.911753 C801.900938,105.500029 801.712099,96.5953913 795.752259,94.9241182 C789.288847,93.1105314 784.09075,93.6305235 777.796107,95.7022819 C760.420158,101.421284 744.025808,112.472486 735.997858,129.4516 C731.058844,139.898881 734.977031,155.248686 747.152147,158.593969 C751.230892,159.715145 765.742324,159.280906 769.83749,158.822036 C780.829395,157.588651 789.603579,155.72124 799.948687,151.738282 C805.065593,157.213709 804.059362,165.846492 850.788415,149.868135 L850.979991,147.238069 C811.368445,151.21829 815.007478,134.07132 850.808484,101.215111 L851.056621,96.1055039 L830.241425,96.2487298 L833.802915,83.8181797 C826.188223,84.492345 817.541756,86.5513316 812.8673,93.2501082 C810.469862,96.686618 808.400841,102.014257 808.669047,106.308298 C808.763011,107.805328 811.918542,109.420953 811.918542,109.420953 L808.990165,116.917051 C814.398084,116.926174 819.82516,118.148611 825.090765,109.053309 L837.067007,109.149097 C814.752044,124.387605 799.520834,138.157364 799.456063,148.778888 C794.694941,153.949618 753.751486,146.503694 758.613869,141.395911" id="Shape"></path>
                <path d="M758.613869,141.395911 C760.677417,142.387546 768.181725,138.339817 769.619458,137.505093 C781.012761,130.891157 796.400881,124.065575 800.594572,109.911753 C801.900938,105.500029 801.712099,96.5953913 795.752259,94.9241182 C789.288847,93.1105314 784.09075,93.6305235 777.796107,95.7022819 C760.420158,101.421284 744.025808,112.472486 735.997858,129.4516 C731.058844,139.898881 734.977031,155.248686 747.152147,158.593969 C751.230892,159.715145 765.742324,159.280906 769.83749,158.822036 C780.829395,157.588651 789.603579,155.72124 799.948687,151.738282 C805.065593,157.213709 804.059362,165.846492 850.788415,149.868135 L850.979991,147.238069 C811.368445,151.21829 815.007478,134.07132 850.808484,101.215111 L851.056621,96.1055039 L830.241425,96.2487298 L833.802915,83.8181797 C826.188223,84.492345 817.541756,86.5513316 812.8673,93.2501082 C810.469862,96.686618 808.400841,102.014257 808.669047,106.308298 C808.763011,107.805328 811.918542,109.420953 811.918542,109.420953 L808.990165,116.917051 C814.398084,116.926174 819.82516,118.148611 825.090765,109.053309 L837.067007,109.149097 C814.752044,124.387605 799.520834,138.157364 799.456063,148.778888 C794.694941,153.949618 753.751486,146.503694 758.613869,141.395911" id="Shape"></path>
                <path d="M453.987848,39.5321782 L472.994019,35.3175046 C480.960846,85.3179466 463.911488,124.415886 436.73323,143.547037 C444.699145,149.845328 455.377231,150.728403 467.878025,147.973356 L486.531149,98.6817459 L506.194152,93.0475849 L499.53369,111.522816 C523.63396,92.7474491 539.085026,86.8542043 542.662937,99.7089586 L537.306105,112.65494 C556.278522,95.4860746 579.11439,85.9036221 582.331955,100.572875 C575.606723,118.038227 567.830559,137.352744 567.971961,142.729646 C571.083703,147.318349 576.059208,147.849288 581.659615,147.020037 C583.983159,114.315266 631.436551,83.2662582 663.271933,96.9402282 C654.107298,112.603853 646.715199,128.158917 643.896294,143.433004 C644.451865,147.814622 650.90889,148.720503 662.415314,146.653306 L679.522145,97.0104728 L701.115505,91.6618514 L682.304559,144.361691 C690.956499,153.357556 704.183459,130.942244 718.944851,98.002107 L738.845956,91.9866184 L712.384739,168.898937 L724.897393,161.775956 L726.108884,164.40511 C716.313873,173.070734 708.278625,183.617453 701.872686,195.904777 L684.048814,200.643092 L705.072919,137.009732 C669.790993,170.239057 664.318303,161.850762 660.783268,150.758508 C618.495132,166.446763 619.382767,154.286244 625.947441,138.462973 C609.57316,155.892746 588.883857,165.335622 581.946067,149.916485 C563.43252,159.159574 546.091237,163.317687 545.27567,150.754859 C549.536869,134.189914 556.260277,123.002784 558.264527,109.920875 C547.724195,101.748788 530.887395,126.170175 521.488308,153.079315 L502.525926,157.507459 C512.027187,133.232946 520.557796,110.69539 517.392229,109.077028 C508.98204,107.463228 500.08105,108.398302 482.695978,153.406819 L464.787265,157.365145 L466.631869,150.427355 C434.251864,162.412719 415.210115,162.340649 412.960464,147.087545 C415.200992,118.796321 427.370634,84.1995073 453.987848,39.5321782 Z M637.696527,107.090111 C611.498956,94.6504381 595.053519,136.60651 606.12844,146.280189 C614.428245,153.529062 639.563938,109.787684 637.696527,107.090111 Z M462.169971,51.4263153 C444.478377,88.787298 430.610094,122.817594 432.365296,140.366874 C456.44732,123.523689 461.805976,86.6288743 462.169971,51.4263153 Z" id="Shape" fill="#333333"></path>
                <path d="M758.613869,141.395911 C760.677417,142.387546 768.181725,138.339817 769.619458,137.505093 C781.012761,130.891157 796.400881,124.065575 800.594572,109.911753 C801.900938,105.500029 801.712099,96.5953913 795.752259,94.9241182 C789.288847,93.1105314 784.09075,93.6305235 777.796107,95.7022819 C760.420158,101.421284 744.025808,112.472486 735.997858,129.4516 C731.058844,139.898881 734.977031,155.248686 747.152147,158.593969 C751.230892,159.715145 765.742324,159.280906 769.83749,158.822036 C780.829395,157.588651 789.603579,155.72124 799.948687,151.738282 C805.065593,157.213709 804.059362,165.846492 850.788415,149.868135 L850.979991,147.238069 C811.368445,151.21829 815.007478,134.07132 850.808484,101.215111 L851.056621,96.1055039 L830.241425,96.2487298 L833.802915,83.8181797 C826.188223,84.492345 817.541756,86.5513316 812.8673,93.2501082 C810.469862,96.686618 808.400841,102.014257 808.669047,106.308298 C808.763011,107.805328 811.918542,109.420953 811.918542,109.420953 L808.990165,116.917051 C814.398084,116.926174 819.82516,118.148611 825.090765,109.053309 L837.067007,109.149097 C814.752044,124.387605 799.520834,138.157364 799.456063,148.778888 C794.694941,153.949618 753.751486,146.503694 758.613869,141.395911 Z M755.399953,138.239468 C766.807851,137.132888 786.371417,109.846069 777.079978,104.169944 C764.168663,96.2824837 748.041607,130.44962 754.636385,138.011401 L755.399953,138.239468 Z" id="Shape" fill="#333333"></path>
                <path d="M758.613869,141.395911 C760.677417,142.387546 768.181725,138.339817 769.619458,137.505093 C781.012761,130.891157 796.400881,124.065575 800.594572,109.911753 C801.900938,105.500029 801.712099,96.5953913 795.752259,94.9241182 C789.288847,93.1105314 784.09075,93.6305235 777.796107,95.7022819 C760.420158,101.421284 744.025808,112.472486 735.997858,129.4516 C731.058844,139.898881 734.977031,155.248686 747.152147,158.593969 C751.230892,159.715145 765.742324,159.280906 769.83749,158.822036 C780.829395,157.588651 789.603579,155.72124 799.948687,151.738282 C805.065593,157.213709 804.059362,165.846492 850.788415,149.868135 L850.979991,147.238069 C811.368445,151.21829 815.007478,134.07132 850.808484,101.215111 L851.056621,96.1055039 L830.241425,96.2487298 L833.802915,83.8181797 C826.188223,84.492345 817.541756,86.5513316 812.8673,93.2501082 C810.469862,96.686618 808.400841,102.014257 808.669047,106.308298 C808.763011,107.805328 811.918542,109.420953 811.918542,109.420953 L808.990165,116.917051 C814.398084,116.926174 819.82516,118.148611 825.090765,109.053309 L837.067007,109.149097 C814.752044,124.387605 799.520834,138.157364 799.456063,148.778888 C794.694941,153.949618 753.751486,146.503694 758.613869,141.395911 Z M755.399953,138.239468 C766.807851,137.132888 786.371417,109.846069 777.079978,104.169944 C764.168663,96.2824837 748.041607,130.44962 754.636385,138.011401 L755.399953,138.239468 Z" id="Shape" fill="#333333"></path>
            </g>
        </g>
    </g>
</svg>