<?xml version="1.0" encoding="UTF-8" standalone="no"?>
<svg width="80px" height="80px" viewBox="0 0 80 80" version="1.1" xmlns="http://www.w3.org/2000/svg" xmlns:xlink="http://www.w3.org/1999/xlink">
    <!-- Generator: Sketch 3.7.2 (28276) - http://www.bohemiancoding.com/sketch -->
    <title>Slice 1</title>
    <desc>Created with Sketch.</desc>
    <defs></defs>
    <g id="Page-1" stroke="none" stroke-width="1" fill="none" fill-rule="evenodd">
        <g id="delivery" transform="translate(0.000000, 12.000000)">
            <g id="Group">
                <path d="M18.5,41.2 C14.7,41.2 11.7,44.3 11.7,48 C11.7,51.8 14.8,54.8 18.5,54.8 C22.2,54.8 25.3,51.7 25.3,48 C25.3,44.2 22.3,41.2 18.5,41.2 L18.5,41.2 Z M18.5,53.5 C15.5,53.5 13,51 13,48 C13,45 15.5,42.5 18.5,42.5 C21.5,42.5 24,45 24,48 C24,51 21.5,53.5 18.5,53.5 L18.5,53.5 Z" id="Shape" fill="#333333"></path>
                <path d="M63.8,41.2 C60,41.2 57,44.3 57,48 C57,51.8 60.1,54.8 63.8,54.8 C67.6,54.8 70.6,51.7 70.6,48 C70.7,44.2 67.6,41.2 63.8,41.2 L63.8,41.2 Z M63.8,53.5 C60.8,53.5 58.3,51 58.3,48 C58.3,45 60.8,42.5 63.8,42.5 C66.8,42.5 69.3,45 69.3,48 C69.4,51 66.9,53.5 63.8,53.5 L63.8,53.5 Z" id="Shape" fill="#333333"></path>
                <path d="M78.5,22.8 L65.9,9.4 C65.2,8.7 64.2,8.2 63.2,8.2 L52.5,8.2 C50.5,8.2 48.9,9.8 48.9,11.8 L48.9,35.6 L9.2,35.6 C7.6,35.6 6.4,36.9 6.4,38.4 L6.4,41.6 C6.4,43.2 7.7,44.4 9.2,44.4 L10.9,44.4 C11.3,44.4 11.6,44.1 11.6,43.7 C11.6,43.3 11.3,43 10.9,43 L9.2,43 C8.4,43 7.7,42.3 7.7,41.5 L7.7,38.3 C7.7,37.5 8.4,36.8 9.2,36.8 L48.9,36.8 L48.9,40.7 C48.9,41.6 49.2,42.4 49.8,43 L26.6,43 C26.2,43 25.9,43.3 25.9,43.7 C25.9,44.1 26.2,44.4 26.6,44.4 L55.7,44.4 C56.1,44.4 56.4,44.1 56.4,43.7 C56.4,43.3 56.1,43 55.7,43 L52.6,43 C51.3,43 50.3,41.9 50.3,40.7 L50.3,11.7 C50.3,10.4 51.4,9.4 52.6,9.4 L63.3,9.4 C63.9,9.4 64.6,9.7 65,10.1 L69.1,14.5 L59.2,14.5 C57.6,14.5 56.4,15.8 56.4,17.3 L56.4,30.3 C56.4,31.9 57.7,33.1 59.2,33.1 L78.2,33.1 L78.2,40.7 C78.2,42 77.1,43 75.9,43 L72,43 C71.6,43 71.3,43.3 71.3,43.7 C71.3,44.1 71.6,44.4 72,44.4 L75.9,44.4 C77.9,44.4 79.5,42.8 79.5,40.8 L79.5,25.3 C79.5,24.4 79.1,23.5 78.5,22.8 L78.5,22.8 Z M59.1,31.9 C58.3,31.9 57.6,31.2 57.6,30.4 L57.6,17.4 C57.6,16.6 58.3,15.9 59.1,15.9 L70.2,15.9 L77.5,23.7 C77.9,24.1 78.1,24.7 78.1,25.3 L78.1,31.9 L59.1,31.9 L59.1,31.9 Z" id="Shape" fill="#333333"></path>
                <path d="M46.3,30.4 L46.3,3.2 C46.3,1.6 45,0.4 43.5,0.4 L2.8,0.4 C1.2,0.4 0,1.7 0,3.2 L0,30.4 C0,32 1.3,33.2 2.8,33.2 L43.4,33.2 C45,33.2 46.3,32 46.3,30.4 L46.3,30.4 Z" id="Shape" fill="#333333"></path>
                <path d="M1.3,30.4 L1.3,3.2 C1.3,2.4 2,1.7 2.8,1.7 L43.4,1.7 C44.2,1.7 44.9,2.4 44.9,3.2 L44.9,30.4 C44.9,31.2 44.2,31.9 43.4,31.9 L2.8,31.9 C2,31.9 1.3,31.2 1.3,30.4 L1.3,30.4 Z" id="Path" fill="#FFFFFF"></path>
                <path d="M14.1,11 L8.8,11 C8.4,11 8.1,11.3 8.1,11.7 L8.1,22.1 C8.1,22.5 8.4,22.8 8.8,22.8 C9.2,22.8 9.5,22.5 9.5,22.1 L9.5,17.5 L12.9,17.5 C13.3,17.5 13.6,17.2 13.6,16.8 C13.6,16.4 13.3,16.1 12.9,16.1 L9.5,16.1 L9.5,12.2 L14.2,12.2 C14.6,12.2 14.9,11.9 14.9,11.5 C14.8,11.3 14.5,11 14.1,11 L14.1,11 Z" id="Shape" fill="#333333"></path>
                <path d="M22.5,14.3 C22.5,12.6 21.1,11.2 19.4,11.1 L19.3,11.1 L16.6,11.1 C16.2,11.1 15.9,11.4 15.9,11.8 L15.9,22.2 C15.9,22.6 16.2,22.9 16.6,22.9 C17,22.9 17.3,22.6 17.3,22.2 L17.3,17.6 L18.5,17.6 L21.1,22.5 C21.2,22.7 21.4,22.8 21.7,22.8 C21.8,22.8 21.9,22.8 22,22.7 C22.3,22.5 22.4,22.1 22.3,21.8 L20,17.4 C21.4,17.1 22.5,15.8 22.5,14.3 L22.5,14.3 Z M19.3,16.2 L17.4,16.2 L17.4,12.3 L19.3,12.3 C20.4,12.3 21.2,13.2 21.2,14.2 C21.2,15.2 20.4,16.2 19.3,16.2 L19.3,16.2 Z" id="Shape" fill="#333333"></path>
                <path d="M29.9,11 L24.6,11 C24.2,11 23.9,11.3 23.9,11.7 L23.9,22.1 C23.9,22.5 24.2,22.8 24.6,22.8 L29.6,22.8 C30,22.8 30.3,22.5 30.3,22.1 C30.3,21.7 30,21.4 29.6,21.4 L25.3,21.4 L25.3,17.5 L28.7,17.5 C29.1,17.5 29.4,17.2 29.4,16.8 C29.4,16.4 29.1,16.1 28.7,16.1 L25.3,16.1 L25.3,12.2 L30,12.2 C30.4,12.2 30.7,11.9 30.7,11.5 C30.6,11.3 30.3,11 29.9,11 L29.9,11 Z" id="Shape" fill="#333333"></path>
                <path d="M37.6,11 L32.3,11 C31.9,11 31.6,11.3 31.6,11.7 L31.6,22.1 C31.6,22.5 31.9,22.8 32.3,22.8 L37.3,22.8 C37.7,22.8 38,22.5 38,22.1 C38,21.7 37.7,21.4 37.3,21.4 L33,21.4 L33,17.5 L36.4,17.5 C36.8,17.5 37.1,17.2 37.1,16.8 C37.1,16.4 36.8,16.1 36.4,16.1 L33,16.1 L33,12.2 L37.7,12.2 C38.1,12.2 38.4,11.9 38.4,11.5 C38.3,11.3 38,11 37.6,11 L37.6,11 Z" id="Shape" fill="#333333"></path>
            </g>
        </g>
    </g>
</svg>