<?xml version="1.0" encoding="UTF-8" standalone="no"?>
<svg width="36px" height="36px" viewBox="0 0 36 36" version="1.1" xmlns="http://www.w3.org/2000/svg" xmlns:xlink="http://www.w3.org/1999/xlink">
    <!-- Generator: Sketch 41.2 (35397) - http://www.bohemiancoding.com/sketch -->
    <title>eco-globe</title>
    <desc>Created with Sketch.</desc>
    <defs></defs>
    <g id="Page-1" stroke="none" stroke-width="1" fill="none" fill-rule="evenodd" stroke-linejoin="round">
        <g id="eco-globe-1" stroke="#000000">
            <polygon id="Stroke-1" fill="#FFFFFF" points="0.75 33.75 6.75 33.75 6.75 21.75 0.75 21.75"></polygon>
            <path d="M6.75,31.5 C22.8435,36.8655 16.9065,36.9195 35.25,27.75 C33.657,26.157 32.3955,25.7805 30.75,26.25 L24.099,28.4565" id="Stroke-3" stroke-linecap="round"></path>
            <path d="M6.75,23.25 L11.25,23.25 C14.7795,23.25 17.25,25.5 18,26.25 L22.5,26.25 C24.8895,26.25 24.8895,29.25 22.5,29.25 L14.25,29.25" id="Stroke-4" stroke-linecap="round"></path>
            <path d="M10.2765,18.144 C9.4605,16.5225 9,14.6895 9,12.75 C9,6.1245 14.373,0.75 21,0.75 C27.6255,0.75 33,6.1245 33,12.75 C33,17.136 30.648,20.97 27.138,23.0655" id="Stroke-5" stroke-linecap="round"></path>
            <path d="M29.8695,4.668 C29.8695,4.668 29.3475,7.5345 27.261,8.577 C25.1745,8.055 23.088,9.618 23.6085,9.618 C24.1305,9.618 24.651,11.706 24.651,11.706 C25.1745,12.228 26.217,11.706 26.217,11.706 C27.5205,13.0095 24.129,15.36 24.129,15.8805 C24.129,16.401 25.434,16.662 24.6495,17.4465 C23.868,18.228 23.0865,18.4875 23.0865,18.4875 C23.0865,21.096 20.4765,21.096 19.956,21.096 C19.434,21.096 18.39,19.008 18.39,18.4875 C18.39,17.967 18.9135,17.4465 18.9135,16.923 C18.9135,16.401 17.8695,15.3585 17.8695,15.3585 C17.8695,13.2705 16.305,13.7925 14.739,13.7925 C13.1745,13.7925 13.1745,11.7045 13.1745,11.7045 C13.1745,11.7045 13.1745,8.0535 15.783,7.533 C18.39,7.008 18.39,8.055 18.39,8.055 C19.4355,9.096 21.5205,8.055 22.5645,8.055 C22.5645,8.055 23.0865,4.401 22.0425,4.923 C21,5.448 20.064,5.0415 19.9575,3.882 C19.8045,2.25 24.51,1.2735 24.51,1.2735" id="Stroke-6" stroke-linecap="round" fill="#FFFFFF"></path>
        </g>
    </g>
</svg>