<?xml version="1.0" encoding="UTF-8" standalone="no"?>
<svg width="180px" height="168px" viewBox="0 0 180 168" version="1.1" xmlns="http://www.w3.org/2000/svg" xmlns:xlink="http://www.w3.org/1999/xlink" xmlns:sketch="http://www.bohemiancoding.com/sketch/ns">
    <!-- Generator: Sketch 3.4.4 (17249) - http://www.bohemiancoding.com/sketch -->
    <title>faq</title>
    <desc>Created with Sketch.</desc>
    <defs></defs>
    <g id="Page-1" stroke="none" stroke-width="1" fill="none" fill-rule="evenodd" sketch:type="MSPage">
        <g id="faq" sketch:type="MSArtboardGroup" transform="translate(0.000000, -9.000000)" fill="#B6BE00">
            <g sketch:type="MSLayerGroup" id="Group">
                <g sketch:type="MSShapeGroup">
                    <g id="Layer_1" transform="translate(0.000000, 9.000000)">
                        <g id="Group">
                            <path d="M90,0 C40.374,0 0,33.189 0,73.983 C0,93.408 8.982,111.606 25.353,125.469 L6.315,163.659 C5.742,164.808 5.964,166.194 6.867,167.106 C7.443,167.694 8.217,168 9,168 C9.444,168 9.891,167.901 10.308,167.7 L59.778,143.694 C69.453,146.526 79.614,147.963 89.997,147.963 C139.623,147.963 179.997,114.777 179.997,73.983 C180,33.189 139.626,0 90,0 L90,0 Z M90,141.963 C79.803,141.963 69.843,140.502 60.396,137.616 C59.673,137.4 58.893,137.454 58.212,137.787 L15.615,158.457 L31.788,126.012 C32.418,124.746 32.082,123.213 30.975,122.331 C14.868,109.446 6,92.277 6,73.983 C6,36.498 43.68,6 90,6 C136.32,6 174,36.498 174,73.983 C174,111.468 136.32,141.963 90,141.963 L90,141.963 Z" id="Shape"></path>
                            <circle id="Oval" cx="93" cy="108" r="6"></circle>
                            <path d="M93.783,34.515 C79.614,34.515 68.088,46.254 68.088,60.681 C68.088,62.337 69.432,63.681 71.088,63.681 C72.744,63.681 74.088,62.337 74.088,60.681 C74.088,49.749 83.106,40.515 93.783,40.515 C104.643,40.515 113.478,49.245 113.478,59.976 C113.478,70.251 104.676,78 93,78 C91.344,78 90,79.344 90,81 L90,93 C90,94.656 91.344,96 93,96 C94.656,96 96,94.656 96,93 L96,83.853 C109.386,82.542 119.478,72.525 119.478,59.973 C119.478,45.936 107.952,34.515 93.783,34.515 L93.783,34.515 Z" id="Shape"></path>
                        </g>
                    </g>
                </g>
            </g>
        </g>
    </g>
</svg>