<?xml version="1.0" encoding="UTF-8" standalone="no"?>
<svg width="80px" height="80px" viewBox="0 0 80 80" version="1.1" xmlns="http://www.w3.org/2000/svg" xmlns:xlink="http://www.w3.org/1999/xlink">
    <!-- Generator: Sketch 3.7.2 (28276) - http://www.bohemiancoding.com/sketch -->
    <title>Slice 1</title>
    <desc>Created with Sketch.</desc>
    <defs></defs>
    <g id="Page-1" stroke="none" stroke-width="1" fill="none" fill-rule="evenodd">
        <g id="help-circle.3.3.1" transform="translate(2.000000, -2.000000)">
            <g id="Outline_Icons_1_">
                <g id="Outline_Icons" transform="translate(1.000000, 4.333333)" stroke="#333333">
                    <g id="Group" transform="translate(0.000000, -0.000000)">
                        <ellipse id="Oval" cx="37.3333333" cy="37.3333333" rx="36.6666667" ry="36.6666667"></ellipse>
                        <path d="M27.3333333,29 C27.3333333,23.48 31.81,19 37.3333333,19 C42.8533333,19 47.3333333,23.48 47.3333333,29 C47.3333333,34.5266667 42.8533333,39 37.3333333,39 L37.3333333,49" id="Shape"></path>
                        <path d="M39,57.3333333 C39,58.2533333 38.2533333,59 37.3333333,59 L37.3333333,59 C36.4133333,59 35.6666667,58.2533333 35.6666667,57.3333333 L35.6666667,57.3333333 C35.6666667,56.4133333 36.4133333,55.6666667 37.3333333,55.6666667 L37.3333333,55.6666667 C38.2533333,55.6666667 39,56.4133333 39,57.3333333 L39,57.3333333 L39,57.3333333 Z" id="Shape" fill="#FFFFFF"></path>
                    </g>
                </g>
                <g id="New_icons_1_"></g>
            </g>
            <g id="Invisible_Shape">
                <rect id="Rectangle-path" x="0" y="0" width="80" height="80"></rect>
            </g>
        </g>
    </g>
</svg>