<?xml version="1.0" encoding="UTF-8" standalone="no"?>
<svg width="34px" height="35px" viewBox="0 0 34 35" version="1.1" xmlns="http://www.w3.org/2000/svg" xmlns:xlink="http://www.w3.org/1999/xlink">
    <!-- Generator: Sketch 41.2 (35397) - http://www.bohemiancoding.com/sketch -->
    <title>handmade</title>
    <desc>Created with Sketch.</desc>
    <defs></defs>
    <g id="Page-1" stroke="none" stroke-width="1" fill="none" fill-rule="evenodd" stroke-linejoin="round">
        <g id="needle-thread" transform="translate(1.000000, 0.000000)" stroke="#000000">
            <path d="M27.1145,2.7725 C28.25,1.637 30.092,1.637 31.2275,2.7725 C32.3645,3.908 32.3645,5.75 31.2275,6.887 C30.4685,7.6445 11.33,24.9515 1.526,33.533 C1.2275,33.7955 0.7805,33.779 0.5,33.5 C0.221,33.221 0.2075,32.7725 0.4685,32.4755 C9.0515,22.6715 26.3555,3.5315 27.1145,2.7725 Z" id="Stroke-1" fill="#FFFFFF"></path>
            <path d="M29.1065,4.8935 L25.925,8.0765" id="Stroke-3" stroke-linecap="round"></path>
            <path d="M1.193,7.6145 C1.943,2.3645 7.2395,-1.996 12.1145,2.5505 C19.646,9.5765 22.532,3.848 25.451,4.5455" id="Stroke-5" stroke-linecap="round"></path>
            <path d="M28.5365,5.465 C28.5365,5.465 31.6145,6.866 31.6145,11.366 C31.6145,15.866 25.6145,20.366 28.6145,26.366" id="Stroke-7" stroke-linecap="round"></path>
        </g>
    </g>
</svg>