<?xml version="1.0" encoding="UTF-8" standalone="no"?>
<svg width="24px" height="24px" viewBox="0 0 24 24" version="1.1" xmlns="http://www.w3.org/2000/svg" xmlns:xlink="http://www.w3.org/1999/xlink">
    <!-- Generator: Sketch 39.1 (31720) - http://www.bohemiancoding.com/sketch -->
    <title>globe-3</title>
    <desc>Created with Sketch.</desc>
    <defs></defs>
    <g id="Page-1" stroke="none" stroke-width="1" fill="none" fill-rule="evenodd" stroke-linejoin="round">
        <g id="globe-3" stroke="#000000">
            <path d="M23.5,11.957 C23.5,18.332 18.337,23.501 11.968,23.501 C5.599,23.5 0.5,18.125 0.5,11.75 C0.5,5.542 5.37,0.758 11.505,0.511 C11.671,0.504 11.837,0.5 12.005,0.5 C18.374,0.5 23.5,5.582 23.5,11.957 L23.5,11.957 Z" id="Stroke-1"></path>
            <path d="M11.505,0.511 C5.505,7.011 5.505,15.491 11.505,23.491" id="Stroke-3"></path>
            <path d="M12.505,0.511 C18.505,7.011 18.505,15.488 12.505,23.488" id="Stroke-5"></path>
            <path d="M2.386,5.5 L21.521,5.5" id="Stroke-7"></path>
            <path d="M0.503,11.5 L23.5,11.5" id="Stroke-9"></path>
            <path d="M1.985,17.5 L22.085,17.5" id="Stroke-11"></path>
        </g>
    </g>
</svg>