<?xml version="1.0" encoding="UTF-8" standalone="no"?>
<svg width="259px" height="169px" viewBox="0 0 259 169" version="1.1" xmlns="http://www.w3.org/2000/svg" xmlns:xlink="http://www.w3.org/1999/xlink">
    <!-- Generator: Sketch 3.7.2 (28276) - http://www.bohemiancoding.com/sketch -->
    <title>Slice 1</title>
    <desc>Created with Sketch.</desc>
    <defs></defs>
    <g id="Page-1" stroke="none" stroke-width="1" fill="none" fill-rule="evenodd">
        <polygon id="Fill-76" fill="#898C8D" points="0.0996 149.2023 3.9506 148.7163 10.8736 163.8103 10.9286 163.8013 14.0236 147.4533 17.7636 146.9833 20.2456 166.7523 17.8666 167.0493 15.7246 150.0043 15.6716 150.0093 12.1996 167.7583 10.3926 167.9813 2.8726 151.6123 2.8166 151.6203 4.9566 168.6673 2.5786 168.9663"></polygon>
        <path d="M35.5293,157.4166 L31.2613,147.9406 L31.2073,147.9466 L29.3303,158.1926 L35.5293,157.4166 Z M32.3493,145.1556 L41.2873,164.1116 L38.6833,164.4376 L36.4493,159.4826 L28.9163,160.4326 L27.9823,165.7796 L25.4883,166.0926 L29.6353,145.4976 L32.3493,145.1556 Z" id="Fill-78" fill="#898C8D"></path>
        <path d="M48.4629,161.024 L49.9649,160.833 C54.3279,160.291 56.2199,157.029 55.5839,151.964 C55.0669,147.829 52.8969,144.761 48.0249,145.378 L46.5269,145.563 L48.4629,161.024 Z M43.7639,143.725 L48.0669,143.182 C50.7049,142.851 52.2789,143.288 53.5129,143.939 C55.4199,144.94 57.6269,147.192 58.1869,151.639 C58.9019,157.355 56.7479,162.169 49.3279,163.103 L46.2419,163.493 L43.7639,143.725 Z" id="Fill-80" fill="#898C8D"></path>
        <polygon id="Fill-82" fill="#898C8D" points="63.1367 141.2936 72.3327 140.1406 72.6067 142.2936 65.8947 143.1316 66.6837 149.4166 73.0837 148.6186 73.3537 150.7666 66.9527 151.5666 67.8367 158.5906 74.9137 157.7066 75.1857 159.8546 65.6157 161.0596"></polygon>
        <polygon id="Fill-84" fill="#898C8D" points="88.708 138.0826 91.2 137.7726 93.678 157.5326 91.187 157.8496"></polygon>
        <polygon id="Fill-86" fill="#898C8D" points="98.3936 136.8707 101.4776 136.4817 110.9746 151.8587 111.0276 151.8487 108.9786 135.5427 111.3616 135.2457 113.8416 155.0087 110.7526 155.3897 101.2786 140.1327 101.2146 140.1407 103.2496 156.3367 100.8716 156.6327"></polygon>
        <path d="M143.5293,150.4464 C142.4203,151.0174 140.5143,151.8584 138.7583,152.0834 C132.5003,152.8634 129.2703,148.4384 128.6013,143.0894 C127.8263,136.9184 130.9373,132.5884 136.0883,131.9404 C137.7853,131.7284 139.4003,131.7554 140.8413,132.2344 L141.1543,134.7274 C139.5563,134.1494 137.8343,133.9084 136.3833,134.0884 C133.1563,134.4954 130.5383,137.4394 131.1403,142.2534 C131.7823,147.3484 134.2413,150.4614 138.5483,149.9194 C139.3363,149.8244 140.3293,149.4964 140.9393,149.0734 L140.1623,142.8434 L136.8453,143.2614 L136.5803,141.1094 L142.2673,140.3974 L143.5293,150.4464 Z" id="Fill-88" fill="#898C8D"></path>
        <polygon id="Fill-90" fill="#898C8D" points="148.3506 130.6041 157.5466 129.4451 157.8206 131.5971 151.1056 132.4431 151.8986 138.7271 158.2956 137.9241 158.5666 140.0741 152.1706 140.8781 153.0506 147.9011 160.1266 147.0101 160.3986 149.1631 150.8286 150.3641"></polygon>
        <path d="M167.8877,137.0641 L169.8087,136.8261 C172.4747,136.4901 173.2737,134.6041 173.0567,132.8801 C172.7777,130.6731 171.2037,129.8031 169.0217,130.0811 L167.0407,130.3271 L167.8877,137.0641 Z M164.2927,128.5991 L169.3577,127.9641 C171.4547,127.7001 172.6797,128.0701 173.6947,128.8061 C174.8317,129.6391 175.4547,130.9411 175.6387,132.3881 C175.9007,134.4791 175.1607,136.6141 172.3257,137.6041 L172.3317,137.6591 C173.5507,137.7351 174.1857,138.2351 174.7247,139.3131 L178.4937,146.8901 L175.8007,147.2291 L172.7007,140.8331 C171.9287,139.2591 171.1427,138.7271 169.2727,138.9631 L168.1417,139.1001 L169.2627,148.0521 L166.7747,148.3641 L164.2927,128.5991 Z" id="Fill-92" fill="#898C8D"></path>
        <polygon id="Fill-94" fill="#898C8D" points="181.8232 126.4044 185.6722 125.9204 192.5972 141.0104 192.6572 141.0034 195.7522 124.6524 199.4922 124.1824 201.9692 143.9494 199.5882 144.2454 197.4492 127.2024 197.3962 127.2104 193.9262 144.9574 192.1152 145.1844 184.5992 128.8114 184.5432 128.8194 186.6782 145.8674 184.3012 146.1634"></polygon>
        <path d="M217.252,134.6119 L212.987,125.1399 L212.933,125.1449 L211.051,135.3929 L217.252,134.6119 Z M214.074,122.3569 L223.01,141.3089 L220.406,141.6349 L218.174,136.6809 L210.645,137.6279 L209.705,142.9759 L207.211,143.2879 L211.361,122.6949 L214.074,122.3569 Z" id="Fill-96" fill="#898C8D"></path>
        <polygon id="Fill-98" fill="#898C8D" points="225.7744 120.8859 228.8584 120.4999 238.3514 135.8739 238.4104 135.8679 236.3594 119.5609 238.7414 119.2609 241.2204 139.0219 238.1304 139.4129 228.6564 124.1539 228.5964 124.1559 230.6304 140.3549 228.2524 140.6489"></polygon>
        <polygon id="Fill-100" fill="#898C8D" points="251.2832 129.3351 243.9262 118.6081 246.7562 118.2541 252.2152 126.4561 255.5082 117.1591 258.2512 116.8121 253.7752 129.0231 254.8112 137.3151 252.3242 137.6321"></polygon>
        <path d="M193.5781,67.84 C192.9261,64.692 191.8651,61.695 190.4551,58.905 C188.7791,55.58 186.5941,52.551 184.0131,49.914 C180.9501,51.039 178.1471,52.694 175.7171,54.781 C178.2691,56.977 180.4101,59.641 181.9911,62.642 C183.4141,65.346 184.3921,68.313 184.8281,71.456 C184.9911,72.654 185.0801,73.884 185.0801,75.125 C185.0801,83.256 181.4451,90.549 175.7171,95.477 C173.2871,97.558 170.4811,99.222 167.4221,100.341 C164.5571,101.39 161.4711,101.958 158.2541,101.958 C143.4591,101.958 131.4241,89.922 131.4241,75.125 C131.4241,68.79 133.6351,62.96 137.3231,58.366 C135.6391,55.417 134.3071,52.299 133.3521,49.069 C126.4751,55.638 122.1831,64.891 122.1831,75.125 C122.1831,95.014 138.3671,111.194 158.2541,111.194 C164.5831,111.194 170.5431,109.552 175.7171,106.677 C178.7811,104.965 181.5761,102.831 184.0131,100.341 C190.3811,93.829 194.3141,84.928 194.3141,75.125 C194.3141,72.628 194.0631,70.192 193.5781,67.84" id="Fill-102" fill="#ED9639"></path>
        <path d="M175.5742,0.5265 C155.6922,0.5265 139.5102,16.7045 139.5102,36.5955 C139.5102,39.0875 139.7652,41.5295 140.2502,43.8825 C140.9022,47.0315 141.9622,50.0245 143.3692,52.8155 C146.5922,59.1865 151.6452,64.4735 157.8332,67.9835 C160.5542,69.5275 163.4962,70.7315 166.5952,71.5275 C169.4702,72.2665 172.4802,72.6625 175.5742,72.6625 C178.7752,72.6625 181.8742,72.2425 184.8282,71.4595 C184.3922,68.3135 183.4142,65.3405 181.9912,62.6475 C179.9332,63.1525 177.7852,63.4225 175.5742,63.4225 C173.4552,63.4225 171.3942,63.1715 169.4112,62.7085 C166.3402,61.9785 163.4742,60.7245 160.9092,59.0455 C157.1042,56.5545 153.9712,53.1195 151.8372,49.0785 C150.4082,46.3755 149.4332,43.4075 149.0042,40.2645 C148.8382,39.0665 148.7482,37.8395 148.7482,36.5955 C148.7482,21.8015 160.7852,9.7655 175.5742,9.7655 C188.8222,9.7655 199.8612,19.4155 202.0212,32.0575 C205.3302,32.7345 208.5492,33.7835 211.6132,35.1855 C210.8732,15.9505 194.9952,0.5265 175.5742,0.5265" id="Fill-104" fill="#1A1918"></path>
        <path d="M206.2988,41.5343 C206.2248,41.5053 206.1528,41.4763 206.0718,41.4503 C206.1528,41.4763 206.2248,41.5053 206.2988,41.5343" id="Fill-106" fill="#1A1918"></path>
        <path d="M210.9277,43.7404 C210.9347,43.7294 210.9347,43.7294 210.9347,43.7254 C209.6017,42.9754 208.2207,42.3094 206.8087,41.7324 C208.2287,42.3144 209.6057,42.9894 210.9277,43.7404" id="Fill-108" fill="#1A1918"></path>
        <path d="M206.8027,41.7325 C206.6407,41.6665 206.4687,41.6005 206.2987,41.5395 C206.4687,41.6005 206.6407,41.6665 206.8027,41.7325" id="Fill-110" fill="#8A8B8A"></path>
        <path d="M184.0527,100.3541 C184.0367,100.3491 184.0257,100.3471 184.0127,100.3411 C181.5777,102.8311 178.7817,104.9701 175.7167,106.6711 L175.7197,106.6771 C178.7717,104.9971 181.5837,102.8731 184.0527,100.3541" id="Fill-112" fill="#DA284B"></path>
        <path d="M210.9277,43.7404 C208.2087,42.1934 205.2657,40.9924 202.1657,40.1934 C199.2907,39.4524 196.2827,39.0604 193.1857,39.0604 C186.8507,39.0604 180.8967,40.7004 175.7167,43.5844 C172.6507,45.2844 169.8617,47.4254 167.4217,49.9144 C164.8057,52.5914 162.5967,55.6674 160.9087,59.0424 C163.4747,60.7244 166.3397,61.9804 169.4107,62.7064 C171.0037,59.6794 173.1487,56.9904 175.7167,54.7814 C178.1477,52.6944 180.9517,51.0384 184.0127,49.9144 C186.8767,48.8694 189.9637,48.3004 193.1857,48.3004 C195.3047,48.3004 197.3667,48.5494 199.3517,49.0154 C202.4217,49.7424 205.2867,50.9954 207.8507,52.6784 C215.1667,57.4764 220.0097,65.7464 220.0097,75.1284 C220.0097,89.9224 207.9747,101.9574 193.1857,101.9574 L193.1447,101.9574 C190.7167,105.0964 187.9087,107.8614 184.8007,110.2074 C187.4927,110.8504 190.2967,111.1944 193.1857,111.1944 C213.0707,111.1944 229.2517,95.0144 229.2517,75.1284 C229.2517,61.6874 221.8627,49.9414 210.9277,43.7404" id="Fill-114" fill="#DA284B"></path>
    </g>
</svg>