<?xml version="1.0" encoding="UTF-8" standalone="no"?>
<svg width="180px" height="180px" viewBox="0 0 180 180" version="1.1" xmlns="http://www.w3.org/2000/svg" xmlns:xlink="http://www.w3.org/1999/xlink" xmlns:sketch="http://www.bohemiancoding.com/sketch/ns">
    <!-- Generator: Sketch 3.4.4 (17249) - http://www.bohemiancoding.com/sketch -->
    <title>map_pin</title>
    <desc>Created with Sketch.</desc>
    <defs></defs>
    <g id="Page-1" stroke="none" stroke-width="1" fill="none" fill-rule="evenodd" sketch:type="MSPage">
        <g id="map_pin" sketch:type="MSArtboardGroup" fill="#B6BE00">
            <g id="Shape-+-Shape-+-Shape" sketch:type="MSLayerGroup">
                <path d="M177.804,87.111 L123.804,72.111 C123.549,72.039 123.288,72.009 123.027,72.006 C123.015,72.006 123.009,72 123,72 C122.973,72 122.952,72.015 122.925,72.015 C122.727,72.021 122.529,72.03 122.337,72.075 L107.319,75.489 C105.705,75.858 104.691,77.463 105.057,79.08 C105.423,80.694 107.031,81.702 108.648,81.339 L120,78.759 L120,159.606 L60,173.241 L60,92.394 L66.483,90.921 C68.097,90.555 69.111,88.947 68.745,87.33 C68.379,85.713 66.762,84.696 65.154,85.071 L57.075,86.907 L3.804,72.111 C2.901,71.859 1.935,72.045 1.185,72.612 C0.438,73.179 0,74.064 0,75 L0,162 C0,163.347 0.9,164.529 2.196,164.889 L56.196,179.889 C56.451,179.961 56.712,179.991 56.973,179.994 C56.985,179.994 56.991,180 57,180 C57.027,180 57.048,179.985 57.075,179.985 C57.273,179.979 57.468,179.97 57.663,179.925 L122.925,165.093 L176.196,179.889 C176.46,179.964 176.73,180 177,180 C177.648,180 178.287,179.79 178.815,179.388 C179.559,178.821 180,177.936 180,177 L180,90 C180,88.653 179.1,87.471 177.804,87.111 L177.804,87.111 Z M6,78 L54,91.335 L54,172.107 L6,158.775 L6,78 L6,78 Z M174,172.107 L126,158.772 L126,78 L174,91.335 L174,172.107 L174,172.107 Z" id="Shape" sketch:type="MSShapeGroup"></path>
                <path d="M84,21 C86.52,21 88.566,23.049 88.566,25.566 C88.566,27.222 89.907,28.566 91.566,28.566 C93.225,28.566 94.566,27.222 94.566,25.566 C94.566,19.74 89.826,15 84,15 C82.341,15 81,16.344 81,18 C81,19.656 82.344,21 84,21 L84,21 Z" id="Shape" sketch:type="MSShapeGroup"></path>
                <path d="M84,53.823 L84,129 C84,130.656 85.341,132 87,132 C88.659,132 90,130.656 90,129 L90,53.823 C103.479,52.323 114,40.872 114,27 C114,12.114 101.889,0 87,0 C72.111,0 60,12.114 60,27 C60,40.872 70.521,52.326 84,53.823 L84,53.823 Z M87,6 C98.577,6 108,15.42 108,27 C108,38.58 98.577,48 87,48 C75.423,48 66,38.58 66,27 C66,15.42 75.423,6 87,6 L87,6 Z" id="Shape" sketch:type="MSShapeGroup"></path>
            </g>
        </g>
    </g>
</svg>