<?xml version="1.0" encoding="UTF-8" standalone="no"?>
<svg width="80px" height="80px" viewBox="0 0 80 80" version="1.1" xmlns="http://www.w3.org/2000/svg" xmlns:xlink="http://www.w3.org/1999/xlink">
    <!-- Generator: Sketch 3.7.2 (28276) - http://www.bohemiancoding.com/sketch -->
    <title>Slice 1</title>
    <desc>Created with Sketch.</desc>
    <defs></defs>
    <g id="Page-1" stroke="none" stroke-width="1" fill="none" fill-rule="evenodd">
        <g id="map_pin" transform="translate(0.000000, 18.000000)">
            <g id="Group" transform="translate(39.148936, 30.461538)" fill="#333333">
                <path d="M1.01787234,1.82515385 C0.673191489,1.82515385 0.394042553,1.54761538 0.394042553,1.20661538 L0.394042553,0.690461538 C0.394042553,0.346923077 0.673191489,0.0702307692 1.01787234,0.0702307692 C1.36170213,0.0702307692 1.64085106,0.346923077 1.64085106,0.690461538 L1.64085106,1.20661538 C1.64085106,1.54761538 1.36170213,1.82515385 1.01787234,1.82515385 L1.01787234,1.82515385 Z" id="Shape"></path>
                <path d="M1.01787234,8.66630769 C0.673191489,8.66630769 0.394042553,8.38792308 0.394042553,8.04607692 L0.394042553,6.90630769 C0.394042553,6.56446154 0.673191489,6.28692308 1.01787234,6.28692308 C1.36170213,6.28692308 1.64085106,6.56446154 1.64085106,6.90630769 L1.64085106,8.04607692 C1.64085106,8.38792308 1.36170213,8.66630769 1.01787234,8.66630769 L1.01787234,8.66630769 Z M1.01787234,5.24615385 C0.673191489,5.24615385 0.394042553,4.96861538 0.394042553,4.62676923 L0.394042553,3.48615385 C0.394042553,3.14430769 0.673191489,2.86676923 1.01787234,2.86676923 C1.36170213,2.86676923 1.64085106,3.14430769 1.64085106,3.48615385 L1.64085106,4.62676923 C1.64085106,4.96861538 1.36170213,5.24615385 1.01787234,5.24615385 L1.01787234,5.24615385 Z" id="Shape"></path>
                <path d="M1.01787234,11.4628462 C0.673191489,11.4628462 0.394042553,11.1853077 0.394042553,10.8443077 L0.394042553,10.3273077 C0.394042553,9.98546154 0.673191489,9.70876923 1.01787234,9.70876923 C1.36170213,9.70876923 1.64085106,9.98546154 1.64085106,10.3273077 L1.64085106,10.8443077 C1.64085106,11.1853077 1.36170213,11.4628462 1.01787234,11.4628462 L1.01787234,11.4628462 Z" id="Shape"></path>
            </g>
            <g id="Group" transform="translate(20.425532, 25.384615)" fill="#333333">
                <path d="M4.22638298,1.969 C4.14042553,1.969 4.05276596,1.95123077 3.97021277,1.91569231 C3.65702128,1.77523077 3.51659574,1.40715385 3.65787234,1.09576923 L3.8706383,0.625307692 C4.01191489,0.313076923 4.38042553,0.173461538 4.69446809,0.313923077 C5.00765957,0.454384615 5.14808511,0.821615385 5.00680851,1.133 L4.79404255,1.60430769 C4.69106383,1.83276923 4.46382979,1.969 4.22638298,1.969 L4.22638298,1.969 Z" id="Shape"></path>
                <path d="M1.75489362,7.43261538 C1.66893617,7.43261538 1.58212766,7.41484615 1.49957447,7.37846154 C1.18553191,7.23715385 1.04510638,6.87161538 1.18638298,6.55938462 L1.59829787,5.64892308 C1.73957447,5.33669231 2.10808511,5.19707692 2.42212766,5.33753846 C2.73617021,5.478 2.87574468,5.84523077 2.73446809,6.15746154 L2.32255319,7.06707692 C2.2187234,7.29723077 1.99234043,7.43261538 1.75489362,7.43261538 L1.75489362,7.43261538 Z M2.98978723,4.70123077 C2.90468085,4.70123077 2.81787234,4.68346154 2.73531915,4.64707692 C2.4212766,4.50746154 2.28085106,4.14023077 2.42212766,3.828 L2.83404255,2.91753846 C2.97531915,2.60530769 3.34468085,2.46569231 3.65787234,2.607 C3.97191489,2.74746154 4.11148936,3.11469231 3.97021277,3.42692308 L3.55914894,4.33653846 C3.45531915,4.56584615 3.22723404,4.70123077 2.98978723,4.70123077 L2.98978723,4.70123077 Z" id="Shape"></path>
                <path d="M0.718297872,9.72484615 C0.632340426,9.72484615 0.545531915,9.70707692 0.462978723,9.66984615 C0.14893617,9.53023077 0.0085106383,9.163 0.149787234,8.85246154 L0.362553191,8.38030769 C0.503829787,8.06723077 0.873191489,7.92846154 1.18723404,8.06807692 C1.5012766,8.20938462 1.64170213,8.57661538 1.50042553,8.88884615 L1.28765957,9.36015385 C1.18297872,9.58861538 0.955744681,9.72484615 0.718297872,9.72484615 L0.718297872,9.72484615 Z" id="Shape"></path>
            </g>
            <g id="Group" transform="translate(54.468085, 25.384615)" fill="#333333">
                <path d="M1.43829787,1.83107692 C1.2,1.83107692 0.972765957,1.69569231 0.86893617,1.46723077 L0.656170213,0.994230769 C0.514893617,0.682846154 0.655319149,0.315615385 0.968510638,0.175153846 C1.28170213,0.0355384615 1.65191489,0.174307692 1.79234043,0.486538462 L2.00595745,0.956153846 C2.14723404,1.26923077 2.00680851,1.63730769 1.69276596,1.77692308 C1.61106383,1.815 1.52340426,1.83107692 1.43829787,1.83107692 L1.43829787,1.83107692 Z" id="Shape"></path>
                <path d="M3.90978723,7.29469231 C3.67148936,7.29469231 3.44425532,7.16015385 3.34042553,6.93 L2.93021277,6.01869231 C2.78893617,5.70646154 2.92851064,5.34007692 3.24170213,5.19961538 C3.55659574,5.06 3.92510638,5.19876923 4.06638298,5.511 L4.47829787,6.42061538 C4.61957447,6.73369231 4.47914894,7.10007692 4.16510638,7.24053846 C4.08085106,7.27776923 3.99489362,7.29469231 3.90978723,7.29469231 L3.90978723,7.29469231 Z M2.67404255,4.56415385 C2.43659574,4.56415385 2.21021277,4.42792308 2.10553191,4.19776923 L1.69361702,3.289 C1.55234043,2.97592308 1.69276596,2.60869231 2.00680851,2.46823077 C2.32085106,2.32776923 2.68851064,2.46738462 2.8306383,2.77876923 L3.24170213,3.68923077 C3.38382979,4.00230769 3.24255319,4.36784615 2.93021277,4.50915385 C2.84680851,4.54553846 2.75914894,4.56415385 2.67404255,4.56415385 L2.67404255,4.56415385 Z" id="Shape"></path>
                <path d="M4.94723404,9.58776923 C4.70978723,9.58776923 4.48255319,9.45153846 4.37787234,9.22138462 L4.16510638,8.75007692 C4.02382979,8.43869231 4.16425532,8.07146154 4.47829787,7.93184615 C4.7906383,7.79138462 5.16085106,7.93015385 5.3012766,8.24069231 L5.51489362,8.71369231 C5.65617021,9.02507692 5.51574468,9.39146154 5.20255319,9.53192308 C5.11914894,9.57084615 5.03234043,9.58776923 4.94723404,9.58776923 L4.94723404,9.58776923 Z" id="Shape"></path>
            </g>
            <path d="M79.8102128,42.8847692 L70.4255319,29.0484615 C70.3506383,28.9384615 70.2425532,28.8563846 70.1174468,28.8123846 L55.3310638,23.5797692 C55.1957447,23.5323846 55.0468085,23.5323846 54.9131915,23.5797692 L51.8017021,24.6806154 C51.852766,24.5926154 51.9029787,24.5037692 51.9557447,24.4140769 C52.3489362,23.7422308 52.9276596,22.9485385 53.5957447,22.0304615 C55.5676596,19.3278462 58.2655319,15.6259231 58.2655319,11.8283846 L58.2655319,11.3697692 C58.2655319,5.58884615 53.4885106,0.704846154 47.8331915,0.704846154 L47.547234,0.704846154 C41.8919149,0.704846154 37.1148936,5.58884615 37.1148936,11.3697692 L37.1148936,11.8283846 C37.1148936,15.6259231 39.813617,19.3278462 41.7855319,22.0304615 C42.4544681,22.9476923 43.0323404,23.7413846 43.4255319,24.4140769 C44.0255319,25.4404615 44.4953191,26.3509231 44.8612766,27.1361538 L40.2289362,28.776 L40.133617,28.776 L25.4485106,23.5797692 C25.3131915,23.5323846 25.1659574,23.5323846 25.0306383,23.5797692 L10.2434043,28.8123846 C10.1182979,28.8572308 10.0093617,28.9384615 9.93617021,29.0484615 L0.548085106,42.8847692 C0.397446809,43.1081538 0.406808511,43.4000769 0.571914894,43.6116154 C0.737021277,43.8231538 1.01957447,43.9052308 1.27319149,43.8146923 L20.52,37.0056923 L39.7668085,43.8146923 C39.8340426,43.8392308 39.9038298,43.8510769 39.9761702,43.8510769 L40.3829787,43.8510769 C40.453617,43.8510769 40.5251064,43.8392308 40.5914894,43.8146923 L59.8391489,37.0056923 L79.0859574,43.8146923 C79.1523404,43.8400769 79.2238298,43.8510769 79.293617,43.8510769 C79.4825532,43.8510769 79.6655319,43.7639231 79.7855319,43.6116154 C79.9506383,43.4000769 79.96,43.1073077 79.8102128,42.8847692 L79.8102128,42.8847692 Z M60.0468085,35.7643846 C59.9123404,35.7161538 59.7651064,35.7161538 59.6306383,35.7643846 L40.2757447,42.614 L40.0842553,42.614 L20.7293617,35.7643846 C20.5948936,35.7161538 20.4468085,35.7161538 20.3123404,35.7643846 L2.64085106,42.0174615 L10.852766,29.9115385 L25.2382979,24.8210769 L39.8161702,29.9800769 C39.8834043,30.0029231 39.9540426,30.0164615 40.0255319,30.0164615 L40.3353191,30.0164615 C40.4059574,30.0164615 40.4765957,30.0029231 40.5446809,29.9800769 L45.3591489,28.2750769 C45.9923404,29.8387692 46.12,30.6739231 46.1217021,30.6874615 C46.1225532,30.6959231 46.1242553,30.7043846 46.1259574,30.7145385 C46.2944681,31.6453077 46.8944681,32.2215385 47.692766,32.2215385 C48.4731915,32.2215385 49.0876596,31.6317692 49.2578723,30.7170769 C49.2595745,30.7077692 49.2612766,30.6976154 49.2621277,30.6891538 C49.2646809,30.6705385 49.4987234,29.1313846 50.9242553,26.3077692 L55.1251064,24.8210769 L69.5097872,29.9115385 L77.7191489,42.0174615 L60.0468085,35.7643846 L60.0468085,35.7643846 Z" id="Shape" fill="#333333"></path>
            <path d="M42.7914894,21.3036154 C40.8178723,18.5942308 38.3591489,15.224 38.3591489,11.8283846 L38.3591489,11.3697692 C38.3591489,6.26069231 42.5668085,1.94276923 47.5455319,1.94276923 L47.8314894,1.94276923 C52.8110638,1.94276923 57.0178723,6.26069231 57.0178723,11.3697692 L57.0178723,11.8283846 C57.0178723,15.224 54.5608511,18.5950769 52.5855319,21.3036154 C51.8961702,22.2479231 51.3012766,23.0644615 50.8765957,23.7904615 C48.4757447,27.8943077 48.066383,30.2347692 48.026383,30.4996154 C48.012766,30.5630769 47.9157447,30.9836154 47.6893617,30.9836154 C47.4851064,30.9836154 47.3923404,30.7238462 47.3514894,30.5038462 C47.3148936,30.261 46.9165957,27.9171538 44.5012766,23.7904615 C44.0774468,23.0644615 43.4834043,22.2479231 42.7914894,21.3036154 L42.7914894,21.3036154 Z" id="Path" fill="#FFFFFF"></path>
            <path d="M52.2595745,11.3266154 C52.2595745,8.82115385 50.2085106,6.78361538 47.6902128,6.78361538 C45.1693617,6.78361538 43.12,8.82115385 43.12,11.3266154 C43.12,13.8312308 45.1693617,15.8696154 47.6902128,15.8696154 C50.2085106,15.8696154 52.2595745,13.8312308 52.2595745,11.3266154 L52.2595745,11.3266154 Z" id="Path" fill="#333333"></path>
            <path d="M44.3668085,11.3266154 C44.3668085,9.50484615 45.8578723,8.02238462 47.6902128,8.02238462 C49.5217021,8.02238462 51.0119149,9.504 51.0119149,11.3266154 C51.0119149,13.1483846 49.5217021,14.63 47.6902128,14.63 C45.8578723,14.63 44.3668085,13.1483846 44.3668085,11.3266154 L44.3668085,11.3266154 Z" id="Path" fill="#EBEBF0"></path>
        </g>
    </g>
</svg>