<?xml version="1.0" encoding="UTF-8" standalone="no"?>
<svg width="440px" height="490px" viewBox="0 0 440 490" version="1.1" xmlns="http://www.w3.org/2000/svg" xmlns:xlink="http://www.w3.org/1999/xlink">
    <!-- Generator: Sketch 39.1 (31720) - http://www.bohemiancoding.com/sketch -->
    <title>Icon</title>
    <desc>Created with Sketch.</desc>
    <defs></defs>
    <g id="Page-1" stroke="none" stroke-width="1" fill="none" fill-rule="evenodd">
        <g id="1024" transform="translate(-309.000000, -267.000000)">
            <g id="Icon" transform="translate(310.000000, 267.000000)">
                <text id="Fusslänge" transform="translate(420.000000, 245.000000) rotate(-90.000000) translate(-420.000000, -245.000000) " font-family="Inconsolata" font-size="36" font-weight="400" fill="#000000">
                    <tspan x="339" y="257">Fusslänge</tspan>
                </text>
                <path d="M0,1 L403.5,1" id="Line" stroke="#000000" stroke-width="2" stroke-dasharray="5"></path>
                <path d="M415,1 L435,1" id="Line" stroke="#000000" stroke-width="2"></path>
                <path d="M425,2 L425,102" id="Line" stroke="#000000" stroke-width="2"></path>
                <path d="M424,388 L424,488" id="Line" stroke="#000000" stroke-width="2"></path>
                <path d="M414,489 L434,489" id="Line" stroke="#000000" stroke-width="2"></path>
                <path d="M0,489 L403.5,489" id="Line" stroke="#000000" stroke-width="2" stroke-dasharray="5"></path>
                <g id="foot" transform="translate(0.000000, 3.000000)" stroke-width="2" stroke="#000000" fill="#FFFFFF">
                    <g id="Group">
                        <path d="M173.364088,0 C162.89725,0 151.417015,10.7178037 151.135926,29.0825421 C150.736485,54.2677009 159.938426,61.0276449 160.189926,63.2787196 C183.01725,70.9390935 189.171603,77.4705701 191.227985,84.4589813 C181.530441,80.0912243 170.775118,76.4895047 159.709118,74.110757 C156.165926,73.4051963 145.233074,71.3624299 136.970559,71.3624299 C46.0755,71.3624299 9.96305882,153.906318 9.96305882,153.906318 C5.19935294,169.206907 3.95664706,181.308953 4.83689706,204.915 C6.05001471,237.27 30.3049706,304.976953 34.4399265,318.503561 C38.5674853,332.030168 32.7829853,362.826215 29.4838971,409.399944 C26.1774118,455.973673 68.3480441,494.282262 112.168221,481.508252 C156.003191,468.740963 154.901029,436.211252 150.218691,411.644299 C146.6755,393.131729 118.707221,336.008187 112.930118,320.230505 C107.145618,304.459542 112.005485,260.45271 126.770015,238.728159 C145.270059,211.486794 196.627838,200.338935 210.571294,165.269206 C221.311824,138.215991 200.651838,97.6563271 200.651838,88.6453084 C200.651838,79.6275701 213.041912,69.3801402 216.370588,55.5914673 C220.816221,37.0251402 219.810221,0 173.364088,0" id="Shape"></path>
                        <path d="M136.097706,16.537 C128.242029,-2.78864486 90.5540147,0.712280374 100.673191,31.1253084 C100.673191,31.1253084 110.4595,57.4595234 129.174059,44.8535047 C142.178088,36.1045514 136.097706,16.537 136.097706,16.537" id="Shape"></path>
                        <path d="M91.6191912,38.7520841 C84.1407647,21.8925421 51.0093382,25.8705607 60.8030441,52.4601215 C60.8030441,52.4601215 70.1825147,75.4479626 86.3302941,63.8902056 C97.5516324,55.8468131 91.6191912,38.7520841 91.6191912,38.7520841" id="Shape"></path>
                        <path d="M52.9991471,60.6983832 C45.8905735,46.2982243 17.3157353,50.7533364 26.7839706,73.499271 C26.7839706,73.499271 35.7566029,93.1608972 49.345,82.6446822 C58.77625,75.3471682 52.9991471,60.6983832 52.9991471,60.6983832" id="Shape"></path>
                        <path d="M24.3503382,87.1669907 C17.6116176,75.2396542 -6.41402941,80.1651402 2.73613235,99.0876075 C2.73613235,99.0876075 11.3019265,115.39614 22.3161471,105.934907 C29.9573088,99.3563925 24.3503382,87.1669907 24.3503382,87.1669907" id="Shape"></path>
                    </g>
                </g>
            </g>
        </g>
    </g>
</svg>