<?xml version="1.0" encoding="UTF-8" standalone="no"?>
<svg width="80px" height="80px" viewBox="0 0 80 80" version="1.1" xmlns="http://www.w3.org/2000/svg" xmlns:xlink="http://www.w3.org/1999/xlink">
    <!-- Generator: Sketch 3.7.2 (28276) - http://www.bohemiancoding.com/sketch -->
    <title>Slice 1</title>
    <desc>Created with Sketch.</desc>
    <defs></defs>
    <g id="Page-1" stroke="none" stroke-width="1" fill="none" fill-rule="evenodd">
        <g id="parcel" transform="translate(6.000000, 0.000000)" fill="#333333">
            <path d="M67.8,18.1 C67.8,18.1 67.8,18 67.8,18.1 C67.8,18 67.8,18 67.7,17.9 L67.7,17.9 L67.6,17.8 L67.6,17.8 L67.5,17.7 L67.5,17.7 L34.2,1 C34,0.9 33.8,0.9 33.6,1 L14.9,10.4 C14.7,10.4 14.5,10.5 14.4,10.7 L0.4,17.7 L0.4,17.7 C0.4,17.7 0.3,17.7 0.3,17.8 L0.3,17.8 L0.2,17.9 L0.2,17.9 C0.2,17.9 0.2,18 0.1,18 L0.1,18 L0.1,18.2 L0.1,61.5 C0.1,61.8 0.2,62 0.5,62.1 L33.6,79 L33.6,79 L33.7,79 L33.7,79 L33.8,79 L33.9,79 L33.9,79 L34,79 L34,79 L67.3,62.1 C67.5,62 67.7,61.8 67.7,61.5 L67.7,18.2 C67.9,18.2 67.9,18.1 67.8,18.1 L67.8,18.1 Z M33.9,2.3 L65.7,18.2 L54.9,23.6 L23.1,7.8 L33.9,2.3 L33.9,2.3 Z M48,26.8 L16.5,11.1 L21.6,8.5 L53.4,24.4 L48.2,27 C48.2,26.9 48.1,26.9 48,26.8 L48,26.8 Z M48.4,28.4 L53.9,25.6 L53.9,40.7 L48.4,43.7 L48.4,28.4 L48.4,28.4 Z M15,11.8 L46.8,27.7 L33.9,34.1 L2.1,18.2 L15,11.8 L15,11.8 Z M1.3,19.3 L33.3,35.3 L33.3,77.3 L1.3,61.1 L1.3,19.3 L1.3,19.3 Z M34.6,77.3 L34.6,35.3 L47.1,29.1 L47.1,44.9 C47.1,45.1 47.2,45.4 47.4,45.5 C47.5,45.6 47.6,45.6 47.7,45.6 C47.8,45.6 47.9,45.6 48,45.5 L54.9,41.8 C55.1,41.7 55.2,41.5 55.2,41.2 L55.2,25 L66.5,19.4 L66.5,61.2 L34.6,77.3 L34.6,77.3 Z" id="Shape"></path>
        </g>
    </g>
</svg>