<?xml version="1.0" encoding="UTF-8"?>
<svg width="1200px" height="900px" viewBox="0 0 1200 900" version="1.1" xmlns="http://www.w3.org/2000/svg" xmlns:xlink="http://www.w3.org/1999/xlink">
    <!-- Generator: Sketch 43.2 (39069) - http://www.bohemiancoding.com/sketch -->
    <title>square</title>
    <desc>Created with Sketch.</desc>
    <defs>
        <polygon id="path-1" points="0 351.299988 799.990071 351.299988 799.990071 0 0 0"></polygon>
    </defs>
    <g id="Page-1" stroke="none" stroke-width="1" fill="none" fill-rule="evenodd">
        <g id="square">
            <g id="PETAapprovedveganLOGO" transform="translate(200.000000, 274.000000)">
                <path d="M76.6380232,100.596162 L76.6380232,94.8651 C76.6380232,92.8701263 76.7123812,90.9674651 76.8867381,89.1391666 C77.209811,83.8260748 77.9200586,78.556575 78.9969683,73.3281029 C80.0790061,68.1047593 82.8533307,63.2532296 87.3378904,58.7735137 C90.1583682,55.9528568 93.2711501,53.8271073 96.6685438,52.4219073 C100.071066,51.0167074 105.258181,49.9679359 112.229889,49.3140563 L111.97861,50.5551453 C108.655575,51.5500679 105.632535,52.670638 102.894108,53.9219839 C100.158244,55.1579444 97.5428919,57.3631852 95.0557433,60.5171924 C92.3891098,63.840439 90.730156,67.8919279 90.0737539,72.7075584 C89.4122236,77.5308816 88.991716,83.915823 88.8276155,91.8828964 L88.8276155,116.776475 L88.8276155,130.213059 C88.8276155,134.697903 88.6583868,139.180183 88.3353139,143.659899 C88.1686493,147.316496 87.7968591,151.088483 87.214815,154.98099 C86.6327709,158.886317 85.0994566,162.496758 82.6071799,165.814876 C80.943098,168.1432 79.1585047,169.845851 77.2534002,170.917701 C75.3457315,171.999808 73.1457588,172.961395 70.6586102,173.787078 C73.3047312,174.776872 75.6329075,175.861543 77.6251904,177.023141 C79.6174734,178.17961 81.6046282,180.174584 83.6046034,182.990112 C86.4199531,187.146735 87.9891644,191.672607 88.3353139,196.557472 C88.6583868,201.457722 88.8276155,206.22976 88.8276155,210.873587 C88.991716,213.696808 89.0763304,216.479002 89.0763304,219.217603 L89.0763304,227.559055 L89.0763304,255.437401 C89.0763304,259.578638 89.1558166,263.240363 89.3301734,266.391806 C89.4942739,269.545814 89.8276031,272.36647 90.3224687,274.853777 C90.8147703,277.343648 91.5301461,279.582223 92.4378271,281.582326 C93.3532004,283.572171 94.5583136,285.477396 96.0531668,287.305695 C98.3659587,290.118659 100.814646,292.15466 103.391537,293.400878 C105.960736,294.644531 108.909418,295.68561 112.229889,296.513857 L111.97861,297.75751 C108.163273,297.42416 104.424858,296.893364 100.781313,296.139479 C97.1198203,295.398416 93.4711476,293.690636 89.8276031,291.039219 C88.991716,290.36739 87.9891644,289.549399 86.8378966,288.54422 C85.6738085,287.546733 84.4276701,286.141533 83.1071737,284.313234 C81.6046282,281.990039 80.402079,279.333493 79.4918339,276.348725 C78.5841529,273.358829 77.9585196,270.330469 77.6251904,267.255953 C77.2918612,264.186566 77.0892996,261.124871 77.0098135,258.052919 C76.9251991,254.986096 76.8867381,252.198774 76.8867381,249.716596 L76.8867381,217.096982 C76.8867381,207.473414 76.5380244,199.760199 75.8893145,193.954775 C75.217528,188.141657 73.0611445,183.238843 69.4176,179.261717 C67.9227467,177.76164 66.5073797,176.648763 65.1817551,175.900007 C63.8561305,175.153815 62.276663,174.528142 60.4510446,174.033245 L60.4510446,172.789591 C63.4433152,171.956216 65.8381572,170.966421 67.6740319,169.799695 C69.4970862,168.632969 71.2355261,166.563633 72.8944799,163.578865 C74.7252264,160.096636 75.7636751,155.940013 76.0072618,151.129511 C76.2559767,146.316445 76.4687945,140.090486 76.6380232,132.461891 L76.6380232,100.596162 Z" id="Fill-1" fill="#1A1918"></path>
                <path d="M723.361022,254.687876 C723.022565,263.983222 721.950783,271.242567 720.127729,276.473603 C718.28929,281.696947 715.561119,285.966396 711.904754,289.294771 C708.091981,292.943675 704.27408,295.179687 700.453614,296.018191 C696.638277,296.84131 692.412688,297.423391 687.761464,297.756741 L688.012743,296.515652 C688.671709,296.346413 689.710158,296.05409 691.128089,295.646377 C692.530636,295.2361 694.069078,294.643762 695.722904,293.902698 C697.386986,293.153942 699.0844,292.153891 700.833097,290.91793 C702.571537,289.669149 704.192029,288.048553 705.681755,286.051015 C708.007367,282.735461 709.461195,278.712179 710.043239,273.983733 C710.615027,269.252722 710.999637,262.990864 711.168866,255.187901 L711.168866,230.294322 L711.168866,216.352585 C711.168866,211.708758 711.330402,207.064931 711.663732,202.410847 C711.991933,199.092729 712.409876,195.682299 712.904742,192.202634 C713.402172,188.720405 714.479081,185.651017 716.138035,182.989343 C718.471339,179.509678 720.948232,177.150583 723.609737,175.899237 C726.260986,174.658148 728.173783,173.8658 729.342999,173.537578 C727.012259,172.704202 724.94049,171.752872 723.112307,170.663073 C721.278997,169.586095 719.461071,167.8937 717.638016,165.565376 C714.148316,161.249771 712.197058,156.393113 711.786807,151.003094 C711.371427,145.61564 711.168866,140.338447 711.168866,135.197159 C710.999637,132.540613 710.917587,129.963559 710.917587,127.481381 L710.917587,119.765602 L710.917587,91.8821272 C710.917587,83.5868318 710.494515,77.0685503 709.66632,72.3349753 C708.84069,67.6065287 706.930457,63.5063194 703.94075,60.0112692 C701.620266,57.1931766 699.174143,55.1571752 696.597252,53.9212146 C694.025489,52.6698687 691.0845,51.5492986 687.761464,50.5543761 L688.012743,49.313287 C689.012731,49.477398 690.038359,49.6056097 691.128089,49.6851009 C692.207563,49.7645921 693.320369,49.895368 694.481894,50.059479 C695.315216,50.2184615 696.553663,50.4800133 698.225437,50.7979782 C699.879262,51.146714 701.704881,51.7159738 703.692036,52.5519139 C705.681755,53.3750329 707.717627,54.4981672 709.794524,55.9033671 C711.866293,57.318824 713.812423,59.1907144 715.648297,61.5062173 C717.140587,63.5063194 718.376469,65.6602755 719.373892,67.9834711 C720.379008,70.3092308 721.153357,72.8760286 721.748222,75.6915569 C722.325138,78.5275992 722.689236,81.7098129 722.858464,85.2869186 C723.022565,88.8563317 723.112307,92.9693622 723.112307,97.6080605 L723.112307,130.212289 C723.112307,134.697134 723.148204,138.717852 723.240511,142.289829 C723.319997,145.866935 723.568712,149.059405 723.978963,151.874934 C724.389215,154.698155 725.017412,157.272645 725.850735,159.585584 C726.684058,161.919036 727.835326,164.160176 729.342999,166.319261 C730.494267,167.809081 731.69938,169.011706 732.948083,169.924573 C734.194221,170.83744 736.394194,171.955446 739.540309,173.286283 L739.540309,174.527372 C737.045468,175.365877 734.940366,176.230024 733.189105,177.150583 C731.450665,178.053194 729.832737,179.676353 728.340448,181.999549 C727.168667,183.661172 726.350729,185.281768 725.850735,186.853643 C725.350741,188.435775 725.017412,189.551216 724.855876,190.212789 C724.517418,191.710301 724.230242,193.571935 723.978963,195.818203 C723.735377,198.056779 723.568712,200.346639 723.486662,202.659578 C723.402047,204.993031 723.361022,207.221349 723.361022,209.382998 L723.361022,214.860201 L723.361022,254.687876 Z" id="Fill-3" fill="#1A1918"></path>
                <polygon id="Fill-5" fill="#1A1918" points="198.067029 228.890405 221.225716 171.223358 231.874302 171.223358 198.067029 253.283958 164.177706 171.223358 174.823728 171.223358"></polygon>
                <polygon id="Fill-7" fill="#1A1918" points="269.491527 171.222588 311.347418 171.222588 311.347418 180.105093 279.204227 180.105093 279.204227 201.916463 310.41666 201.916463 310.41666 210.804096 279.204227 210.804096 279.204227 240.267139 311.347418 240.267139 311.347418 249.157337 269.491527 249.157337"></polygon>
                <path d="M425.340362,209.876613 L425.340362,212.979336 C425.340362,234.367607 410.248242,250.809472 388.45364,250.809472 C366.638527,250.809472 349.059258,231.987999 349.059258,210.397153 C349.059258,187.965238 367.05647,169.571991 389.489525,169.571991 C401.568862,169.571991 413.555893,175.038937 421.204516,184.659941 L414.389216,191.165401 C408.812362,183.523986 399.404787,178.449368 389.886956,178.449368 C372.417942,178.449368 358.782214,192.609065 358.782214,210.079188 C358.782214,226.405662 372.220509,241.914146 389.066453,241.914146 C401.150919,241.914146 414.186654,231.472588 414.594342,218.766811 L394.433053,218.766811 L394.433053,209.876613 L425.340362,209.876613 Z" id="Fill-9" fill="#1A1918"></path>
                <path d="M494.900781,189.197352 L481.039414,220.722039 L508.736507,220.722039 L494.900781,189.197352 Z M477.013823,229.6148 L468.12419,249.156824 L457.688422,249.156824 L494.900781,167.919343 L532.095191,249.156824 L521.656859,249.156824 L512.76979,229.6148 L477.013823,229.6148 Z" id="Fill-11" fill="#1A1918"></path>
                <polygon id="Fill-13" fill="#1A1918" points="568.680378 167.496501 627.174524 228.794502 627.174524 171.222332 636.89748 171.222332 636.89748 252.359808 578.393078 191.059242 578.393078 249.15708 568.680378 249.15708"></polygon>
                <path d="M232.906084,108.293734 L234.688113,101.678012 L214.408877,101.808788 L212.511465,108.373226 L218.619082,108.373226 L212.114034,132.384708 L219.557531,132.384708 L226.272833,108.421946 L232.906084,108.293734 Z M200.373154,114.227371 C193.99631,116.283886 195.593726,115.440253 195.593726,115.440253 C195.593726,115.440253 200.416743,100.965155 205.360272,102.667806 C210.352517,104.375586 206.716665,112.147777 200.373154,114.227371 L200.373154,114.227371 Z M208.375619,102.026748 C202.547486,100.118958 197.729597,104.629445 194.357844,108.919407 C191.101474,113.527335 188.970732,118.622467 188.886117,124.576617 C189.034833,127.943456 189.850208,131.697493 193.275806,133.038587 C198.906506,134.459173 203.026967,129.697391 206.02693,125.727958 C206.324362,125.158698 206.926919,124.676622 206.926919,124.025307 C206.696153,123.904788 206.46795,123.71247 206.196159,123.732984 C205.524372,124.676622 204.934636,125.548461 204.114133,126.427994 C202.134671,128.299884 199.701368,129.784575 196.886018,129.146081 C193.755288,127.769088 193.63734,124.094541 193.916824,120.971305 C194.183487,119.789193 194.183487,118.47887 194.734763,117.40702 L196.850121,116.799297 C201.519294,115.260757 206.991021,114.94792 210.073034,110.260501 C211.106354,108.465538 211.939677,105.839763 210.67559,103.878124 C210.144828,103.019106 209.298684,102.324199 208.375619,102.026748 L208.375619,102.026748 Z M242.467504,121.145673 L238.382939,121.145673 L242.439299,112.350352 L242.467504,112.232397 L242.467504,121.145673 Z M240.408555,101.63442 L225.626687,132.238547 L233.26249,132.238547 L235.595794,127.189571 L242.467504,127.189571 L242.467504,132.205212 L249.162292,132.179569 L249.162292,101.560057 L240.408555,101.63442 Z M181.245186,114.376096 C178.929831,116.548002 175.632436,115.786425 175.632436,115.786425 L176.550373,112.350352 L177.822152,107.80653 C178.278557,107.752681 181.616977,107.424459 182.540042,108.170651 C183.557978,108.973256 182.816962,112.896533 181.245186,114.376096 L181.245186,114.376096 Z M180.499042,101.5498 L172.429911,101.5498 L164.165911,132.264189 L171.014544,132.264189 L173.893996,121.8893 L173.973482,121.899557 C178.55804,122.297013 188.652787,122.402147 190.121999,111.147726 C191.537366,100.27794 180.499042,101.5498 180.499042,101.5498 L180.499042,101.5498 Z" id="Fill-15" fill="#1A1918"></path>
                <mask id="mask-2" fill="white">
                    <use xlink:href="#path-1"></use>
                </mask>
                <g id="Clip-18"></g>
                <polygon id="Fill-17" fill="#1A1918" mask="url(#mask-2)" points="271.281248 121.890839 281.101639 121.890839 281.101639 117.247012 271.281248 117.247012"></polygon>
                <path d="M313.963539,110.190754 L313.878925,110.190754 L310.527684,121.245165 L317.748108,121.245165 L313.963539,110.190754 Z M308.835398,126.081309 L306.335429,132.497021 L300.089352,132.497021 L311.937923,101.287736 L316.545558,101.287736 L328.076185,132.497021 L321.735238,132.497021 L319.407061,126.081309 L308.835398,126.081309 Z" id="Fill-19" fill="#1A1918" mask="url(#mask-2)"></path>
                <path d="M355.991479,116.199266 L357.194028,116.199266 C360.709369,116.199266 362.591397,115.440253 362.591397,111.481077 C362.591397,107.573185 360.342707,107.016746 357.040184,107.016746 L355.991479,107.016746 L355.991479,116.199266 Z M355.991479,132.497534 L350.068476,132.497534 L350.068476,102.090854 L358.122222,102.090854 C364.496502,102.090854 368.65286,104.629445 368.65286,111.532361 C368.65286,117.97628 365.13752,121.12003 358.935032,121.12003 L355.991479,121.12003 L355.991479,132.497534 Z" id="Fill-20" fill="#1A1918" mask="url(#mask-2)"></path>
                <path d="M397.443529,116.199266 L398.664026,116.199266 C402.171675,116.199266 404.056267,115.440253 404.056267,111.481077 C404.056267,107.573185 401.797321,107.016746 398.50249,107.016746 L397.443529,107.016746 L397.443529,116.199266 Z M397.443529,132.497534 L391.525654,132.497534 L391.525654,102.090854 L399.59222,102.090854 C405.95368,102.090854 410.102346,104.629445 410.102346,111.532361 C410.102346,117.97628 406.599825,121.12003 400.39221,121.12003 L397.443529,121.12003 L397.443529,132.497534 Z" id="Fill-21" fill="#1A1918" mask="url(#mask-2)"></path>
                <path d="M438.90686,116.080286 L439.676082,116.080286 C442.945272,116.080286 445.232423,115.116134 445.232423,111.40056 C445.232423,107.661907 442.860657,106.933665 439.717107,106.933665 L438.90686,106.933665 L438.90686,116.080286 Z M453.550268,132.496509 L446.375998,132.496509 L438.983782,120.23178 L438.90686,120.23178 L438.90686,132.496509 L432.976165,132.496509 L432.976165,102.089828 L441.001706,102.089828 C447.01958,102.089828 451.170811,104.743809 451.170811,111.239013 C451.170811,115.116134 449.024684,118.975305 444.952939,119.675341 L453.550268,132.496509 Z" id="Fill-22" fill="#1A1918" mask="url(#mask-2)"></path>
                <path d="M489.249312,107.136752 C483.639126,107.136752 480.32891,112.088287 480.32891,117.003923 C480.32891,121.69647 482.677599,127.460867 489.249312,127.460867 C495.821026,127.460867 498.159458,121.69647 498.159458,117.003923 C498.159458,112.088287 494.849243,107.136752 489.249312,107.136752 M489.249312,133.302191 C479.967376,133.302191 474.211038,126.206957 474.211038,117.247525 C474.211038,108.218859 480.169938,101.287736 489.249312,101.287736 C498.308174,101.287736 504.279895,108.218859 504.279895,117.247525 C504.279895,126.206957 498.510736,133.302191 489.249312,133.302191" id="Fill-23" fill="#1A1918" mask="url(#mask-2)"></path>
                <polygon id="Fill-24" fill="#1A1918" mask="url(#mask-2)" points="538.287165 122.574976 538.37178 122.574976 545.128106 102.091879 551.512642 102.091879 539.687148 133.301165 536.230781 133.301165 524.610412 102.091879 530.98982 102.091879"></polygon>
                <polygon id="Fill-25" fill="#1A1918" mask="url(#mask-2)" points="579.214606 107.250861 579.214606 113.948638 588.650386 113.948638 588.650386 119.118133 579.214606 119.118133 579.214606 127.333937 589.01192 127.333937 589.01192 132.498303 573.291603 132.498303 573.291603 102.091623 589.01192 102.091623 589.01192 107.250861"></polygon>
                <path d="M619.065394,127.332655 L620.037176,127.332655 C627.329394,127.332655 630.155,123.296552 630.155,117.296245 C630.155,110.680523 626.762734,107.249578 620.037176,107.249578 L619.065394,107.249578 L619.065394,127.332655 Z M613.134698,102.090341 L621.608952,102.090341 C630.393458,102.090341 636.288257,108.665035 636.288257,117.337273 C636.288257,125.878735 630.229358,132.497021 621.565363,132.497021 L613.134698,132.497021 L613.134698,102.090341 Z" id="Fill-26" fill="#1A1918" mask="url(#mask-2)"></path>
            </g>
        </g>
    </g>
</svg>