<?xml version="1.0" encoding="UTF-8" standalone="no"?>
<svg width="80px" height="80px" viewBox="0 0 80 80" version="1.1" xmlns="http://www.w3.org/2000/svg" xmlns:xlink="http://www.w3.org/1999/xlink">
    <!-- Generator: Sketch 3.7.2 (28276) - http://www.bohemiancoding.com/sketch -->
    <title>Slice 1</title>
    <desc>Created with Sketch.</desc>
    <defs></defs>
    <g id="Page-1" stroke="none" stroke-width="1" fill="none" fill-rule="evenodd">
        <g id="parcel" transform="translate(1.000000, 1.000000)">
            <path d="M66.9417722,17.8708861 C66.9417722,17.8708861 66.9417722,17.7721519 66.9417722,17.8708861 C66.9417722,17.7721519 66.9417722,17.7721519 66.843038,17.6734177 L66.843038,17.6734177 L66.7443038,17.5746835 L66.7443038,17.5746835 L66.6455696,17.4759494 L66.6455696,17.4759494 L33.7670886,0.987341772 C33.5696203,0.888607595 33.3721519,0.888607595 33.1746835,0.987341772 L14.7113924,10.2683544 C14.5139241,10.2683544 14.3164557,10.3670886 14.2177215,10.564557 L0.394936709,17.4759494 L0.394936709,17.4759494 C0.394936709,17.4759494 0.296202532,17.4759494 0.296202532,17.5746835 L0.296202532,17.5746835 L0.197468354,17.6734177 L0.197468354,17.6734177 C0.197468354,17.6734177 0.197468354,17.7721519 0.0987341772,17.7721519 L0.0987341772,17.7721519 L0.0987341772,17.9696203 L0.0987341772,60.721519 C0.0987341772,61.0177215 0.197468354,61.2151899 0.493670886,61.3139241 L33.1746835,78 L33.1746835,78 L33.2734177,78 L33.2734177,78 L33.3721519,78 L33.4708861,78 L33.4708861,78 L33.5696203,78 L33.5696203,78 L66.4481013,61.3139241 C66.6455696,61.2151899 66.843038,61.0177215 66.843038,60.721519 L66.843038,17.9696203 C67.0405063,17.9696203 67.0405063,17.8708861 66.9417722,17.8708861 L66.9417722,17.8708861 Z M33.4708861,2.27088608 L64.8683544,17.9696203 L54.2050633,23.3012658 L22.8075949,7.70126582 L33.4708861,2.27088608 L33.4708861,2.27088608 Z M47.3924051,26.4607595 L16.2911392,10.9594937 L21.3265823,8.39240506 L52.7240506,24.0911392 L47.5898734,26.6582278 C47.5898734,26.5594937 47.4911392,26.5594937 47.3924051,26.4607595 L47.3924051,26.4607595 Z M47.7873418,28.0405063 L53.2177215,25.2759494 L53.2177215,40.1848101 L47.7873418,43.1468354 L47.7873418,28.0405063 L47.7873418,28.0405063 Z M14.8101266,11.6506329 L46.2075949,27.3493671 L33.4708861,33.6683544 L2.07341772,17.9696203 L14.8101266,11.6506329 L14.8101266,11.6506329 Z M1.2835443,19.0556962 L32.878481,34.8531646 L32.878481,76.321519 L1.2835443,60.3265823 L1.2835443,19.0556962 L1.2835443,19.0556962 Z M34.1620253,76.321519 L34.1620253,34.8531646 L46.5037975,28.7316456 L46.5037975,44.3316456 C46.5037975,44.5291139 46.6025316,44.8253165 46.8,44.9240506 C46.8987342,45.0227848 46.9974684,45.0227848 47.0962025,45.0227848 C47.1949367,45.0227848 47.2936709,45.0227848 47.3924051,44.9240506 L54.2050633,41.2708861 C54.4025316,41.1721519 54.5012658,40.9746835 54.5012658,40.678481 L54.5012658,24.6835443 L65.6582278,19.1544304 L65.6582278,60.4253165 L34.1620253,76.321519 L34.1620253,76.321519 Z" id="Shape" fill="#333333"></path>
            <ellipse id="Oval-1" stroke="#333333" fill="#FFFFFF" cx="66.1518987" cy="59.2405063" rx="11.8481013" ry="11.8481013"></ellipse>
            <path d="M70.4933772,54.5194848 C69.2248618,53.3658538 67.5745451,52.7675524 65.8431929,52.8267977 C64.0840499,52.8903657 62.4680173,53.6348734 61.2924848,54.9235226 C60.2086366,56.1114802 59.6081436,57.6648263 59.5587951,59.3638702 L58.2318408,57.5079407 C58.1497665,57.3927556 57.9879554,57.3650399 57.8702983,57.4453898 C57.7526411,57.525994 57.7243307,57.6844053 57.806405,57.7995904 L59.6245065,60.3423079 C59.6289219,60.3484104 59.6361943,60.3514617 59.6411292,60.3570556 C59.6572324,60.3758718 59.6748939,60.3918909 59.6959319,60.4056216 C59.7063211,60.4124869 59.7164505,60.4183351 59.7278786,60.4234206 C59.7489166,60.4330829 59.7709936,60.4386769 59.7946289,60.442491 C59.8039791,60.4440166 59.8120307,60.4496106 59.821381,60.4501191 C59.8265755,60.4503734 59.8320298,60.4506277 59.8372244,60.4506277 C59.8406009,60.4506277 59.8434579,60.4488477 59.8468344,60.4485935 C59.8504706,60.4485935 59.8533276,60.4501191 59.8569638,60.4498648 C59.8746254,60.4485935 59.8894299,60.4409653 59.9057928,60.4363884 C59.9203376,60.4323201 59.9351422,60.4310487 59.9486481,60.4246919 C59.9720237,60.4137582 59.9909839,60.3979934 60.0096843,60.3812115 C60.0159178,60.3756175 60.0244889,60.3728205 60.0302029,60.366718 L62.367762,57.8240005 C62.4638617,57.7194948 62.4550309,57.558795 62.3485421,57.4649687 C62.2420533,57.3706339 62.077645,57.3797877 61.981805,57.4837849 L60.0748763,59.5581338 C60.0826681,57.9089272 60.641085,56.4010957 61.6800002,55.2624668 C62.7607317,54.078069 64.2461206,53.3938237 65.8624129,53.3353412 C67.4519531,53.2786386 68.9729249,53.8309169 70.1398863,54.8922472 C71.3068478,55.9535775 71.9816232,57.3960611 72.0400621,58.9542384 C72.09954,60.5121614 71.5348896,61.9993969 70.4507817,63.1418399 C69.3666737,64.2842828 67.8929726,64.9448809 66.3013545,65.0018377 C66.1579842,65.0071774 66.0460411,65.1249053 66.0512357,65.2652633 C66.0564303,65.4023157 66.1714901,65.510127 66.3107048,65.510127 C66.3138215,65.510127 66.317198,65.510127 66.3203147,65.5098727 C68.0508877,65.4475761 69.6528948,64.7295127 70.8312844,63.4876494 C72.0099336,62.2455319 72.6236727,60.6288721 72.55926,58.935168 C72.4956264,57.2414639 71.7621523,55.67337 70.4933772,54.5194848 L70.4933772,54.5194848 Z" id="Shape" stroke="#333333" stroke-width="0.5" fill="#333333"></path>
        </g>
        <g id="refresh" transform="translate(61.000000, 48.000000)"></g>
    </g>
</svg>