<?xml version="1.0" encoding="UTF-8" standalone="no"?>
<svg width="180px" height="180px" viewBox="0 0 180 180" version="1.1" xmlns="http://www.w3.org/2000/svg" xmlns:xlink="http://www.w3.org/1999/xlink" xmlns:sketch="http://www.bohemiancoding.com/sketch/ns">
    <!-- Generator: Sketch 3.4.4 (17249) - http://www.bohemiancoding.com/sketch -->
    <title>ruler</title>
    <desc>Created with Sketch.</desc>
    <defs></defs>
    <g id="Page-1" stroke="none" stroke-width="1" fill="none" fill-rule="evenodd" sketch:type="MSPage">
        <g id="ruler" sketch:type="MSArtboardGroup" fill="#B6BE00">
            <g id="ruler-2" sketch:type="MSLayerGroup" transform="translate(1.000000, 1.000000)">
                <g id="Layer_1" sketch:type="MSShapeGroup">
                    <g id="Group">
                        <path d="M175.866719,171.69129 L5.03707259,0.864594182 C4.19608507,0.0206558337 2.92722672,-0.230165004 1.8206642,0.224263337 C0.717052512,0.681642512 0,1.7586967 0,2.95083338 L0,174.09917 C0,175.72803 1.31902252,177.050003 2.95083338,177.050003 L174.09917,177.050003 C174.122776,177.052954 174.146383,177.050003 174.155236,177.050003 C175.787046,177.050003 177.106069,175.72803 177.106069,174.09917 C177.106069,173.104739 176.616231,172.22539 175.866719,171.69129 L175.866719,171.69129 Z M5.90166677,171.148336 L5.90166677,10.0741452 L28.2866888,32.4591672 L21.5204279,39.2254282 C20.366652,40.379204 20.366652,42.2441307 21.5204279,43.3979066 C22.0958404,43.9733191 22.8512537,44.2625008 23.6066671,44.2625008 C24.3620804,44.2625008 25.1174938,43.9733191 25.6929063,43.3979066 L32.4591672,36.6316456 L47.4671058,51.6395842 L39.2254282,59.8812619 C38.0716523,61.0350377 38.0716523,62.8999644 39.2254282,64.0537403 C39.8008407,64.6291528 40.556254,64.9183345 41.3116674,64.9183345 C42.0670807,64.9183345 42.8224941,64.6291528 43.3979066,64.0537403 L51.6395842,55.8120626 L65.1721061,69.3445845 L56.9304285,77.5862622 C55.7766526,78.740038 55.7766526,80.6049647 56.9304285,81.7587406 C57.505841,82.3341531 58.2612543,82.6233348 59.0166677,82.6233348 C59.772081,82.6233348 60.5274944,82.3341531 61.1029069,81.7587406 L69.3445845,73.5170629 L84.3525231,88.5250015 L77.5862622,95.2912625 C76.4324863,96.4450383 76.4324863,98.309965 77.5862622,99.4637409 C78.1616747,100.039153 78.917088,100.328335 79.6725014,100.328335 C80.4279147,100.328335 81.1833281,100.039153 81.7587406,99.4637409 L88.5250015,92.6974799 L103.53294,107.705419 L95.2912625,115.947096 C94.1374866,117.100872 94.1374866,118.965799 95.2912625,120.119575 C95.866675,120.694987 96.6220883,120.984169 97.3775017,120.984169 C98.132915,120.984169 98.8883284,120.694987 99.4637409,120.119575 L107.705419,111.877897 L121.23794,125.410419 L112.996263,133.652096 C111.842487,134.805872 111.842487,136.670799 112.996263,137.824575 C113.571675,138.399987 114.327089,138.689169 115.082502,138.689169 C115.837915,138.689169 116.593329,138.399987 117.168741,137.824575 L125.410419,129.582897 L140.418357,144.590836 L133.652096,151.357097 C132.498321,152.510873 132.498321,154.375799 133.652096,155.529575 C134.227509,156.104988 134.982922,156.394169 135.738336,156.394169 C136.493749,156.394169 137.249162,156.104988 137.824575,155.529575 L144.590836,148.763314 L166.975858,171.148336 L5.90166677,171.148336 L5.90166677,171.148336 Z" id="Shape"></path>
                        <path d="M28.6437397,71.6845954 C27.8027521,70.8406571 26.5338938,70.5898362 25.4273313,71.0442646 C24.3237196,71.5016437 23.6066671,72.5786979 23.6066671,73.7708346 L23.6066671,150.492503 C23.6066671,152.121363 24.9256896,153.443336 26.5575005,153.443336 L103.279168,153.443336 C104.471305,153.443336 105.548359,152.723333 106.005738,151.622672 C106.463118,150.51906 106.209346,149.250202 105.365408,148.406263 L28.6437397,71.6845954 L28.6437397,71.6845954 Z M29.5083338,147.541669 L29.5083338,80.8941464 L96.1558567,147.541669 L29.5083338,147.541669 L29.5083338,147.541669 Z" id="Shape"></path>
                    </g>
                </g>
            </g>
        </g>
    </g>
</svg>