<?xml version="1.0" encoding="UTF-8" standalone="no"?>
<svg width="80px" height="80px" viewBox="0 0 80 80" version="1.1" xmlns="http://www.w3.org/2000/svg" xmlns:xlink="http://www.w3.org/1999/xlink">
    <!-- Generator: Sketch 3.7.2 (28276) - http://www.bohemiancoding.com/sketch -->
    <title>Slice 1</title>
    <desc>Created with Sketch.</desc>
    <defs></defs>
    <g id="Page-1" stroke="none" stroke-width="1" fill="none" fill-rule="evenodd">
        <g id="shopping_bags" transform="translate(7.000000, 0.000000)">
            <g id="Group">
                <path d="M10.4691358,43.9506173 C10.0740741,43.9506173 9.87654321,44.2469136 9.87654321,44.5432099 L9.87654321,49.1851852 C9.87654321,53.4320988 13.3333333,56.8888889 17.5802469,56.8888889 C21.8271605,56.8888889 25.2839506,53.4320988 25.2839506,49.1851852 L25.2839506,44.5432099 C25.2839506,44.1481481 24.9876543,43.9506173 24.691358,43.9506173 C24.2962963,43.9506173 24.0987654,44.2469136 24.0987654,44.5432099 L24.0987654,49.1851852 C24.0987654,52.7407407 21.2345679,55.6049383 17.6790123,55.6049383 C14.1234568,55.6049383 11.2592593,52.7407407 11.2592593,49.1851852 L11.2592593,44.5432099 C11.1604938,44.2469136 10.8641975,43.9506173 10.4691358,43.9506173 L10.4691358,43.9506173 Z" id="Shape" fill="#000000"></path>
                <path d="M49.1851852,26.0740741 C49.1851852,25.6790123 48.8888889,25.4814815 48.5925926,25.4814815 C48.1975309,25.4814815 48,25.7777778 48,26.0740741 L48,30.8148148 C48,31.6049383 47.8024691,32.2962963 47.6049383,32.8888889 L45.4320988,29.2345679 C45.2345679,28.9382716 44.9382716,28.8395062 44.6419753,28.9382716 L35.8518519,32.0987654 C35.654321,32.1975309 35.5555556,32.2962963 35.4567901,32.4938272 L28.7407407,50.8641975 C28.6419753,51.0617284 28.6419753,51.1604938 28.7407407,51.3580247 C28.8395062,51.5555556 28.9382716,51.654321 29.1358025,51.654321 L42.4691358,56.5925926 L42.6666667,56.5925926 C42.962963,56.5925926 43.1604938,56.3950617 43.2592593,56.1975309 L49.9753086,37.8271605 C50.0740741,37.6296296 49.9753086,37.4320988 49.9753086,37.3333333 L48.1975309,34.1728395 C48.7901235,33.1851852 49.1851852,32 49.1851852,30.7160494 L49.1851852,26.0740741 L49.1851852,26.0740741 Z M42.0740741,37.3333333 L42.5679012,37.3333333 C43.1604938,37.3333333 43.654321,37.2345679 44.1481481,37.1358025 C44.1481481,37.2345679 44.1481481,37.3333333 44.0493827,37.3333333 C43.7530864,38.1234568 43.0617284,38.617284 42.1728395,38.617284 C41.9753086,38.617284 41.6790123,38.617284 41.4814815,38.5185185 C40.4938272,38.1234568 39.9012346,37.037037 40.2962963,35.9506173 C40.5925926,35.1604938 41.2839506,34.6666667 42.1728395,34.6666667 C42.3703704,34.6666667 42.6666667,34.6666667 42.8641975,34.7654321 C43.3580247,34.962963 43.7530864,35.3580247 43.9506173,35.7530864 C43.4567901,35.8518519 42.962963,35.9506173 42.4691358,35.9506173 L42.0740741,35.9506173 C41.6790123,35.9506173 41.382716,36.1481481 41.382716,36.5432099 C41.4814815,37.037037 41.7777778,37.3333333 42.0740741,37.3333333 L42.0740741,37.3333333 Z" id="Shape" fill="#000000"></path>
                <path d="M48.7901235,37.7283951 L42.3703704,55.308642 L30.2222222,50.8641975 L36.6419753,33.382716 L44.6419753,30.4197531 L46.8148148,34.1728395 C46.4197531,34.6666667 45.9259259,35.1604938 45.3333333,35.4567901 C44.9382716,34.6666667 44.345679,34.0740741 43.4567901,33.7777778 C43.0617284,33.6790123 42.7654321,33.5802469 42.3703704,33.5802469 C40.9876543,33.5802469 39.8024691,34.4691358 39.308642,35.7530864 C38.7160494,37.4320988 39.6049383,39.308642 41.2839506,39.9012346 C41.6790123,40 41.9753086,40.0987654 42.3703704,40.0987654 C43.7530864,40.0987654 44.9382716,39.2098765 45.4320988,37.9259259 C45.5308642,37.5308642 45.6296296,37.1358025 45.6296296,36.7407407 C46.3209877,36.345679 47.0123457,35.9506173 47.5061728,35.3580247 L48.7901235,37.7283951 L48.7901235,37.7283951 Z" id="Path" fill="#FFFFFF"></path>
                <path d="M61.1358025,18.2716049 C61.1358025,17.9753086 60.8395062,17.6790123 60.5432099,17.6790123 L49.1851852,17.6790123 L49.1851852,13.1358025 C49.1851852,6.22222222 43.5555556,0.592592593 36.6419753,0.592592593 C29.7283951,0.592592593 24.0987654,6.22222222 24.0987654,13.1358025 L24.0987654,17.6790123 L12.6419753,17.6790123 C12.345679,17.6790123 12.0493827,17.9753086 12.0493827,18.2716049 L10.962963,37.2345679 C10.962963,37.6296296 11.2592593,37.9259259 11.5555556,37.9259259 C11.9506173,37.9259259 12.2469136,37.6296296 12.2469136,37.3333333 L13.2345679,18.962963 L24,18.962963 L24,21.037037 C24,21.4320988 24.2962963,21.6296296 24.5925926,21.6296296 C24.9876543,21.6296296 25.1851852,21.3333333 25.1851852,21.037037 L25.1851852,18.962963 L47.8024691,18.962963 L47.8024691,21.037037 C47.8024691,21.4320988 48.0987654,21.6296296 48.3950617,21.6296296 C48.7901235,21.6296296 48.9876543,21.3333333 48.9876543,21.037037 L48.9876543,18.962963 L59.654321,18.962963 L63.6049383,74.4691358 L40.3950617,74.4691358 C40,74.4691358 39.8024691,74.7654321 39.8024691,75.0617284 C39.8024691,75.4567901 40.0987654,75.654321 40.3950617,75.654321 L64.5925926,75.654321 C64.7901235,75.654321 64.9876543,75.5555556 65.0864198,75.4567901 C65.1851852,75.3580247 65.2839506,75.1604938 65.2839506,74.962963 L61.1358025,18.2716049 L61.1358025,18.2716049 Z M25.2839506,17.6790123 L25.2839506,13.1358025 C25.2839506,6.91358025 30.3209877,1.87654321 36.5432099,1.87654321 C42.7654321,1.87654321 47.9012346,6.91358025 47.9012346,13.2345679 L47.9012346,17.7777778 L25.2839506,17.7777778 L25.2839506,17.6790123 Z" id="Shape" fill="#000000"></path>
                <path d="M35.2592593,59.0617284 C34.8641975,59.0617284 34.6666667,59.3580247 34.6666667,59.7530864 L35.9506173,78.617284 L1.28395062,78.617284 L3.45679012,40.8888889 L26.962963,40.8888889 C27.3580247,40.8888889 27.5555556,40.5925926 27.5555556,40.2962963 C27.5555556,39.9012346 27.2592593,39.7037037 26.962963,39.7037037 L2.86419753,39.7037037 C2.56790123,39.7037037 2.27160494,40 2.27160494,40.2962963 L0,79.2098765 C0,79.4074074 0.0987654321,79.6049383 0.197530864,79.7037037 C0.296296296,79.8024691 0.49382716,79.9012346 0.691358025,79.9012346 L36.7407407,79.9012346 C36.9382716,79.9012346 37.1358025,79.8024691 37.2345679,79.7037037 C37.3333333,79.6049383 37.4320988,79.4074074 37.4320988,79.2098765 L36.0493827,59.654321 C35.9506173,59.3580247 35.654321,59.0617284 35.2592593,59.0617284 L35.2592593,59.0617284 Z" id="Shape" fill="#000000"></path>
            </g>
        </g>
    </g>
</svg>