<?xml version="1.0" encoding="UTF-8" standalone="no"?>
<svg width="180px" height="180px" viewBox="0 0 180 180" version="1.1" xmlns="http://www.w3.org/2000/svg" xmlns:xlink="http://www.w3.org/1999/xlink" xmlns:sketch="http://www.bohemiancoding.com/sketch/ns">
    <!-- Generator: Sketch 3.4.4 (17249) - http://www.bohemiancoding.com/sketch -->
    <title>shopping_cart</title>
    <desc>Created with Sketch.</desc>
    <defs></defs>
    <g id="Page-1" stroke="none" stroke-width="1" fill="none" fill-rule="evenodd" sketch:type="MSPage">
        <g id="shopping_cart" sketch:type="MSArtboardGroup" fill="#B6BE00">
            <path d="M177.000706,16.000356 L150.522767,16.000356 C149.13977,16.000356 147.933773,16.9483538 147.606773,18.2953507 L138.312795,56.6652632 L115.011848,28.4353276 C114.480849,27.7903291 113.703851,27.39733 112.866853,27.3493301 C112.017855,27.2983302 111.213857,27.6073295 110.613858,28.1893282 L104.604872,34.0003149 L69.0009529,34.0003149 C67.3449566,34.0003149 66.0009597,35.3443118 66.0009597,37.0003081 L66.0009597,58.0002601 L46.9360032,58.0002601 L24.6460541,8.76137249 C24.3130548,8.02937416 23.7010562,7.45937546 22.9450579,7.18337609 C22.1890597,6.90437673 21.3550616,6.94637663 20.6260632,7.29137585 L1.71410639,16.2913553 C0.256109718,16.9813537 -0.391888803,18.7003498 0.244109746,20.1823464 L16.4530728,58.0002601 L3.00110345,58.0002601 C2.04710563,58.0002601 1.14710769,58.4562591 0.580108979,59.2272573 C0.0161102661,59.9982556 -0.148889357,60.9912533 0.139109985,61.9032512 L22.8340582,133.903087 C23.2300573,135.151084 24.3880547,136.000082 25.6960517,136.000082 L119.094839,136.000082 L117.642842,142.000068 L36.0010282,142.000068 C27.730047,142.000068 21.0010624,148.729053 21.0010624,157.000034 C21.0010624,165.271015 27.730047,172 36.0010282,172 C44.2720093,172 51.0009939,165.271015 51.0009939,157.000034 C51.0009939,153.610042 49.8279966,150.514049 47.9230009,148.000055 L105.075871,148.000055 C103.173875,150.514049 102.000878,153.610042 102.000878,157.000034 C102.000878,165.271015 108.729862,172 117.000843,172 C125.271824,172 132.000809,165.271015 132.000809,157.000034 C132.000809,151.045048 128.484817,145.936059 123.447829,143.515065 L125.682824,134.293086 C125.871823,133.897087 126.000823,133.468088 126.000823,133.000089 C126.000823,132.994089 125.997823,132.991089 125.997823,132.985089 L152.880761,22.0003423 L177.000706,22.0003423 C178.656703,22.0003423 180.0007,20.6563453 180.0007,19.0003491 C180.0007,17.3443529 178.656703,16.000356 177.000706,16.000356 L177.000706,16.000356 Z M45.0010076,157.000034 C45.0010076,161.962023 40.9630168,166.000014 36.0010282,166.000014 C31.0390395,166.000014 27.0010487,161.962023 27.0010487,157.000034 C27.0010487,152.038046 31.0390395,148.000055 36.0010282,148.000055 C40.9630168,148.000055 45.0010076,152.038046 45.0010076,157.000034 L45.0010076,157.000034 Z M117.000843,166.000014 C112.038855,166.000014 108.000864,161.962023 108.000864,157.000034 C108.000864,152.038046 112.038855,148.000055 117.000843,148.000055 C121.962832,148.000055 126.000823,152.038046 126.000823,157.000034 C126.000823,161.962023 121.962832,166.000014 117.000843,166.000014 L117.000843,166.000014 Z M112.449854,34.7593132 L131.63481,58.0002601 L88.4169085,58.0002601 L112.449854,34.7593132 L112.449854,34.7593132 Z M72.000946,40.0003012 L98.4008858,40.0003012 L79.7889282,58.0002601 L72.000946,58.0002601 L72.000946,40.0003012 L72.000946,40.0003012 Z M6.89509457,20.4673458 L20.4430637,14.0233605 L40.3480182,58.0002601 L22.9780579,58.0002601 L6.89509457,20.4673458 L6.89509457,20.4673458 Z M27.8980466,130.000096 L7.09309412,64.0002464 L20.9920624,64.0002464 C20.9950624,64.0002464 20.9980624,64.0032464 21.0010624,64.0032464 C21.0040624,64.0032464 21.0070624,64.0002464 21.0100624,64.0002464 L136.533799,64.0002464 L120.546835,130.000096 L27.8980466,130.000096 L27.8980466,130.000096 Z" id="Shape" sketch:type="MSShapeGroup"></path>
        </g>
    </g>
</svg>