<?xml version="1.0" encoding="UTF-8" standalone="no"?>
<svg width="80px" height="80px" viewBox="0 0 80 80" version="1.1" xmlns="http://www.w3.org/2000/svg" xmlns:xlink="http://www.w3.org/1999/xlink">
    <!-- Generator: Sketch 3.7.2 (28276) - http://www.bohemiancoding.com/sketch -->
    <title>Slice 1</title>
    <desc>Created with Sketch.</desc>
    <defs></defs>
    <g id="Page-1" stroke="none" stroke-width="1" fill="none" fill-rule="evenodd">
        <g id="wallet" transform="translate(3.000000, 0.000000)">
            <g id="Group">
                <path d="M66.6,13 L64.9,13 C64.2,12.1 63.2,11.5 62,11.2 L20.8,0.2 C17.7,-0.6 14.6,1.2 13.7,4.3 L11.4,13 L5.9,13 L5.9,13 L5.8,13 C2.8,13 0.3,15.5 0.3,18.5 L0.3,66.2 C0.3,69.3 2.7,71.7 6.6,72.7 L48.4,79.9 L48.5,79.9 C52.1,79.9 55,77 55,73.4 L55,63.2 L66.5,63.2 C70.1,63.2 73,60.3 73,56.7 L73,29.8 L73,19.5 L73,19.5 C73,15.9 70.1,13 66.6,13 L66.6,13 Z M5.9,14.5 L11.1,14.5 L8.8,23.2 L6.3,22.8 L6.1,22.8 C6,22.8 5.8,22.7 5.7,22.7 C3.4,22.4 1.8,20.7 1.8,18.6 C1.8,16.3 3.6,14.5 5.9,14.5 L5.9,14.5 Z M53.6,73.5 C53.6,76.3 51.4,78.5 48.6,78.6 L7,71.4 C5.4,71 1.8,69.7 1.8,66.3 L1.8,22.2 C2.7,23.2 4,23.9 5.5,24.1 C5.6,24.1 5.7,24.1 5.8,24.2 C5.9,24.2 6,24.2 6.1,24.3 L48.5,31.4 L48.6,31.4 C51.4,31.4 53.7,33.7 53.7,36.5 L53.7,73.5 L53.6,73.5 Z M71.6,56.7 C71.6,59.5 69.3,61.8 66.5,61.8 L55.1,61.8 L55.1,36.3 C55.1,35.3 54.8,34.3 54.4,33.4 L66.8,33.4 L66.8,32 L53.4,32 C52.2,30.7 50.5,29.9 48.7,29.9 L27.1,26.3 L66.7,26.3 L66.7,24.9 L64.2,24.9 L66,18.3 C66.3,17 66.2,15.7 65.7,14.5 L66.5,14.5 C69.3,14.5 71.6,16.8 71.6,19.6 L71.6,29.9 L71.6,56.7 L71.6,56.7 Z" id="Shape" fill="#333333"></path>
                <path d="M15.1,4.6 C15.7,2.3 18.1,0.9 20.4,1.5 L61.6,12.5 C63.9,13.1 65.3,15.5 64.7,17.8 L62.7,24.7 L18.7,24.7 L18.7,24.7 L10.2,23.3 L15.1,4.6 L15.1,4.6 Z" id="Path" fill="#FFFFFF"></path>
                <path d="M42.2,46.4 L41.6,46.4 C38.8,46.8 36.9,49.9 37.3,53.4 C37.7,56.7 40,59.1 42.6,59.1 L43.2,59.1 C46,58.7 47.9,55.6 47.5,52.1 C47.2,48.8 44.9,46.4 42.2,46.4 L42.2,46.4 Z M43,57.6 L42.6,57.6 C40.7,57.6 39,55.6 38.7,53.2 C38.4,50.5 39.8,48.1 41.8,47.8 L42.2,47.8 C44.1,47.8 45.8,49.8 46.1,52.2 C46.4,54.9 45.1,57.4 43,57.6 L43,57.6 Z" id="Shape" fill="#333333"></path>
            </g>
        </g>
    </g>
</svg>