<?xml version="1.0" encoding="utf-8"?>
<!-- Generator: Adobe Illustrator 16.0.3, SVG Export Plug-In . SVG Version: 6.00 Build 0)  -->
<!DOCTYPE svg PUBLIC "-//W3C//DTD SVG 1.1//EN" "http://www.w3.org/Graphics/SVG/1.1/DTD/svg11.dtd">
<svg version="1.1" xmlns="http://www.w3.org/2000/svg" xmlns:xlink="http://www.w3.org/1999/xlink" x="0px" y="0px" width="24px"
	 height="24px" viewBox="0 0 24 24" enable-background="new 0 0 24 24" xml:space="preserve">
<g id="Outline_Icons_1_">
	<g id="Outline_Icons">
		<g>
			<path d="M3.369,23h16.262C21.488,23,23,21.489,23,19.631v-1.913c0-0.276-0.224-0.5-0.5-0.5s-0.5,0.224-0.5,0.5v1.913
				C22,20.937,20.938,22,19.631,22H3.369C2.062,22,1,20.937,1,19.631v-1.913c0-0.276-0.224-0.5-0.5-0.5S0,17.441,0,17.718v1.913
				C0,21.489,1.512,23,3.369,23z"/>
			<path d="M11.5,0C11.224,0,11,0.224,11,0.5v15.901l-6.146-6.146c-0.195-0.195-0.512-0.195-0.707,0s-0.195,0.512,0,0.707l6.999,7
				c0.19,0.19,0.509,0.201,0.709,0l6.999-7c0.195-0.195,0.195-0.512,0-0.707s-0.512-0.195-0.707,0L12,16.401V0.5
				C12,0.224,11.776,0,11.5,0z"/>
		</g>
	</g>
	<g id="New_icons_1_">
	</g>
</g>
<g id="Invisible_Shape">
	<rect fill="none" width="24" height="24"/>
</g>
</svg>
