<?xml version="1.0" encoding="UTF-8"?>
<svg width="1024px" height="1024px" viewBox="0 0 1024 1024" version="1.1" xmlns="http://www.w3.org/2000/svg" xmlns:xlink="http://www.w3.org/1999/xlink">
    <!-- Generator: Sketch 43.2 (39069) - http://www.bohemiancoding.com/sketch -->
    <title>Slice 1</title>
    <desc>Created with Sketch.</desc>
    <defs></defs>
    <g id="Page-1" stroke="none" stroke-width="1" fill="none" fill-rule="evenodd">
        <g id="present-box">
            <g id="Filled_Icons_1_" fill-rule="nonzero" fill="#B6BE00">
                <g id="Filled_Icons">
                    <g id="Group">
                        <rect id="Rectangle-path" x="0" y="298.666667" width="341.333333" height="170.666667"></rect>
                        <path d="M768.426667,58.8373333 C744.234667,34.6453333 712.106667,21.3333333 677.930667,21.3333333 C643.754667,21.3333333 611.584,34.6453333 587.434667,58.8373333 C559.402667,86.8266667 530.730667,171.946667 512,236.885333 C493.226667,171.946667 464.554667,86.8266667 436.565333,58.8373333 C412.373333,34.6453333 380.245333,21.3333333 346.026667,21.3333333 C311.808,21.3333333 279.68,34.6453333 255.488,58.8373333 C205.610667,108.757333 205.610667,189.952 255.488,239.829333 C275.413333,259.754667 380.202667,301.354667 384,302.72 L384,469.333333 L640,469.333333 L640,302.72 C643.754667,301.397333 748.544,259.712 768.469333,239.829333 C818.346667,189.952 818.346667,108.714667 768.426667,58.8373333 Z M285.653333,209.664 C252.416,176.426667 252.416,122.282667 285.653333,89.0026667 C301.824,72.8746667 323.242667,64 346.026667,64 C368.810667,64 390.229333,72.8746667 406.4,89.0026667 C429.738667,112.341333 461.994667,212.864 482.218667,289.450667 C407.381333,267.434667 309.162667,233.130667 285.653333,209.664 Z M738.261333,209.664 C714.837333,233.130667 616.576,267.434667 541.696,289.450667 C562.005333,212.864 594.218667,112.384 617.6,89.0026667 C633.685333,72.8746667 655.146667,64 677.930667,64 C700.714667,64 722.176,72.8746667 738.261333,89.0026667 C771.498667,122.282667 771.498667,176.426667 738.261333,209.664 Z" id="Shape"></path>
                        <rect id="Rectangle-path" x="682.666667" y="298.666667" width="341.333333" height="170.666667"></rect>
                        <rect id="Rectangle-path" x="682.666667" y="512" width="298.666667" height="512"></rect>
                        <rect id="Rectangle-path" x="42.6666667" y="512" width="298.666667" height="512"></rect>
                        <rect id="Rectangle-path" x="384" y="512" width="256" height="512"></rect>
                    </g>
                </g>
            </g>
            <g id="Invisible_Shape">
                <rect id="Rectangle-path" x="0" y="0" width="1024" height="1024"></rect>
            </g>
        </g>
    </g>
</svg>