<?xml version="1.0" encoding="UTF-8" standalone="no"?>
<!-- Created with Inkscape (http://www.inkscape.org/) -->

<svg
   xmlns:dc="http://purl.org/dc/elements/1.1/"
   xmlns:cc="http://creativecommons.org/ns#"
   xmlns:rdf="http://www.w3.org/1999/02/22-rdf-syntax-ns#"
   xmlns:svg="http://www.w3.org/2000/svg"
   xmlns="http://www.w3.org/2000/svg"
   version="1.1"
   width="535.03937"
   height="265.39371"
   id="svg66999">
  <defs
     id="defs67001" />
  <metadata
     id="metadata67004">
    <rdf:RDF>
      <cc:Work
         rdf:about="">
        <dc:format>image/svg+xml</dc:format>
        <dc:type
           rdf:resource="http://purl.org/dc/dcmitype/StillImage" />
        <dc:title></dc:title>
      </cc:Work>
    </rdf:RDF>
  </metadata>
  <g
     transform="translate(-193.46952,-159.00774)"
     id="layer1">
    <g
       transform="matrix(5.5033827,0,0,5.5033827,-859.82264,-1914.7865)"
       id="g67034">
      <path
         d="m 201.31125,418.99486 0,0.6525 3.9125,0 c -0.0425,1.18875 -0.39125,2.10125 -1.3325,2.89875 -0.89875,0.725 -2.04375,1.2025 -3.2175,1.2025 -2.725,0 -4.95625,-2.26 -4.95625,-4.95625 0,-2.6225 2.29,-4.95625 4.95625,-4.95625 1.7675,0 3.24625,0.89875 4.2175,2.3475 l 0.565,-0.44875 c -1.145,-1.565 -2.75375,-2.55125 -4.73875,-2.55125 -3.13,0 -5.695,2.5225 -5.695,5.6525 0,3.01375 2.57875,5.565 5.6075,5.565 1.53625,0 3.10125,-0.6375 4.145,-1.76875 0.97125,-1.0575 1.17375,-2.26 1.145,-3.6375 l -4.60875,0"
         id="path66892"
         style="fill:#787765;fill-opacity:1;fill-rule:nonzero;stroke:none" />
      <path
         d="m 219.995,419.08236 c 1.81125,0.0288 3.13,-0.95625 3.13,-2.855 0,-0.9275 -0.31875,-1.7975 -1.10125,-2.3475 -0.74,-0.53625 -1.60875,-0.55125 -2.4925,-0.55125 l -1.3625,0 0,10.9275 0.695,0 0,-5.17375 0.3475,0 3.56625,5.17375 0.79625,0 -3.57875,-5.17375 z m -1.13125,-0.6525 0,-4.44875 0.45,0 c 0.6375,0 1.37625,-0.0288 1.95625,0.24625 0.7825,0.3475 1.15875,1.16 1.15875,1.97125 0,0.6525 -0.24625,1.30375 -0.7675,1.725 -0.55125,0.4775 -1.2325,0.50625 -1.91375,0.50625 l -0.88375,0"
         id="path66894"
         style="fill:#787765;fill-opacity:1;fill-rule:evenodd;stroke:none" />
      <path
         d="m 240.80375,413.18361 c -3.0875,0 -5.66625,2.53625 -5.66625,5.60875 0,3.0725 2.59375,5.60875 5.66625,5.60875 3.0725,0 5.66625,-2.53625 5.66625,-5.60875 0,-3.0725 -2.59375,-5.60875 -5.66625,-5.60875 z m 0,0.6525 c 2.71,0 4.97,2.26125 4.97,4.95625 0,2.68125 -2.26,4.95625 -4.97,4.95625 -2.725,0 -4.97125,-2.26 -4.97125,-4.95625 0,-2.695 2.24625,-4.95625 4.97125,-4.95625"
         id="path66896"
         style="fill:#787765;fill-opacity:1;fill-rule:evenodd;stroke:none" />
      <path
         d="m 265.335,419.93736 c 0,0.985 0,2.02875 -0.565,2.75375 -0.53625,0.695 -1.6075,1.0575 -2.44875,1.0575 -0.84,0 -1.9125,-0.3625 -2.44875,-1.0575 -0.565,-0.725 -0.565,-1.76875 -0.565,-2.75375 l 0,-6.60875 -0.69625,0 0,6.81125 c 0,1.11625 0,2.0725 0.73875,2.98625 0.74,0.84 1.87,1.275 2.97125,1.275 1.10125,0 2.23125,-0.435 2.97125,-1.275 0.73875,-0.91375 0.73875,-1.87 0.73875,-2.98625 l 0,-6.81125 -0.69625,0 0,6.60875"
         id="path66898"
         style="fill:#787765;fill-opacity:1;fill-rule:nonzero;stroke:none" />
      <path
         d="m 279.525,419.06736 1.2325,0 c 0.85375,0 1.7675,-0.115 2.43375,-0.695 0.60875,-0.5075 0.91375,-1.37625 0.91375,-2.16 0,-0.85375 -0.31875,-1.68 -0.98625,-2.24625 -0.68125,-0.57875 -1.5075,-0.6375 -2.36125,-0.6375 l -1.9275,0 0,10.9275 0.695,0 0,-5.18875 z m 0,-0.65125 0,-4.435 1.145,0 c 0.66625,0 1.3625,0.015 1.9125,0.435 0.55125,0.405 0.82625,1.08625 0.82625,1.7675 0,0.6375 -0.23125,1.20375 -0.71,1.6375 -0.565,0.5075 -1.2025,0.595 -1.9125,0.595 l -1.26125,0"
         id="path66900"
         style="fill:#787765;fill-opacity:1;fill-rule:evenodd;stroke:none" />
      <path
         d="m 192.03375,408.63111 95.9325,0"
         id="path66902"
         style="fill:none;stroke:#787765;stroke-width:0.64374995;stroke-linecap:butt;stroke-linejoin:miter;stroke-miterlimit:3.86400008;stroke-opacity:1;stroke-dasharray:none" />
      <path
         d="m 213.1125,399.42486 4.045,-21.84125 6.37375,16.84 6.3175,-16.84 4.045,21.84125 -2.0225,0 -2.6875,-14.70125 -5.6525,15.12125 -5.70875,-15.12125 -2.74375,14.70125 -1.96625,0"
         id="path66904"
         style="fill:#02a6ed;fill-opacity:1;fill-rule:nonzero;stroke:none" />
      <path
         d="m 253.52,399.42486 0,-21.7575 10.35625,15.96125 0,-15.415 1.90875,0 0,21.84125 -10.375,-15.96125 0,15.33125 -1.89,0"
         id="path66906"
         style="fill:#02a6ed;fill-opacity:1;fill-rule:nonzero;stroke:none" />
      <path
         d="m 270.28,399.42486 0,-21.7575 10.3575,15.96125 0,-15.415 1.9075,0 0,21.84125 -10.37375,-15.96125 0,15.33125 -1.89125,0"
         id="path66908"
         style="fill:#02a6ed;fill-opacity:1;fill-rule:nonzero;stroke:none" />
      <path
         d="m 207.73,393.70111 -3.74875,-10.36125 -3.74875,10.36125 7.4975,0 z m -11.6175,5.72125 7.81375,-21.95625 7.86875,21.95625 -1.995,0 -1.37875,-3.81 -8.88,0 -1.37875,3.81 -2.05,0"
         id="path66910"
         style="fill:#02a6ed;fill-opacity:1;fill-rule:nonzero;stroke:none" />
      <path
         d="m 247.05625,393.70111 -3.74875,-10.36125 -3.74875,10.36125 7.4975,0 z m -11.6175,5.72125 7.81375,-21.95625 7.86875,21.95625 -1.995,0 -1.37875,-3.81 -8.88,0 -1.37875,3.81 -2.05,0"
         id="path66912"
         style="fill:#02a6ed;fill-opacity:1;fill-rule:nonzero;stroke:none" />
    </g>
  </g>
</svg>
