<?xml version="1.0" encoding="UTF-8" standalone="no"?>
<svg
   xmlns:svg="http://www.w3.org/2000/svg"
   xmlns="http://www.w3.org/2000/svg"
   version="1.1"
   width="552.85773"
   height="162.1862"
   id="svg3073">
  <defs
     id="defs3075" />
  <g
     transform="translate(-73.57112,-451.26908)"
     id="layer1">
    <path
       d="m 527.99718,498.64784 0,10.35911 c -7.87166,-9.32904 -20.71372,-13.88111 -32.93504,-13.88111 -31.49564,0 -53.25292,26.10243 -53.25292,56.56352 0,2.40198 0.13926,4.78147 0.40933,7.13397 3.15766,27.31242 24.25372,49.63196 53.24842,49.63196 12.43273,0 25.4862,-4.76798 32.11639,-15.334 l 0.41382,0 0,11.8075 37.70302,0 0,-106.28095 -37.70302,0 z m 0.38687,60.17549 c -2.55495,9.93179 -10.81341,16.89484 -23.37662,16.89484 -12.57214,0 -20.83067,-6.96305 -23.39908,-16.89484 l -0.0946,-0.40483 c -0.56226,-2.18157 -0.75565,-4.09776 -0.75565,-6.52673 0,-13.05346 8.91069,-24.02881 24.24919,-24.02881 15.325,0 24.22673,10.97535 24.22673,24.02881 0,2.42897 -0.28788,4.74999 -0.85014,6.93156 M 272.77387,495.12494 c -34.1855,0 -64.02135,20.5113 -64.02135,56.76593 0,36.25913 30.03826,56.55902 64.02135,56.55902 34.18551,0 64.01686,-20.5068 64.01686,-56.55902 0,-36.25463 -29.83135,-56.76593 -64.01686,-56.76593 m 0,80.59233 c -15.334,0 -24.24922,-10.36361 -24.24922,-23.8264 0,-13.05346 8.91522,-24.03331 24.24922,-24.03331 15.3295,0 24.23573,10.97985 24.23573,24.03331 0,13.46279 -8.90623,23.8264 -24.23573,23.8264 M 150.67559,495.12494 c -14.71327,0 -25.27932,4.34965 -33.9786,17.19621 l -0.41382,0 0,-13.67421 -37.71205,0 0,106.28544 37.71205,0 0,-55.11063 c 0,-13.26038 4.34512,-24.65405 19.67915,-24.65405 18.6491,0 16.98927,17.81695 16.98927,27.96914 l 0,51.79554 37.70751,0 0,-65.67665 c 0,-26.10693 -11.39367,-44.13079 -39.98351,-44.13079 m 276.71591,2.07319 c -14.71326,0 -27.14149,5.80254 -34.39242,18.8515 l -0.41382,0 0,-17.40761 -37.70751,0 0,106.28543 37.70751,0 0,-42.88032 c 0,-18.23527 5.1773,-32.12088 26.10243,-32.12088 5.79804,0 10.77743,0.62973 15.95474,3.531 l 0,-36.25912 -7.25093,0 z m 167.66059,-21.73929 3.96728,0 c 2.92376,0 8.05159,0.54427 8.05159,-3.20264 0,-2.41997 -3.19815,-2.86528 -5.73507,-2.86528 l -6.2838,0 0,6.06792 z m 7.88512,3.3016 7.11148,10.8629 -3.97181,0 -7.05751,-10.8629 -3.96728,0 0,10.8629 -3.31063,0 0,-23.54302 10.25565,0 c 4.24623,0 8.37995,1.16501 8.37995,6.23436 0,4.62853 -3.25209,6.34231 -7.43985,6.44576 m -3.12617,20.72632 c -11.93791,0 -21.61334,-9.6664 -21.61334,-21.61334 0,-11.93344 9.67543,-21.60434 21.61334,-21.60434 11.93793,0 21.60883,9.6709 21.61783,21.60434 -0.007,11.94694 -9.6799,21.61334 -21.61783,21.61334 m 0,-3.0722 c 10.24215,-0.0144 18.52314,-8.29448 18.53667,-18.54114 -0.0144,-10.23766 -8.29452,-18.51865 -18.53667,-18.53664 -10.23766,0.018 -18.52315,8.29898 -18.54114,18.53664 0.018,10.24666 8.30348,18.52765 18.54114,18.54114"
       id="path42"
       style="fill:#5e5f63;fill-opacity:1;fill-rule:nonzero;stroke:none" />
  </g>
</svg>
