<?xml version="1.0" encoding="UTF-8"?>
<svg width="205px" height="40px" viewBox="0 0 205 40" version="1.1" xmlns="http://www.w3.org/2000/svg" xmlns:xlink="http://www.w3.org/1999/xlink">
    <!-- Generator: Sketch 43.2 (39069) - http://www.bohemiancoding.com/sketch -->
    <title>Slice 1</title>
    <desc>Created with Sketch.</desc>
    <defs></defs>
    <g id="Page-1" stroke="none" stroke-width="1" fill="none" fill-rule="evenodd">
        <g id="logo_alternative" fill-rule="nonzero">
            <path d="M103.5015,5.5443 C103.5015,3.5693 102.4845,2.3903 100.7835,2.3903 C99.0835,2.3903 98.0665,3.5693 98.0665,5.5443 L98.0665,23.4843 C98.0665,28.7233 94.5965,32.8253 90.1655,32.8253 C85.4835,32.8253 82.2165,28.9843 82.2165,23.4843 L82.2165,5.5443 C82.2165,3.5693 81.1995,2.3903 79.4995,2.3903 C77.7985,2.3903 76.7815,3.5693 76.7815,5.5443 L76.7815,23.8973 C76.7815,31.9203 82.6595,38.2053 90.1655,38.2053 C97.6435,38.2053 103.5015,31.9203 103.5015,23.8973 L103.5015,5.5443 Z" id="Fill-1" fill="#666666"></path>
            <path d="M140.5313,5.5443 C140.5313,3.5693 139.5153,2.3903 137.8143,2.3903 C136.1133,2.3903 135.0963,3.5693 135.0963,5.5443 L135.0963,25.8333 L135.1213,27.6433 L133.8393,25.8333 L118.8423,3.7433 C118.3703,3.0223 117.1583,2.3903 116.5293,2.3903 C114.8283,2.3903 113.8113,3.5693 113.8113,5.5443 L113.8113,34.7443 C113.8113,36.7193 114.8283,37.8973 116.5293,37.8973 C118.2293,37.8973 119.2463,36.7193 119.2463,34.7443 L119.2463,14.7113 L119.2453,12.9983 L120.5013,14.7113 L135.4993,36.5403 C136.0103,37.2663 137.2033,37.8973 137.8143,37.8973 C139.5153,37.8973 140.5313,36.7193 140.5313,34.7443 L140.5313,5.5443 Z" id="Fill-3" fill="#666666"></path>
            <path d="M68.9272,32.7767 L59.8562,32.7767 L59.8582,32.2077 L59.8582,5.5447 C59.8582,3.5687 58.8432,2.3897 57.1422,2.3897 C55.4402,2.3897 54.4242,3.5687 54.4242,5.5447 L54.4242,34.2307 C54.4242,36.3657 55.4662,37.5887 57.2812,37.5887 L59.6852,37.5887 L59.8332,37.5887 L68.9272,37.5887 C70.5392,37.5887 71.2742,36.3417 71.2742,35.1837 C71.2742,34.0727 70.6592,32.7767 68.9272,32.7767" id="Fill-5" fill="#666666"></path>
            <path d="M202.04,32.7767 L192.892,32.7767 L192.908,21.8447 L200.866,21.8447 C202.478,21.8447 203.213,20.5967 203.213,19.4377 C203.213,18.3287 202.598,17.0317 200.866,17.0317 L192.916,17.0317 L192.917,16.5227 L192.917,8.0797 L192.919,8.0797 L192.919,7.5117 L202.04,7.5117 C203.654,7.5117 204.387,6.2637 204.387,5.1057 C204.387,3.9957 203.773,2.6987 202.04,2.6987 L192.919,2.6987 L192.799,2.6987 L190.338,2.6987 C187.853,2.6987 187.482,4.9647 187.482,5.5377 L187.482,33.8137 C187.482,36.3817 188.611,37.5887 190.292,37.5887 L192.799,37.5887 L192.885,37.5887 L202.04,37.5887 C203.654,37.5887 204.387,36.3417 204.387,35.1837 C204.387,34.0727 203.773,32.7767 202.04,32.7767" id="Fill-7" fill="#666666"></path>
            <path d="M175.3711,16.8319 L174.3091,16.8319 L174.3081,16.8329 L164.9581,16.8329 C163.2251,16.8329 162.6121,18.1299 162.6121,19.2399 C162.6121,20.3989 163.3461,21.6459 164.9581,21.6459 L172.9231,21.6459 L172.9801,22.2129 L172.9801,23.8459 C172.9801,30.0489 168.6131,32.8249 164.2851,32.8249 C157.7001,32.8249 154.7531,26.4559 154.7531,20.1439 C154.7531,11.3849 159.5411,7.4629 164.2851,7.4629 C166.6661,7.4629 168.2791,8.0069 169.5171,8.6829 L170.2361,9.0909 C170.5451,9.2359 170.8851,9.3149 171.2411,9.3149 C172.6701,9.3149 173.8271,8.0369 173.8271,6.4619 C173.8271,5.4719 173.3311,4.6969 172.6681,4.1279 C172.2991,3.8099 171.4751,3.4929 171.4751,3.4929 C169.4861,2.6379 167.0081,2.0819 164.2851,2.0819 C155.4511,2.0819 149.0401,9.6779 149.0401,20.1439 C149.0401,30.6119 155.4511,38.2059 164.2851,38.2059 C172.9031,38.2059 178.6921,30.7909 178.6921,20.9109 C178.6921,17.9749 177.7631,16.8319 175.3711,16.8319" id="Fill-9" fill="#666666"></path>
            <path d="M39.9346,20.0589 C39.9346,27.8989 35.1066,35.1589 27.8776,38.1919 C20.5566,41.2639 11.8766,39.5179 6.3006,33.8769 C0.7236,28.2369 -0.9224,19.5339 2.2356,12.2499 C5.3566,5.0499 12.6786,0.3089 20.5236,0.4049 C28.3556,0.5009 35.5566,5.4149 38.4996,12.6749 C39.4506,15.0159 39.9346,17.5349 39.9346,20.0589" id="Fill-11" fill="#000000"></path>
            <path d="M17.001,19.0331 C17.469,18.1241 17.93,17.2131 18.393,16.3021 C17.134,16.1881 15.078,15.9321 14.626,14.4871 C14.187,13.0851 15.128,11.4851 16.035,10.4671 C16.686,9.7371 16.518,8.5551 15.589,8.1381 C14.905,7.8301 14.235,8.1181 13.778,8.6501 C12.788,9.8021 12,11.2211 11.725,12.7251 C11.424,14.3621 11.837,16.1261 13.056,17.3041 C14.115,18.3281 15.58,18.7891 17.001,19.0331" id="Fill-13" fill="#FFFFFF"></path>
            <path d="M16.7007,8.3421 C16.5507,8.2221 15.6197,7.5811 15.7077,7.4721 C16.0607,7.0271 16.4137,6.5821 16.7677,6.1371 C17.5397,5.1651 18.3117,4.1941 19.0837,3.2211 C19.2347,3.3421 20.1647,3.9831 20.0777,4.0921 C19.7247,4.5371 19.3697,4.9821 19.0167,5.4271 C18.2447,6.3991 17.4717,7.3701 16.7007,8.3421" id="Fill-15" fill="#FFFFFF"></path>
            <path d="M33.1396,23.1361 C31.1466,23.1361 29.5626,24.9551 29.8436,26.9291 C30.2506,26.6881 31.0056,26.2501 31.1626,25.7891 C31.3146,25.3481 31.6166,24.9631 32.0086,24.7091 C32.8076,24.1941 33.8886,24.2951 34.5776,24.9491 C35.2736,25.6101 35.4296,26.6961 34.9416,27.5241 C34.6976,27.9381 34.3106,28.2621 33.8586,28.4281 C33.4016,28.8961 32.9036,29.3251 32.3666,29.7031 C34.2856,30.1641 36.2376,28.7931 36.4516,26.8281 C36.6616,24.8881 35.0926,23.1361 33.1396,23.1361" id="Fill-17" fill="#FFFFFF"></path>
            <path d="M34.3853,27.1703 C34.8093,26.3873 34.4293,25.3943 33.5833,25.1023 C33.2123,24.9863 32.9413,24.9773 32.5423,25.1453 C32.1853,25.3003 31.9703,25.6003 31.7163,25.8813 C30.2813,27.5083 28.3523,28.2593 26.2013,28.0353 C24.0193,27.8083 21.9313,26.8993 19.9603,25.9903 C18.0073,25.0883 16.1133,23.9733 14.0263,23.4063 C13.5843,23.2833 13.1303,23.1893 12.6753,23.1273 C10.7363,22.8363 8.4913,23.0853 6.9053,24.3163 C5.1613,25.6703 4.3653,28.2343 5.6563,30.1703 C6.8633,31.9833 9.1983,32.2893 11.1373,31.6513 C13.2233,30.9643 14.6993,29.4833 15.9233,27.7143 C15.3603,27.4403 14.7903,27.1723 14.2053,26.9473 C13.9133,26.8353 13.6183,26.7323 13.3183,26.6463 C13.0693,26.5733 12.9993,26.8363 12.8433,27.0253 C12.1793,27.8383 11.3573,28.4983 10.3643,28.8563 C9.6163,29.1253 8.2233,29.3323 7.9443,28.2923 C7.6463,27.1913 8.8443,26.3093 9.7673,26.0983 C11.7693,25.6343 13.7373,26.2183 15.5453,27.0743 C17.2293,27.8743 18.8793,28.7553 20.6103,29.4553 C23.0593,30.4473 25.6713,31.2273 28.3403,30.8733 C29.5653,30.7113 30.5753,30.2263 31.6633,29.6823 C32.2383,29.3293 32.7753,28.9033 33.2623,28.4383 C33.6523,28.0663 34.1273,27.6463 34.3853,27.1703" id="Fill-19" fill="#FFFFFF"></path>
            <path d="M18.7461,22.7874 C20.0491,20.3314 21.2841,17.8404 22.5511,15.3654 C23.1191,14.2554 23.6911,13.1474 24.2911,12.0544 C24.8341,11.0664 25.3921,10.1194 26.3291,9.4514 C27.0691,8.9234 28.0481,8.5534 28.9601,8.7854 C30.0811,9.0684 30.6731,10.3184 30.2221,11.3684 C29.4961,13.0574 27.5081,14.1024 25.9141,14.7914 C25.4211,15.0044 24.9181,15.1944 24.4081,15.3634 C24.1171,15.4594 23.8261,15.5494 23.5311,15.6324 C23.2781,15.7034 22.8281,15.7224 22.7081,15.9584 C22.1821,16.9994 21.6571,18.0404 21.1241,19.0784 C23.5041,18.7884 25.8991,18.0854 28.0421,17.0044 C29.6901,16.1744 31.3011,15.0534 32.3401,13.4984 C33.6131,11.5974 33.5981,9.1504 32.0361,7.4064 C30.5981,5.7984 28.2971,5.4814 26.3301,6.1994 C23.1931,7.3444 21.8291,10.4494 20.4031,13.2114 C19.5151,14.9324 18.6481,16.6634 17.7671,18.3874 C16.9281,20.0314 16.0201,21.6414 15.1811,23.2834 C15.9131,23.5474 16.6231,23.8654 17.3241,24.2014 C17.4961,24.2854 17.6691,24.3694 17.8411,24.4554 C17.9381,24.2794 18.0351,24.1034 18.1311,23.9284 C18.3381,23.5494 18.5431,23.1684 18.7461,22.7874" id="Fill-21" fill="#FFFFFF"></path>
        </g>
    </g>
</svg>