<?xml version="1.0" encoding="UTF-8" standalone="no"?>
<svg width="191px" height="191px" viewBox="0 0 191 191" version="1.1" xmlns="http://www.w3.org/2000/svg" xmlns:xlink="http://www.w3.org/1999/xlink" xmlns:sketch="http://www.bohemiancoding.com/sketch/ns">
    <!-- Generator: Sketch 3.3.3 (12072) - http://www.bohemiancoding.com/sketch -->
    <title>LUNGE-L-Kreis_2013_4c</title>
    <desc>Created with Sketch.</desc>
    <defs>
        <path id="path-1" d="M0,0.86 L190.14,0.86 L190.14,190.94 L0,190.94"></path>
    </defs>
    <g id="Page-1" stroke="none" stroke-width="1" fill="none" fill-rule="evenodd" sketch:type="MSPage">
        <g id="LUNGE-L-Kreis_2013_4c" sketch:type="MSLayerGroup">
            <g id="Group-3">
                <mask id="mask-2" sketch:name="Clip 2" fill="white">
                    <use xlink:href="#path-1"></use>
                </mask>
                <g id="Clip-2"></g>
                <path d="M190.14,95.931 C190.14,148.436 147.576,191 95.07,191 C42.564,191 0,148.436 0,95.931 C0,43.424 42.564,0.86 95.07,0.86 C147.576,0.86 190.14,43.424 190.14,95.931" id="Fill-1" fill="#DA284B" sketch:type="MSShapeGroup" mask="url(#mask-2)"></path>
            </g>
            <path d="M73.18,106.919 C73.195,106.887 73.214,106.85 73.229,106.818 C73.214,106.85 73.195,106.887 73.18,106.919" id="Fill-4" fill="#FFFFFF" sketch:type="MSShapeGroup"></path>
            <path d="M73.972,105.348 C74.019,105.256 74.066,105.164 74.116,105.068 C74.066,105.164 74.019,105.256 73.972,105.348" id="Fill-5" fill="#FFFFFF" sketch:type="MSShapeGroup"></path>
            <path d="M73.535,106.205 C73.571,106.134 73.61,106.058 73.647,105.984 C73.61,106.058 73.571,106.134 73.535,106.205" id="Fill-6" fill="#FFFFFF" sketch:type="MSShapeGroup"></path>
            <path d="M72.026,109.136 C72.058,109.093 72.087,109.056 72.117,109.017 C72.087,109.056 72.058,109.093 72.026,109.136" id="Fill-7" fill="#FFFFFF" sketch:type="MSShapeGroup"></path>
            <path d="M72.873,107.554 C72.877,107.544 72.881,107.535 72.886,107.525 C72.881,107.535 72.877,107.544 72.873,107.554" id="Fill-8" fill="#FFFFFF" sketch:type="MSShapeGroup"></path>
            <path d="M84.727,113.038 C84.818,112.934 84.901,112.844 84.977,112.766 C84.901,112.844 84.818,112.934 84.727,113.038" id="Fill-9" fill="#FFFFFF" sketch:type="MSShapeGroup"></path>
            <path d="M74.518,104.297 C74.564,104.206 74.608,104.122 74.658,104.028 C74.608,104.122 74.564,104.206 74.518,104.297" id="Fill-10" fill="#FFFFFF" sketch:type="MSShapeGroup"></path>
            <path d="M84.428,113.39 C84.52,113.279 84.605,113.177 84.685,113.087 C84.605,113.177 84.52,113.278 84.428,113.39" id="Fill-11" fill="#FFFFFF" sketch:type="MSShapeGroup"></path>
            <path d="M72.378,108.683 C72.378,108.682 72.379,108.681 72.379,108.681 C72.385,108.666 72.392,108.649 72.397,108.633 C72.392,108.648 72.383,108.669 72.378,108.683" id="Fill-12" fill="#FFFFFF" sketch:type="MSShapeGroup"></path>
            <path d="M72.377,108.684 L72.378,108.683 C72.367,108.696 72.351,108.718 72.339,108.732 C72.352,108.716 72.365,108.699 72.377,108.684" id="Fill-13" fill="#FFFFFF" sketch:type="MSShapeGroup"></path>
            <path d="M72.671,107.986 C72.653,108.027 72.638,108.061 72.621,108.098 C72.638,108.061 72.653,108.026 72.671,107.986" id="Fill-14" fill="#FFFFFF" sketch:type="MSShapeGroup"></path>
            <path d="M72.51,108.354 C72.496,108.387 72.482,108.419 72.47,108.45 C72.482,108.42 72.496,108.387 72.51,108.354" id="Fill-15" fill="#FFFFFF" sketch:type="MSShapeGroup"></path>
            <path d="M85.893,112.631 C85.887,112.636 85.882,112.642 85.877,112.647 C85.882,112.642 85.887,112.636 85.893,112.631" id="Fill-16" fill="#FFFFFF" sketch:type="MSShapeGroup"></path>
            <path d="M85.832,112.673 C85.831,112.673 85.83,112.672 85.829,112.672 C85.83,112.672 85.83,112.674 85.831,112.674 L85.832,112.673" id="Fill-17" fill="#FFFFFF" sketch:type="MSShapeGroup"></path>
            <path d="M85.959,112.548 C85.962,112.544 85.964,112.541 85.968,112.535 C85.964,112.541 85.962,112.543 85.959,112.548" id="Fill-18" fill="#FFFFFF" sketch:type="MSShapeGroup"></path>
            <path d="M85.716,112.371 C85.738,112.404 85.752,112.448 85.762,112.492 C85.752,112.448 85.738,112.405 85.716,112.371" id="Fill-19" fill="#FFFFFF" sketch:type="MSShapeGroup"></path>
            <path d="M85.786,112.604 C85.787,112.609 85.789,112.614 85.79,112.619 C85.789,112.614 85.787,112.61 85.786,112.604" id="Fill-20" fill="#FFFFFF" sketch:type="MSShapeGroup"></path>
            <path d="M79.218,90.965 C81.468,86.585 83.725,82.138 85.944,77.759 C85.328,77.7 84.715,77.633 84.108,77.552 C71.776,75.899 68.968,72.373 67.9,69.486 C64.599,60.561 74.403,49.682 74.605,49.463 C77.253,46.66 77.136,42.241 74.339,39.583 C71.537,36.92 67.107,37.03 64.443,39.833 C63.783,40.527 48.363,57.023 54.77,74.342 C58.968,85.693 70.075,89.399 79.218,90.965" id="Fill-21" fill="#FFFFFF" sketch:type="MSShapeGroup"></path>
            <path d="M85.023,112.719 C85.08,112.662 85.133,112.611 85.181,112.568 C85.133,112.611 85.08,112.662 85.023,112.719" id="Fill-22" fill="#FFFFFF" sketch:type="MSShapeGroup"></path>
            <path d="M85.521,112.33 C85.55,112.318 85.575,112.313 85.598,112.312 C85.575,112.313 85.55,112.318 85.521,112.33" id="Fill-23" fill="#FFFFFF" sketch:type="MSShapeGroup"></path>
            <path d="M85.39,112.4 C85.434,112.37 85.475,112.347 85.509,112.333 C85.475,112.347 85.435,112.37 85.39,112.4" id="Fill-24" fill="#FFFFFF" sketch:type="MSShapeGroup"></path>
            <path d="M83.529,114.548 C83.683,114.34 83.824,114.156 83.956,113.983 C83.823,114.156 83.684,114.34 83.529,114.548" id="Fill-25" fill="#FFFFFF" sketch:type="MSShapeGroup"></path>
            <path d="M84.06,113.851 C84.156,113.728 84.247,113.613 84.332,113.508 C84.247,113.613 84.156,113.728 84.06,113.851" id="Fill-26" fill="#FFFFFF" sketch:type="MSShapeGroup"></path>
            <path d="M85.613,112.313 C85.657,112.315 85.689,112.334 85.711,112.365 C85.688,112.334 85.657,112.315 85.613,112.313" id="Fill-27" fill="#FFFFFF" sketch:type="MSShapeGroup"></path>
            <path d="M85.234,112.522 C85.277,112.485 85.316,112.453 85.353,112.427 C85.317,112.453 85.277,112.485 85.234,112.522" id="Fill-28" fill="#FFFFFF" sketch:type="MSShapeGroup"></path>
            <path d="M77.764,39.255 L72.77,35.285 L89.294,14.492 L94.289,18.462 L77.764,39.255" id="Fill-29" fill="#FFFFFF" sketch:type="MSShapeGroup"></path>
            <path d="M151.139,141.811 C153.211,140.452 155.249,138.866 157.243,137.029 C151.797,137.013 147.376,132.69 147.182,127.287 C145.434,128.844 143.633,130.148 141.76,131.205 C143.09,136.013 146.585,139.927 151.139,141.811" id="Fill-30" fill="#FFFFFF" sketch:type="MSShapeGroup"></path>
            <path d="M157.273,110.811 C148.391,110.811 141.164,118.038 141.164,126.921 C141.164,127.681 141.235,128.423 141.337,129.156 C143.488,127.872 145.542,126.223 147.546,124.194 C148.737,119.937 152.635,116.811 157.273,116.811 C162.857,116.811 167.383,121.337 167.383,126.921 C167.383,131.279 164.621,134.983 160.755,136.402 C158.463,138.748 156.055,140.805 153.535,142.575 C154.737,142.862 155.984,143.031 157.273,143.031 C166.156,143.031 173.383,135.804 173.383,126.921 C173.383,118.038 166.156,110.811 157.273,110.811" id="Fill-31" fill="#FFFFFF" sketch:type="MSShapeGroup"></path>
            <path d="M163.301,130.326 C163.473,130.015 163.616,129.695 163.737,129.368 C163.76,129.306 163.782,129.245 163.803,129.182 C163.914,128.853 164.002,128.52 164.062,128.182 C164.071,128.13 164.077,128.078 164.085,128.026 C164.196,127.314 164.195,126.592 164.087,125.885 C164.079,125.833 164.074,125.781 164.065,125.729 C164.006,125.393 163.919,125.063 163.812,124.737 C163.791,124.676 163.77,124.616 163.748,124.555 C163.631,124.232 163.493,123.917 163.328,123.612 C163.302,123.565 163.273,123.52 163.247,123.473 C163.066,123.157 162.866,122.849 162.633,122.56 C162.633,122.559 162.632,122.558 162.632,122.558 C162.34,122.195 162.007,121.857 161.635,121.549 C161.329,121.297 161.004,121.081 160.671,120.889 C160.633,120.865 160.595,120.841 160.556,120.819 C160.556,120.819 160.555,120.819 160.554,120.818 C160.188,120.616 159.81,120.453 159.422,120.322 C159.418,120.32 159.415,120.319 159.412,120.318 C158.687,120.074 157.936,119.945 157.184,119.945 L157.183,119.945 C157.166,119.945 157.148,119.947 157.131,119.947 C157.121,119.947 157.111,119.949 157.101,119.949 C156.411,119.957 155.724,120.068 155.063,120.277 L155.062,120.277 C154.969,120.306 154.877,120.339 154.786,120.373 C154.786,120.373 154.785,120.373 154.784,120.374 C154.65,120.422 154.518,120.474 154.387,120.53 C154.386,120.531 154.385,120.531 154.384,120.532 C154.292,120.572 154.202,120.613 154.112,120.657 C154.112,120.657 154.111,120.657 154.11,120.658 C153.982,120.72 153.857,120.787 153.733,120.858 C153.731,120.859 153.729,120.859 153.728,120.86 C153.686,120.884 153.645,120.909 153.603,120.934 C153.433,121.035 153.267,121.143 153.104,121.26 C153.102,121.261 153.1,121.263 153.098,121.264 C153.042,121.305 152.985,121.346 152.929,121.387 C152.515,121.704 152.126,122.067 151.78,122.486 C151.319,123.044 150.856,123.577 150.39,124.094 C150.236,124.265 150.081,124.424 149.926,124.59 C149.612,124.929 149.297,125.266 148.98,125.587 C148.796,125.772 148.611,125.948 148.427,126.128 C148.23,126.319 148.032,126.506 147.834,126.691 C147.738,126.781 147.643,126.876 147.546,126.964 C147.349,127.145 147.149,127.319 146.95,127.493 C146.663,127.744 146.375,127.99 146.086,128.227 C145.882,128.395 145.677,128.558 145.471,128.719 C145.355,128.809 145.238,128.894 145.121,128.982 C144.945,129.115 144.769,129.252 144.591,129.381 C144.385,129.53 144.179,129.679 143.972,129.823 C143.665,130.035 143.354,130.236 143.043,130.434 C142.845,130.56 142.648,130.689 142.449,130.808 C142.295,130.901 142.139,130.983 141.985,131.071 C141.803,131.174 141.622,131.281 141.439,131.381 C141.257,131.481 141.076,131.587 140.892,131.682 C140.462,131.904 140.026,132.11 139.588,132.308 C139.494,132.351 139.4,132.4 139.305,132.442 C138.866,132.633 138.42,132.804 137.973,132.971 C137.875,133.007 137.779,133.051 137.681,133.087 C137.526,133.143 137.368,133.189 137.211,133.241 C136.948,133.33 136.682,133.413 136.415,133.494 C136.282,133.536 136.15,133.583 136.015,133.622 C135.802,133.683 135.585,133.734 135.37,133.79 C135.319,133.803 135.268,133.815 135.217,133.828 C134.913,133.905 134.609,133.984 134.301,134.051 C134.066,134.102 133.829,134.145 133.592,134.19 C133.245,134.256 132.896,134.318 132.544,134.372 C132.297,134.409 132.048,134.442 131.798,134.474 C131.643,134.493 131.485,134.507 131.328,134.524 C131.129,134.546 130.931,134.57 130.73,134.588 C130.477,134.611 130.223,134.632 129.967,134.649 C129.737,134.664 129.502,134.671 129.27,134.68 C129.13,134.686 128.992,134.695 128.851,134.699 C128.597,134.707 128.343,134.716 128.086,134.719 C127.662,134.723 127.231,134.714 126.799,134.703 C126.596,134.697 126.395,134.697 126.189,134.688 C125.547,134.66 124.897,134.619 124.237,134.559 C113.294,133.549 100.585,128.199 84.87,120.476 L83.352,119.727 C80.123,118.132 76.661,116.425 72.944,114.906 C72.94,114.904 72.937,114.903 72.934,114.902 C71.702,114.398 70.442,113.917 69.153,113.465 C69.146,113.464 69.14,113.461 69.133,113.458 C69.109,113.45 69.085,113.442 69.062,113.434 C67.707,112.963 66.321,112.526 64.901,112.138 C64.878,112.131 64.855,112.125 64.833,112.118 C64.829,112.117 64.826,112.117 64.822,112.116 C64.219,111.952 63.61,111.798 62.995,111.652 C62.968,111.646 62.941,111.638 62.914,111.632 C62.841,111.615 62.768,111.599 62.694,111.583 C61.262,111.253 59.798,110.976 58.299,110.764 C58.298,110.764 58.297,110.763 58.295,110.763 C58.295,110.763 58.295,110.763 58.294,110.763 C57.64,110.671 56.98,110.588 56.312,110.521 C56.305,110.52 56.297,110.519 56.289,110.518 C56.278,110.517 56.267,110.515 56.255,110.514 C56.208,110.509 56.158,110.508 56.11,110.504 C55.489,110.444 54.862,110.398 54.23,110.363 C54.212,110.362 54.194,110.36 54.176,110.359 C54.154,110.358 54.132,110.358 54.111,110.357 C51.738,110.23 49.285,110.282 46.749,110.551 C46.734,110.552 46.72,110.553 46.705,110.554 C46.681,110.557 46.656,110.56 46.632,110.563 C44.832,110.758 42.991,111.058 41.104,111.489 C37.552,112.302 34.295,113.755 31.481,115.714 C31.469,115.722 31.458,115.73 31.447,115.738 C30.364,116.495 29.346,117.325 28.405,118.228 C28.372,118.26 28.339,118.294 28.306,118.327 C27.896,118.724 27.502,119.135 27.122,119.559 C27.058,119.631 26.992,119.701 26.928,119.774 C26.527,120.232 26.141,120.701 25.776,121.187 C25.739,121.238 25.704,121.291 25.667,121.341 C25.353,121.767 25.055,122.204 24.771,122.649 C24.688,122.777 24.607,122.905 24.528,123.035 C24.22,123.538 23.923,124.048 23.653,124.575 C22.76,126.318 22.113,128.129 21.713,129.958 C20.835,133.983 21.157,138.1 22.709,141.786 C25.821,149.177 33.332,153.597 41.831,153.596 C43.994,153.596 46.223,153.31 48.458,152.713 C57.823,150.213 65.186,145.005 71.628,136.325 C71.895,135.966 72.165,135.595 72.439,135.211 C72.525,135.091 72.614,134.963 72.701,134.839 C72.89,134.572 73.08,134.304 73.273,134.024 C73.385,133.862 73.501,133.691 73.614,133.525 C73.741,133.338 73.87,133.148 73.998,132.958 C69.695,130.855 65.29,128.84 60.674,127.587 C60.661,127.604 60.648,127.623 60.635,127.641 C60.553,127.753 60.468,127.872 60.387,127.981 C60.386,127.982 60.386,127.983 60.385,127.985 C55.867,134.069 51.075,137.524 44.846,139.187 C41.256,140.147 36.929,139.482 35.611,136.353 C34.963,134.813 35.146,132.848 36.112,130.962 C36.312,130.57 36.545,130.196 36.801,129.835 C36.853,129.76 36.915,129.692 36.969,129.619 C37.19,129.325 37.421,129.037 37.676,128.766 C37.724,128.715 37.775,128.668 37.823,128.617 C38.11,128.323 38.412,128.04 38.737,127.775 C38.761,127.755 38.786,127.735 38.811,127.716 C39.171,127.425 39.552,127.152 39.954,126.898 C41.208,126.109 42.644,125.499 44.228,125.137 C44.966,124.968 45.696,124.831 46.42,124.715 C46.548,124.695 46.675,124.677 46.802,124.659 C47.478,124.558 48.149,124.474 48.812,124.418 C48.831,124.416 48.85,124.413 48.868,124.412 C49.544,124.355 50.212,124.326 50.876,124.312 C51.005,124.309 51.134,124.305 51.262,124.304 C51.841,124.298 52.414,124.311 52.984,124.335 C53.257,124.348 53.529,124.365 53.801,124.383 C54.112,124.404 54.421,124.432 54.729,124.461 C55.277,124.511 55.82,124.579 56.361,124.653 C56.626,124.691 56.893,124.726 57.157,124.769 C57.775,124.871 58.39,124.989 58.999,125.12 C59.079,125.137 59.16,125.152 59.24,125.17 C59.372,125.198 59.503,125.227 59.635,125.257 C60.37,125.426 61.099,125.612 61.821,125.82 C62.127,125.907 62.429,126.006 62.732,126.099 C63.373,126.297 64.011,126.506 64.643,126.729 C64.9,126.818 65.158,126.905 65.414,126.999 C65.76,127.126 66.104,127.26 66.448,127.393 C66.71,127.495 66.973,127.595 67.234,127.7 C67.571,127.836 67.908,127.974 68.243,128.114 C68.509,128.226 68.773,128.338 69.038,128.451 C69.367,128.593 69.695,128.735 70.021,128.881 C70.29,129 70.559,129.122 70.827,129.244 C71.148,129.39 71.469,129.535 71.789,129.684 C72.045,129.803 72.299,129.924 72.555,130.045 C73.411,130.45 74.263,130.86 75.111,131.276 L75.111,131.275 C75.133,131.286 75.155,131.297 75.177,131.307 C75.224,131.33 75.271,131.354 75.318,131.377 C75.931,131.677 76.543,131.978 77.152,132.279 L78.695,133.041 C79.552,133.462 80.421,133.889 81.299,134.318 C81.312,134.325 81.326,134.332 81.339,134.338 L81.492,134.413 C81.501,134.417 81.509,134.421 81.517,134.425 C82.045,134.683 82.584,134.944 83.119,135.204 C85.073,136.153 87.072,137.108 89.112,138.052 C89.38,138.176 89.643,138.301 89.912,138.424 C89.917,138.427 89.922,138.429 89.927,138.431 C91.916,139.343 93.94,140.239 95.994,141.099 C95.997,141.1 95.999,141.101 96.002,141.103 C96.448,141.289 96.899,141.466 97.347,141.649 C97.947,141.894 98.545,142.141 99.149,142.379 C99.153,142.38 99.156,142.381 99.159,142.382 C100.094,142.749 101.034,143.107 101.978,143.453 C101.984,143.455 101.991,143.458 101.998,143.46 C104.153,144.25 106.331,144.98 108.524,145.629 C108.526,145.63 108.528,145.631 108.53,145.631 C109.491,145.915 110.454,146.183 111.419,146.434 C111.422,146.435 111.424,146.436 111.427,146.436 C112.183,146.632 112.942,146.806 113.701,146.981 C114.019,147.053 114.335,147.137 114.654,147.206 C114.656,147.207 114.658,147.207 114.659,147.208 C114.711,147.218 114.763,147.231 114.814,147.242 L114.817,147.242 C115.84,147.461 116.865,147.658 117.891,147.831 C117.893,147.832 117.896,147.832 117.898,147.832 C117.953,147.841 118.007,147.85 118.062,147.859 C118.066,147.86 118.071,147.86 118.076,147.861 C118.671,147.96 119.268,148.033 119.864,148.115 C121.385,148.324 122.906,148.496 124.427,148.586 C124.429,148.586 124.431,148.587 124.433,148.587 C125.461,148.647 126.488,148.679 127.514,148.681 L127.518,148.681 C127.534,148.681 127.55,148.682 127.567,148.682 C129.172,148.682 130.774,148.602 132.369,148.441 L132.372,148.441 C132.554,148.422 132.734,148.394 132.916,148.374 C133.49,148.309 134.065,148.242 134.638,148.154 C134.642,148.153 134.646,148.152 134.65,148.152 C135.295,148.053 135.939,147.94 136.581,147.811 C136.583,147.811 136.586,147.81 136.588,147.81 C137.111,147.705 137.631,147.579 138.152,147.454 C138.371,147.401 138.591,147.356 138.81,147.3 C138.811,147.299 138.812,147.299 138.813,147.299 C138.942,147.266 139.071,147.233 139.2,147.198 C139.201,147.197 139.202,147.197 139.203,147.197 C139.862,147.02 140.52,146.828 141.174,146.617 C141.175,146.617 141.176,146.616 141.177,146.616 C141.31,146.573 141.442,146.524 141.574,146.48 C142.174,146.279 142.772,146.068 143.368,145.837 C143.372,145.836 143.376,145.834 143.381,145.832 C144.472,145.409 145.554,144.919 146.63,144.389 C147.025,144.196 147.421,144.008 147.814,143.799 C147.814,143.799 147.815,143.798 147.816,143.798 C148.26,143.562 148.7,143.3 149.141,143.045 C149.426,142.88 149.713,142.725 149.998,142.551 C150,142.55 150.002,142.549 150.004,142.548 C150.046,142.522 150.088,142.499 150.129,142.473 C150.13,142.473 150.132,142.472 150.133,142.471 C150.495,142.248 150.853,142.001 151.212,141.762 C152.343,141.018 153.465,140.219 154.573,139.336 C154.575,139.334 154.577,139.333 154.578,139.332 C154.958,139.029 155.333,138.704 155.71,138.385 C155.969,138.166 156.23,137.962 156.488,137.734 C156.488,137.734 156.489,137.734 156.489,137.733 C157.108,137.186 157.722,136.607 158.333,136.011 C158.335,136.009 158.338,136.006 158.34,136.004 C158.453,135.894 158.566,135.785 158.678,135.674 L158.679,135.673 C158.726,135.627 158.772,135.575 158.819,135.527 C159.472,134.875 160.121,134.196 160.764,133.486 C160.765,133.485 160.766,133.483 160.768,133.482 C161.373,132.812 161.976,132.126 162.572,131.404 C162.818,131.106 163.028,130.79 163.217,130.466 C163.245,130.419 163.275,130.373 163.301,130.326" id="Fill-32" fill="#FFFFFF" sketch:type="MSShapeGroup"></path>
            <path d="M87.654,109.397 C91.896,101.409 96.273,92.772 100.506,84.42 C106.559,72.477 112.276,61.197 116.864,53.242 C120.934,46.183 127.67,41.514 134.025,41.348 C134.133,41.345 134.244,41.343 134.355,41.343 C136.867,41.343 140.189,42.105 142.412,45.53 C144.244,48.353 144.482,51.097 143.163,54.165 C139.402,62.908 124.978,71.421 107.132,75.753 C106.408,77.183 105.67,78.641 104.899,80.167 C104.057,81.834 103.188,83.552 102.29,85.324 C101.26,87.356 100.213,89.405 99.162,91.455 C100.764,91.263 102.372,91.038 103.992,90.738 C129.912,85.946 149.849,74.052 156.024,59.697 C159.178,52.364 158.515,44.626 154.156,37.909 C149.657,30.976 142.18,27.145 133.658,27.352 C122.427,27.648 111.405,34.818 104.842,46.075 L104.846,46.078 C104.81,46.135 104.77,46.189 104.736,46.248 C99.96,54.53 94.159,65.974 88.019,78.091 C83.815,86.384 79.468,94.961 75.289,102.831 C73.611,105.991 72.04,108.881 70.565,111.527 L70.564,111.526 C70.513,111.619 70.462,111.708 70.411,111.8 C75.116,113.49 79.403,115.551 83.282,117.463 C84.659,114.979 86.108,112.307 87.654,109.397" id="Fill-33" fill="#FFFFFF" sketch:type="MSShapeGroup"></path>
        </g>
    </g>
</svg>