<?xml version="1.0" encoding="UTF-8" standalone="no"?>
<svg width="534px" height="267px" viewBox="0 0 534 267" version="1.1" xmlns="http://www.w3.org/2000/svg" xmlns:xlink="http://www.w3.org/1999/xlink">
    <!-- Generator: Sketch 3.7.1 (28215) - http://www.bohemiancoding.com/sketch -->
    <title>Slice 1</title>
    <desc>Created with Sketch.</desc>
    <defs></defs>
    <g id="Page-1" stroke="none" stroke-width="1" fill="none" fill-rule="evenodd">
        <g id="amann" transform="translate(2.000000, 0.000000)">
            <g id="layer1" transform="translate(0.530480, 0.992260)">
                <g id="g67034" transform="translate(0.826838, 0.988778)">
                    <path d="M51.2433722,231.113786 L51.2433722,234.704743 L72.775357,234.704743 C72.5414632,241.246889 70.6221585,246.268726 65.4420995,250.657674 C60.4959343,254.647626 54.1945611,257.275492 47.7349657,257.275492 C32.7382478,257.275492 20.4588252,244.837847 20.4588252,229.999351 C20.4588252,215.56673 33.0615716,202.723211 47.7349657,202.723211 C57.4621946,202.723211 65.6003218,207.669376 70.9454822,215.642401 L74.0548935,213.172758 C67.7535203,204.559964 58.8999533,199.132253 47.9757387,199.132253 C30.7501508,199.132253 16.6339742,213.014536 16.6339742,230.240124 C16.6339742,246.825944 30.8258223,260.866449 47.4941927,260.866449 C55.9487644,260.866449 64.5615583,257.358042 70.305714,251.132341 C75.6508744,245.312513 76.7653094,238.694696 76.6070872,231.113786 L51.2433722,231.113786" id="path66892" fill="#787765"></path>
                    <path d="M154.067199,231.595332 C164.035201,231.753829 171.292787,226.332722 171.292787,215.883174 C171.292787,210.778787 169.538583,205.990844 165.232186,202.963984 C161.159683,200.012795 156.378619,199.930244 151.515005,199.930244 L144.016646,199.930244 L144.016646,260.068458 L147.841497,260.068458 L147.841497,231.595332 L149.753922,231.595332 L169.380361,260.068458 L173.76243,260.068458 L154.067199,231.595332 L154.067199,231.595332 Z M147.841497,228.004375 L147.841497,203.521201 L150.318019,203.521201 C153.826426,203.521201 157.89205,203.362704 161.084012,204.876409 C165.390409,206.788834 167.461056,211.260333 167.461056,215.724952 C167.461056,219.315909 166.105848,222.899987 163.23721,225.218287 C160.20347,227.846153 156.454291,228.004375 152.705111,228.004375 L147.841497,228.004375 L147.841497,228.004375 Z" id="path66894" fill="#787765"></path>
                    <path d="M268.585713,199.132253 C251.594019,199.132253 237.402171,213.090208 237.402171,229.999351 C237.402171,246.908494 251.67657,260.866449 268.585713,260.866449 C285.494857,260.866449 299.769256,246.908494 299.769256,229.999351 C299.769256,213.090208 285.494857,199.132253 268.585713,199.132253 L268.585713,199.132253 Z M268.585713,202.723211 C283.499881,202.723211 295.937525,215.167735 295.937525,229.999351 C295.937525,244.755296 283.499881,257.275492 268.585713,257.275492 C253.588996,257.275492 241.227022,244.837847 241.227022,229.999351 C241.227022,215.167735 253.588996,202.723211 268.585713,202.723211 L268.585713,202.723211 Z" id="path66896" fill="#787765"></path>
                    <path d="M403.59057,236.300724 C403.59057,241.721556 403.59057,247.465712 400.481159,251.455664 C397.52997,255.280515 391.634471,257.275492 387.004751,257.275492 C382.381909,257.275492 376.479531,255.280515 373.528342,251.455664 C370.418931,247.465712 370.418931,241.721556 370.418931,236.300724 L370.418931,199.930244 L366.587201,199.930244 L366.587201,237.415159 C366.587201,243.55831 366.587201,248.82092 370.652825,253.849636 C374.725328,258.472477 380.94415,260.866449 387.004751,260.866449 C393.065351,260.866449 399.284173,258.472477 403.356677,253.849636 C407.422301,248.82092 407.422301,243.55831 407.422301,237.415159 L407.422301,199.930244 L403.59057,199.930244 L403.59057,236.300724" id="path66898" fill="#787765"></path>
                    <path d="M481.683571,231.512781 L488.46649,231.512781 C493.165003,231.512781 498.193719,230.879892 501.860348,227.68793 C505.210532,224.894964 506.889064,220.1139 506.889064,215.800624 C506.889064,211.102111 505.13486,206.554941 501.461352,203.43865 C497.712173,200.253568 493.165003,199.930244 488.46649,199.930244 L477.85872,199.930244 L477.85872,260.068458 L481.683571,260.068458 L481.683571,231.512781 L481.683571,231.512781 Z M481.683571,227.928703 L481.683571,203.521201 L487.984944,203.521201 C491.651573,203.521201 495.483303,203.603752 498.510163,205.915172 C501.543903,208.144042 503.057333,211.893222 503.057333,215.642401 C503.057333,219.150808 501.784676,222.267098 499.149932,224.654191 C496.04052,227.447157 492.532114,227.928703 488.624712,227.928703 L481.683571,227.928703 L481.683571,227.928703 Z" id="path66900" fill="#787765"></path>
                    <path d="M0.185739166,174.078104 L528.139,174.078104" id="path66902" stroke="#787765" stroke-width="3.54280234"></path>
                    <polyline id="path66904" fill="#02A6ED" points="116.190167 123.412587 138.45135 3.21182918 173.528536 95.8887938 208.296156 3.21182918 230.557339 123.412587 219.426747 123.412587 204.636406 42.5059817 173.528536 125.724007 142.1111 42.5059817 127.011193 123.412587 116.190167 123.412587"></polyline>
                    <polyline id="path66906" fill="#02A6ED" points="338.568104 123.412587 338.568104 3.67273748 395.562511 91.5136046 395.562511 6.67896028 406.067093 6.67896028 406.067093 126.879718 348.969497 39.0388506 348.969497 123.412587 338.568104 123.412587"></polyline>
                    <polyline id="path66908" fill="#02A6ED" points="430.804798 123.412587 430.804798 3.67273748 487.806084 91.5136046 487.806084 6.67896028 498.303787 6.67896028 498.303787 126.879718 441.21307 39.0388506 441.21307 123.412587 430.804798 123.412587"></polyline>
                    <path d="M86.5682099,91.9125998 L65.937404,34.8906758 L45.3065981,91.9125998 L86.5682099,91.9125998 L86.5682099,91.9125998 Z M22.6326614,123.398828 L65.6347179,2.56518171 L108.939461,123.398828 L97.9602121,123.398828 L90.3724232,102.43094 L41.5023848,102.43094 L33.9145959,123.398828 L22.6326614,123.398828 L22.6326614,123.398828 Z" id="path66910" fill="#02A6ED"></path>
                    <path d="M302.995614,91.9125998 L282.364808,34.8906758 L261.734002,91.9125998 L302.995614,91.9125998 L302.995614,91.9125998 Z M239.060065,123.398828 L282.062122,2.56518171 L325.366864,123.398828 L314.387616,123.398828 L306.799827,102.43094 L257.929789,102.43094 L250.342,123.398828 L239.060065,123.398828 L239.060065,123.398828 Z" id="path66912" fill="#02A6ED"></path>
                </g>
            </g>
        </g>
    </g>
</svg>