<?xml version="1.0" encoding="UTF-8" standalone="no"?>
<svg width="545px" height="154px" viewBox="0 0 545 154" version="1.1" xmlns="http://www.w3.org/2000/svg" xmlns:xlink="http://www.w3.org/1999/xlink">
    <!-- Generator: Sketch 3.7.1 (28215) - http://www.bohemiancoding.com/sketch -->
    <title>Slice 1</title>
    <desc>Created with Sketch.</desc>
    <defs></defs>
    <g id="Page-1" stroke="none" stroke-width="1" fill="none" fill-rule="evenodd">
        <g id="nora" fill="#5E5F63">
            <g id="layer1" transform="translate(0.428880, 0.730920)">
                <path d="M449.99718,42.64784 L449.99718,53.00695 C442.12552,43.67791 429.28346,39.12584 417.06214,39.12584 C385.5665,39.12584 363.80922,65.22827 363.80922,95.68936 C363.80922,98.09134 363.94848,100.47083 364.21855,102.82333 C367.37621,130.13575 388.47227,152.45529 417.46697,152.45529 C429.8997,152.45529 442.95317,147.68731 449.58336,137.12129 L449.99718,137.12129 L449.99718,148.92879 L487.7002,148.92879 L487.7002,42.64784 L449.99718,42.64784 L449.99718,42.64784 Z M450.38405,102.82333 C447.8291,112.75512 439.57064,119.71817 427.00743,119.71817 C414.43529,119.71817 406.17676,112.75512 403.60835,102.82333 L403.51375,102.4185 C402.95149,100.23693 402.7581,98.32074 402.7581,95.89177 C402.7581,82.83831 411.66879,71.86296 427.00729,71.86296 C442.33229,71.86296 451.23402,82.83831 451.23402,95.89177 C451.23402,98.32074 450.94614,100.64176 450.38388,102.82333 L450.38405,102.82333 Z M194.77387,39.12494 C160.58837,39.12494 130.75252,59.63624 130.75252,95.89087 C130.75252,132.15 160.79078,152.44989 194.77387,152.44989 C228.95938,152.44989 258.79073,131.94309 258.79073,95.89087 C258.79073,59.63624 228.95938,39.12494 194.77387,39.12494 L194.77387,39.12494 Z M194.77387,119.71727 C179.43987,119.71727 170.52465,109.35366 170.52465,95.89087 C170.52465,82.83741 179.43987,71.85756 194.77387,71.85756 C210.10337,71.85756 219.0096,82.83741 219.0096,95.89087 C219.0096,109.35366 210.10337,119.71727 194.77387,119.71727 L194.77387,119.71727 Z M72.67559,39.12494 C57.96232,39.12494 47.39627,43.47459 38.69699,56.32115 L38.28317,56.32115 L38.28317,42.64694 L0.57112,42.64694 L0.57112,148.93238 L38.28317,148.93238 L38.28317,93.82175 C38.28317,80.56137 42.62829,69.1677 57.96232,69.1677 C76.61142,69.1677 74.95159,86.98465 74.95159,97.13684 L74.95159,148.93238 L112.6591,148.93238 L112.6591,83.25573 C112.6591,57.1488 101.26543,39.12494 72.67559,39.12494 L72.67559,39.12494 Z M349.3915,41.19813 C334.67824,41.19813 322.25001,47.00067 314.99908,60.04963 L314.58526,60.04963 L314.58526,42.64202 L276.87775,42.64202 L276.87775,148.92745 L314.58526,148.92745 L314.58526,106.04713 C314.58526,87.81186 319.76256,73.92625 340.68769,73.92625 C346.48573,73.92625 351.46512,74.55598 356.64243,77.45725 L356.64243,41.19813 L349.3915,41.19813 L349.3915,41.19813 Z M517.05209,19.45884 L521.01937,19.45884 C523.94313,19.45884 529.07096,20.00311 529.07096,16.2562 C529.07096,13.83623 525.87281,13.39092 523.33589,13.39092 L517.05209,13.39092 L517.05209,19.45884 L517.05209,19.45884 Z M524.93721,22.76044 L532.04869,33.62334 L528.07688,33.62334 L521.01937,22.76044 L517.05209,22.76044 L517.05209,33.62334 L513.74146,33.62334 L513.74146,10.08032 L523.99711,10.08032 C528.24334,10.08032 532.37706,11.24533 532.37706,16.31468 C532.37706,20.94321 529.12497,22.65699 524.93721,22.76044 L524.93721,22.76044 Z M521.81104,43.48676 C509.87313,43.48676 500.1977,33.82036 500.1977,21.87342 C500.1977,9.93998 509.87313,0.26908 521.81104,0.26908 C533.74897,0.26908 543.41987,9.93998 543.42887,21.87342 C543.42187,33.82036 533.74897,43.48676 521.81104,43.48676 L521.81104,43.48676 Z M521.81104,40.41456 C532.05319,40.40016 540.33418,32.12008 540.34771,21.87342 C540.33331,11.63576 532.05319,3.35477 521.81104,3.33678 C511.57338,3.35478 503.28789,11.63576 503.2699,21.87342 C503.2879,32.12008 511.57338,40.40107 521.81104,40.41456 L521.81104,40.41456 Z" id="path42"></path>
            </g>
        </g>
    </g>
</svg>