<?xml version="1.0" encoding="UTF-8" standalone="no"?>
<svg width="247px" height="122px" viewBox="0 0 247 122" version="1.1" xmlns="http://www.w3.org/2000/svg" xmlns:xlink="http://www.w3.org/1999/xlink">
    <!-- Generator: Sketch 3.8.3 (29802) - http://www.bohemiancoding.com/sketch -->
    <title>Slice 1</title>
    <desc>Created with Sketch.</desc>
    <defs></defs>
    <g id="Page-1" stroke="none" stroke-width="1" fill="none" fill-rule="evenodd">
        <g id="marchio-SISA">
            <path d="M122.809,93.706 L122.999,93.706 C124.641,93.73 125.419,92.928 125.419,91.813 C125.419,90.675 124.532,89.921 123.287,89.921 L122.809,89.921 L122.809,93.706 L122.809,93.706 Z M122.809,94.041 L122.809,96.905 C122.809,97.492 123.19,97.684 123.526,97.684 L123.526,97.743 L121.167,97.743 L121.167,97.684 C121.514,97.684 121.885,97.467 121.885,96.928 L121.885,90.244 C121.885,89.741 121.514,89.514 121.167,89.514 L121.167,89.454 L123.683,89.454 C125.322,89.454 126.342,90.483 126.342,91.754 C126.342,92.688 125.861,93.431 124.976,93.802 C125.945,95.335 127.635,97.036 128.713,97.611 C129.599,96.521 130.126,95.119 130.126,93.599 C130.126,90.112 127.347,87.285 123.862,87.285 C120.375,87.285 117.597,90.112 117.597,93.599 C117.597,97.085 120.375,99.911 123.862,99.911 C125.766,99.911 127.468,99.06 128.618,97.72 C126.736,97.516 125.755,96.498 123.994,94.03 C123.874,94.041 123.754,94.041 123.623,94.041 L122.809,94.041 L122.809,94.041 Z M116.842,93.599 C116.842,89.729 119.993,86.579 123.862,86.579 C127.73,86.579 130.881,89.729 130.881,93.599 C130.881,97.467 127.73,100.618 123.862,100.618 C119.993,100.618 116.842,97.467 116.842,93.599 L116.842,93.599 Z" id="Fill-1" fill="#595A59"></path>
            <path d="M114.505,93.598 C114.505,97.707 111.174,101.039 107.063,101.039 C102.951,101.039 99.618,97.707 99.618,93.598 C99.618,89.488 102.951,86.156 107.063,86.156 C111.174,86.156 114.505,89.488 114.505,93.598" id="Fill-2" fill="#15A748"></path>
            <path d="M148.102,93.598 C148.102,97.707 144.771,101.039 140.661,101.039 C136.553,101.039 133.22,97.707 133.22,93.598 C133.22,89.488 136.553,86.156 140.661,86.156 C144.771,86.156 148.102,89.488 148.102,93.598" id="Fill-3" fill="#D9222A"></path>
            <polyline id="Fill-4" fill="#595A59" points="51.438 111.793 53.372 122 51.825 122 50.81 116.199 47.958 122 45.105 116.199 44.09 122 42.544 122 44.477 111.793 47.958 118.644 51.438 111.793"></polyline>
            <path d="M57.695,116.89 C57.695,117.395 57.791,117.871 57.982,118.315 C58.173,118.76 58.435,119.146 58.766,119.476 C59.097,119.805 59.486,120.064 59.933,120.253 C60.379,120.441 60.856,120.536 61.363,120.536 C61.864,120.536 62.339,120.441 62.785,120.253 C63.232,120.064 63.62,119.805 63.949,119.476 C64.278,119.146 64.538,118.76 64.729,118.315 C64.92,117.871 65.016,117.395 65.016,116.89 C65.016,116.383 64.92,115.907 64.729,115.463 C64.538,115.019 64.278,114.632 63.949,114.303 C63.62,113.974 63.232,113.716 62.785,113.529 C62.339,113.343 61.864,113.25 61.363,113.25 C60.856,113.25 60.379,113.343 59.933,113.529 C59.486,113.716 59.097,113.974 58.766,114.303 C58.435,114.632 58.173,115.019 57.982,115.463 C57.791,115.907 57.695,116.383 57.695,116.89 L57.695,116.89 Z M66.583,116.89 C66.583,117.599 66.447,118.263 66.173,118.882 C65.899,119.501 65.525,120.041 65.051,120.501 C64.576,120.962 64.024,121.326 63.393,121.596 C62.762,121.865 62.085,122 61.363,122 C60.635,122 59.956,121.865 59.325,121.596 C58.694,121.326 58.142,120.962 57.668,120.501 C57.193,120.041 56.819,119.501 56.545,118.882 C56.271,118.263 56.135,117.599 56.135,116.89 C56.135,116.185 56.271,115.519 56.545,114.89 C56.819,114.262 57.193,113.717 57.668,113.257 C58.142,112.797 58.694,112.433 59.325,112.166 C59.956,111.898 60.635,111.765 61.363,111.765 C62.085,111.765 62.762,111.898 63.393,112.166 C64.024,112.433 64.576,112.797 65.051,113.257 C65.525,113.717 65.899,114.262 66.173,114.89 C66.447,115.519 66.583,116.185 66.583,116.89 L66.583,116.89 Z" id="Fill-5" fill="#595A59"></path>
            <path d="M70.893,113.111 L70.893,117.311 L71.121,117.311 C72.309,117.099 72.903,116.393 72.903,115.19 C72.903,113.952 72.233,113.259 70.893,113.111 L70.893,113.111 Z M69.346,111.779 L71.57,111.779 C73.494,112.258 74.456,113.362 74.456,115.094 C74.456,116.517 73.808,117.656 72.509,118.513 L74.83,122 L72.903,122 L70.893,118.893 L70.893,122 L69.346,122 L69.346,111.779 L69.346,111.779 Z" id="Fill-6" fill="#595A59"></path>
            <polyline id="Fill-7" fill="#595A59" points="77.592 111.834 83.338 111.834 83.338 113.16 79.139 113.16 79.139 117.138 82.233 117.138 82.233 118.685 79.139 118.685 79.139 120.453 83.338 120.453 83.338 122 77.592 122 77.592 111.834"></polyline>
            <polyline id="Fill-8" fill="#595A59" points="93.007 111.779 99.637 111.779 99.637 113.104 97.095 113.104 97.095 121.944 95.548 121.944 95.548 113.104 93.007 113.104 93.007 111.779"></polyline>
            <polyline id="Fill-9" fill="#595A59" points="102.399 111.779 103.96 111.779 103.96 117.11 107.51 117.11 107.51 111.779 109.071 111.779 109.071 122 107.51 122 107.51 118.664 103.96 118.664 103.96 122 102.399 122 102.399 111.779"></polyline>
            <path d="M114.858,118.692 L117.745,118.692 L116.302,115.336 L114.858,118.692 L114.858,118.692 Z M116.302,111.779 L120.77,122 L119.195,122 L118.284,119.99 L114.32,119.99 L113.408,122 L111.833,122 L116.302,111.779 L116.302,111.779 Z" id="Fill-10" fill="#595A59"></path>
            <polyline id="Fill-11" fill="#595A59" points="123.533 111.779 128.837 117.58 128.837 111.779 130.384 111.779 130.384 122 125.079 116.033 125.079 122 123.533 122 123.533 111.779"></polyline>
            <polyline id="Fill-12" fill="#595A59" points="140.052 111.779 145.356 117.58 145.356 111.779 146.903 111.779 146.903 122 141.599 116.033 141.599 122 140.052 122 140.052 111.779"></polyline>
            <path d="M152.69,118.692 L155.577,118.692 L154.134,115.336 L152.69,118.692 L152.69,118.692 Z M154.134,111.779 L158.603,122 L157.027,122 L156.116,119.99 L152.151,119.99 L151.24,122 L149.665,122 L154.134,111.779 L154.134,111.779 Z" id="Fill-13" fill="#595A59"></path>
            <polyline id="Fill-14" fill="#595A59" points="161.364 111.779 167.995 111.779 167.995 113.104 165.453 113.104 165.453 121.944 163.906 121.944 163.906 113.104 161.364 113.104 161.364 111.779"></polyline>
            <path d="M177.388,117.85 C177.388,120.524 176.282,121.908 174.072,122 C171.862,121.908 170.757,120.524 170.757,117.85 L170.757,111.779 L172.312,111.779 L172.312,117.85 C172.312,119.558 172.897,120.411 174.072,120.411 C175.246,120.411 175.833,119.558 175.833,117.85 L175.833,111.779 L177.388,111.779 L177.388,117.85" id="Fill-15" fill="#595A59"></path>
            <path d="M181.696,113.111 L181.696,117.311 L181.925,117.311 C183.112,117.099 183.706,116.393 183.706,115.19 C183.706,113.952 183.036,113.259 181.696,113.111 L181.696,113.111 Z M180.149,111.779 L182.374,111.779 C184.298,112.258 185.261,113.362 185.261,115.094 C185.261,116.517 184.611,117.656 183.313,118.513 L185.634,122 L183.706,122 L181.696,118.893 L181.696,122 L180.149,122 L180.149,111.779 L180.149,111.779 Z" id="Fill-16" fill="#595A59"></path>
            <path d="M191.421,118.692 L194.308,118.692 L192.864,115.336 L191.421,118.692 L191.421,118.692 Z M192.864,111.779 L197.333,122 L195.758,122 L194.847,119.99 L190.882,119.99 L189.971,122 L188.396,122 L192.864,111.779 L192.864,111.779 Z" id="Fill-17" fill="#595A59"></path>
            <polyline id="Fill-18" fill="#595A59" points="200.095 111.834 201.642 111.834 201.642 120.453 205.179 120.453 205.179 122 200.095 122 200.095 111.834"></polyline>
            <path d="M8.202,47.74 L0.843,61.218 L62.921,61.218 C62.921,61.218 76.039,62.091 83.501,49.175 L94.651,24.839 L33.743,24.839 C33.743,24.839 36.087,14.915 46.609,14.39 C57.132,13.863 99.418,14.39 99.418,14.39 L105.981,0.853 L48.851,0.853 C48.851,0.853 32.936,0.712 23.99,13.863 C15.05,27.015 11.648,37.691 11.648,37.691 L74.21,37.691 C74.21,37.691 73.288,47.9 55.447,47.74 L8.202,47.74" id="Fill-19" fill="#FFFFFF"></path>
            <path d="M8.202,47.74 L0.843,61.218 L62.921,61.218 C62.921,61.218 76.039,62.091 83.501,49.175 L94.651,24.839 L33.743,24.839 C33.743,24.839 36.087,14.915 46.609,14.39 C57.132,13.863 99.418,14.39 99.418,14.39 L105.981,0.853 L48.851,0.853 C48.851,0.853 32.936,0.712 23.99,13.863 C15.05,27.015 11.648,37.691 11.648,37.691 L74.21,37.691 C74.21,37.691 73.288,47.9 55.447,47.74 L8.202,47.74 L8.202,47.74 Z" id="Stroke-20" stroke="#595A59"></path>
            <path d="M174.9,35.396 L179.986,25.015 L136.859,25.015 C136.859,25.015 120.607,24.339 115.468,33.372 C110.208,42.628 107.705,47.74 107.705,47.74 L157.119,47.74 C157.119,47.74 155.543,51.759 146.961,51.759 C139.645,51.759 136.594,51.523 106.135,51.759 L101.862,61.232 L151.777,61.232 C151.777,61.232 162.293,59.765 167.012,50.853 L173.557,37.691 L124.879,37.691 C124.879,37.691 125.172,35.275 131.156,35.396 C139.635,35.568 174.9,35.396 174.9,35.396" id="Fill-22" fill="#FFFFFF"></path>
            <path d="M174.9,35.396 L179.986,25.015 L136.859,25.015 C136.859,25.015 120.607,24.339 115.468,33.372 C110.208,42.628 107.705,47.74 107.705,47.74 L157.119,47.74 C157.119,47.74 155.543,51.759 146.961,51.759 C139.645,51.759 136.594,51.523 106.135,51.759 L101.862,61.232 L151.777,61.232 C151.777,61.232 162.293,59.765 167.012,50.853 L173.557,37.691 L124.879,37.691 C124.879,37.691 125.172,35.275 131.156,35.396 C139.635,35.568 174.9,35.396 174.9,35.396 L174.9,35.396 Z" id="Stroke-23" stroke="#595A59"></path>
            <polyline id="Fill-24" fill="#FFFFFF" points="100.796 24.913 111.406 24.913 95.536 61.218 84.487 61.218 100.796 24.913"></polyline>
            <polygon id="Stroke-25" stroke="#595A59" points="100.796 24.913 111.406 24.913 95.536 61.218 84.487 61.218"></polygon>
            <path d="M185.836,24.81 L246.223,24.81 L230.527,61.005 L184.709,61.005 C184.709,61.005 176.678,62.089 174.424,56.21 C174.424,56.21 172.658,54.662 174.906,47.857 L179.568,37.646 L226.227,37.646 L222.01,47.701 L185.033,47.701 C185.033,47.701 182.674,51.759 187.84,51.759 L223.426,51.759 L230.314,35.396 L180.578,35.396 L185.836,24.81" id="Fill-26" fill="#FFFFFF"></path>
            <path d="M185.836,24.81 L246.223,24.81 L230.527,61.005 L184.709,61.005 C184.709,61.005 176.678,62.089 174.424,56.21 C174.424,56.21 172.658,54.662 174.906,47.857 L179.568,37.646 L226.227,37.646 L222.01,47.701 L185.033,47.701 C185.033,47.701 182.674,51.759 187.84,51.759 L223.426,51.759 L230.314,35.396 L180.578,35.396 L185.836,24.81 L185.836,24.81 Z" id="Stroke-27" stroke="#595A59"></path>
        </g>
    </g>
</svg>