<?xml version="1.0" encoding="UTF-8" standalone="no"?>
<svg width="364px" height="63px" viewBox="0 0 364 63" version="1.1" xmlns="http://www.w3.org/2000/svg" xmlns:xlink="http://www.w3.org/1999/xlink">
    <!-- Generator: Sketch 3.7 (28169) - http://www.bohemiancoding.com/sketch -->
    <title>Slice 1</title>
    <desc>Created with Sketch.</desc>
    <defs></defs>
    <g id="Page-1" stroke="none" stroke-width="1" fill="none" fill-rule="evenodd">
        <g id="stockmayer">
            <g id="Page-1">
                <g id="stockmayer">
                    <g id="Group" transform="translate(101.000000, 46.000000)" fill="#333333">
                        <path d="M2.814,3.176 L4.555,3.176 L4.679,3.071 L4.986,1.331 L4.901,1.227 L3.16,1.227 L3.037,1.331 L2.729,3.071 L2.814,3.176 L2.814,3.176 L2.814,3.176 L2.814,3.176 Z M0.602,15.839 L0.688,15.943 L2.156,15.943 L2.279,15.839 L4.09,5.572 L4,5.488 L2.499,5.677 L2.372,5.803 L0.602,15.839 L0.602,15.839 L0.602,15.839 L0.602,15.839 Z" id="Shape"></path>
                        <path d="M5.827,15.839 L5.913,15.943 L7.381,15.943 L7.505,15.839 L9.008,7.313 C9.158,7.274 9.379,7.217 9.669,7.141 C9.959,7.066 10.251,6.995 10.546,6.932 C10.84,6.868 11.07,6.834 11.236,6.83 C11.86,6.819 12.369,7.003 12.764,7.381 C13.16,7.759 13.29,8.395 13.156,9.287 L12.001,15.839 L12.087,15.943 L13.555,15.943 L13.678,15.839 L14.893,8.951 C15.081,7.752 14.915,6.847 14.396,6.238 C13.876,5.628 13.143,5.322 12.196,5.32 C11.45,5.336 10.847,5.463 10.386,5.7 C9.925,5.937 9.58,6.189 9.354,6.457 C9.128,6.725 8.995,6.912 8.955,7.019 L8.627,5.551 L8.516,5.467 L7.203,5.656 L7.076,5.782 L7.253,7.756 L5.827,15.839 L5.827,15.839 L5.827,15.839 L5.827,15.839 Z" id="Shape"></path>
                        <path d="M17.215,15.839 L17.301,15.943 L18.769,15.943 L18.893,15.839 L20.396,7.313 C20.546,7.274 20.768,7.217 21.057,7.141 C21.347,7.066 21.64,6.995 21.934,6.932 C22.229,6.868 22.459,6.834 22.624,6.83 C23.248,6.819 23.757,7.003 24.153,7.381 C24.548,7.759 24.678,8.395 24.544,9.287 L23.389,15.839 L23.475,15.943 L24.943,15.943 L25.067,15.839 L26.281,8.951 C26.469,7.752 26.303,6.847 25.784,6.238 C25.265,5.628 24.532,5.322 23.584,5.32 C22.839,5.336 22.235,5.463 21.774,5.7 C21.312,5.937 20.968,6.189 20.743,6.457 C20.516,6.725 20.383,6.912 20.343,7.019 L20.014,5.551 L19.903,5.467 L18.59,5.656 L18.463,5.782 L18.64,7.756 L17.215,15.839 L17.215,15.839 L17.215,15.839 L17.215,15.839 Z" id="Shape"></path>
                        <path d="M28.759,12.565 C28.574,13.746 28.798,14.645 29.431,15.263 C30.064,15.88 30.97,16.192 32.148,16.196 C33.329,16.192 34.344,15.881 35.195,15.263 C36.047,14.645 36.588,13.745 36.82,12.565 L37.456,8.952 C37.641,7.772 37.417,6.873 36.783,6.255 C36.15,5.637 35.244,5.325 34.066,5.321 C32.885,5.325 31.87,5.636 31.019,6.255 C30.167,6.873 29.626,7.773 29.394,8.952 L28.759,12.565 L28.759,12.565 L28.759,12.565 L28.759,12.565 Z M30.499,12.208 L31.014,9.288 C31.161,8.478 31.472,7.866 31.947,7.453 C32.423,7.039 33.041,6.832 33.801,6.831 C34.542,6.832 35.082,7.039 35.419,7.453 C35.757,7.866 35.857,8.478 35.721,9.288 L35.206,12.208 C35.057,13.02 34.74,13.635 34.256,14.055 C33.771,14.474 33.158,14.685 32.416,14.688 C31.656,14.685 31.112,14.474 30.783,14.055 C30.454,13.634 30.359,13.019 30.499,12.208 L30.499,12.208 L30.499,12.208 L30.499,12.208 Z" id="Shape"></path>
                        <polygon id="Shape" points="41.652 15.671 41.776 15.797 43.005 16.091 43.167 16.007 48.849 5.573 48.805 5.467 47.088 5.677 46.943 5.783 43.262 13.089 42.772 14.202 42.674 13.089 41.526 5.552 41.436 5.467 39.782 5.677 39.655 5.803"></polygon>
                        <path d="M48.676,13.111 C48.553,13.876 48.612,14.485 48.85,14.937 C49.089,15.389 49.433,15.713 49.883,15.91 C50.334,16.105 50.814,16.201 51.323,16.196 C52.096,16.175 52.714,16.024 53.175,15.745 C53.636,15.466 53.968,15.186 54.17,14.907 C54.372,14.628 54.472,14.477 54.467,14.456 L54.809,15.966 L54.919,16.05 L56.232,15.861 L56.359,15.735 L56.16,13.887 L57.108,8.512 C57.286,7.36 57.062,6.536 56.437,6.042 C55.812,5.549 54.95,5.309 53.851,5.321 C53.279,5.322 52.727,5.399 52.198,5.551 C51.668,5.704 51.186,5.928 50.752,6.222 L50.68,6.39 L51.208,7.44 L51.372,7.461 C51.674,7.251 52.012,7.094 52.385,6.988 C52.759,6.883 53.151,6.831 53.563,6.831 C54.171,6.812 54.656,6.943 55.018,7.222 C55.379,7.501 55.498,8.036 55.376,8.827 L55.202,9.815 C55.109,9.87 54.983,9.918 54.825,9.96 C54.666,10.001 54.472,10.023 54.241,10.025 L53.506,10.025 C52.821,10.019 52.192,10.073 51.618,10.187 C51.044,10.301 50.535,10.513 50.09,10.822 C49.748,11.062 49.453,11.373 49.202,11.753 C48.949,12.133 48.775,12.585 48.676,13.111 L48.676,13.111 L48.676,13.111 L48.676,13.111 Z M50.434,13.131 C50.575,12.505 50.862,12.086 51.294,11.873 C51.727,11.659 52.141,11.56 52.536,11.576 L53.041,11.576 C53.414,11.583 53.791,11.511 54.177,11.358 C54.563,11.205 54.861,10.928 55.074,10.527 L54.449,14.077 C54.436,14.084 54.291,14.137 54.012,14.234 C53.733,14.333 53.395,14.43 52.999,14.528 C52.603,14.626 52.224,14.678 51.861,14.686 C51.332,14.679 50.942,14.536 50.692,14.255 C50.443,13.975 50.357,13.601 50.434,13.131 L50.434,13.131 L50.434,13.131 L50.434,13.131 Z" id="Shape"></path>
                        <path d="M60.65,12.271 C60.44,13.584 60.591,14.566 61.103,15.218 C61.615,15.87 62.36,16.197 63.336,16.196 C63.81,16.191 64.264,16.112 64.701,15.958 C65.138,15.804 65.551,15.604 65.941,15.358 L66.008,15.211 L65.568,14.015 L65.425,13.994 C65.405,14.021 65.227,14.13 64.889,14.319 C64.552,14.509 64.174,14.618 63.755,14.645 C63.175,14.63 62.765,14.392 62.524,13.93 C62.283,13.469 62.225,12.873 62.348,12.145 L63.241,7.082 L66.286,7.082 L66.452,6.977 L67.08,5.677 L66.994,5.573 L63.508,5.573 L63.919,3.242 L63.829,3.158 L62.604,3.326 L62.477,3.452 L61.914,5.573 L60.696,5.573 L60.573,5.677 L60.344,6.977 L60.43,7.082 L61.564,7.082 L60.65,12.271 L60.65,12.271 L60.65,12.271 L60.65,12.271 Z" id="Shape"></path>
                        <path d="M70.08,3.176 L71.821,3.176 L71.945,3.071 L72.252,1.331 L72.166,1.227 L70.425,1.227 L70.302,1.331 L69.994,3.071 L70.08,3.176 L70.08,3.176 L70.08,3.176 L70.08,3.176 Z M67.868,15.839 L67.954,15.943 L69.422,15.943 L69.545,15.839 L71.356,5.572 L71.266,5.487 L69.765,5.676 L69.638,5.802 L67.868,15.839 L67.868,15.839 L67.868,15.839 L67.868,15.839 Z" id="Shape"></path>
                        <polygon id="Shape" points="75.495 15.671 75.619 15.797 76.848 16.091 77.01 16.007 82.691 5.573 82.646 5.467 80.931 5.677 80.786 5.783 77.104 13.089 76.614 14.202 76.517 13.089 75.369 5.552 75.278 5.467 73.625 5.677 73.498 5.803"></polygon>
                        <path d="M83.014,12.564 C82.813,13.763 83.016,14.668 83.623,15.279 C84.232,15.888 85.187,16.195 86.488,16.196 C87.392,16.193 88.197,16.011 88.902,15.651 C89.609,15.291 90.15,14.773 90.533,14.098 L90.492,13.972 L89.31,13.531 L89.158,13.573 C88.904,13.923 88.582,14.195 88.191,14.39 C87.8,14.584 87.293,14.684 86.67,14.687 C85.949,14.684 85.414,14.473 85.07,14.053 C84.724,13.633 84.621,13.018 84.756,12.206 L84.947,11.114 L84.98,10.339 C84.982,10.4 85.044,10.523 85.166,10.708 C85.285,10.894 85.52,11.071 85.865,11.241 C86.211,11.41 86.72,11.501 87.398,11.512 C88.416,11.513 89.287,11.259 90.013,10.749 C90.74,10.238 91.202,9.465 91.406,8.426 C91.498,7.925 91.467,7.439 91.308,6.967 C91.149,6.495 90.828,6.106 90.343,5.798 C89.857,5.49 89.169,5.33 88.28,5.319 C87.073,5.327 86.053,5.652 85.223,6.295 C84.391,6.938 83.862,7.851 83.635,9.035 L83.014,12.564 L83.014,12.564 L83.014,12.564 L83.014,12.564 Z M85.205,9.647 L85.273,9.268 C85.419,8.458 85.724,7.85 86.183,7.442 C86.642,7.035 87.232,6.831 87.951,6.831 C88.646,6.848 89.123,7.008 89.383,7.311 C89.641,7.615 89.735,7.958 89.66,8.343 C89.527,8.984 89.23,9.426 88.765,9.672 C88.302,9.918 87.771,10.036 87.177,10.025 C86.599,10.009 86.128,9.946 85.765,9.836 C85.404,9.725 85.217,9.663 85.205,9.647 L85.205,9.647 L85.205,9.647 L85.205,9.647 Z" id="Shape"></path>
                        <path d="M99.289,12.271 C99.08,13.584 99.23,14.566 99.742,15.218 C100.254,15.87 101,16.197 101.974,16.196 C102.449,16.191 102.904,16.112 103.341,15.958 C103.777,15.804 104.191,15.604 104.579,15.358 L104.647,15.211 L104.208,14.015 L104.063,13.994 C104.043,14.021 103.866,14.13 103.528,14.319 C103.192,14.509 102.813,14.618 102.395,14.645 C101.815,14.63 101.405,14.392 101.163,13.93 C100.923,13.469 100.864,12.873 100.987,12.145 L101.88,7.082 L104.925,7.082 L105.091,6.977 L105.72,5.677 L105.634,5.573 L102.148,5.573 L102.558,3.242 L102.468,3.158 L101.243,3.326 L101.116,3.452 L100.553,5.573 L99.334,5.573 L99.211,5.677 L98.982,6.977 L99.068,7.082 L100.203,7.082 L99.289,12.271 L99.289,12.271 L99.289,12.271 L99.289,12.271 Z" id="Shape"></path>
                        <path d="M106.75,12.564 C106.547,13.763 106.75,14.668 107.359,15.279 C107.966,15.888 108.922,16.195 110.222,16.196 C111.126,16.193 111.931,16.011 112.636,15.651 C113.341,15.291 113.886,14.773 114.265,14.098 L114.226,13.972 L113.044,13.531 L112.89,13.573 C112.638,13.923 112.316,14.195 111.925,14.39 C111.534,14.584 111.027,14.684 110.405,14.687 C109.682,14.684 109.147,14.473 108.803,14.053 C108.459,13.633 108.354,13.018 108.487,12.206 L108.68,11.114 L108.711,10.339 C108.715,10.4 108.777,10.523 108.899,10.708 C109.021,10.893 109.253,11.071 109.598,11.241 C109.942,11.41 110.453,11.501 111.131,11.512 C112.149,11.513 113.02,11.259 113.746,10.749 C114.473,10.238 114.935,9.465 115.139,8.426 C115.233,7.925 115.2,7.439 115.041,6.967 C114.882,6.495 114.561,6.106 114.076,5.798 C113.59,5.49 112.902,5.33 112.013,5.319 C110.806,5.327 109.786,5.652 108.954,6.295 C108.124,6.938 107.595,7.851 107.368,9.035 L106.75,12.564 L106.75,12.564 L106.75,12.564 L106.75,12.564 Z M108.941,9.647 L109.007,9.268 C109.153,8.458 109.458,7.85 109.917,7.442 C110.376,7.035 110.966,6.831 111.685,6.831 C112.38,6.848 112.857,7.008 113.117,7.311 C113.375,7.615 113.469,7.958 113.394,8.343 C113.261,8.984 112.964,9.426 112.499,9.672 C112.036,9.918 111.507,10.036 110.911,10.025 C110.333,10.009 109.862,9.946 109.501,9.836 C109.139,9.725 108.951,9.663 108.941,9.647 L108.941,9.647 L108.941,9.647 L108.941,9.647 Z" id="Shape"></path>
                        <polygon id="Shape" points="115.559 15.839 115.625 15.944 117.303 15.944 117.49 15.839 120.432 12.25 120.799 11.724 121 12.25 122.697 15.839 122.846 15.944 124.566 15.944 124.67 15.839 121.98 10.612 126.334 5.573 126.221 5.489 124.426 5.677 124.238 5.783 121.566 9.037 121.172 9.604 120.957 9.037 119.324 5.551 119.193 5.467 117.623 5.677 117.496 5.803 120.014 10.696"></polygon>
                        <path d="M127.5,12.271 C127.289,13.584 127.439,14.566 127.953,15.218 C128.465,15.87 129.209,16.197 130.185,16.196 C130.658,16.191 131.113,16.112 131.55,15.958 C131.986,15.804 132.4,15.604 132.79,15.358 L132.858,15.211 L132.417,14.015 L132.274,13.994 C132.254,14.021 132.075,14.13 131.739,14.319 C131.401,14.509 131.024,14.618 130.604,14.645 C130.026,14.63 129.616,14.392 129.374,13.93 C129.134,13.469 129.075,12.873 129.198,12.145 L130.091,7.082 L133.136,7.082 L133.302,6.977 L133.929,5.677 L133.843,5.573 L130.357,5.573 L130.767,3.242 L130.679,3.158 L129.452,3.326 L129.325,3.452 L128.762,5.573 L127.545,5.573 L127.422,5.677 L127.192,6.977 L127.28,7.082 L128.413,7.082 L127.5,12.271 L127.5,12.271 L127.5,12.271 L127.5,12.271 Z" id="Shape"></path>
                        <path d="M136.93,3.176 L138.67,3.176 L138.793,3.071 L139.1,1.331 L139.014,1.227 L137.272,1.227 L137.151,1.331 L136.842,3.071 L136.93,3.176 L136.93,3.176 L136.93,3.176 L136.93,3.176 Z M134.717,15.839 L134.803,15.943 L136.272,15.943 L136.395,15.839 L138.206,5.572 L138.116,5.487 L136.614,5.676 L136.487,5.802 L134.717,15.839 L134.717,15.839 L134.717,15.839 L134.717,15.839 Z" id="Shape"></path>
                        <path d="M140.227,13.634 C140.118,14.358 140.178,14.889 140.413,15.229 C140.645,15.569 140.933,15.787 141.272,15.882 C141.612,15.977 141.885,16.019 142.094,16.007 L142.262,16.007 L142.385,15.902 L142.85,14.582 L142.784,14.478 L142.7,14.478 C142.52,14.49 142.335,14.434 142.139,14.312 C141.943,14.19 141.871,13.93 141.922,13.533 L144.172,0.765 L144.082,0.681 L142.578,0.891 L142.451,1.017 L140.227,13.634 L140.227,13.634 L140.227,13.634 L140.227,13.634 Z" id="Shape"></path>
                        <path d="M145.535,12.564 C145.334,13.763 145.537,14.668 146.144,15.279 C146.753,15.888 147.708,16.195 149.009,16.196 C149.913,16.193 150.718,16.011 151.423,15.651 C152.128,15.291 152.671,14.773 153.052,14.098 L153.013,13.972 L151.831,13.531 L151.677,13.573 C151.425,13.923 151.103,14.195 150.712,14.39 C150.321,14.584 149.814,14.684 149.191,14.687 C148.468,14.684 147.935,14.473 147.591,14.053 C147.245,13.633 147.142,13.018 147.275,12.206 L147.468,11.114 L147.499,10.339 C147.503,10.4 147.565,10.523 147.687,10.708 C147.806,10.894 148.039,11.071 148.384,11.241 C148.73,11.41 149.241,11.501 149.919,11.512 C150.937,11.513 151.808,11.259 152.534,10.749 C153.259,10.238 153.723,9.465 153.927,8.426 C154.019,7.925 153.988,7.439 153.829,6.967 C153.67,6.495 153.349,6.106 152.864,5.798 C152.378,5.49 151.69,5.33 150.8,5.319 C149.595,5.327 148.575,5.652 147.743,6.295 C146.913,6.938 146.384,7.851 146.157,9.035 L145.535,12.564 L145.535,12.564 L145.535,12.564 L145.535,12.564 Z M147.727,9.647 L147.793,9.268 C147.941,8.458 148.244,7.85 148.705,7.442 C149.164,7.035 149.754,6.831 150.473,6.831 C151.168,6.848 151.645,7.008 151.905,7.311 C152.163,7.615 152.255,7.958 152.182,8.343 C152.049,8.984 151.752,9.426 151.287,9.672 C150.822,9.918 150.293,10.036 149.699,10.025 C149.119,10.009 148.65,9.946 148.287,9.836 C147.926,9.725 147.738,9.663 147.727,9.647 L147.727,9.647 L147.727,9.647 L147.727,9.647 Z" id="Shape"></path>
                        <path d="M154.893,15.232 C155.245,15.538 155.682,15.775 156.206,15.942 C156.73,16.109 157.298,16.194 157.915,16.196 C158.94,16.217 159.854,15.997 160.659,15.536 C161.462,15.074 161.985,14.245 162.227,13.049 C162.36,12.148 162.204,11.495 161.762,11.092 C161.319,10.689 160.778,10.396 160.133,10.216 C159.488,10.035 158.932,9.828 158.459,9.596 C157.986,9.363 157.787,8.966 157.859,8.407 C157.955,7.909 158.218,7.523 158.648,7.249 C159.078,6.975 159.607,6.836 160.238,6.832 C160.539,6.836 160.836,6.891 161.129,6.997 C161.422,7.103 161.672,7.237 161.881,7.398 L162.027,7.398 L163.041,6.287 L163.025,6.14 C162.664,5.859 162.269,5.652 161.837,5.519 C161.403,5.387 160.946,5.322 160.46,5.323 C159.825,5.321 159.204,5.427 158.593,5.642 C157.984,5.857 157.456,6.192 157.013,6.647 C156.568,7.102 156.277,7.689 156.138,8.408 C156.007,9.301 156.161,9.956 156.603,10.374 C157.041,10.792 157.582,11.1 158.222,11.297 C158.863,11.493 159.419,11.706 159.894,11.936 C160.367,12.165 160.57,12.537 160.507,13.051 C160.374,13.689 160.085,14.125 159.636,14.359 C159.185,14.592 158.679,14.703 158.116,14.69 C157.768,14.684 157.389,14.612 156.981,14.474 C156.575,14.337 156.266,14.17 156.057,13.975 L155.885,13.996 L154.893,15.108 L154.893,15.232 L154.893,15.232 L154.893,15.232 L154.893,15.232 Z" id="Shape"></path>
                        <path d="M180.531,13.111 C180.408,13.876 180.467,14.485 180.705,14.937 C180.943,15.389 181.287,15.713 181.738,15.91 C182.187,16.105 182.668,16.201 183.177,16.196 C183.95,16.175 184.568,16.024 185.029,15.745 C185.49,15.466 185.822,15.186 186.025,14.907 C186.226,14.628 186.326,14.477 186.322,14.456 L186.664,15.966 L186.773,16.05 L188.087,15.861 L188.214,15.735 L188.015,13.887 L188.962,8.512 C189.14,7.36 188.915,6.536 188.29,6.042 C187.665,5.549 186.804,5.309 185.704,5.321 C185.132,5.322 184.581,5.399 184.05,5.551 C183.521,5.704 183.038,5.928 182.605,6.222 L182.535,6.39 L183.062,7.44 L183.226,7.461 C183.529,7.251 183.865,7.094 184.238,6.988 C184.613,6.883 185.006,6.831 185.418,6.831 C186.025,6.812 186.51,6.943 186.873,7.222 C187.234,7.501 187.353,8.036 187.23,8.827 L187.056,9.815 C186.962,9.87 186.837,9.918 186.677,9.96 C186.519,10.001 186.323,10.023 186.093,10.025 L185.359,10.025 C184.673,10.019 184.045,10.073 183.47,10.187 C182.895,10.301 182.386,10.513 181.941,10.822 C181.599,11.062 181.304,11.373 181.052,11.753 C180.803,12.133 180.629,12.585 180.531,13.111 L180.531,13.111 L180.531,13.111 L180.531,13.111 Z M182.289,13.131 C182.43,12.505 182.717,12.086 183.148,11.873 C183.582,11.659 183.996,11.56 184.39,11.576 L184.896,11.576 C185.269,11.583 185.646,11.511 186.031,11.358 C186.418,11.206 186.717,10.928 186.929,10.527 L186.304,14.077 C186.29,14.084 186.146,14.137 185.866,14.234 C185.587,14.333 185.249,14.43 184.854,14.528 C184.458,14.626 184.079,14.678 183.715,14.686 C183.186,14.679 182.795,14.536 182.547,14.255 C182.299,13.975 182.211,13.601 182.289,13.131 L182.289,13.131 L182.289,13.131 L182.289,13.131 Z" id="Shape"></path>
                        <path d="M191.666,15.839 L191.752,15.943 L193.221,15.943 L193.344,15.839 L194.846,7.313 C194.996,7.274 195.217,7.217 195.508,7.141 C195.797,7.066 196.09,6.995 196.385,6.932 C196.68,6.868 196.91,6.834 197.076,6.83 C197.699,6.819 198.209,7.003 198.603,7.381 C198.999,7.759 199.128,8.395 198.994,9.287 L197.84,15.839 L197.926,15.943 L199.395,15.943 L199.518,15.839 L200.733,8.951 C200.921,7.752 200.754,6.847 200.235,6.238 C199.717,5.628 198.983,5.322 198.036,5.32 C197.29,5.336 196.686,5.463 196.225,5.7 C195.764,5.937 195.42,6.189 195.194,6.457 C194.968,6.725 194.835,6.912 194.796,7.019 L194.466,5.551 L194.355,5.467 L193.042,5.656 L192.915,5.782 L193.093,7.756 L191.666,15.839 L191.666,15.839 L191.666,15.839 L191.666,15.839 Z" id="Shape"></path>
                        <path d="M203.242,12.502 C203.047,13.712 203.185,14.63 203.662,15.255 C204.137,15.879 204.851,16.193 205.803,16.195 C206.741,16.172 207.465,15.978 207.981,15.616 C208.495,15.255 208.844,14.867 209.03,14.455 L209.372,15.965 L209.483,16.049 L210.796,15.86 L210.923,15.734 L210.724,13.886 L213.038,0.764 L212.948,0.68 L211.444,0.89 L211.317,1.016 L210.594,5.111 L210.514,6.034 C210.229,5.803 209.901,5.626 209.532,5.505 C209.163,5.383 208.762,5.322 208.331,5.321 C207.206,5.324 206.237,5.633 205.429,6.247 C204.62,6.86 204.101,7.763 203.87,8.952 L203.242,12.502 L203.242,12.502 L203.242,12.502 L203.242,12.502 Z M204.982,12.145 L205.486,9.288 C205.64,8.478 205.957,7.866 206.433,7.453 C206.908,7.039 207.472,6.832 208.126,6.831 C208.831,6.832 209.335,7.019 209.636,7.393 C209.937,7.767 210.025,8.322 209.898,9.058 L209.009,14.099 C208.991,14.107 208.839,14.158 208.552,14.251 C208.265,14.346 207.947,14.44 207.595,14.535 C207.245,14.629 206.968,14.68 206.761,14.687 C206.142,14.697 205.656,14.503 205.3,14.109 C204.944,13.715 204.84,13.06 204.982,12.145 L204.982,12.145 L204.982,12.145 L204.982,12.145 Z" id="Shape"></path>
                        <path d="M219.383,15.839 L219.471,15.943 L220.938,15.943 L221.061,15.839 L222.565,7.313 C222.715,7.274 222.936,7.217 223.227,7.141 C223.516,7.066 223.809,6.995 224.104,6.932 C224.399,6.868 224.629,6.834 224.793,6.83 C225.404,6.819 225.861,7.003 226.164,7.381 C226.469,7.759 226.545,8.395 226.398,9.287 L225.242,15.839 L225.33,15.943 L226.797,15.943 L226.92,15.839 L228.164,8.782 C228.213,8.5 228.236,8.236 228.236,7.992 C228.234,7.749 228.22,7.522 228.193,7.312 C228.48,7.229 228.865,7.133 229.343,7.026 C229.821,6.919 230.195,6.86 230.458,6.85 C231.077,6.838 231.567,7.019 231.927,7.391 C232.287,7.763 232.396,8.395 232.257,9.287 L231.101,15.839 L231.167,15.943 L232.655,15.943 L232.778,15.839 L233.993,8.951 C234.186,7.752 234.042,6.847 233.559,6.238 C233.077,5.628 232.364,5.322 231.422,5.32 C230.75,5.332 230.186,5.434 229.727,5.63 C229.268,5.824 228.903,6.042 228.633,6.283 C228.365,6.524 228.18,6.721 228.08,6.872 C227.926,6.357 227.65,5.971 227.252,5.711 C226.854,5.451 226.354,5.32 225.752,5.32 C225.006,5.336 224.402,5.463 223.939,5.7 C223.478,5.937 223.134,6.189 222.908,6.457 C222.683,6.725 222.551,6.912 222.51,7.019 L222.182,5.551 L222.071,5.467 L220.758,5.656 L220.631,5.782 L220.807,7.756 L219.383,15.839 L219.383,15.839 L219.383,15.839 L219.383,15.839 Z" id="Shape"></path>
                        <path d="M236.338,12.565 C236.152,13.746 236.377,14.645 237.01,15.263 C237.645,15.88 238.551,16.192 239.729,16.196 C240.909,16.192 241.924,15.881 242.776,15.263 C243.628,14.645 244.169,13.745 244.401,12.565 L245.036,8.952 C245.222,7.772 244.997,6.873 244.364,6.255 C243.731,5.637 242.825,5.325 241.647,5.321 C240.465,5.325 239.452,5.636 238.6,6.255 C237.748,6.874 237.207,7.773 236.975,8.952 L236.338,12.565 L236.338,12.565 L236.338,12.565 L236.338,12.565 Z M238.078,12.208 L238.592,9.288 C238.74,8.478 239.051,7.866 239.526,7.453 C240.003,7.039 240.62,6.832 241.38,6.831 C242.122,6.832 242.661,7.039 242.999,7.453 C243.337,7.866 243.438,8.478 243.302,9.288 L242.786,12.208 C242.636,13.02 242.319,13.635 241.835,14.055 C241.351,14.474 240.737,14.685 239.995,14.688 C239.235,14.685 238.692,14.474 238.362,14.055 C238.033,13.634 237.939,13.019 238.078,12.208 L238.078,12.208 L238.078,12.208 L238.078,12.208 Z" id="Shape"></path>
                        <path d="M246.83,15.839 L246.916,15.943 L248.383,15.943 L248.506,15.839 L250.01,7.313 C250.24,7.25 250.467,7.203 250.69,7.171 C250.911,7.14 251.137,7.124 251.368,7.124 C251.587,7.123 251.786,7.136 251.962,7.163 C252.138,7.19 252.292,7.24 252.427,7.312 L252.593,7.208 L253.218,5.446 L253.134,5.32 C252.409,5.336 251.821,5.463 251.37,5.7 C250.917,5.937 250.579,6.189 250.354,6.457 C250.131,6.725 249.999,6.912 249.958,7.02 L249.63,5.551 L249.519,5.467 L248.206,5.656 L248.079,5.781 L248.257,7.754 L246.83,15.839 L246.83,15.839 L246.83,15.839 L246.83,15.839 Z" id="Shape"></path>
                        <path d="M254.096,12.564 C253.895,13.763 254.096,14.668 254.705,15.279 C255.312,15.888 256.268,16.195 257.57,16.196 C258.472,16.193 259.277,16.011 259.984,15.651 C260.689,15.291 261.232,14.773 261.613,14.098 L261.572,13.972 L260.392,13.531 L260.238,13.573 C259.984,13.923 259.662,14.195 259.271,14.39 C258.88,14.584 258.375,14.684 257.751,14.687 C257.028,14.684 256.495,14.473 256.149,14.053 C255.805,13.633 255.7,13.018 255.835,12.206 L256.026,11.114 L256.059,10.339 C256.061,10.4 256.123,10.523 256.245,10.708 C256.367,10.893 256.599,11.071 256.944,11.241 C257.29,11.41 257.801,11.501 258.477,11.512 C259.495,11.513 260.368,11.259 261.092,10.749 C261.819,10.238 262.283,9.465 262.485,8.426 C262.579,7.925 262.546,7.439 262.387,6.967 C262.228,6.495 261.908,6.106 261.422,5.798 C260.936,5.49 260.25,5.33 259.359,5.319 C258.152,5.327 257.134,5.652 256.302,6.295 C255.47,6.938 254.941,7.851 254.714,9.035 L254.096,12.564 L254.096,12.564 L254.096,12.564 L254.096,12.564 Z M256.287,9.647 L256.353,9.268 C256.501,8.458 256.804,7.85 257.263,7.442 C257.724,7.035 258.312,6.831 259.033,6.831 C259.726,6.848 260.205,7.008 260.463,7.311 C260.721,7.614 260.815,7.958 260.74,8.343 C260.609,8.984 260.31,9.426 259.847,9.672 C259.382,9.918 258.853,10.036 258.259,10.025 C257.679,10.009 257.208,9.946 256.847,9.836 C256.484,9.725 256.299,9.663 256.287,9.647 L256.287,9.647 L256.287,9.647 L256.287,9.647 Z" id="Shape"></path>
                    </g>
                    <g id="Group">
                        <path d="M0.616,36.898 C0.642,36.95 1.198,37.306 2.283,37.969 C3.367,38.632 4.825,39.295 6.654,39.958 C8.483,40.62 10.526,40.978 12.785,41.028 C14.919,41.049 17.036,40.696 19.135,39.967 C21.235,39.238 22.988,38.006 24.394,36.268 C25.8,34.53 26.531,32.158 26.586,29.152 C26.544,26.674 25.969,24.677 24.861,23.162 C23.754,21.646 22.368,20.448 20.704,19.567 C19.04,18.686 17.352,17.958 15.64,17.383 C13.916,16.805 12.423,16.111 11.159,15.3 C9.895,14.489 9.232,13.358 9.17,11.906 C9.164,10.395 9.628,9.178 10.562,8.257 C11.496,7.336 12.936,6.862 14.883,6.837 C16.407,6.867 17.735,7.079 18.866,7.471 C19.997,7.864 20.875,8.257 21.501,8.649 C22.127,9.042 22.445,9.253 22.454,9.283 L23.036,9.167 L26.119,4.451 L26.003,3.869 C25.992,3.827 25.529,3.53 24.612,2.979 C23.697,2.432 22.393,1.88 20.7,1.33 C19.007,0.779 16.99,0.482 14.649,0.44 C12.308,0.449 10.174,0.916 8.247,1.841 C6.319,2.766 4.776,4.095 3.62,5.829 C2.463,7.563 1.869,9.648 1.839,12.083 C1.879,14.405 2.427,16.273 3.484,17.687 C4.541,19.101 5.87,20.226 7.47,21.064 C9.071,21.901 10.706,22.617 12.377,23.211 C14.219,23.836 15.81,24.581 17.149,25.447 C18.489,26.312 19.191,27.567 19.254,29.212 C19.204,31.171 18.562,32.57 17.331,33.407 C16.1,34.245 14.584,34.652 12.785,34.631 C11.169,34.593 9.608,34.276 8.103,33.677 C6.598,33.078 5.402,32.426 4.516,31.718 L3.934,31.776 L0.5,36.317 L0.616,36.898 L0.616,36.898 L0.616,36.898 L0.616,36.898 Z" id="Shape" fill="#333333"></path>
                        <polygon id="Shape" fill="#333333" points="41.986 39.922 42.393 40.331 48.794 40.331 49.201 39.922 49.201 7.422 59.219 7.422 59.743 7.131 61.199 1.481 60.908 1.022 31.269 1.022 30.861 1.429 30.861 7.015 31.269 7.422 41.986 7.422"></polygon>
                        <path d="M64.873,26.473 C64.931,31.259 66.415,34.878 69.326,37.333 C72.237,39.787 76.226,41.019 81.294,41.028 C86.416,41.018 90.43,39.787 93.336,37.333 C96.242,34.878 97.721,31.258 97.774,26.473 L97.774,15.17 C97.721,10.352 96.242,6.695 93.336,4.201 C90.43,1.706 86.416,0.452 81.294,0.44 C76.226,0.453 72.236,1.707 69.326,4.201 C66.415,6.695 64.931,10.352 64.873,15.17 L64.873,26.473 L64.873,26.473 L64.873,26.473 L64.873,26.473 Z M72.205,26.007 L72.205,15.579 C72.256,12.691 73.116,10.514 74.784,9.046 C76.451,7.579 78.622,6.843 81.295,6.839 C84.022,6.842 86.216,7.578 87.879,9.046 C89.542,10.514 90.397,12.691 90.443,15.579 L90.443,26.007 C90.397,28.966 89.542,31.146 87.879,32.547 C86.216,33.948 84.021,34.642 81.295,34.63 C78.622,34.642 76.451,33.948 74.784,32.547 C73.115,31.146 72.255,28.966 72.205,26.007 L72.205,26.007 L72.205,26.007 L72.205,26.007 Z" id="Shape" fill="#333333"></path>
                        <path d="M104.667,26.473 C104.725,31.259 106.209,34.878 109.12,37.333 C112.03,39.787 116.018,41.019 121.085,41.028 C124.383,40.979 127.066,40.491 129.135,39.564 C131.204,38.636 132.792,37.563 133.898,36.342 C135.004,35.122 135.762,34.048 136.171,33.121 C136.58,32.193 136.774,31.705 136.752,31.657 L136.52,31.132 L130.812,29.035 L130.229,29.209 C130.255,29.276 130.021,29.745 129.528,30.614 C129.035,31.483 128.124,32.353 126.795,33.223 C125.466,34.092 123.563,34.56 121.085,34.627 C118.413,34.639 116.243,33.945 114.576,32.544 C112.909,31.144 112.05,28.963 111.999,26.004 L111.999,15.579 C112.05,12.691 112.909,10.514 114.576,9.046 C116.243,7.579 118.413,6.843 121.085,6.839 C123.17,6.904 124.837,7.362 126.085,8.214 C127.334,9.065 128.232,9.916 128.782,10.767 C129.332,11.618 129.6,12.076 129.589,12.142 L130.172,12.317 L135.88,9.928 L136.113,9.404 C136.13,9.357 135.915,8.89 135.469,8.004 C135.023,7.117 134.248,6.09 133.143,4.923 C132.038,3.756 130.505,2.729 128.545,1.842 C126.586,0.955 124.099,0.488 121.087,0.442 C116.02,0.455 112.032,1.709 109.122,4.203 C106.211,6.697 104.727,10.354 104.669,15.172 L104.669,26.473 L104.667,26.473 L104.667,26.473 L104.667,26.473 Z" id="Shape" fill="#333333"></path>
                        <path d="M143.753,39.922 L144.161,40.33 L150.561,40.33 L150.968,39.922 L150.968,22.624 L152.658,22.624 L153.24,22.974 L161.686,35.561 C161.878,35.896 162.322,36.454 163.019,37.231 C163.716,38.008 164.678,38.737 165.905,39.418 C167.132,40.099 168.638,40.461 170.423,40.506 C170.715,40.505 171.077,40.493 171.507,40.47 C171.938,40.448 172.256,40.42 172.461,40.39 L172.869,39.983 L173.801,34.398 L173.393,33.991 C173.389,34.001 173.224,34.039 172.898,34.107 C172.573,34.175 172.117,34.213 171.529,34.224 C170.535,34.177 169.727,33.92 169.105,33.452 C168.482,32.983 168.068,32.58 167.86,32.242 L160.289,21.23 L158.716,19.543 L160.23,17.972 L173.684,0.908 L173.276,0.5 L164.947,1.257 L164.365,1.606 L153.298,16.284 L152.658,16.634 L150.968,16.634 L150.968,1.022 L150.561,0.614 L144.161,1.37 L143.753,1.776 L143.753,39.922 L143.753,39.922 L143.753,39.922 L143.753,39.922 Z" id="Shape" fill="#333333"></path>
                        <polygon id="Shape" fill="#333333" points="180.927 39.922 181.334 40.331 187.734 40.331 188.143 39.922 188.143 14.066 190.006 18.026 196.939 29.79 197.465 30.197 202.941 30.197 203.465 29.79 210.34 18.084 212.379 13.833 212.379 39.922 212.787 40.331 219.07 40.331 219.479 39.922 219.479 0.906 218.955 0.614 212.611 1.313 212.146 1.663 200.203 22.627 187.852 0.906 187.328 0.614 181.334 1.313 180.927 1.721"></polygon>
                        <path d="M224.982,39.929 L225.39,40.33 L232.087,40.33 L232.493,39.929 L235.464,31.011 L249.439,31.011 L252.41,39.929 L252.818,40.33 L259.515,40.33 L259.921,39.929 L245.947,0.964 L245.539,0.556 L239.076,1.313 L238.668,1.721 L224.982,39.929 L224.982,39.929 L224.982,39.929 L224.982,39.929 Z M237.504,24.96 L241.404,13.253 L242.453,9.409 L243.502,13.253 L247.402,24.96 L237.504,24.96 L237.504,24.96 L237.504,24.96 L237.504,24.96 Z" id="Shape" fill="#333333"></path>
                        <polygon id="Shape" fill="#333333" points="304.152 39.922 304.561 40.331 326.104 40.331 326.57 39.981 327.385 34.389 327.037 33.93 311.369 33.93 311.369 22.915 323.309 22.915 323.832 22.624 325.289 16.98 324.998 16.515 311.369 16.515 311.369 7.422 326.861 7.422 327.27 7.015 327.27 1.429 326.861 1.022 304.561 1.022 304.152 1.429"></polygon>
                        <path d="M335.217,39.922 L335.625,40.33 L342.025,40.33 L342.431,39.922 L342.431,24.778 L344.064,24.778 L344.646,25.128 L351.406,35.56 C351.599,35.914 352.049,36.479 352.756,37.255 C353.461,38.031 354.434,38.756 355.668,39.429 C356.904,40.103 358.414,40.461 360.197,40.504 C360.49,40.503 360.851,40.491 361.281,40.468 C361.713,40.446 362.029,40.418 362.234,40.388 L362.642,39.981 L363.574,34.396 L363.166,33.989 C363.162,33.999 362.996,34.037 362.672,34.105 C362.346,34.173 361.891,34.211 361.303,34.222 C360.315,34.183 359.514,33.94 358.903,33.493 C358.294,33.047 357.872,32.629 357.637,32.24 L353.506,26.294 L351.873,24.314 C351.924,24.334 352.43,24.217 353.393,23.964 C354.354,23.712 355.469,23.202 356.735,22.436 C358.001,21.67 359.114,20.527 360.075,19.008 C361.038,17.488 361.544,15.472 361.595,12.959 C361.55,10.006 360.825,7.654 359.427,5.903 C358.027,4.153 356.226,2.897 354.023,2.136 C351.822,1.375 349.492,1.004 347.037,1.021 L335.627,1.021 L335.219,1.428 L335.219,39.922 L335.217,39.922 L335.217,39.922 L335.217,39.922 Z M342.432,18.729 L342.432,7.189 L347.153,7.189 C349.239,7.167 350.954,7.604 352.296,8.5 C353.64,9.396 354.333,10.882 354.38,12.959 C354.333,15.035 353.64,16.521 352.296,17.417 C350.954,18.313 349.239,18.75 347.153,18.728 L342.432,18.728 L342.432,18.729 L342.432,18.729 L342.432,18.729 Z" id="Shape" fill="#333333"></path>
                        <path d="M264.371,17.817 C260.107,9.448 258.344,1.8 260.433,0.735 C262.525,-0.33 267.675,5.591 271.939,13.961 C276.205,22.331 277.966,29.978 275.877,31.044 C273.787,32.108 268.635,26.187 264.371,17.817 L264.371,17.817 L264.371,17.817 L264.371,17.817 Z" id="Shape" fill="#333333"></path>
                        <path d="M279.566,27.705 C286.295,11.853 292.531,-0.498 295.693,0.678 C298.668,1.783 294.185,15.203 287.457,31.055 C280.728,46.907 274.328,59.521 271.328,58.082 C268.84,56.886 272.838,43.556 279.566,27.705 L279.566,27.705 L279.566,27.705 L279.566,27.705 Z" id="Shape" fill="#EF7102"></path>
                    </g>
                </g>
            </g>
        </g>
    </g>
</svg>