<svg version="1.1" id="Ebene_1" xmlns="http://www.w3.org/2000/svg" xmlns:xlink="http://www.w3.org/1999/xlink" x="0px" y="0px" viewBox="0 0 358.5139 67.5887" xml:space="preserve">
<style type="text/css">
	.st0{clip-path:url(#SVGID_2_);}
	.st1{clip-path:url(#SVGID_2_);fill:none;stroke:#000000;stroke-width:0.2;}
	.st2{clip-path:url(#SVGID_2_);fill:none;stroke:#000000;stroke-width:0.2;stroke-miterlimit:10;}
	.st3{clip-path:url(#SVGID_2_);fill:#3FB498;}
</style>
<g>
	<defs>
		<rect id="SVGID_1_" x="-238.5208" y="-301.6838" width="841.89" height="595.275"></rect>
	</defs>
	<clipPath id="SVGID_2_">
		<use xlink:href="#SVGID_1_" style="overflow:visible;"></use>
	</clipPath>
	<path class="st0" d="M24.1846,11.4385c0.619-1.871,0.825-2.211,1.134-2.211c0.31,0,0.516,0.283,1.135,2.042
		c0.774,2.155,8.871,25.579,12.017,34.199c1.856,5.049,3.352,5.955,4.435,6.297c0.775,0.283,1.548,0.339,2.064,0.339
		c0.308,0,0.515,0.057,0.515,0.34c0,0.34-0.464,0.453-1.031,0.453c-0.773,0-4.539,0-8.097-0.113
		c-0.981-0.056-1.547-0.056-1.547-0.396c0-0.227,0.154-0.34,0.36-0.397c0.31-0.113,0.619-0.625,0.31-1.531l-4.797-13.952
		c-0.103-0.228-0.205-0.341-0.464-0.341h-11.089c-0.258,0-0.412,0.17-0.516,0.454l-3.093,10.038
		c-0.465,1.418-0.723,2.779-0.723,3.801c0,1.133,1.084,1.644,1.96,1.644h0.517c0.36,0,0.515,0.114,0.515,0.34
		c0,0.34-0.31,0.453-0.774,0.453c-1.238,0-3.456-0.169-4.023-0.169s-3.404,0.169-5.828,0.169c-0.67,0-0.98-0.113-0.98-0.453
		c0-0.226,0.207-0.34,0.465-0.34c0.361,0,1.083-0.056,1.496-0.113c2.372-0.34,3.403-2.496,4.332-5.332L24.1846,11.4385z
		 M29.5476,34.1255c0.258,0,0.258-0.17,0.207-0.396l-4.9-15.314c-0.258-0.851-0.516-0.851-0.774,0l-4.538,15.314
		c-0.102,0.283,0,0.396,0.155,0.396H29.5476z"></path>
	<path class="st0" d="M51.6247,47.5678c-5-4.935-6.236-11.4-6.236-16.788c0-3.8,1.183-10.437,5.772-15.484
		c3.095-3.403,7.788-6.069,15.731-6.069c2.063,0,4.951,0.17,7.477,0.681c1.961,0.397,3.611,0.737,5.262,0.85
		c0.566,0.057,0.67,0.285,0.67,0.624c0,0.455-0.155,1.135-0.258,3.176c-0.104,1.872-0.104,4.991-0.154,5.842
		c-0.052,0.852-0.156,1.191-0.465,1.191c-0.361,0-0.412-0.396-0.412-1.191c0-2.212-0.825-4.537-2.166-5.784
		c-1.806-1.702-5.778-3.234-10.316-3.234c-6.859,0-10.057,2.212-11.862,4.141c-3.765,3.97-4.642,9.018-4.642,14.803
		c0,10.833,7.581,20.758,18.619,20.758c3.869,0,6.912-0.51,8.974-2.836c1.083-1.248,1.754-3.743,1.908-4.764
		c0.104-0.624,0.206-0.851,0.516-0.851c0.258,0,0.361,0.398,0.361,0.851c0,0.397-0.619,5.332-1.134,7.26
		c-0.31,1.078-0.413,1.191-1.342,1.644c-2.063,0.909-5.983,1.305-9.283,1.305C60.9077,53.6928,55.6987,51.5929,51.6247,47.5678"></path>
	<path class="st0" d="M121.1823,36.4517c0,5.444,0,9.925,0.258,12.308c0.155,1.644,0.464,2.892,2.011,3.119
		c0.722,0.113,1.857,0.226,2.321,0.226c0.309,0,0.413,0.17,0.413,0.34c0,0.283-0.258,0.453-0.826,0.453
		c-2.836,0-6.085-0.17-6.344-0.17c-0.258,0-3.506,0.17-5.054,0.17c-0.567,0-0.825-0.113-0.825-0.453c0-0.17,0.104-0.34,0.412-0.34
		c0.465,0,1.084-0.113,1.548-0.226c1.032-0.227,1.29-1.475,1.495-3.119c0.258-2.383,0.258-6.864,0.258-12.308v-5.956
		c0-0.227-0.154-0.34-0.309-0.34h-21.867c-0.155,0-0.31,0.057-0.31,0.34v5.956c0,5.444,0,9.925,0.257,12.308
		c0.156,1.644,0.465,2.892,2.012,3.119c0.723,0.113,1.858,0.226,2.321,0.226c0.31,0,0.413,0.17,0.413,0.34
		c0,0.283-0.258,0.453-0.826,0.453c-2.836,0-6.086-0.17-6.343-0.17c-0.258,0-3.507,0.17-5.055,0.17
		c-0.566,0-0.824-0.113-0.824-0.453c0-0.17,0.103-0.34,0.412-0.34c0.465,0,1.083-0.113,1.547-0.226
		c1.031-0.227,1.29-1.475,1.496-3.119c0.258-2.383,0.258-6.864,0.258-12.308v-9.982c0-8.848,0-10.437-0.104-12.251
		c-0.102-1.929-0.516-2.836-2.217-3.234c-0.413-0.113-1.289-0.17-1.754-0.17c-0.207,0-0.412-0.113-0.412-0.34
		c0-0.34,0.258-0.454,0.825-0.454c2.321,0,5.57,0.17,5.828,0.17c0.257,0,3.507-0.17,5.054-0.17c0.568,0,0.826,0.114,0.826,0.454
		c0,0.227-0.207,0.34-0.414,0.34c-0.361,0-0.669,0.057-1.289,0.17c-1.392,0.284-1.804,1.248-1.908,3.234
		c-0.103,1.814-0.103,3.403-0.103,12.251v1.19c0,0.284,0.155,0.341,0.31,0.341h21.867c0.155,0,0.309-0.057,0.309-0.341v-1.19
		c0-8.848,0-10.437-0.103-12.251c-0.102-1.929-0.515-2.836-2.217-3.234c-0.412-0.113-1.289-0.17-1.754-0.17
		c-0.206,0-0.412-0.113-0.412-0.34c0-0.34,0.257-0.454,0.825-0.454c2.321,0,5.569,0.17,5.827,0.17c0.259,0,3.508-0.17,5.055-0.17
		c0.568,0,0.826,0.114,0.826,0.454c0,0.227-0.207,0.34-0.413,0.34c-0.362,0-0.671,0.057-1.29,0.17
		c-1.393,0.284-1.805,1.248-1.908,3.234c-0.103,1.814-0.103,3.403-0.103,12.251V36.4517z"></path>
	<path class="st0" d="M140.4392,36.4517c0,5.444,0,9.925,0.258,12.308c0.155,1.644,0.465,2.892,2.012,3.119
		c0.722,0.113,1.857,0.226,2.32,0.226c0.31,0,0.413,0.17,0.413,0.34c0,0.283-0.258,0.453-0.825,0.453
		c-2.836,0-6.086-0.17-6.344-0.17s-3.507,0.17-5.055,0.17c-0.566,0-0.824-0.113-0.824-0.453c0-0.17,0.104-0.34,0.412-0.34
		c0.465,0,1.083-0.113,1.547-0.226c1.031-0.227,1.29-1.475,1.496-3.119c0.258-2.383,0.258-6.864,0.258-12.308v-9.982
		c0-8.848,0-10.437-0.104-12.251c-0.102-1.929-0.619-2.893-1.752-3.176c-0.568-0.171-1.238-0.228-1.599-0.228
		c-0.207,0-0.413-0.113-0.413-0.34c0-0.34,0.259-0.454,0.825-0.454c1.702,0,4.951,0.17,5.209,0.17s3.508-0.17,5.055-0.17
		c0.567,0,0.825,0.114,0.825,0.454c0,0.227-0.206,0.34-0.413,0.34c-0.362,0-0.67,0.057-1.289,0.17
		c-1.393,0.284-1.805,1.248-1.908,3.234c-0.104,1.814-0.104,3.403-0.104,12.251V36.4517z"></path>
	<path class="st0" d="M159.8806,36.5649c0,8.337,0.206,11.966,1.135,12.987c0.824,0.909,2.166,1.305,6.189,1.305
		c2.733,0,5.002-0.057,6.24-1.701c0.67-0.908,1.186-2.326,1.34-3.404c0.053-0.454,0.156-0.737,0.465-0.737
		c0.258,0,0.31,0.227,0.31,0.852c0,0.623-0.362,4.025-0.775,5.67c-0.36,1.304-0.515,1.531-3.248,1.531
		c-3.714,0-6.396-0.113-8.562-0.17c-2.166-0.113-3.764-0.17-5.26-0.17c-0.207,0-1.084,0.057-2.115,0.057
		c-1.032,0.056-2.166,0.113-2.94,0.113c-0.567,0-0.825-0.113-0.825-0.453c0-0.17,0.103-0.34,0.413-0.34
		c0.464,0,1.082-0.113,1.547-0.227c1.031-0.226,1.289-1.474,1.496-3.119c0.258-2.382,0.258-6.863,0.258-12.307v-9.983
		c0-8.847,0-10.436-0.104-12.251c-0.103-1.928-0.515-2.836-2.217-3.233c-0.413-0.113-1.29-0.17-1.753-0.17
		c-0.207,0-0.413-0.113-0.413-0.34c0-0.341,0.257-0.454,0.825-0.454c2.32,0,5.57,0.17,5.828,0.17s4.022-0.17,5.57-0.17
		c0.567,0,0.825,0.113,0.825,0.454c0,0.227-0.206,0.34-0.413,0.34c-0.361,0-1.083,0.057-1.702,0.17
		c-1.495,0.284-1.908,1.248-2.01,3.233c-0.104,1.815-0.104,3.404-0.104,12.251V36.5649z"></path>
	<path class="st0" d="M188.531,36.5649c0,8.337,0.205,11.966,1.134,12.987c0.825,0.909,2.167,1.305,6.189,1.305
		c2.734,0,5.003-0.057,6.24-1.701c0.671-0.908,1.187-2.326,1.341-3.404c0.052-0.454,0.155-0.737,0.465-0.737
		c0.258,0,0.309,0.227,0.309,0.852c0,0.623-0.362,4.025-0.774,5.67c-0.361,1.304-0.515,1.531-3.249,1.531
		c-3.714,0-6.395-0.113-8.561-0.17c-2.166-0.113-3.765-0.17-5.261-0.17c-0.206,0-1.083,0.057-2.114,0.057
		c-1.032,0.056-2.168,0.113-2.943,0.113c-0.569,0-0.827-0.113-0.827-0.453c0-0.17,0.104-0.34,0.414-0.34
		c0.464,0,1.084-0.113,1.55-0.227c1.032-0.226,1.29-1.474,1.496-3.119c0.258-2.382,0.258-6.863,0.258-12.307v-9.983
		c0-8.847,0-10.436-0.103-12.251c-0.103-1.928-0.515-2.836-2.22-3.233c-0.412-0.113-1.291-0.17-1.756-0.17
		c-0.206,0-0.412-0.113-0.412-0.34c0-0.341,0.258-0.454,0.826-0.454c2.324,0,5.573,0.17,5.831,0.17c0.259,0,4.022-0.17,5.57-0.17
		c0.568,0,0.826,0.113,0.826,0.454c0,0.227-0.207,0.34-0.413,0.34c-0.361,0-1.084,0.057-1.703,0.17
		c-1.495,0.284-1.908,1.248-2.01,3.233c-0.103,1.815-0.103,3.404-0.103,12.251V36.5649z"></path>
	<path class="st0" d="M213.205,46.5857c0-3.513,2.046-5.855,4.176-7.236c-1.011-1.561-1.338-2.793-1.338-4.144
		c0-2.371,2.21-5.524,5.867-5.524c1.391,0,2.565,0.3,3.302,0.75c0.327,0.211,0.355,0.391,0.355,0.75
		c0,0.902-0.109,3.003-0.191,3.455c-0.082,0.45-0.164,0.509-0.274,0.509c-0.136,0-0.163-0.12-0.163-0.569
		c0-0.781-0.164-1.773-0.846-2.553c-0.601-0.69-1.529-1.321-2.73-1.321c-1.636,0-3.465,1.11-3.465,3.934
		c0,2.341,1.474,4.292,4.312,7.686c0.926,1.11,4.284,4.564,5.157,5.374c0.765-1.143,1.392-3.152,1.392-4.984
		c0-0.451-0.11-1.021-0.518-1.472c-0.355-0.39-0.929-0.479-1.338-0.479c-0.164,0-0.328-0.06-0.328-0.211
		c0-0.15,0.219-0.209,0.437-0.209c0.656,0,1.747,0.029,3.275,0.209c0.409,0.06,0.492,0.3,0.492,0.6c0,2.432-1.502,5.464-2.702,7.085
		c1.801,1.682,3.001,2.494,3.765,2.973c0.874,0.572,2.265,1.172,3.248,1.172c0.245,0,0.382,0.029,0.382,0.209
		c0,0.121-0.218,0.211-0.464,0.211h-2.674c-2.019,0-2.675-0.211-5.676-2.823c-0.628,0.69-2.784,3.243-6.821,3.243
		C215.059,53.2207,213.205,49.1967,213.205,46.5857 M225.948,49.4077c-1.527-1.381-4.229-4.234-4.939-5.074
		c-0.709-0.84-2.457-2.972-3.22-4.203c-1.419,1.02-2.456,2.642-2.456,5.043c0,3.754,2.401,6.455,5.457,6.455
		C223.329,51.6287,225.02,50.4587,225.948,49.4077"></path>
	<path class="st1" d="M213.205,46.5857c0-3.513,2.046-5.855,4.176-7.236c-1.011-1.561-1.338-2.793-1.338-4.144
		c0-2.371,2.21-5.524,5.867-5.524c1.391,0,2.565,0.3,3.302,0.75c0.327,0.211,0.355,0.391,0.355,0.75
		c0,0.902-0.109,3.003-0.191,3.455c-0.082,0.45-0.164,0.509-0.274,0.509c-0.136,0-0.163-0.12-0.163-0.569
		c0-0.781-0.164-1.773-0.846-2.553c-0.601-0.69-1.529-1.321-2.73-1.321c-1.636,0-3.465,1.11-3.465,3.934
		c0,2.341,1.474,4.292,4.312,7.686c0.926,1.11,4.284,4.564,5.157,5.374c0.765-1.143,1.392-3.152,1.392-4.984
		c0-0.451-0.11-1.021-0.518-1.472c-0.355-0.39-0.929-0.479-1.338-0.479c-0.164,0-0.328-0.06-0.328-0.211
		c0-0.15,0.219-0.209,0.437-0.209c0.656,0,1.747,0.029,3.275,0.209c0.409,0.06,0.492,0.3,0.492,0.6c0,2.432-1.502,5.464-2.702,7.085
		c1.801,1.682,3.001,2.494,3.765,2.973c0.874,0.572,2.265,1.172,3.248,1.172c0.245,0,0.382,0.029,0.382,0.209
		c0,0.121-0.218,0.211-0.464,0.211h-2.674c-2.019,0-2.675-0.211-5.676-2.823c-0.628,0.69-2.784,3.243-6.821,3.243
		C215.059,53.2207,213.205,49.1967,213.205,46.5857z M225.948,49.4077c-1.527-1.381-4.229-4.234-4.939-5.074
		c-0.709-0.84-2.457-2.972-3.22-4.203c-1.419,1.02-2.456,2.642-2.456,5.043c0,3.754,2.401,6.455,5.457,6.455
		C223.329,51.6287,225.02,50.4587,225.948,49.4077z"></path>
	<path class="st0" d="M242.8669,52.1616c-0.722-0.396-0.773-0.625-0.773-2.156c0-2.836,0.206-5.104,0.257-6.011
		c0.052-0.624,0.155-0.907,0.412-0.907c0.311,0,0.362,0.17,0.362,0.624c0,0.509,0,1.304,0.154,2.096
		c0.775,4.198,4.178,5.786,7.634,5.786c4.951,0,7.375-3.912,7.375-7.542c0-3.913-1.495-6.182-5.931-10.209l-2.321-2.099
		c-5.467-4.935-6.704-8.451-6.704-12.308c0-6.068,4.125-10.209,10.676-10.209c2.011,0,3.506,0.227,4.796,0.568
		c0.979,0.226,1.392,0.283,1.805,0.283c0.412,0,0.516,0.113,0.516,0.397s-0.207,2.156-0.207,6.012c0,0.907-0.103,1.305-0.361,1.305
		c-0.309,0-0.361-0.284-0.413-0.737c-0.05-0.681-0.361-2.212-0.67-2.836c-0.309-0.624-1.702-3.006-6.447-3.006
		c-3.558,0-6.344,2.438-6.344,6.579c0,3.232,1.342,5.274,6.293,9.528l1.444,1.248c6.086,5.275,7.53,8.791,7.53,13.328
		c0,2.325-0.825,6.635-4.384,9.414c-2.218,1.702-5.003,2.383-7.788,2.383C247.3539,53.6926,244.9819,53.2966,242.8669,52.1616"></path>
	<path class="st0" d="M277.4141,9.8623c-6.411,0-9.207,5.71-9.207,9.722c0,4.481,2.716,9.78,9.075,9.78
		c5.593,0,9.313-4.597,9.313-10.161C286.5951,13.4053,282.6371,9.8623,277.4141,9.8623 M277.9411,28.3392
		c-4.194,0-7.334-3.631-7.334-9.429c0-5.417,2.797-8.11,6.675-8.11c3.6671,0,6.938,3.133,6.938,9.106
		C284.2201,27.1103,280.0261,28.3392,277.9411,28.3392"></path>
	<path class="st2" d="M277.4141,9.8623c-6.411,0-9.207,5.71-9.207,9.722c0,4.481,2.716,9.78,9.075,9.78
		c5.593,0,9.313-4.597,9.313-10.161C286.5951,13.4053,282.6371,9.8623,277.4141,9.8623z M277.9411,28.3392
		c-4.194,0-7.334-3.631-7.334-9.429c0-5.417,2.797-8.11,6.675-8.11c3.6671,0,6.938,3.133,6.938,9.106
		C284.2201,27.1103,280.0261,28.3392,277.9411,28.3392z"></path>
	<path class="st0" d="M273.6413,6.8724c0-0.527,0.316-1.259,1.1349-1.259c0.633,0,1.134,0.439,1.134,1.171
		c0,0.761-0.449,1.347-1.162,1.347C273.9573,8.1314,273.6413,7.4295,273.6413,6.8724"></path>
	<path class="st2" d="M273.6413,6.8724c0-0.527,0.316-1.259,1.1349-1.259c0.633,0,1.134,0.439,1.134,1.171
		c0,0.761-0.449,1.347-1.162,1.347C273.9573,8.1314,273.6413,7.4295,273.6413,6.8724z"></path>
	<path class="st0" d="M278.944,6.8724c0-0.527,0.316-1.259,1.1349-1.259c0.633,0,1.134,0.439,1.134,1.171
		c0,0.761-0.449,1.347-1.161,1.347C279.2599,8.1314,278.944,7.4295,278.944,6.8724"></path>
	<path class="st2" d="M278.944,6.8724c0-0.527,0.316-1.259,1.1349-1.259c0.633,0,1.134,0.439,1.134,1.171
		c0,0.761-0.449,1.347-1.161,1.347C279.2599,8.1314,278.944,7.4295,278.944,6.8724z"></path>
	<path class="st0" d="M307.6315,21.8099c0,2.401,0.0259,4.362,0.132,5.388c0.079,0.732,0.132,1.2,0.845,1.317
		c0.316,0.059,0.843,0.117,1.028,0.117c0.159,0,0.212,0.117,0.212,0.205c0,0.118-0.132,0.205-0.397,0.205
		c-1.265,0-2.743-0.087-2.875-0.087c-0.105,0-1.6089,0.087-2.296,0.087c-0.263,0-0.369-0.058-0.369-0.205
		c0-0.088,0.053-0.205,0.185-0.205c0.211,0,0.475-0.058,0.686-0.117c0.475-0.117,0.554-0.614,0.6331-1.347
		c0.106-1.024,0.106-2.899,0.106-5.299v-2.49c0-0.117-0.053-0.146-0.132-0.146h-9.683c-0.079,0-0.132,0.029-0.132,0.146v2.49
		c0,2.4,0,4.303,0.106,5.329c0.079,0.732,0.158,1.2,0.844,1.317c0.343,0.059,0.8441,0.117,1.0551,0.117
		c0.132,0,0.185,0.117,0.185,0.205c0,0.118-0.106,0.205-0.369,0.205c-1.293,0-2.771-0.087-2.876-0.087
		c-0.132,0-1.61,0.087-2.322,0.087c-0.237,0-0.369-0.058-0.369-0.205c0-0.088,0.053-0.205,0.185-0.205
		c0.211,0,0.501-0.058,0.712-0.117c0.449-0.117,0.502-0.585,0.607-1.317c0.132-1.026,0.132-2.987,0.132-5.388v-4.393
		c0-3.865,0-4.567-0.053-5.358c-0.052-0.85-0.184-1.259-0.95-1.376c-0.184-0.029-0.58-0.059-0.791-0.059
		c-0.079,0-0.185-0.117-0.185-0.205c0-0.146,0.106-0.205,0.3701-0.205c1.054,0,2.532,0.059,2.6639,0.059
		c0.105,0,1.583-0.059,2.296-0.059c0.263,0,0.369,0.059,0.369,0.205c0,0.088-0.106,0.205-0.185,0.205c-0.158,0-0.316,0-0.581,0.059
		c-0.633,0.147-0.765,0.497-0.817,1.376c-0.027,0.791-0.027,1.552-0.027,5.417v0.527c0,0.147,0.053,0.147,0.132,0.147h9.683
		c0.079,0,0.132,0,0.132-0.147v-0.527c0-3.865-0.027-4.626-0.053-5.417c-0.053-0.85-0.158-1.259-0.924-1.376
		c-0.184-0.029-0.58-0.059-0.791-0.059c-0.105,0-0.185-0.117-0.185-0.205c0-0.146,0.106-0.205,0.37-0.205
		c1.0291,0,2.533,0.059,2.638,0.059c0.132,0,1.61-0.059,2.295-0.059c0.264,0,0.396,0.059,0.396,0.205
		c0,0.088-0.106,0.205-0.211,0.205c-0.158,0-0.29,0-0.58,0.059c-0.608,0.147-0.74,0.497-0.792,1.376
		c-0.053,0.791-0.053,1.493-0.053,5.358V21.8099z"></path>
	<path class="st2" d="M307.6315,21.8099c0,2.401,0.0259,4.362,0.132,5.388c0.079,0.732,0.132,1.2,0.845,1.317
		c0.316,0.059,0.843,0.117,1.028,0.117c0.159,0,0.212,0.117,0.212,0.205c0,0.118-0.132,0.205-0.397,0.205
		c-1.265,0-2.743-0.087-2.875-0.087c-0.105,0-1.6089,0.087-2.296,0.087c-0.263,0-0.369-0.058-0.369-0.205
		c0-0.088,0.053-0.205,0.185-0.205c0.211,0,0.475-0.058,0.686-0.117c0.475-0.117,0.554-0.614,0.6331-1.347
		c0.106-1.024,0.106-2.899,0.106-5.299v-2.49c0-0.117-0.053-0.146-0.132-0.146h-9.683c-0.079,0-0.132,0.029-0.132,0.146v2.49
		c0,2.4,0,4.303,0.106,5.329c0.079,0.732,0.158,1.2,0.844,1.317c0.343,0.059,0.8441,0.117,1.0551,0.117
		c0.132,0,0.185,0.117,0.185,0.205c0,0.118-0.106,0.205-0.369,0.205c-1.293,0-2.771-0.087-2.876-0.087
		c-0.132,0-1.61,0.087-2.322,0.087c-0.237,0-0.369-0.058-0.369-0.205c0-0.088,0.053-0.205,0.185-0.205
		c0.211,0,0.501-0.058,0.712-0.117c0.449-0.117,0.502-0.585,0.607-1.317c0.132-1.026,0.132-2.987,0.132-5.388v-4.393
		c0-3.865,0-4.567-0.053-5.358c-0.052-0.85-0.184-1.259-0.95-1.376c-0.184-0.029-0.58-0.059-0.791-0.059
		c-0.079,0-0.185-0.117-0.185-0.205c0-0.146,0.106-0.205,0.3701-0.205c1.054,0,2.532,0.059,2.6639,0.059
		c0.105,0,1.583-0.059,2.296-0.059c0.263,0,0.369,0.059,0.369,0.205c0,0.088-0.106,0.205-0.185,0.205c-0.158,0-0.316,0-0.581,0.059
		c-0.633,0.147-0.765,0.497-0.817,1.376c-0.027,0.791-0.027,1.552-0.027,5.417v0.527c0,0.147,0.053,0.147,0.132,0.147h9.683
		c0.079,0,0.132,0,0.132-0.147v-0.527c0-3.865-0.027-4.626-0.053-5.417c-0.053-0.85-0.158-1.259-0.924-1.376
		c-0.184-0.029-0.58-0.059-0.791-0.059c-0.105,0-0.185-0.117-0.185-0.205c0-0.146,0.106-0.205,0.37-0.205
		c1.0291,0,2.533,0.059,2.638,0.059c0.132,0,1.61-0.059,2.295-0.059c0.264,0,0.396,0.059,0.396,0.205
		c0,0.088-0.106,0.205-0.211,0.205c-0.158,0-0.29,0-0.58,0.059c-0.608,0.147-0.74,0.497-0.792,1.376
		c-0.053,0.791-0.053,1.493-0.053,5.358V21.8099z"></path>
	<path class="st0" d="M318.0896,25.6459c0.053,2.05,0.264,2.664,0.897,2.84c0.422,0.117,0.95,0.146,1.161,0.146
		c0.105,0,0.184,0.088,0.184,0.205c0,0.147-0.158,0.205-0.422,0.205c-1.319,0-2.242-0.087-2.453-0.087s-1.187,0.087-2.243,0.087
		c-0.237,0-0.369-0.029-0.369-0.205c0-0.117,0.079-0.205,0.184-0.205c0.185,0,0.608-0.029,0.951-0.146
		c0.58-0.176,0.659-0.849,0.659-3.104V11.123c0-0.997,0.132-1.26,0.316-1.26c0.264,0,0.66,0.498,0.8979,0.762
		c0.369,0.41,3.746,4.391,7.334,8.491c2.296,2.635,4.775,5.592,5.487,6.413l-0.237-12.475c-0.027-1.61-0.159-2.166-0.87-2.312
		c-0.422-0.088-0.951-0.117-1.135-0.117c-0.158,0-0.185-0.147-0.185-0.235c0-0.146,0.185-0.176,0.448-0.176
		c1.056,0,2.165,0.059,2.428,0.059c0.264,0,1.029-0.059,1.979-0.059c0.237,0,0.422,0.03,0.422,0.176
		c0,0.088-0.106,0.235-0.264,0.235c-0.106,0-0.29,0-0.554,0.058c-0.765,0.176-0.818,0.673-0.818,2.167l-0.053,14.582
		c0,1.64-0.026,1.786-0.184,1.786c-0.238,0-0.475-0.205-1.768-1.522c-0.237-0.235-3.588-3.895-6.042-6.736
		c-2.69-3.132-5.303-6.177-6.015-7.056L318.0896,25.6459z"></path>
	<path class="st2" d="M318.0896,25.6459c0.053,2.05,0.264,2.664,0.897,2.84c0.422,0.117,0.95,0.146,1.161,0.146
		c0.105,0,0.184,0.088,0.184,0.205c0,0.147-0.158,0.205-0.422,0.205c-1.319,0-2.242-0.087-2.453-0.087s-1.187,0.087-2.243,0.087
		c-0.237,0-0.369-0.029-0.369-0.205c0-0.117,0.079-0.205,0.184-0.205c0.185,0,0.608-0.029,0.951-0.146
		c0.58-0.176,0.659-0.849,0.659-3.104V11.123c0-0.997,0.132-1.26,0.316-1.26c0.264,0,0.66,0.498,0.8979,0.762
		c0.369,0.41,3.746,4.391,7.334,8.491c2.296,2.635,4.775,5.592,5.487,6.413l-0.237-12.475c-0.027-1.61-0.159-2.166-0.87-2.312
		c-0.422-0.088-0.951-0.117-1.135-0.117c-0.158,0-0.185-0.147-0.185-0.235c0-0.146,0.185-0.176,0.448-0.176
		c1.056,0,2.165,0.059,2.428,0.059c0.264,0,1.029-0.059,1.979-0.059c0.237,0,0.422,0.03,0.422,0.176
		c0,0.088-0.106,0.235-0.264,0.235c-0.106,0-0.29,0-0.554,0.058c-0.765,0.176-0.818,0.673-0.818,2.167l-0.053,14.582
		c0,1.64-0.026,1.786-0.184,1.786c-0.238,0-0.475-0.205-1.768-1.522c-0.237-0.235-3.588-3.895-6.042-6.736
		c-2.69-3.132-5.303-6.177-6.015-7.056L318.0896,25.6459z"></path>
	<path class="st0" d="M340.3923,17.4175c0-3.865,0-4.567-0.053-5.358c-0.052-0.85-0.184-1.259-0.949-1.376
		c-0.185-0.03-0.581-0.059-0.792-0.059c-0.079,0-0.185-0.117-0.185-0.205c0-0.147,0.106-0.205,0.37-0.205
		c1.055,0,2.559,0.058,2.691,0.058c0.158,0,5.013,0.03,5.54,0c0.449-0.029,0.871-0.117,1.056-0.146
		c0.105-0.029,0.211-0.117,0.316-0.117c0.079,0,0.106,0.117,0.106,0.234c0,0.176-0.132,0.469-0.185,1.171
		c-0.026,0.234-0.079,1.348-0.132,1.64c-0.026,0.117-0.105,0.263-0.211,0.263c-0.132,0-0.184-0.117-0.184-0.321
		c0-0.176-0.027-0.586-0.132-0.879c-0.158-0.41-0.397-0.586-1.662-0.762c-0.397-0.058-3.087-0.087-3.351-0.087
		c-0.105,0-0.132,0.087-0.132,0.263v6.765c0,0.176,0,0.264,0.132,0.264c0.29,0,3.351,0,3.878-0.059
		c0.554-0.059,0.898-0.088,1.135-0.352c0.158-0.175,0.264-0.322,0.343-0.322c0.079,0,0.131,0.059,0.131,0.205
		c0,0.147-0.131,0.557-0.184,1.376c-0.053,0.498-0.106,1.435-0.106,1.611c0,0.205-0.052,0.468-0.211,0.468
		c-0.105,0-0.158-0.088-0.158-0.234c0-0.234,0-0.498-0.105-0.819c-0.079-0.352-0.291-0.645-1.188-0.762
		c-0.633-0.088-3.113-0.117-3.508-0.117c-0.132,0-0.159,0.088-0.159,0.175v2.08c0,0.848-0.026,3.748,0,4.246
		c0.053,1.669,0.475,1.99,2.77,1.99c0.607,0,1.715,0,2.322-0.263c0.6071-0.293,0.923-0.732,1.0551-1.727
		c0.053-0.293,0.105-0.381,0.237-0.381c0.133,0,0.159,0.205,0.159,0.381c0,0.174-0.185,1.874-0.317,2.4
		c-0.158,0.645-0.396,0.645-1.292,0.645c-1.741,0-3.087-0.059-4.037-0.088c-0.976-0.059-1.583-0.059-1.926-0.059
		c-0.053,0-0.501,0-1.003,0.029c-0.448,0.03-0.975,0.059-1.345,0.059c-0.237,0-0.37-0.059-0.37-0.205
		c0-0.088,0.053-0.205,0.186-0.205c0.211,0,0.501-0.088,0.712-0.117c0.448-0.088,0.501-0.585,0.606-1.318
		c0.132-1.025,0.132-2.986,0.132-5.387V17.4175z"></path>
	<path class="st2" d="M340.3923,17.4175c0-3.865,0-4.567-0.053-5.358c-0.052-0.85-0.184-1.259-0.949-1.376
		c-0.185-0.03-0.581-0.059-0.792-0.059c-0.079,0-0.185-0.117-0.185-0.205c0-0.147,0.106-0.205,0.37-0.205
		c1.055,0,2.559,0.058,2.691,0.058c0.158,0,5.013,0.03,5.54,0c0.449-0.029,0.871-0.117,1.056-0.146
		c0.105-0.029,0.211-0.117,0.316-0.117c0.079,0,0.106,0.117,0.106,0.234c0,0.176-0.132,0.469-0.185,1.171
		c-0.026,0.234-0.079,1.348-0.132,1.64c-0.026,0.117-0.105,0.263-0.211,0.263c-0.132,0-0.184-0.117-0.184-0.321
		c0-0.176-0.027-0.586-0.132-0.879c-0.158-0.41-0.397-0.586-1.662-0.762c-0.397-0.058-3.087-0.087-3.351-0.087
		c-0.105,0-0.132,0.087-0.132,0.263v6.765c0,0.176,0,0.264,0.132,0.264c0.29,0,3.351,0,3.878-0.059
		c0.554-0.059,0.898-0.088,1.135-0.352c0.158-0.175,0.264-0.322,0.343-0.322c0.079,0,0.131,0.059,0.131,0.205
		c0,0.147-0.131,0.557-0.184,1.376c-0.053,0.498-0.106,1.435-0.106,1.611c0,0.205-0.052,0.468-0.211,0.468
		c-0.105,0-0.158-0.088-0.158-0.234c0-0.234,0-0.498-0.105-0.819c-0.079-0.352-0.291-0.645-1.188-0.762
		c-0.633-0.088-3.113-0.117-3.508-0.117c-0.132,0-0.159,0.088-0.159,0.175v2.08c0,0.848-0.026,3.748,0,4.246
		c0.053,1.669,0.475,1.99,2.77,1.99c0.607,0,1.715,0,2.322-0.263c0.6071-0.293,0.923-0.732,1.0551-1.727
		c0.053-0.293,0.105-0.381,0.237-0.381c0.133,0,0.159,0.205,0.159,0.381c0,0.174-0.185,1.874-0.317,2.4
		c-0.158,0.645-0.396,0.645-1.292,0.645c-1.741,0-3.087-0.059-4.037-0.088c-0.976-0.059-1.583-0.059-1.926-0.059
		c-0.053,0-0.501,0-1.003,0.029c-0.448,0.03-0.975,0.059-1.345,0.059c-0.237,0-0.37-0.059-0.37-0.205
		c0-0.088,0.053-0.205,0.186-0.205c0.211,0,0.501-0.088,0.712-0.117c0.448-0.088,0.501-0.585,0.606-1.318
		c0.132-1.025,0.132-2.986,0.132-5.387V17.4175z"></path>
	<path class="st3" d="M307.2864,50.5798c1.376-0.016,2.565-1.299,3.519-2.707l0.1411,0.174c-0.579,1-2.034,2.83-3.8781,2.83
		c-0.783,0.984-1.7679,1.689-2.847,1.689c-1.095,0-1.58-0.814-1.58-1.83c0-2.314,2.064-6.631,4.755-6.631
		c1.094,0,1.58,0.813,1.58,1.828C308.9764,47.2318,308.3195,49.1398,307.2864,50.5798 M306.2385,50.6888
		c-1.235-0.578-1.533-2.346-1.533-3.394c-0.343,0.625-0.969,2.455-0.969,3.66c0,0.937,0.407,1.189,0.735,1.189
		c0.47,0,0.985-0.392,1.517-1.095C306.0674,50.9388,306.1454,50.8138,306.2385,50.6888 M305.0505,47.1538
		c0,1.439,0.344,2.783,1.36,3.254c0.783-1.283,1.47-3.223,1.47-4.693c0-0.938-0.406-1.188-0.734-1.188
		c-0.47,0-0.986,0.391-1.518,1.094C305.3635,45.9658,305.0505,46.4348,305.0505,47.1538"></path>
	<path class="st3" d="M313.2151,44.1988c-1.658,3.564-2.487,5.818-2.487,7.1c0,0.578,0.203,0.845,0.548,0.845
		c0.359,0,1.079-0.47,1.799-1.314c0.093-0.11,0.203-0.25,0.297-0.391c-0.36-0.344-0.642-0.924-0.642-1.892
		c0-1.096,0.579-2.645,1.471-3.598c0.547-0.594,1.063-0.844,1.516-0.844c0.486,0,0.954,0.313,0.954,1.25
		c0,1.252-0.907,3.442-2.392,5.147c0.14,0.031,0.265,0.047,0.375,0.047c1.392,0,2.597-1.362,3.473-2.676l0.14,0.174
		c-0.579,1-2.017,2.83-3.816,2.83c-0.125,0-0.282-0.016-0.438-0.063c-0.048,0.047-0.094,0.078-0.126,0.125
		c-0.828,0.844-2.033,1.627-2.909,1.627c-0.703,0-1.22-0.437-1.22-1.517c0-0.516,0.172-1.456,0.454-2.299
		c0.391-1.159,1.189-3.004,1.924-4.551H313.2151z M313.6062,50.1108c0.985-1.455,1.908-3.535,1.908-4.584
		c0-0.391-0.078-0.656-0.359-0.656c-0.282,0-0.72,0.265-1.19,1c-0.437,0.689-0.828,1.72-0.828,2.676
		C313.1371,49.3278,313.3401,49.8118,313.6062,50.1108"></path>
	<path class="st3" d="M318.3303,49.2343c-0.094,0.39-0.141,0.767-0.141,1.095c0,1.266,0.595,1.422,1.017,1.422
		c1.33,0,3.144-1.344,4.239-2.595c0.265-0.297,0.5941-0.672,0.985-1.284l0.141,0.174c-0.267,0.453-0.751,1.125-1.142,1.563
		c-1.236,1.361-3.112,2.957-4.833,2.957c-0.86,0-1.58-0.516-1.58-1.987c0-1.517,0.86-3.504,1.94-4.802
		c0.86-1.032,2.017-1.672,2.877-1.672c0.564,0,1.048,0.328,1.048,1.218c0,0.799-0.673,2.565-2.439,3.364
		C319.8633,48.9523,319.0963,49.1403,318.3303,49.2343 M318.3933,48.9683c0.594-0.078,1.001-0.219,1.47-0.484
		c1.173-0.643,1.924-2.205,1.924-3.192c0-0.359-0.094-0.734-0.469-0.734c-0.423,0-0.907,0.359-1.487,1.187
		C319.3003,46.4973,318.7063,47.7943,318.3933,48.9683"></path>
	<path class="st3" d="M323.2411,58.1496c0.985-1.83,2.533-5.709,3.706-8.572c-0.078-0.219-0.125-0.406-0.125-0.547
		c0-0.344,0.187-0.484,0.329-0.484c0.078,0,0.141,0.031,0.187,0.078c0.047-0.109,0.079-0.203,0.11-0.297
		c1.126-2.801,2.971-6.851,3.816-8.32c1.236-2.159,2.1429-2.488,2.58-2.488c0.376,0,0.595,0.282,0.595,0.767
		c0,0.578-0.407,1.846-1.393,3.691c-1.063,1.987-3.174,5.036-4.754,6.881c-0.125,0.313-0.282,0.688-0.454,1.112
		c0.251,0.296,0.595,0.468,1.095,0.468c1.361,0,2.55-1.252,3.426-2.566l0.141,0.174c-0.58,1-1.971,2.72-3.676,2.72
		c-0.485,0-0.876-0.125-1.173-0.328c-1.173,2.846-2.628,6.506-3.487,7.868c2.814,0.484,10.36,1.58,12.785,1.58
		c1.407,0,2.925-0.329,4.347-1.83l0.094,0.203c-1.423,1.533-3.175,2.347-5.427,2.347c-2.518,0-9.672-1.175-12.175-1.738
		c-0.672,0.969-1.595,1.971-2.863,2.83c-1.563,1.049-3.706,1.846-5.881,1.846c-2.486,0-4.628-0.86-4.628-2.69
		c0-1.298,1.532-3.379,6.162-3.379C318.8141,57.4756,321.0501,57.7726,323.2411,58.1496 M310.7911,60.8866
		c0,1.22,1.423,2.361,4.348,2.361c1.923,0,3.878-0.75,5.239-1.721c1.236-0.89,1.94-1.83,2.549-2.845
		c-2.111-0.469-4.285-0.862-6.599-0.862C312.6361,57.8196,310.7911,59.3996,310.7911,60.8866 M328.6052,48.0776
		c1.7209-2.238,3.097-4.271,4.098-6.147c0.844-1.58,1.344-2.956,1.344-3.535c0-0.156-0.031-0.343-0.187-0.343
		c-0.1559,0-0.6559,0.296-1.517,1.86C331.5771,41.2896,330.1541,44.3076,328.6052,48.0776"></path>
	<path class="st3" d="M332.5616,49.2343c-0.094,0.39-0.141,0.767-0.141,1.095c0,1.266,0.595,1.422,1.017,1.422
		c1.33,0,3.144-1.344,4.239-2.595c0.265-0.297,0.5941-0.672,0.985-1.284l0.141,0.174c-0.266,0.453-0.751,1.125-1.142,1.563
		c-1.236,1.361-3.112,2.957-4.833,2.957c-0.86,0-1.58-0.516-1.58-1.987c0-1.517,0.86-3.504,1.94-4.802
		c0.86-1.032,2.017-1.672,2.877-1.672c0.564,0,1.048,0.328,1.048,1.218c0,0.799-0.673,2.565-2.439,3.364
		C334.0947,48.9523,333.3276,49.1403,332.5616,49.2343 M332.6247,48.9683c0.594-0.078,1.001-0.219,1.47-0.484
		c1.173-0.643,1.924-2.205,1.924-3.192c0-0.359-0.094-0.734-0.469-0.734c-0.423,0-0.907,0.359-1.487,1.187
		C333.5306,46.4973,332.9377,47.7943,332.6247,48.9683"></path>
	<path class="st3" d="M338.8654,49.2343c-0.094,0.39-0.141,0.767-0.141,1.095c0,1.266,0.595,1.422,1.017,1.422
		c1.33,0,3.144-1.344,4.239-2.595c0.265-0.297,0.5941-0.672,0.985-1.284l0.141,0.174c-0.267,0.453-0.751,1.125-1.142,1.563
		c-1.236,1.361-3.112,2.957-4.833,2.957c-0.86,0-1.58-0.516-1.58-1.987c0-1.517,0.86-3.504,1.94-4.802
		c0.86-1.032,2.017-1.672,2.877-1.672c0.564,0,1.048,0.328,1.048,1.218c0,0.799-0.673,2.565-2.439,3.364
		C340.3984,48.9523,339.6313,49.1403,338.8654,49.2343 M338.9284,48.9683c0.594-0.078,1.001-0.219,1.47-0.484
		c1.173-0.643,1.924-2.205,1.924-3.192c0-0.359-0.094-0.734-0.469-0.734c-0.423,0-0.907,0.359-1.487,1.187
		C339.8354,46.4973,339.2414,47.7943,338.9284,48.9683"></path>
	<path class="st3" d="M346.9987,44.9487l-1.313,3.238c-0.814,2.002-1.001,2.768-1.001,3.127c0,0.344,0.125,0.438,0.312,0.438
		c0.314,0,0.86-0.172,1.893-1.125c0.61-0.563,1.595-1.658,2.315-2.754l0.141,0.174c-0.704,1.14-1.768,2.314-2.002,2.564
		c-1.221,1.297-2.425,1.955-3.113,1.955c-0.438,0-0.704-0.312-0.704-0.877c0-0.719,0.391-1.783,0.97-3.22l1.423-3.52h-1.142
		l0.172-0.391h1.126l1.377-3.378h1.079l-1.376,3.378h2.033l-0.172,0.391H346.9987z"></path>
	<path class="st3" d="M348.3288,52.019c0-0.549,0.501-1.111,1.048-1.111c0.313,0,0.501,0.25,0.501,0.547
		c0,0.548-0.501,1.111-1.048,1.111C348.5168,52.566,348.3288,52.316,348.3288,52.019"></path>
	<path class="st3" d="M289.5382,49.2343c-0.093,0.39-0.14,0.767-0.14,1.095c0,1.266,0.595,1.422,1.016,1.422
		c1.33,0,3.144-1.344,4.239-2.595c0.2661-0.297,0.5941-0.672,0.985-1.284l0.142,0.174c-0.267,0.453-0.751,1.125-1.143,1.563
		c-1.235,1.361-3.112,2.957-4.832,2.957c-0.86,0-1.58-0.516-1.58-1.987c0-1.517,0.86-3.504,1.939-4.802
		c0.861-1.032,2.018-1.672,2.878-1.672c0.563,0,1.048,0.328,1.048,1.218c0,0.799-0.673,2.565-2.44,3.364
		C291.0722,48.9523,290.3052,49.1403,289.5382,49.2343 M289.6013,48.9683c0.595-0.078,1.001-0.219,1.4709-0.484
		c1.173-0.643,1.924-2.205,1.924-3.192c0-0.359-0.094-0.734-0.47-0.734c-0.422,0-0.907,0.359-1.486,1.187
		C290.5082,46.4973,289.9142,47.7943,289.6013,48.9683"></path>
	<path class="st3" d="M288.7185,48.8901c-1.1461,1.088-2.5811,2.045-3.9091,1.742c-0.1559-0.035-0.287-0.09-0.4059-0.152
		l-0.317,0.246c0.162,0.082,0.337,0.156,0.543,0.203c1.664,0.379,3.401-0.99,4.188-1.838L288.7185,48.8901z"></path>
	<path class="st3" d="M314.0428,31.7405c-2.174,0-4.317,0.798-5.881,1.846c-1.267,0.86-2.585,2.186-3.257,3.157
		c-2.503-0.564-5.014-1.014-7.53-1.107c-1.489-0.057-3.3979,0.565-4.518,1.417c-0.304,0.188-0.491,0.388-0.779,0.639
		c-1.012,0.879-1.631,1.953-2.317,3.072c-0.316,0.514-0.619,1.046-0.883,1.587c-0.22,0.448-0.447,0.923-0.647,1.381
		c-0.109,0.25-0.316,0.695-0.481,1.046c-0.196,0.418-0.391,0.836-0.59,1.254c-0.386,0.805-0.785,1.606-1.241,2.373
		c-0.845,1.422-2.127,2.533-2.894,3.049c0.97-5.269,1.565-8.758,1.565-9.07l-0.329-0.016c-0.282,0.219-0.672,0.735-1.142,1.423
		c-0.609,0.907-2.143,3.409-3.503,5.411c-0.438,0.641-1.314,1.736-1.783,2.143c1.955-6.787,2.487-8.399,2.487-9.947
		c0-1.783-1.142-2.69-2.706-2.69c-1.721,0-3.362,0.845-4.661,1.846c-4.613,0.312-8.931,5.677-8.931,10.994
		c0,0.738,0.209,1.822,0.209,1.822c0.018,0.086,0.121,0.553,0.121,0.553c0.1,0.388,0.214,0.763,0.359,1.101
		c-3.378,0.704-5.443,2.721-6.131,3.551l0.219,0.078c1.235-1.314,3.206-2.832,6.021-3.394c1.518,3.191,5.036,4.16,7.836,4.16
		c1.986,0,4.301-0.266,6.694-0.609c4.27,1.72,8.68,3.191,13.482,3.191s6.146-2.129,6.146-3.363c0-1.534-1.298-2.895-4.457-2.895
		c-3.926,0-10.088,1.533-15.562,2.442c-4.145-1.752-8.102-3.411-11.808-3.411c-0.735,0-1.424,0.063-2.065,0.172
		c-0.18-0.386-0.306-0.711-0.417-1.17l-0.024-0.103c-0.133-0.647-0.278-1.383-0.278-2.219c0-5.019,4.019-10.118,8.258-10.619
		c-1.518,1.33-2.738,3.41-2.738,5.459c0,1.5,0.923,2.408,2.221,2.408c2.237,0,4.411-2.752,4.411-5.114c0-1.61-0.969-2.847-2.8-3.003
		c1.173-0.939,2.377-1.595,3.754-1.595c1.439,0,1.737,1.064,1.737,1.971c0,1.048-0.267,2.377-0.986,5.052l-1.767,6.552h0.484
		c0.986-0.593,2.174-1.814,3.754-4.222c1.11-1.705,1.986-3.067,2.519-3.91c-0.501,2.877-1.096,5.896-1.502,8.132h0.485
		c0.97-0.609,3.565-2.595,5.333-5.24c0.699-1.047,1.3-2.183,1.802-3.34c0.314-0.723,0.494-1.502,0.762-2.243
		c0.259-0.718,0.517-1.38,0.886-2.09c0.319-0.611,1.131-1.535,1.131-1.535c0.123-0.13,0.241-0.235,0.36-0.343
		c0.1-0.086,0.416-0.326,0.811-0.57c0.789-0.424,1.594-0.825,2.775-0.825c2.425,0,5.657,0.442,8.472,0.927
		c-1.814,3.111-3.857,8.08-4.921,10.912c-0.782,2.095-1.111,3.033-1.111,3.611c0,0.471,0.282,0.736,0.657,0.736
		c0.407,0,0.86-0.234,1.377-0.627c0.922-0.703,2.611-2.658,3.362-3.892l-0.141-0.174c-1.236,1.861-3.316,3.879-3.878,3.879
		c-0.141,0-0.219-0.109-0.219-0.281c0-0.25,0.156-1.047,1.11-3.393c1.345-3.332,3.108-7.832,4.687-10.615
		c2.189,0.375,4.427,0.672,6.663,0.672c4.629,0,6.558-2.406,6.558-3.703C318.6729,32.6015,316.5298,31.7405,314.0428,31.7405
		 M294.6928,56.5735c2.675,0,3.942,0.938,3.942,2.127c0,1.33-1.612,3.002-5.803,3.002c-4.629,0-8.868-1.375-12.904-2.986
		C285.4028,57.8705,291.2208,56.5735,294.6928,56.5735 M267.0558,55.0565c3.551,0,7.414,1.58,11.356,3.222
		c-2.111,0.344-4.113,0.578-5.803,0.578c-2.518,0-5.865-0.75-7.397-3.66C265.7899,55.1035,266.3998,55.0565,267.0558,55.0565
		 M276.2068,43.5575c0,2.344-2.128,4.786-3.848,4.786c-0.876,0-1.486-0.658-1.486-2.127c0-1.737,1.188-4.082,2.581-5.397
		C275.4088,40.8975,276.2068,42.1345,276.2068,43.5575 M312.3649,37.7905c-2.314,0-4.488-0.391-6.601-0.859
		c0.611-1.018,1.71-2.282,2.946-3.173c1.36-0.97,3.315-1.721,5.239-1.721c2.925,0,4.349,1.142,4.349,2.362
		C318.2979,35.8855,316.0558,37.7905,312.3649,37.7905"></path>
	<rect x="268.0402" y="32.8913" class="st0" width="81.074" height="0.623"></rect>
</g>
</svg>