<?xml version="1.0" encoding="UTF-8" standalone="no"?>
<svg width="80px" height="80px" viewBox="0 0 80 80" version="1.1" xmlns="http://www.w3.org/2000/svg" xmlns:xlink="http://www.w3.org/1999/xlink">
    <!-- Generator: Sketch 3.7.2 (28276) - http://www.bohemiancoding.com/sketch -->
    <title>Slice 1</title>
    <desc>Created with Sketch.</desc>
    <defs></defs>
    <g id="Page-1" stroke="none" stroke-width="1" fill="none" fill-rule="evenodd">
        <g id="eco-globe-1.3.3.1">
            <g id="Outline_Icons" stroke="#000000">
                <g id="Group">
                    <rect id="Rectangle-path" fill="#FFFFFF" x="1.66666667" y="48.3333333" width="13.3333333" height="26.6666667"></rect>
                    <path d="M15,70 C50.7633333,81.9233333 37.57,82.0433333 78.3333333,61.6666667 C74.7933333,58.1266667 71.99,57.29 68.3333333,58.3333333 L53.5533333,63.2366667" id="Shape"></path>
                    <path d="M15,51.6666667 L25,51.6666667 C32.8433333,51.6666667 38.3333333,56.6666667 40,58.3333333 L50,58.3333333 C55.31,58.3333333 55.31,65 50,65 L31.6666667,65" id="Shape"></path>
                    <path d="M66.3766667,10.3733333 C66.3766667,10.3733333 65.2166667,16.7433333 60.58,19.06 C55.9433333,17.9 51.3066667,21.3733333 52.4633333,21.3733333 C53.6233333,21.3733333 54.78,26.0133333 54.78,26.0133333 C55.9433333,27.1733333 58.26,26.0133333 58.26,26.0133333 C61.1566667,28.91 53.62,34.1333333 53.62,35.29 C53.62,36.4466667 56.52,37.0266667 54.7766667,38.77 C53.04,40.5066667 51.3033333,41.0833333 51.3033333,41.0833333 C51.3033333,46.88 45.5033333,46.88 44.3466667,46.88 C43.1866667,46.88 40.8666667,42.24 40.8666667,41.0833333 C40.8666667,39.9266667 42.03,38.77 42.03,37.6066667 C42.03,36.4466667 39.71,34.13 39.71,34.13 C39.71,29.49 36.2333333,30.65 32.7533333,30.65 C29.2766667,30.65 29.2766667,26.01 29.2766667,26.01 C29.2766667,26.01 29.2766667,17.8966667 35.0733333,16.74 C40.8666667,15.5733333 40.8666667,17.9 40.8666667,17.9 C43.19,20.2133333 47.8233333,17.9 50.1433333,17.9 C50.1433333,17.9 51.3033333,9.78 48.9833333,10.94 C46.6666667,12.1066667 44.5866667,11.2033333 44.35,8.62666667 C44.01,5 54.4666667,2.83 54.4666667,2.83" id="Shape" fill="#FFFFFF"></path>
                    <path d="M22.8366667,40.32 C21.0233333,36.7166667 20,32.6433333 20,28.3333333 C20,13.61 31.94,1.66666667 46.6666667,1.66666667 C61.39,1.66666667 73.3333333,13.61 73.3333333,28.3333333 C73.3333333,38.08 68.1066667,46.6 60.3066667,51.2566667" id="Shape"></path>
                </g>
            </g>
            <g id="invisible_shape">
                <rect id="Rectangle-path" x="0" y="0" width="80" height="80"></rect>
            </g>
        </g>
    </g>
</svg>