<?xml version="1.0" encoding="utf-8"?>
<!-- Generator: Adobe Illustrator 16.0.3, SVG Export Plug-In . SVG Version: 6.00 Build 0)  -->
<!DOCTYPE svg PUBLIC "-//W3C//DTD SVG 1.1//EN" "http://www.w3.org/Graphics/SVG/1.1/DTD/svg11.dtd">
<svg version="1.1" xmlns="http://www.w3.org/2000/svg" xmlns:xlink="http://www.w3.org/1999/xlink" x="0px" y="0px" width="24px"
	 height="24px" viewBox="0 0 24 24" enable-background="new 0 0 24 24" xml:space="preserve">
<g id="Outline_Icons_1_">
	<g id="Outline_Icons">
		<g>
			<polyline fill="none" stroke="#000000" stroke-linecap="round" stroke-linejoin="round" stroke-miterlimit="10" points="12,16.5 
				0.5,16.5 0.5,0.5 23.5,0.5 23.5,9 			"/>
			<polyline fill="none" stroke="#000000" stroke-linejoin="round" stroke-miterlimit="10" points="21.5,17 21.5,23.5 18.5,21 
				15.5,23.5 15.5,17 			"/>
			
				<circle fill="none" stroke="#000000" stroke-linecap="round" stroke-linejoin="round" stroke-miterlimit="10" cx="18.5" cy="14" r="1.5"/>
			<path fill="none" stroke="#000000" stroke-linecap="round" stroke-linejoin="round" stroke-miterlimit="10" d="M22.221,14
				c0.502-0.625,0.602-1.514,0.177-2.25c-0.425-0.735-1.246-1.095-2.037-0.973C20.07,10.031,19.349,9.5,18.5,9.5
				c-0.85,0-1.57,0.531-1.86,1.278c-0.792-0.122-1.612,0.236-2.036,0.972c-0.425,0.736-0.325,1.626,0.176,2.25
				c-0.501,0.625-0.601,1.515-0.176,2.25c0.424,0.736,1.245,1.095,2.037,0.973c0.29,0.746,1.011,1.277,1.859,1.277
				c0.85,0,1.57-0.531,1.861-1.278c0.791,0.122,1.611-0.236,2.036-0.972C22.822,15.515,22.723,14.624,22.221,14z"/>
			<path fill="none" stroke="#000000" stroke-linecap="round" stroke-linejoin="round" stroke-miterlimit="10" d="M21.5,8V5.5
				c-1.657,0-3-1.343-3-3h-13c0,1.657-1.344,3-3,3v6c1.656,0,3,1.343,3,3H12"/>
		</g>
	</g>
	<g id="New_icons_1_">
	</g>
</g>
<g id="Invisible_Shape">
	<rect fill="none" width="24" height="24"/>
</g>
</svg>
