<svg xmlns="http://www.w3.org/2000/svg" xmlns:xlink="http://www.w3.org/1999/xlink" version="1.1" x="0px" y="0px" viewBox="0 0 100 125" enable-background="new 0 0 100 100" xml:space="preserve"><g><path d="M28.5,64.2c-3.8,0-6.8,3.1-6.8,6.8c0,3.8,3.1,6.8,6.8,6.8s6.8-3.1,6.8-6.8C35.3,67.2,32.3,64.2,28.5,64.2z M28.5,76.5   c-3,0-5.5-2.5-5.5-5.5c0-3,2.5-5.5,5.5-5.5S34,68,34,71C34,74,31.5,76.5,28.5,76.5z"/><path d="M73.8,64.2c-3.8,0-6.8,3.1-6.8,6.8c0,3.8,3.1,6.8,6.8,6.8c3.8,0,6.8-3.1,6.8-6.8C80.7,67.2,77.6,64.2,73.8,64.2z    M73.8,76.5c-3,0-5.5-2.5-5.5-5.5c0-3,2.5-5.5,5.5-5.5c3,0,5.5,2.5,5.5,5.5C79.4,74,76.9,76.5,73.8,76.5z"/><path d="M88.5,45.8L75.9,32.4c-0.7-0.7-1.7-1.2-2.7-1.2H62.5c-2,0-3.6,1.6-3.6,3.6v23.8H19.2c-1.6,0-2.8,1.3-2.8,2.8v3.2   c0,1.6,1.3,2.8,2.8,2.8h1.7c0.4,0,0.7-0.3,0.7-0.7s-0.3-0.7-0.7-0.7h-1.7c-0.8,0-1.5-0.7-1.5-1.5v-3.2c0-0.8,0.7-1.5,1.5-1.5h39.7   v3.9c0,0.9,0.3,1.7,0.9,2.3H36.6c-0.4,0-0.7,0.3-0.7,0.7s0.3,0.7,0.7,0.7h29.1c0.4,0,0.7-0.3,0.7-0.7s-0.3-0.7-0.7-0.7h-3.1   c-1.3,0-2.3-1.1-2.3-2.3v-29c0-1.3,1.1-2.3,2.3-2.3h10.7c0.6,0,1.3,0.3,1.7,0.7l4.1,4.4h-9.9c-1.6,0-2.8,1.3-2.8,2.8v13   c0,1.6,1.3,2.8,2.8,2.8h19v7.6c0,1.3-1.1,2.3-2.3,2.3h-3.9c-0.4,0-0.7,0.3-0.7,0.7s0.3,0.7,0.7,0.7h3.9c2,0,3.6-1.6,3.6-3.6V48.3   C89.5,47.4,89.1,46.5,88.5,45.8z M69.1,54.9c-0.8,0-1.5-0.7-1.5-1.5v-13c0-0.8,0.7-1.5,1.5-1.5h11.1l7.3,7.8c0.4,0.4,0.6,1,0.6,1.6   v6.6H69.1z"/><path d="M56.3,53.4V26.2c0-1.6-1.3-2.8-2.8-2.8H12.8c-1.6,0-2.8,1.3-2.8,2.8v27.2c0,1.6,1.3,2.8,2.8,2.8h40.6   C55,56.2,56.3,55,56.3,53.4z M11.3,53.4V26.2c0-0.8,0.7-1.5,1.5-1.5h40.6c0.8,0,1.5,0.7,1.5,1.5v27.2c0,0.8-0.7,1.5-1.5,1.5H12.8   C12,54.9,11.3,54.2,11.3,53.4z"/><path d="M24.1,34h-5.3c-0.4,0-0.7,0.3-0.7,0.7v10.4c0,0.4,0.3,0.7,0.7,0.7c0.4,0,0.7-0.3,0.7-0.7v-4.6h3.4c0.4,0,0.7-0.3,0.7-0.7   s-0.3-0.7-0.7-0.7h-3.4v-3.9h4.7c0.4,0,0.7-0.3,0.7-0.7C24.8,34.3,24.5,34,24.1,34z"/><path d="M32.5,37.3c0-1.7-1.4-3.1-3.1-3.2c0,0-0.1,0-0.1,0h-2.7c-0.4,0-0.7,0.3-0.7,0.7v10.4c0,0.4,0.3,0.7,0.7,0.7   c0.4,0,0.7-0.3,0.7-0.7v-4.6l1.2,0l2.6,4.9c0.1,0.2,0.3,0.3,0.6,0.3c0.1,0,0.2,0,0.3-0.1c0.3-0.2,0.4-0.6,0.3-0.9L30,40.4   C31.4,40.1,32.5,38.8,32.5,37.3z M29.3,39.2l-1.9,0v-3.9h1.9c1.1,0,1.9,0.9,1.9,1.9S30.4,39.2,29.3,39.2z"/><path d="M39.9,34h-5.3c-0.4,0-0.7,0.3-0.7,0.7v10.4c0,0.4,0.3,0.7,0.7,0.7h5c0.4,0,0.7-0.3,0.7-0.7s-0.3-0.7-0.7-0.7h-4.3v-3.9h3.4   c0.4,0,0.7-0.3,0.7-0.7s-0.3-0.7-0.7-0.7h-3.4v-3.9h4.7c0.4,0,0.7-0.3,0.7-0.7C40.6,34.3,40.3,34,39.9,34z"/><path d="M47.6,34h-5.3c-0.4,0-0.7,0.3-0.7,0.7v10.4c0,0.4,0.3,0.7,0.7,0.7h5c0.4,0,0.7-0.3,0.7-0.7s-0.3-0.7-0.7-0.7H43v-3.9h3.4   c0.4,0,0.7-0.3,0.7-0.7s-0.3-0.7-0.7-0.7H43v-3.9h4.7c0.4,0,0.7-0.3,0.7-0.7C48.3,34.3,48,34,47.6,34z"/></g><text x="0" y="115" fill="#000000" font-size="5px" font-weight="bold" font-family="'Helvetica Neue', Helvetica, Arial-Unicode, Arial, Sans-serif">Created by Anton Scherbik</text><text x="0" y="120" fill="#000000" font-size="5px" font-weight="bold" font-family="'Helvetica Neue', Helvetica, Arial-Unicode, Arial, Sans-serif">from the Noun Project</text></svg>