<svg xmlns="http://www.w3.org/2000/svg" xmlns:xlink="http://www.w3.org/1999/xlink" version="1.1" x="0px" y="0px" viewBox="0 0 100 125" enable-background="new 0 0 100 100" xml:space="preserve"><path fill="#000000" d="M58.586,14c-1.415,0-2.967,1.595-3.005,4.328c-0.054,3.748,1.19,4.754,1.224,5.089  c3.086,1.14,3.918,2.112,4.196,3.152c-1.311-0.65-2.765-1.186-4.261-1.54c-0.479-0.105-1.957-0.409-3.074-0.409  c-12.288,0-17.17,12.284-17.17,12.284c-0.644,2.277-0.812,4.078-0.693,7.591c0.164,4.815,3.443,14.891,4.002,16.904  c0.558,2.013-0.224,6.596-0.67,13.527c-0.447,6.931,5.254,12.632,11.178,10.731c5.926-1.9,5.777-6.741,5.144-10.397  c-0.479-2.755-4.26-11.256-5.041-13.604c-0.782-2.347-0.125-8.896,1.871-12.129c2.501-4.054,9.444-5.713,11.329-10.932  c1.452-4.026-1.341-10.062-1.341-11.403c0-1.342,1.675-2.867,2.125-4.919C65.001,19.51,64.865,14,58.586,14"/><path fill="#000000" d="M53.548,16.461c-1.062-2.876-6.157-2.355-4.789,2.171c0,0,1.323,3.919,3.853,2.043  C54.37,19.373,53.548,16.461,53.548,16.461"/><path fill="#000000" d="M47.535,19.767c-1.011-2.509-5.49-1.917-4.166,2.04c0,0,1.268,3.421,3.451,1.701  C48.337,22.311,47.535,19.767,47.535,19.767"/><path fill="#000000" d="M42.314,23.033c-0.961-2.143-4.824-1.48-3.544,1.905c0,0,1.213,2.926,3.05,1.361  C43.095,25.213,42.314,23.033,42.314,23.033"/><path fill="#000000" d="M38.441,26.972c-0.911-1.775-4.159-1.042-2.922,1.774c0,0,1.158,2.427,2.647,1.019  C39.199,28.786,38.441,26.972,38.441,26.972"/><text x="0" y="115" fill="#000000" font-size="5px" font-weight="bold" font-family="'Helvetica Neue', Helvetica, Arial-Unicode, Arial, Sans-serif">Created by Benjamin Brandt</text><text x="0" y="120" fill="#000000" font-size="5px" font-weight="bold" font-family="'Helvetica Neue', Helvetica, Arial-Unicode, Arial, Sans-serif">from the Noun Project</text></svg>