<svg xmlns="http://www.w3.org/2000/svg" xmlns:xlink="http://www.w3.org/1999/xlink" version="1.1" x="0px" y="0px" viewBox="0 0 100 125" enable-background="new 0 0 100 100" xml:space="preserve"><g><path d="M50.196,60.157c-0.405,0-0.733-0.328-0.733-0.731v-0.61c0-0.406,0.328-0.733,0.733-0.733c0.404,0,0.732,0.327,0.732,0.733   v0.61C50.928,59.829,50.6,60.157,50.196,60.157z"/><path d="M50.196,68.242c-0.405,0-0.733-0.329-0.733-0.733v-1.347c0-0.404,0.328-0.732,0.733-0.732c0.404,0,0.732,0.328,0.732,0.732   v1.347C50.928,67.913,50.6,68.242,50.196,68.242z M50.196,64.2c-0.405,0-0.733-0.328-0.733-0.732V62.12   c0-0.404,0.328-0.732,0.733-0.732c0.404,0,0.732,0.328,0.732,0.732v1.348C50.928,63.872,50.6,64.2,50.196,64.2z"/><path d="M50.196,71.547c-0.405,0-0.733-0.328-0.733-0.731v-0.611c0-0.404,0.328-0.731,0.733-0.731c0.404,0,0.732,0.327,0.732,0.731   v0.611C50.928,71.219,50.6,71.547,50.196,71.547z"/></g><g><path d="M31.966,54.327c-0.101,0-0.204-0.021-0.301-0.063c-0.368-0.166-0.533-0.601-0.367-0.969l0.25-0.556   c0.166-0.369,0.599-0.534,0.968-0.368c0.368,0.166,0.533,0.6,0.367,0.968l-0.25,0.557C32.512,54.166,32.245,54.327,31.966,54.327z"/><path d="M29.062,60.784c-0.101,0-0.203-0.021-0.3-0.064c-0.369-0.167-0.534-0.599-0.368-0.968l0.484-1.076   c0.166-0.369,0.599-0.534,0.968-0.368c0.369,0.166,0.533,0.6,0.367,0.969l-0.484,1.075C29.607,60.624,29.341,60.784,29.062,60.784z    M30.513,57.556c-0.1,0-0.202-0.021-0.299-0.064c-0.369-0.165-0.534-0.599-0.368-0.968l0.484-1.076   c0.166-0.369,0.6-0.534,0.968-0.367c0.369,0.166,0.533,0.6,0.367,0.969l-0.483,1.075C31.06,57.396,30.792,57.556,30.513,57.556z"/><path d="M27.844,63.493c-0.101,0-0.203-0.021-0.3-0.065c-0.369-0.165-0.534-0.599-0.368-0.966l0.25-0.558   c0.166-0.37,0.6-0.534,0.969-0.369c0.369,0.167,0.534,0.601,0.368,0.97l-0.25,0.557C28.39,63.332,28.123,63.493,27.844,63.493z"/></g><g><path d="M68.69,54.164c-0.28,0-0.547-0.16-0.669-0.43l-0.25-0.559c-0.166-0.368-0.001-0.802,0.367-0.968   c0.368-0.165,0.803-0.001,0.968,0.368l0.251,0.555c0.166,0.37,0.001,0.805-0.368,0.97C68.893,54.145,68.79,54.164,68.69,54.164z"/><path d="M71.594,60.621c-0.28,0-0.547-0.159-0.669-0.431l-0.482-1.077c-0.166-0.369-0.002-0.802,0.366-0.968   c0.37-0.165,0.803-0.001,0.969,0.368l0.484,1.075c0.166,0.37,0.001,0.803-0.368,0.969C71.795,60.601,71.694,60.621,71.594,60.621z    M70.142,57.394c-0.279,0-0.545-0.161-0.668-0.433l-0.484-1.074c-0.166-0.37-0.001-0.804,0.368-0.97s0.801-0.001,0.968,0.367   l0.483,1.076c0.167,0.37,0.001,0.802-0.366,0.969C70.345,57.372,70.242,57.394,70.142,57.394z"/><path d="M72.813,63.331c-0.279,0-0.546-0.161-0.669-0.433l-0.25-0.557c-0.166-0.368-0.001-0.802,0.368-0.967   c0.367-0.166,0.802-0.002,0.967,0.365l0.251,0.559c0.166,0.368,0.001,0.801-0.367,0.967C73.015,63.311,72.913,63.331,72.813,63.331   z"/></g><path d="M96.777,72.682L85.75,56.33c-0.088-0.13-0.215-0.227-0.362-0.279l-17.374-6.184c-0.159-0.056-0.334-0.056-0.491,0  l-3.656,1.301c0.06-0.104,0.119-0.209,0.181-0.315c0.462-0.794,1.142-1.732,1.927-2.817c2.317-3.194,5.487-7.569,5.487-12.057  v-0.542c0-6.832-5.613-12.604-12.258-12.604h-0.336c-6.645,0-12.258,5.772-12.258,12.604v0.542c0,4.488,3.171,8.863,5.488,12.057  c0.786,1.084,1.465,2.022,1.927,2.817c0.705,1.213,1.257,2.289,1.687,3.217l-5.443,1.938h-0.112l-17.255-6.141  c-0.159-0.056-0.332-0.056-0.491,0l-17.375,6.184c-0.147,0.053-0.275,0.149-0.361,0.279L3.644,72.682  c-0.177,0.264-0.166,0.609,0.028,0.859c0.194,0.25,0.526,0.347,0.824,0.24l22.615-8.047l22.615,8.047  c0.079,0.029,0.161,0.043,0.246,0.043h0.478c0.083,0,0.167-0.014,0.245-0.043l22.616-8.047l22.615,8.047  c0.078,0.03,0.162,0.043,0.244,0.043c0.222,0,0.437-0.103,0.578-0.283C96.942,73.291,96.953,72.945,96.777,72.682z M53.28,47.177  c-2.319-3.202-5.208-7.185-5.208-11.198v-0.542c0-6.038,4.944-11.141,10.794-11.141h0.336c5.851,0,10.794,5.103,10.794,11.141v0.542  c0,4.013-2.887,7.997-5.208,11.198c-0.81,1.116-1.509,2.081-2.008,2.939c-2.821,4.85-3.302,7.616-3.349,7.929  c-0.016,0.075-0.13,0.572-0.396,0.572c-0.24,0-0.349-0.307-0.397-0.567c-0.043-0.287-0.511-3.057-3.349-7.934  C54.791,49.258,54.093,48.293,53.28,47.177z M73.555,64.267c-0.158-0.057-0.331-0.057-0.489,0l-22.742,8.095h-0.225l-22.742-8.095  c-0.158-0.057-0.332-0.057-0.49,0l-20.764,7.39l9.649-14.307l16.903-6.016l17.129,6.097c0.079,0.027,0.162,0.043,0.246,0.043h0.364  c0.083,0,0.166-0.016,0.246-0.043l5.657-2.015c0.744,1.848,0.894,2.835,0.896,2.851c0.001,0.01,0.003,0.02,0.005,0.032  c0.198,1.1,0.903,1.781,1.841,1.781c0.917,0,1.639-0.697,1.839-1.778c0.002-0.011,0.004-0.023,0.005-0.033  c0.003-0.022,0.278-1.841,1.953-5.178l4.936-1.757l16.902,6.016l9.646,14.307L73.555,64.267z"/><path d="M64.405,35.386c0-2.961-2.41-5.369-5.369-5.369c-2.962,0-5.37,2.408-5.37,5.369c0,2.96,2.408,5.369,5.37,5.369  C61.995,40.755,64.405,38.346,64.405,35.386z M55.131,35.386c0-2.153,1.752-3.905,3.905-3.905c2.152,0,3.903,1.751,3.903,3.905  c0,2.153-1.751,3.904-3.903,3.904C56.883,39.29,55.131,37.539,55.131,35.386z"/><text x="0" y="115" fill="#000000" font-size="5px" font-weight="bold" font-family="'Helvetica Neue', Helvetica, Arial-Unicode, Arial, Sans-serif">Created by Fernando A.</text><text x="0" y="120" fill="#000000" font-size="5px" font-weight="bold" font-family="'Helvetica Neue', Helvetica, Arial-Unicode, Arial, Sans-serif">from the Noun Project</text></svg>