<svg xmlns="http://www.w3.org/2000/svg" xmlns:xlink="http://www.w3.org/1999/xlink" version="1.1" x="0px" y="0px" viewBox="0 0 100 125" enable-background="new 0 0 100 100" xml:space="preserve"><path d="M83.8,28.1C83.8,28.1,83.8,28,83.8,28.1c0-0.1,0-0.1-0.1-0.2c0,0,0,0,0,0c0,0-0.1-0.1-0.1-0.1c0,0,0,0,0,0  c0,0-0.1-0.1-0.1-0.1c0,0,0,0,0,0L50.2,11c-0.2-0.1-0.4-0.1-0.6,0l-18.7,9.4c-0.2,0-0.4,0.1-0.5,0.3l-14,7c0,0,0,0,0,0  c0,0-0.1,0-0.1,0.1c0,0,0,0,0,0c0,0-0.1,0.1-0.1,0.1c0,0,0,0,0,0c0,0,0,0.1-0.1,0.1c0,0,0,0,0,0c0,0.1,0,0.1,0,0.2v43.3  c0,0.3,0.1,0.5,0.4,0.6L49.6,89c0,0,0,0,0,0c0,0,0.1,0,0.1,0c0,0,0,0,0,0c0,0,0.1,0,0.1,0s0.1,0,0.1,0c0,0,0,0,0,0c0,0,0.1,0,0.1,0  c0,0,0,0,0,0l33.3-16.9c0.2-0.1,0.4-0.3,0.4-0.6V28.2C83.9,28.2,83.9,28.1,83.8,28.1z M49.9,12.3l31.8,15.9l-10.8,5.4L39.1,17.8  L49.9,12.3z M64,36.8L32.5,21.1l5.1-2.6l31.8,15.9L64.2,37C64.2,36.9,64.1,36.9,64,36.8z M64.4,38.4l5.5-2.8v15.1l-5.5,3V38.4z   M31,21.8l31.8,15.9l-12.9,6.4L18.1,28.2L31,21.8z M17.3,29.3l32,16v42l-32-16.2V29.3z M50.6,87.3v-42l12.5-6.2v15.8  c0,0.2,0.1,0.5,0.3,0.6c0.1,0.1,0.2,0.1,0.3,0.1c0.1,0,0.2,0,0.3-0.1l6.9-3.7c0.2-0.1,0.3-0.3,0.3-0.6V35l11.3-5.6v41.8L50.6,87.3z"/><text x="0" y="115" fill="#000000" font-size="5px" font-weight="bold" font-family="'Helvetica Neue', Helvetica, Arial-Unicode, Arial, Sans-serif">Created by Anton Scherbik</text><text x="0" y="120" fill="#000000" font-size="5px" font-weight="bold" font-family="'Helvetica Neue', Helvetica, Arial-Unicode, Arial, Sans-serif">from the Noun Project</text></svg>