<svg xmlns="http://www.w3.org/2000/svg" xmlns:xlink="http://www.w3.org/1999/xlink" version="1.1" x="0px" y="0px" viewBox="0 0 100 125" enable-background="new 0 0 100 100" xml:space="preserve"><g><path d="M27.6,53.5c-0.4,0-0.6,0.3-0.6,0.6v4.7c0,4.3,3.5,7.8,7.8,7.8c4.3,0,7.8-3.5,7.8-7.8v-4.7c0-0.4-0.3-0.6-0.6-0.6   c-0.4,0-0.6,0.3-0.6,0.6v4.7c0,3.6-2.9,6.5-6.5,6.5c-3.6,0-6.5-2.9-6.5-6.5v-4.7C28.3,53.8,28,53.5,27.6,53.5z"/><path d="M66.8,35.4c0-0.4-0.3-0.6-0.6-0.6c-0.4,0-0.6,0.3-0.6,0.6v4.8c0,0.8-0.2,1.5-0.4,2.1L63,38.6c-0.2-0.3-0.5-0.4-0.8-0.3   l-8.9,3.2c-0.2,0.1-0.3,0.2-0.4,0.4l-6.8,18.6c-0.1,0.2-0.1,0.3,0,0.5c0.1,0.2,0.2,0.3,0.4,0.3l13.5,5c0.1,0,0.1,0,0.2,0   c0.3,0,0.5-0.2,0.6-0.4l6.8-18.6c0.1-0.2,0-0.4,0-0.5l-1.8-3.2c0.6-1,1-2.2,1-3.5V35.4z M66.4,47.2L59.9,65l-12.3-4.5l6.5-17.7   l8.1-3l2.2,3.8c-0.4,0.5-0.9,1-1.5,1.3c-0.4-0.8-1-1.4-1.9-1.7c-0.4-0.1-0.7-0.2-1.1-0.2c-1.4,0-2.6,0.9-3.1,2.2   c-0.6,1.7,0.3,3.6,2,4.2c0.4,0.1,0.7,0.2,1.1,0.2c1.4,0,2.6-0.9,3.1-2.2c0.1-0.4,0.2-0.8,0.2-1.2c0.7-0.4,1.4-0.8,1.9-1.4   L66.4,47.2z M59.6,46.8c0.2,0,0.3,0,0.5,0c0.6,0,1.1-0.1,1.6-0.2c0,0.1,0,0.2-0.1,0.2c-0.3,0.8-1,1.3-1.9,1.3c-0.2,0-0.5,0-0.7-0.1   c-1-0.4-1.6-1.5-1.2-2.6c0.3-0.8,1-1.3,1.9-1.3c0.2,0,0.5,0,0.7,0.1c0.5,0.2,0.9,0.6,1.1,1c-0.5,0.1-1,0.2-1.5,0.2   c-0.1,0-0.3,0-0.4,0c-0.4,0-0.7,0.2-0.7,0.6C59,46.5,59.3,46.8,59.6,46.8z"/><path d="M78.9,27.5c0-0.3-0.3-0.6-0.6-0.6H66.8v-4.6c0-7-5.7-12.7-12.7-12.7s-12.7,5.7-12.7,12.7v4.6H29.8c-0.3,0-0.6,0.3-0.6,0.6   l-1.1,19.2c0,0.4,0.3,0.7,0.6,0.7c0.4,0,0.7-0.3,0.7-0.6l1-18.6h10.9v2.1c0,0.4,0.3,0.6,0.6,0.6c0.4,0,0.6-0.3,0.6-0.6v-2.1h22.9   v2.1c0,0.4,0.3,0.6,0.6,0.6c0.4,0,0.6-0.3,0.6-0.6v-2.1h10.8l4,56.2H57.9c-0.4,0-0.6,0.3-0.6,0.6c0,0.4,0.3,0.6,0.6,0.6h24.5   c0.2,0,0.4-0.1,0.5-0.2c0.1-0.1,0.2-0.3,0.2-0.5L78.9,27.5z M42.6,26.9v-4.6c0-6.3,5.1-11.4,11.4-11.4S65.5,16,65.5,22.4v4.6H42.6z   "/><path d="M52.7,68.8c-0.4,0-0.6,0.3-0.6,0.7l1.3,19.1H18.3l2.2-38.2h23.8c0.4,0,0.6-0.3,0.6-0.6c0-0.4-0.3-0.6-0.6-0.6H19.9   c-0.3,0-0.6,0.3-0.6,0.6L17,89.2c0,0.2,0.1,0.4,0.2,0.5c0.1,0.1,0.3,0.2,0.5,0.2h36.5c0.2,0,0.4-0.1,0.5-0.2   c0.1-0.1,0.2-0.3,0.2-0.5l-1.4-19.8C53.4,69.1,53.1,68.8,52.7,68.8z"/></g><text x="0" y="115" fill="#000000" font-size="5px" font-weight="bold" font-family="'Helvetica Neue', Helvetica, Arial-Unicode, Arial, Sans-serif">Created by Anton Scherbik</text><text x="0" y="120" fill="#000000" font-size="5px" font-weight="bold" font-family="'Helvetica Neue', Helvetica, Arial-Unicode, Arial, Sans-serif">from the Noun Project</text></svg>