<svg xmlns="http://www.w3.org/2000/svg" xmlns:xlink="http://www.w3.org/1999/xlink" version="1.1" x="0px" y="0px" viewBox="0 0 100 125" enable-background="new 0 0 100 100" xml:space="preserve"><g><path d="M78.6,23h-1.7c-0.7-0.9-1.7-1.5-2.9-1.8l-41.2-11c-3.1-0.8-6.2,1-7.1,4.1L23.4,23h-5.5l0,0h-0.1c-3,0-5.5,2.5-5.5,5.5v47.7   c0,3.1,2.4,5.5,6.3,6.5l41.8,7.2l0.1,0c3.6,0,6.5-2.9,6.5-6.5V73.2h11.5c3.6,0,6.5-2.9,6.5-6.5V39.8V29.5v0   C85,25.9,82.1,23,78.6,23z M27.1,14.6c0.6-2.3,3-3.7,5.3-3.1l41.2,11c2.3,0.6,3.7,3,3.1,5.3l-2,6.9H30.7v0l-8.5-1.4L27.1,14.6z    M17.9,24.5l5.2,0l-2.3,8.7l-2.5-0.4c-0.1,0-0.2,0-0.2,0c-0.1,0-0.3-0.1-0.4-0.1c-2.3-0.3-3.9-2-3.9-4.1   C13.8,26.3,15.6,24.5,17.9,24.5z M65.6,83.5c0,2.8-2.2,5-5,5.1L19,81.4c-1.6-0.4-5.2-1.7-5.2-5.1V32.2c0.9,1,2.2,1.7,3.7,1.9   c0.1,0,0.2,0,0.3,0.1c0.1,0,0.2,0,0.3,0.1l42.4,7.1l0.1,0c2.8,0,5.1,2.3,5.1,5.1V83.5z M83.6,66.7c0,2.8-2.3,5.1-5.1,5.1H67.1V46.3   c0-1-0.3-2-0.7-2.9h12.4V42H65.4c-1.2-1.3-2.9-2.1-4.7-2.1l-21.6-3.6h39.6v-1.4h-2.5l1.8-6.6c0.3-1.3,0.2-2.6-0.3-3.8l0.8,0   c2.8,0,5.1,2.3,5.1,5.1v10.3V66.7z"/><path d="M54.2,56.4c-0.2,0-0.4,0-0.6,0c-2.8,0.4-4.7,3.5-4.3,7c0.4,3.3,2.7,5.7,5.3,5.7c0.2,0,0.4,0,0.6,0c2.8-0.4,4.7-3.5,4.3-7   C59.2,58.8,56.9,56.4,54.2,56.4z M55,67.6c-0.1,0-0.2,0-0.4,0c-1.9,0-3.6-2-3.9-4.4c-0.3-2.7,1.1-5.1,3.1-5.4c0.1,0,0.2,0,0.4,0   c1.9,0,3.6,2,3.9,4.4C58.4,64.9,57.1,67.4,55,67.6z"/></g><text x="0" y="115" fill="#000000" font-size="5px" font-weight="bold" font-family="'Helvetica Neue', Helvetica, Arial-Unicode, Arial, Sans-serif">Created by Anton Scherbik</text><text x="0" y="120" fill="#000000" font-size="5px" font-weight="bold" font-family="'Helvetica Neue', Helvetica, Arial-Unicode, Arial, Sans-serif">from the Noun Project</text></svg>